<svg xmlns="http://www.w3.org/2000/svg" width="24" height="24"><defs><clipPath id="a"><path fill="none" d="M0 0h24v24H0z"/></clipPath></defs><g clip-path="url(#a)" stroke-width="2" stroke="#343a40" stroke-linecap="round" stroke-linejoin="round" fill="none"><circle data-name="Elipse 341" cx="3" cy="3" r="3" transform="translate(9 9)"/><path data-name="Trazado 445" d="M19.4 15a1.65 1.65 0 00.33 1.82l.06.06a2 2 0 11-2.83 2.83l-.06-.06a1.663 1.663 0 00-2.82 1.18V21a2 2 0 01-4 0v-.09A1.65 1.65 0 009 19.4a1.65 1.65 0 00-1.82.33l-.06.06a2 2 0 11-2.83-2.83l.06-.06a1.663 1.663 0 00-1.18-2.82H3a2 2 0 110-4h.09A1.65 1.65 0 004.6 9a1.65 1.65 0 00-.33-1.82l-.06-.06a2 2 0 112.83-2.83l.06.06a1.65 1.65 0 001.82.33H9a1.65 1.65 0 001-1.51V3a2 2 0 014 0v.09a1.663 1.663 0 002.82 1.18l.06-.06a2 2 0 112.83 2.83l-.06.06a1.65 1.65 0 00-.33 1.82V9a1.65 1.65 0 001.51 1H21a2 2 0 010 4h-.09a1.65 1.65 0 00-1.51 1z"/></g></svg>