<svg xmlns="http://www.w3.org/2000/svg" width="64" height="64" viewBox="-22 -22 64 64"><path fill="#343A40" d="M-12.397 42H.4a3.2 3.2 0 003.2-3.199c0-1.766-1.436-3.2-3.2-3.2h-12.798a3.204 3.204 0 01-3.202-3.2V-12.4a3.203 3.203 0 013.202-3.199H.4A3.201 3.201 0 00.4-22h-12.798C-17.692-22-22-17.693-22-12.4v44.8c0 5.293 4.308 9.6 9.603 9.6zM22.798-9.2c-.818 0-1.637.312-2.264.938a3.194 3.194 0 000 4.521L34.27 9.999 20.534 23.737a3.198 3.198 0 000 4.524 3.197 3.197 0 004.525 0l16.001-16a3.193 3.193 0 000-4.523l-16.001-16a3.178 3.178 0 00-2.261-.938z"/><path fill="#343A40" d="M38.798 6.801H.398a3.198 3.198 0 100 6.398h38.399a3.198 3.198 0 003.197-3.2 3.195 3.195 0 00-3.196-3.198z"/></svg>