<svg xmlns="http://www.w3.org/2000/svg" width="27.876" height="24.696"><g fill="#343a40"><path data-name="Trazado 1882" d="M7.288 7.102a7.1 7.1 0 107.1-7.1 7.1 7.1 0 00-7.1 7.1z"/><path data-name="Trazado 1883" d="M25.789 17.591l-.012.006-4.569 2.156a3.531 3.531 0 01.064.768.492.492 0 01-.492.479h-.014l-6.687-.184a.492.492 0 01.027-.984l6.147.169a2.538 2.538 0 00-2.427-2.109l-4.068-.112a5.356 5.356 0 01-2.3-.6l-.414-.214a6.253 6.253 0 00-6.383.36l-.168 5.927.7-.374a3.04 3.04 0 012.267-.248l6.9 1.938a6.448 6.448 0 003.951-.442l9.564-6.186a1.789 1.789 0 00-2.088-.346zm0 0"/><path data-name="Trazado 1884" d="M0 24.277l.243-8.8 3.477.1-.243 8.8zm0 0"/></g></svg>