<svg xmlns="http://www.w3.org/2000/svg" width="30.231" height="18.204"><g data-name="Grupo 945"><g data-name="Grupo 944"><path data-name="Trazado 1888" d="M27.956 0H2.275A2.278 2.278 0 000 2.276v13.653a2.278 2.278 0 002.275 2.275h25.68a2.278 2.278 0 002.275-2.275V2.276A2.278 2.278 0 0027.956 0zm.325 15.928a.329.329 0 01-.325.325H2.275a.329.329 0 01-.325-.325V2.276a.329.329 0 01.325-.325h25.68a.329.329 0 01.325.325z" fill="#343a40"/></g></g><g data-name="Grupo 947"><g data-name="Grupo 946"><path data-name="Trazado 1889" d="M3.446.654v1.463a1.286 1.286 0 01-1.3 1.3H.716v1.95h1.43a3.254 3.254 0 003.251-3.251V.654z" fill="#343a40"/></g></g><g data-name="Grupo 949"><g data-name="Grupo 948"><path data-name="Trazado 1890" d="M28.118 3.413a1.286 1.286 0 01-1.3-1.3V.654H24.87v1.463a3.254 3.254 0 003.251 3.251h1.463v-1.95z" fill="#343a40"/></g></g><g data-name="Grupo 951"><g data-name="Grupo 950"><path data-name="Trazado 1891" d="M2.179 12.84H.715v1.95h1.464a1.286 1.286 0 011.3 1.3v1.463h1.95V16.09a3.254 3.254 0 00-3.25-3.25z" fill="#343a40"/></g></g><g data-name="Grupo 953"><g data-name="Grupo 952"><path data-name="Trazado 1892" d="M28.119 12.84a3.254 3.254 0 00-3.251 3.251v1.463h1.95v-1.463a1.286 1.286 0 011.3-1.3h1.463v-1.95z" fill="#343a40"/></g></g><g data-name="Grupo 955"><g data-name="Grupo 954"><path data-name="Trazado 1893" d="M19.154 5.226a5.486 5.486 0 101.6 3.875 5.441 5.441 0 00-1.6-3.875zm-1.381 6.372a3.537 3.537 0 111.031-2.5 3.506 3.506 0 01-1.031 2.5z" fill="#343a40"/></g></g></svg>