<svg xmlns="http://www.w3.org/2000/svg" width="22.977" height="18.159"><g data-name="Grupo 728"><path data-name="Trazado 1764" d="M21.953 2.046H10.806l-4.376 15.4a1.024 1.024 0 01-.939.71h-.035a1.024 1.024 0 01-.95-.643l-1.789-4.472H1.023a1.023 1.023 0 010-2.046H3.41a1.024 1.024 0 01.95.643l.991 2.478L9.086.707a1.023 1.023 0 01.974-.71h11.893a1.023 1.023 0 110 2.046zm.551 13.747l-4.033-4.53 3.843-4.266a.256.256 0 00-.19-.427h-2.43a.257.257 0 00-.194.089L16.92 9.65l-2.56-2.99a.255.255 0 00-.194-.09h-2.542a.256.256 0 00-.191.426l3.8 4.267-4 4.531a.255.255 0 00.191.425h2.52a.254.254 0 00.2-.092l2.67-3.2 2.734 3.207a.256.256 0 00.195.09h2.575a.256.256 0 00.19-.426z" fill="#343a40"/></g></svg>