<svg xmlns="http://www.w3.org/2000/svg" width="22.043" height="22"><g data-name="Grupo 365"><g data-name="Grupo 364" fill="#343a40"><path data-name="Trazado 1164" d="M22.042 10.869v-.016a.873.873 0 00-.841-.9c-.219-.008-5.4-.164-8.431 2.865a5.2 5.2 0 00-1.731 3.732 5.013 5.013 0 00.508 2.1 22.026 22.026 0 00-1.422 2.011.873.873 0 101.479.929 17.035 17.035 0 015.817-5.824.873.873 0 10-.886-1.505 17.6 17.6 0 00-3.673 2.9 2.8 2.8 0 01-.077-.621 3.5 3.5 0 011.219-2.486c1.83-1.829 4.807-2.242 6.268-2.332-.087 1.458-.5 4.43-2.334 6.267a3.875 3.875 0 01-2.026 1.181.873.873 0 10.3 1.721 5.563 5.563 0 002.966-1.667c2.864-2.869 2.877-7.668 2.864-8.355z"/><path data-name="Trazado 1165" d="M8.886 15.373c-.515.037-1.02.087-1.511.15a17.7 17.7 0 01-.525-3.6h4.173a.864.864 0 00.855-.742.861.861 0 00.053-.3V6.772c.97-.027 1.917-.1 2.818-.214a16.38 16.38 0 01.415 2.189.864.864 0 001.716-.209 18.3 18.3 0 00-.418-2.26 16.827 16.827 0 002.268-.613 9.319 9.319 0 011.22 2.391.865.865 0 001.637-.559 11.062 11.062 0 00-10.478-7.5h-.043A11.063 11.063 0 007.6 21.569a.885.885 0 00.276.043.906.906 0 00.753-.405 3.459 3.459 0 00.368-.812 1.285 1.285 0 00-.009-1.292 8.178 8.178 0 01-1.06-1.9q.532-.06 1.086-.1a.864.864 0 10-.123-1.724zm8.608-11.124c-.48.141-1 .266-1.548.372a11.188 11.188 0 00-.974-2l-.051-.079a9.349 9.349 0 012.573 1.707zm-5.564-2.3a5.615 5.615 0 012.26 2.939c-.725.081-1.483.135-2.26.157zM8.23 4.24a4.983 4.983 0 011.97-2.291v3.094a27.516 27.516 0 01-2.264-.158q.14-.335.296-.647zm1.97 2.532v3.425H6.848a17.418 17.418 0 01.53-3.64c.902.115 1.851.188 2.822.215zm-3.012-4.2a9.988 9.988 0 00-.5.893 12.327 12.327 0 00-.5 1.156c-.533-.1-1.037-.223-1.505-.359a9.372 9.372 0 012.506-1.691zM3.442 5.679a16.916 16.916 0 002.225.6 19.358 19.358 0 00-.548 3.92h-3.35a9.277 9.277 0 011.673-4.52zm-1.673 6.247h3.35a19.442 19.442 0 00.54 3.879 16.945 16.945 0 00-2.25.608 9.315 9.315 0 01-1.64-4.487zm2.863 5.907c.475-.14.991-.263 1.538-.369a11.162 11.162 0 001.024 2.095 9.305 9.305 0 01-2.562-1.726z"/></g></g></svg>