<svg xmlns="http://www.w3.org/2000/svg" width="64" height="64" viewBox="-22 -22 64 64"><path fill="#343A40" d="M32.397 42H19.6a3.2 3.2 0 01-3.2-3.199c0-1.766 1.436-3.2 3.2-3.2h12.798a3.204 3.204 0 003.202-3.2V-12.4a3.203 3.203 0 00-3.202-3.199H19.6a3.202 3.202 0 01-3.2-3.199 3.202 3.202 0 013.2-3.201h12.798C37.692-22 42-17.693 42-12.4v44.8c0 5.293-4.308 9.6-9.603 9.6z"/><path fill="#343A40" d="M3.6 29.2a3.188 3.188 0 01-2.263-.938 3.194 3.194 0 010-4.521l13.735-13.739L1.336-3.737a3.198 3.198 0 010-4.524 3.196 3.196 0 014.524 0l16.001 16a3.193 3.193 0 010 4.523l-16.001 16a3.176 3.176 0 01-2.26.938z"/><path fill="#343A40" d="M19.6 13.199h-38.4a3.199 3.199 0 110-6.398h38.4a3.198 3.198 0 013.197 3.2 3.197 3.197 0 01-3.197 3.198z"/></svg>