<svg xmlns="http://www.w3.org/2000/svg" width="64" height="64" viewBox="-16.39 -17.167 64 64"><g fill="#343A40"><path d="M46.636 12.408L20.775-13.628l-.104-.097a7.437 7.437 0 00-9.927-.022l-.103.096-26.097 26.036a2.495 2.495 0 00-.262 3.518 2.497 2.497 0 003.768.01l1.972-1.967v21.43c.005 5.48 4.447 9.92 9.927 9.928h31.277c5.479-.008 9.92-4.445 9.928-9.924a2.497 2.497 0 00-2.719-2.246 2.486 2.486 0 00-2.244 2.246 4.971 4.971 0 01-4.965 4.963H-.049a4.967 4.967 0 01-4.963-4.963V8.993l19.111-19.07a2.492 2.492 0 013.221 0l18.879 19v14.035a2.492 2.492 0 004.963 0v-9.029l1.961 1.977a2.493 2.493 0 103.52-3.5l-.007.002z"/><path d="M1.26 38.154a2.602 2.602 0 003.617-.615c.007-.01.011-.023.018-.029.022-.027 1.26-1.795 2.799-3.785a13.131 13.131 0 006.602 1.506c3.645-.08 7.1-1.652 9.553-4.352 7.203-7.24 7.264-19.305 7.23-21.107v-.029a2.596 2.596 0 00-2.49-2.696h-.025c-.545-.019-13.584-.413-21.221 7.266a13.447 13.447 0 00-4.449 9.6 13.08 13.08 0 001.429 5.646C2.386 32.008.729 34.383.617 34.516a2.59 2.59 0 00.614 3.615l.029.023zm9.786-20.158a24.028 24.028 0 0114.725-5.639 24.255 24.255 0 01-5.621 14.826 7.89 7.89 0 01-5.854 2.816 9.565 9.565 0 01-3.11-.441 88.1 88.1 0 016.77-6.002 2.605 2.605 0 10-3.246-4.074c-.168.131-3.708 2.938-6.463 5.643a6.279 6.279 0 01-.138-1.244 8.496 8.496 0 012.929-5.898l.008.013z"/></g></svg>