<svg data-name="Grupo 647" xmlns="http://www.w3.org/2000/svg" width="18.036" height="18.036"><g fill="#343a40"><path data-name="Trazado 1758" d="M9.018 18.036A9.018 9.018 0 100 9.018a9.037 9.037 0 009.018 9.018zm-5.173-2.972a6.944 6.944 0 0110.346 0 7.945 7.945 0 01-10.346 0zm-.65-6.574a5.822 5.822 0 011.333-3.214l.718.718.747-.747-.718-.718a5.822 5.822 0 013.214-1.335v1.033h1.057V3.194a5.822 5.822 0 013.214 1.334l-.718.718.747.747.718-.718a5.822 5.822 0 011.334 3.214h-1.032v1.057h1.032a5.887 5.887 0 01-1.495 3.42 8.006 8.006 0 00-8.656 0 5.886 5.886 0 01-1.495-3.42h1.032V8.489zm5.823-7.433a7.957 7.957 0 015.929 13.267 7.911 7.911 0 00-.747-.724A6.909 6.909 0 102.114 9.018 6.956 6.956 0 003.838 13.6a7.91 7.91 0 00-.749.726A7.957 7.957 0 019.018 1.057zm0 0"/><path data-name="Trazado 1759" d="M7.432 13.809h3.17v1.057h-3.17zm0 0"/><path data-name="Trazado 1760" d="M7.664 9.843a1.585 1.585 0 102.178-2.178l-.027-.017L5.84 5.841l1.807 3.975zm1.651-1.262a.529.529 0 11-.734.734l-.612-1.346zm0 0"/></g></svg>