<svg xmlns="http://www.w3.org/2000/svg" xmlns:xlink="http://www.w3.org/1999/xlink" width="187" height="39.045" viewBox="21.12 4.403 187 39.045"><path fill="#FFF" d="M21.12 4.403h187v39.045h-187z"/><path fill="#333" d="M98.057 5.431h108.68v36.875H98.057z"/><text transform="translate(102.128 26.6)" fill="#FFF" font-family="'Calibri'" font-size="10.963">Ministerio</text><text transform="translate(102.128 35.949)" fill="#FFF" font-family="'Calibri'" font-size="10.963">de Energía y Minas</text><path fill="red" d="M59.397 5.437v36.871h36.979l-.008-36.871H59.397z"/><defs><path id="a" d="M22.432 5.431h184.305v36.875H22.432z"/></defs><clipPath id="b"><use xlink:href="#a" overflow="visible"/></clipPath><g clip-path="url(#b)" fill="#FFF"><path d="M69.735 22.111c.006.403-.067.803-.216 1.177a2.464 2.464 0 01-.614.891 2.748 2.748 0 01-.979.572c-.45.144-.917.212-1.389.203h-.987v3.131a.16.16 0 01-.032.095.18.18 0 01-.089.063.79.79 0 01-.178.04 2.179 2.179 0 01-.559 0 .884.884 0 01-.178-.04.182.182 0 01-.095-.063.167.167 0 01-.027-.095v-8.021a.467.467 0 01.141-.385.486.486 0 01.316-.113h1.862c.188 0 .368.007.541.023.206.021.41.055.612.1.25.061.491.157.712.29.237.135.448.312.624.521.173.211.307.452.393.712.095.29.142.594.138.898m-1.216.089a1.791 1.791 0 00-.199-.891 1.376 1.376 0 00-.489-.535 1.65 1.65 0 00-.605-.222 4.116 4.116 0 00-.608-.045h-1.069v3.5h1.041c.296.009.591-.037.871-.134.218-.082.417-.21.581-.376.159-.161.281-.356.356-.569.082-.232.124-.477.12-.724m7.548 5.583c.001.07-.004.143-.015.212a.402.402 0 01-.046.151.256.256 0 01-.079.088.175.175 0 01-.097.026h-4.171a.47.47 0 01-.292-.104.43.43 0 01-.139-.365v-7.76a.436.436 0 01.139-.366.483.483 0 01.292-.103h4.124a.19.19 0 01.098.027.222.222 0 01.071.089c.02.049.034.1.042.152.013.073.018.149.017.225 0 .071-.005.142-.017.212a.72.72 0 01-.042.149.22.22 0 01-.071.083.172.172 0 01-.098.026h-3.4v2.729h2.917c.035 0 .069.01.098.03a.26.26 0 01.074.084.388.388 0 01.043.148c.01.073.014.147.013.222.002.07-.003.14-.013.21a.43.43 0 01-.043.14.178.178 0 01-.074.077.19.19 0 01-.098.024h-2.917v3.113h3.448c.034 0 .067.01.097.027a.258.258 0 01.079.082.38.38 0 01.046.148c.011.075.016.151.015.227m7.405.3a.242.242 0 01-.02.095.149.149 0 01-.09.065.744.744 0 01-.187.041 2.916 2.916 0 01-.609 0 .57.57 0 01-.178-.046.227.227 0 01-.105-.083.55.55 0 01-.064-.134l-.802-2.05a9.139 9.139 0 00-.292-.642 2.03 2.03 0 00-.357-.504 1.422 1.422 0 00-.49-.328 1.726 1.726 0 00-.678-.118h-.773v3.703a.16.16 0 01-.03.096.198.198 0 01-.089.061.913.913 0 01-.179.042 2.367 2.367 0 01-.558 0 .904.904 0 01-.178-.042.167.167 0 01-.089-.061.158.158 0 01-.027-.096v-8.055a.434.434 0 01.138-.368.484.484 0 01.292-.104h1.847c.22 0 .403.008.549.018.146.009.278.024.393.037.308.049.608.142.891.275.245.116.465.279.648.478.174.191.308.417.394.662.089.265.133.544.13.824.004.266-.036.531-.118.784a1.885 1.885 0 01-.339.612 2.248 2.248 0 01-.535.461c-.218.135-.45.245-.691.329.141.06.272.141.39.24.123.102.232.217.326.344.108.146.204.302.285.465.089.173.179.37.268.592l.779 1.913c.064.163.103.277.122.342.012.049.022.1.026.152m-1.741-6.113a1.573 1.573 0 00-.229-.866 1.272 1.272 0 00-.766-.505 2.121 2.121 0 00-.379-.068 6.267 6.267 0 00-.554-.02h-.974v2.931h1.128c.268.005.536-.032.792-.11.203-.064.391-.17.553-.31.144-.128.256-.288.326-.468.07-.187.106-.385.104-.585m9.674 3.076c.008.482-.07.96-.232 1.414a2.922 2.922 0 01-.661 1.053 2.798 2.798 0 01-1.049.65 4.089 4.089 0 01-1.404.224 3.842 3.842 0 01-1.311-.208 2.757 2.757 0 01-1.014-.617 2.704 2.704 0 01-.652-1.017 4.057 4.057 0 01-.228-1.411V19.74c0-.033.009-.066.027-.094a.173.173 0 01.095-.063 1.378 1.378 0 01.459-.06c.092 0 .185.005.276.018a.913.913 0 01.179.042.183.183 0 01.089.063.173.173 0 01.026.094v5.259a3.37 3.37 0 00.149 1.055c.085.278.231.533.426.749.187.199.417.354.672.451.283.104.582.154.884.151.306.005.608-.047.897-.149.253-.093.482-.246.665-.445.19-.21.333-.461.417-.731.102-.331.15-.676.144-1.022v-5.316a.159.159 0 01.027-.094.174.174 0 01.094-.063c.059-.018.118-.032.178-.042a2.178 2.178 0 01.552 0 .913.913 0 01.179.042c.037.012.07.033.094.063.02.027.031.061.03.094l-.008 5.309zm-2.58-7.888a.616.616 0 01.303-.209 1.16 1.16 0 01.209-.037c.081-.007.179-.01.29-.01a1.31 1.31 0 01.313.031c.06.012.115.039.163.077.03.027.042.07.03.109a.341.341 0 01-.078.127l-1.526 1.427a.83.83 0 01-.123.105.617.617 0 01-.13.061.988.988 0 01-.172.034c-.066.005-.145.01-.24.01a1.298 1.298 0 01-.241-.018.2.2 0 01-.12-.054.091.091 0 01-.021-.089.343.343 0 01.073-.127l1.27-1.437z"/></g><path fill="#FFF" d="M22.432 5.431h36.963v36.875H22.432z"/><g transform="translate(1.471 1.153)"><defs><path id="c" d="M20.961 4.278h36.963v36.875H20.961z"/></defs><clipPath id="d"><use xlink:href="#c" overflow="visible"/></clipPath><g clip-path="url(#d)"><path fill="#0B070C" d="M39.412 35.289L32.747 20.01l-5.496-4.457.191 15.243c.049 3.361 3.699 8.405 11.969 4.493"/><path fill="#FC0918" d="M39.858 35.032L33.054 20l-5.61-4.39.206 15c.048 3.309 3.765 8.269 12.209 4.422"/><path fill="#0B070C" d="M29.948 17.669l-2.718-2.05.033-.12c.005-.023 1.548 1.198 2.797 2.05.051.035-.08.004-.112.116"/><path fill="none" stroke="#0B070C" stroke-width=".044" stroke-miterlimit="2.613" d="M29.948 17.669l-2.718-2.05.033-.12c.005-.023 1.548 1.198 2.797 2.05.051.038-.08.011-.112.12z"/><path fill="#0B070C" d="M27.231 15.155l-.546-.262v.575s0 .004.006.004v.022l.585.179-.045-.518z"/><path fill="none" stroke="#0B070C" stroke-width=".044" stroke-miterlimit="2.613" d="M27.231 15.155l-.546-.262v.575s0 .004.006.004v.022l.585.179-.045-.518z"/><path fill="#DAEF41" d="M27.258 15.659l-.064-.505-.484-.255.015.547c0 .056.524.148.535.213"/><path fill="none" stroke="#0B070C" stroke-width=".044" stroke-miterlimit="2.613" d="M27.258 15.659l-.064-.505-.484-.255.015.547c-.001.056.523.153.533.213z"/><path fill="#DAEF41" d="M27.258 15.658l-.544-.724.01.534c0 .06.498.141.535.191"/><path fill="none" stroke="#0B070C" stroke-width=".044" stroke-miterlimit="2.613" d="M27.258 15.658l-.544-.724.01.534c0 .058.498.139.534.19z"/><path fill="#0B070C" d="M27.263 15.459a.156.156 0 01.162.148v.007a.16.16 0 01-.162.16h-.001a.167.167 0 01-.164-.16.16.16 0 01.165-.155"/><path fill="none" stroke="#0B070C" stroke-width=".044" stroke-miterlimit="2.613" d="M27.263 15.459a.156.156 0 01.162.148v.007a.16.16 0 01-.162.16h-.001a.167.167 0 01-.164-.16.16.16 0 01.165-.155z"/><path fill="#DAEF41" d="M27.263 15.503c.06-.003.11.042.113.103v.008a.114.114 0 01-.113.116.117.117 0 01-.116-.116.11.11 0 01.116-.111"/><path fill="none" stroke="#0B070C" stroke-width=".044" stroke-miterlimit="2.613" d="M27.263 15.503c.06-.003.11.042.113.103v.008a.114.114 0 01-.113.116.117.117 0 01-.116-.116.11.11 0 01.116-.111z"/><path fill="#FFF" d="M27.554 24.802c.368.316 1.063.128 1.14.714.043.319.501.31.633.568.345.669.931.396 1.106.619a1.41 1.41 0 001.191.6c.46-.095.936.374 1.374.657.779.496 1.526.286 1.526 2.05a4.44 4.44 0 01-.185 1.871c-.461.625-1.305.544-2.18.738-.167.034-.916-.702-1.629-.495-.308.085-.66-.136-1.019-.062a.955.955 0 01-1.122-.38c-.238-.504-.739-.534-.739-.737 0-1.381-.09-4.852-.096-6.136"/><path fill="none" stroke="#0B070C" stroke-width=".044" stroke-miterlimit="2.613" d="M27.554 24.802c.368.316 1.063.128 1.14.714.043.319.501.31.633.568.345.669.931.396 1.106.619a1.41 1.41 0 001.191.6c.46-.095.936.374 1.374.657.779.496 1.526.286 1.526 2.05a4.44 4.44 0 01-.185 1.871c-.461.625-1.305.544-2.18.738-.167.034-.916-.702-1.629-.495-.308.085-.66-.136-1.019-.062a.955.955 0 01-1.122-.38c-.238-.504-.739-.534-.739-.737-.001-1.388-.088-4.858-.096-6.143z"/><path fill="#0B070C" d="M32.606 25.883c-.763-.576-3.838-1.791-4.271-2.664-.434-.87.318-2.055.111-1.413-.259.797 2.542 1.949 3.309 2.275.295.131 1.268.464 1.268.865 0 .06-.1.355-.1.452-.001.274-.317.425-.317.485"/><path fill="none" stroke="#0B070C" stroke-width=".044" stroke-miterlimit="2.613" d="M32.606 25.883c-.763-.576-3.838-1.791-4.271-2.664-.434-.87.318-2.055.111-1.413-.259.797 2.542 1.949 3.309 2.275.295.131 1.268.464 1.268.865 0 .06-.1.355-.1.452 0 .274-.317.422-.317.485z"/><path fill="#DAEF41" d="M32.8 25.768c-.783-.632-3.916-1.938-4.367-2.87-.452-.932.326-2.218.116-1.526-.256.859 2.603 2.105 3.387 2.458.303.136 1.289.5 1.289.919 0 .067-.098.397-.098.494 0 .293-.327.454-.327.525"/><path fill="none" stroke="#0B070C" stroke-width=".044" stroke-miterlimit="2.613" d="M32.8 25.768c-.783-.632-3.916-1.938-4.367-2.87-.452-.932.326-2.218.116-1.526-.256.859 2.603 2.105 3.387 2.458.303.136 1.289.5 1.289.919 0 .067-.098.397-.098.494 0 .294-.327.46-.327.525z"/><path fill="#FC0918" d="M34.057 25.822c.046-3.185.665-6.635.257-7.974a31.022 31.022 0 01-3.902-2.923c-.133-.12-1.527 5.377-1.975 6.604.526 1.561 3.069 2.085 5.62 4.293"/><path fill="none" stroke="#0B070C" stroke-width=".044" stroke-miterlimit="2.613" d="M34.057 25.822c.046-3.185.665-6.635.257-7.974a31.022 31.022 0 01-3.902-2.923c-.133-.12-1.527 5.377-1.975 6.604.526 1.561 3.069 2.085 5.62 4.293z"/><path fill="#FFF" d="M32.747 19.424c-.225-.095-.752-.602-1-.719-.558-.255-1.708-1.272-1.961-1.028a2.929 2.929 0 00-.695 1.733c-.046.284.21.284.434.382.393.185.563.401.981.445 1.056.13 1.638.946 2.184.704.226-.102.12-.859.378-.981.389-.186-.163-.313-.322-.534"/><path fill="none" stroke="#0B070C" stroke-width=".044" stroke-miterlimit="2.613" d="M32.747 19.424c-.225-.095-.752-.602-1-.719-.558-.255-1.708-1.272-1.961-1.028a2.929 2.929 0 00-.695 1.733c-.046.284.21.284.434.382.393.185.563.401.981.445 1.056.13 1.638.946 2.184.704.226-.102.12-.859.378-.981.388-.192-.162-.318-.321-.536z"/><path fill="#B86F4C" d="M34.213 21.877c.028.05-.037.167-.118.306a.263.263 0 00.16-.095.653.653 0 01-.143.244c.036.005.079 0 .13-.089v.062c-.013.053-.043.127-.057.17-.052.024-.058.126-.089.196a.577.577 0 01-.047-.523c-.069-.052 0-.164.063-.251a.378.378 0 01-.083.053.65.65 0 01.144-.357c.083-.053.157-.053.211.055.013.058.017.08-.109.138-.119.089-.11.098-.062.095"/><path fill="#0B070C" d="M30.366 14.96c.617 1.763.666 4.836 1.136 6.751.034.2.08.398.134.593a2.723 2.723 0 00-.367-.392c-.413-.249-1.47-.993-2.436-.514a1.724 1.724 0 00-.208.151 6.967 6.967 0 00-.128.131c-.051-.135-.064-.195.057-.312.129-.55.262-1.146.398-1.744l.203-.854a15.547 15.547 0 011.211-3.81"/><path fill="none" stroke="#0B070C" stroke-width=".044" stroke-miterlimit="2.613" d="M30.366 14.96c.617 1.763.666 4.836 1.136 6.751.034.2.08.398.134.593a2.723 2.723 0 00-.367-.392c-.413-.249-1.47-.993-2.436-.514a1.724 1.724 0 00-.208.151 6.967 6.967 0 00-.128.131c-.051-.135-.064-.195.057-.312.129-.55.262-1.146.398-1.744l.203-.854a15.547 15.547 0 011.211-3.81z"/><path fill="#0B070C" d="M34.128 17.854l-3.881-2.901.048-.178c.014-.038 2.204 1.702 3.984 2.917.073.052-.107.005-.151.16"/><path fill="none" stroke="#0B070C" stroke-width=".044" stroke-miterlimit="2.613" d="M34.129 17.855l-3.882-2.902.05-.178c.013-.036 2.203 1.702 3.983 2.917.072.054-.108.007-.151.163zm-2.335 6.629v.213a.462.462 0 01-.026.095c0 .017-.032.038-.032.071 0 .032-.017.085-.017.131v.065c0 .04-.01.114.03 0m.357-.375v.208c0 .039-.029.081-.025.103.004.02-.035.037-.035.065a.936.936 0 00-.009.13v.07c0 .044-.019.113.028 0m.409-.35c0 .056.007.154.007.215 0 .037-.035.089-.035.097s-.036.044-.03.073c.005.03-.015.079-.015.129v.066c0 .043-.013.111.037 0m-1.103-1.26c-.013.015-.061.052-.061.083v.045l-.017.02v.066l.005.021v.427M31.037 24a.614.614 0 00-.061.374c0 .05 0 .138-.018.15a.805.805 0 00-.072.14l-.02.013c-.046.052.047-.013-.193.033m-.246-1.009c0 .03-.012.063-.012.096v.056l-.01.034v.477c0 .056-.01.088.032-.025m-.274-.837c0 .043-.016.078-.016.109v.048l-.022.036v.019l.009.017v.454c0 .047-.015.081.029-.035m-1.615-1.898a.724.724 0 00-.063.071l-.011.008v.022l-.017.016v.018l-.018.015v.016l-.013.037v.034l-.02.011v.035c.009.032-.013.066-.013.101 0 .02-.011.033-.011.053v.169c0 .051-.019.051.033.019m.524-.188c-.016 0-.058.019-.058.04l-.021.013v.034l-.019.022.006.011v.03h-.019v.083l-.012.041v.031c0 .016-.015.051-.015.071 0 .019-.02 0-.02.032v.152c0 .013-.005.032-.005.046m1.951.601a.55.55 0 00-.052.369c0 .052 0 .138-.017.15a1.236 1.236 0 00-.076.138l-.02.019c-.048.052.044-.019-.196.036m-1.1-1.769c-.03.139-.049.282-.057.424v.3c0 .051-.026.099.02 0m.394-.446c-.049.15-.075.306-.073.463v.162c0 .052.018.153-.027.153m2.785.85c0 .021.032.073.032.09v.238l-.008.039v.016l-.017.014v.032c-.018.02-.05.02-.05.056 0 .013-.032.048-.032.065 0 .015-.013.035-.013.049l-.019.021v.101m-.546-1.125c0 .017-.025.069-.025.09v.029l-.019.021v.013l-.017.022v.013l-.01.02v.033l-.019.018v.099a.093.093 0 00-.013.069l.006.049v.134s0 .051.012.036m-2.9-2.585c-.015.022-.048.053-.062.071l-.021.017v.019l-.014.017v.012l-.019.023v.015l-.016.034v.032l-.011.019v.029c0 .039-.016.07-.016.108 0 .011-.013.031-.013.041v.179c0 .049-.017.049.032.013m.537-.139v.204l-.016.034v.037l-.015.035v.015a.332.332 0 00-.013.07v.068a.114.114 0 00-.015.046v.1c0 .05-.01.05.033.018m.38-.462c0 .034-.01.065-.01.101v.049l-.019.039.005.014v.473c.005.048-.011.083.03-.035m.596-.133l-.014.063v.021l-.016.016v.051h-.012v.054l-.021.011v.056c0 .033-.009.065-.009.099v.202c0 .016 0 .051.019.051m-.191-.867c0 .017-.017.063-.017.089v.081l.005.019v.018l-.014.017v.117c0 .026 0 .1.005.155v.267m3 .842c0 .013-.018.071-.018.08s-.014.033-.014.062l-.013.01-.021.029v.014h-.012v.017l-.018.016v.011l-.017.011v.017l-.011.017v.03l-.019.023v.104l.009.046v.199m-1.456-1.518c0 .036-.032.09-.032.12v.253c0 .018.007.051.007.071v.047c0 .037-.02 0-.02.037v.03l-.018.017v.023h-.017c-.019.009-.048.078.017.009m-.531-.866l-.01.065v.033l-.014.022v.005l-.019.017v.073c0 .026-.016.048-.016.081v.257m-.183-.757c-.076.019-.06.03-.06.098v.707m.615-.398l-.047.09v.07l-.019.014.005.036v.427m.613-.319c-.018.02-.063.054-.063.089v.051l-.022.017v.43a.208.208 0 01.011.074m.603-.467v.216a.718.718 0 01-.025.099c0 .015-.035.04-.035.069 0 .028-.013.082-.013.121v.075c0 .046-.01.111.035 0m-3.139-2.614a.317.317 0 00-.062.074l-.016.01v.024l-.018.017v.019l-.017.017v.012l-.015.04v.031l-.014.016v.035c0 .028-.017.065-.017.099 0 .013-.015.035-.015.054v.168c0 .05-.011.05.038.011"/><path fill="#0B070C" d="M28.224 22.375c-.016.076.131-.562.197-.784.049-.154.579-.762.831-.762.13 0 .356-.036.516-.036.543.01 1.052.271 1.378.707.062.063.248.19.253.288.11.186.2.383.267.587-1.081-.796-3.181-.931-3.44 0"/><path fill="none" stroke="#0B070C" stroke-width=".044" stroke-miterlimit="2.613" d="M28.224 22.375c-.016.076.131-.562.197-.784.049-.154.579-.762.831-.762.13 0 .356-.036.516-.036.543.01 1.052.271 1.378.707.062.063.248.19.253.288.11.186.2.383.267.587-1.082-.793-3.182-.929-3.442 0z"/><path fill="#DAEF41" d="M28.224 22.258c-.016.065.131-.521.197-.719.049-.146.579-.713.831-.713.13 0 .356-.031.516-.031a1.792 1.792 0 011.378.653c.062.055.229.178.253.262.065.169.12.342.164.518-1.085-.744-3.079-.827-3.339.03"/><path fill="none" stroke="#0B070C" stroke-width=".044" stroke-miterlimit="2.613" d="M28.224 22.258c-.016.065.131-.521.197-.719.049-.146.579-.713.831-.713.13 0 .356-.031.516-.031a1.792 1.792 0 011.378.653c.062.055.229.178.253.262.065.169.12.342.164.518-1.085-.744-3.079-.826-3.339.03z"/><path fill="#FC0918" d="M30.278 14.87c.624 1.819.618 4.997 1.164 6.841a2.695 2.695 0 00-2.657-.495c-.14.079-.264.183-.364.308 1.025-3.591 1.31-5.389 1.857-6.654"/><path fill="none" stroke="#0B070C" stroke-width=".044" stroke-miterlimit="2.613" d="M30.278 14.87c.624 1.819.618 4.997 1.164 6.841a2.695 2.695 0 00-2.657-.495c-.14.079-.264.183-.364.308 1.025-3.592 1.31-5.39 1.857-6.654z"/><path fill="#FFF" d="M30.878 17.814c.033.357.08.911.111 1.301 0 .074-1.479-.318-2.061.561.218-.744.26-1.16.4-1.57l.052-.118c.322-.293 1.475-.328 1.498-.174"/><path fill="none" stroke="#0B070C" stroke-width=".044" stroke-miterlimit="2.613" d="M30.878 17.814c.033.357.08.911.111 1.301 0 .074-1.479-.318-2.061.561.218-.744.26-1.16.4-1.57l.052-.118c.322-.295 1.475-.328 1.498-.174z"/><path fill="#0B070C" d="M30.252 14.275l-.777-.371v.857l.839.255-.062-.741z"/><path fill="none" stroke="#0B070C" stroke-width=".044" stroke-miterlimit="2.613" d="M30.252 14.275l-.777-.371v.857l.839.255-.062-.741z"/><path fill="#DAEF41" d="M30.29 14.993l-.084-.719-.697-.356.013.773c.008.082.748.214.769.307"/><path fill="none" stroke="#0B070C" stroke-width=".044" stroke-miterlimit="2.613" d="M30.29 14.993l-.084-.719-.697-.356.013.773c.008.077.747.209.768.302z"/><path fill="#DAEF41" d="M30.29 14.993l-.771-1.034.013.762c0 .084.7.207.758.273"/><path fill="none" stroke="#0B070C" stroke-width=".044" stroke-miterlimit="2.613" d="M30.29 14.993l-.771-1.034.013.762c0 .083.699.207.758.272z"/><path fill="#0B070C" d="M30.294 14.699a.227.227 0 11-.23.232c0-.127.102-.231.23-.232"/><path fill="none" stroke="#0B070C" stroke-width=".044" stroke-miterlimit="2.613" d="M30.294 14.699a.227.227 0 11-.23.232c0-.127.102-.231.23-.232z"/><path fill="#DAEF41" d="M30.296 14.78a.161.161 0 01.167.157v.001a.162.162 0 01-.167.156.16.16 0 01-.16-.156c0-.087.071-.158.158-.158h.002"/><path fill="none" stroke="#0B070C" stroke-width=".044" stroke-miterlimit="2.613" d="M30.296 14.78a.161.161 0 01.167.157v.001a.162.162 0 01-.167.156.16.16 0 01-.16-.156c0-.087.071-.158.158-.158h.002z"/><path fill="none" stroke="#0B070C" stroke-width=".058" stroke-miterlimit="2.613" d="M31.385 26.204c-.015.325.023.649.114.962.014.119.014.238 0 .357l.032.088c.004.033-.043.351-.043.351l.016.061c-.016.14.063.347-.089.397m-.709-2.664c.038.337.084.72.122 1.059.039.305-.019.624.02.935.011.125.106.624-.13.55m-1.158-3.24c-.042.478-.051.958-.027 1.437 0 .185-.13.464-.13.648v.41m.6-2.465c.228.619.265 1.292.105 1.932-.045.164-.07.334-.073.504v.528m-1.069-3.105c-.484.558-.322 2.346-.322 3.146m-.483-3.804a4.886 4.886 0 00-.129 1.841c0 .62-.033 1.249-.033 1.845m3.353-6.264c-.026.019-.026.019-.026.054v.128c0 .015.016.03.016.048v.079c0 .03-.014.035-.028.063m-.159-.47c-.006.081.023.185.023.279v.11h0m-.179-.484v.41m-.218-.501v.466m-.178-.524c-.016.128.008.318-.016.422m-.196-.478c-.008.097 0 .199 0 .301v.13c0 .013-.008.075-.008-.013m-.139-.453v.245c0 .066-.027.113-.027.188m-.153-.459v.127c0 .049-.019.101-.019.146v.15m-.125-.437v.427h-.016m-.122-.464c-.006.079-.006.171-.006.246v.199c0 .019-.013.037-.013.014m-.15-.476v.42c0 .016-.025.036-.025.043m-.131-.402c-.008-.077-.008 0-.008.009v.238c0 .011-.028.074-.028.089s-.005.02-.005.035v.028m-.435-.303v.067a.825.825 0 00-.047.161c0 .023-.01.075-.01.104 0 .015 0 .125-.017.047m.389-.456c-.007-.083-.018 0-.018.014 0 .115-.006.262-.006.384m-.16-.373c-.035.069-.046.146-.035.221v.103c0 .023-.032.06-.044.073m-.146-.319c0 .068-.057.133-.057.201 0 .023-.017.055-.017.089s-.009.049-.009.089m-.086-.283c.009-.079-.005-.016-.005 0 0 .017-.017.023-.023.04a.544.544 0 00-.028.088c0 .058-.01.08-.01.12a.122.122 0 01-.011.062.465.465 0 00-.008.036c-.01.011-.01.032-.019.011m-.076-.29c-.05.042-.05.122-.05.19 0 .067-.023.133-.019.178"/><path fill="none" stroke="#0B070C" stroke-width=".044" stroke-miterlimit="2.613" d="M28.224 30.146a8.137 8.137 0 00.131 1.777c.128.256.215.532.256.815.032.106.076.207.128.306.03.033.065.071.099.071s.129.083.129-.038m-.056-2.679c.178.672.28 1.436.395 2.122.058.265.166.514.318.734.049.069.303.417.368.408m.178-3.234c.05.524.156 1.042.318 1.543.063.169.109.457.167.614.081.175.147.355.197.54.018.17.056.336.113.497 0 .041.183.232.193.317.005.044.099.153.076.032m-.367-2.807c.065.189.148.478.211.663.071.243.318.478.396.721.089.282.321.471.397.708.063.188.223.559.295.802m-2.674-3.217c.159.532.291 1.073.393 1.619.063.206.172.395.319.552.048.055.308.323.363.317"/><path fill="#0B070C" d="M39.606 35.337l6.673-15.278 5.495-4.457-.196 15.241c-.046 3.366-3.688 8.401-11.972 4.492"/><path fill="#FC0918" d="M39.163 35.085l6.81-15.036 5.606-4.383-.204 14.995c-.043 3.312-3.771 8.268-12.211 4.423"/><path fill="#0B070C" d="M49.078 17.721l2.73-2.05-.043-.122c-.006-.016-1.543 1.199-2.792 2.047-.054.034.075.011.105.121"/><path fill="none" stroke="#0B070C" stroke-width=".044" stroke-miterlimit="2.613" d="M49.078 17.721l2.73-2.05-.043-.122c-.006-.016-1.543 1.199-2.792 2.047-.054.038.075.015.105.125z"/><path fill="#0B070C" d="M51.795 15.208l.546-.255v.571l-.006.013v.008l-.586.178.046-.515z"/><path fill="none" stroke="#0B070C" stroke-width=".044" stroke-miterlimit="2.613" d="M51.795 15.208l.546-.255v.571l-.006.013v.008l-.586.178.046-.515z"/><path fill="#DAEF41" d="M51.77 15.711l.06-.502.482-.256v.541c-.009.053-.529.148-.541.217"/><path fill="none" stroke="#0B070C" stroke-width=".044" stroke-miterlimit="2.613" d="M51.77 15.711l.06-.502.482-.256v.541c-.01.051-.531.148-.542.217z"/><path fill="#DAEF41" d="M51.77 15.711l.541-.726-.009.542c0 .053-.493.142-.535.186"/><path fill="none" stroke="#0B070C" stroke-width=".044" stroke-miterlimit="2.613" d="M51.77 15.711l.541-.726-.009.542c0 .053-.494.142-.532.184z"/><path fill="#0B070C" d="M51.765 15.506c-.09 0-.165.07-.167.16a.162.162 0 00.167.157.157.157 0 00.159-.153v-.004a.16.16 0 00-.158-.16h-.001"/><path fill="none" stroke="#0B070C" stroke-width=".044" stroke-miterlimit="2.613" d="M51.765 15.506c-.09 0-.165.07-.167.16a.162.162 0 00.167.157h0a.157.157 0 00.159-.153v-.004a.16.16 0 00-.158-.16h-.001z"/><path fill="#DAEF41" d="M51.765 15.554a.109.109 0 00-.115.104v.006a.107.107 0 00.103.112h.012a.113.113 0 00.11-.112.114.114 0 00-.11-.11"/><path fill="none" stroke="#0B070C" stroke-width=".044" stroke-miterlimit="2.613" d="M51.765 15.554a.109.109 0 00-.115.104v.006a.107.107 0 00.103.112h.012a.113.113 0 00.11-.112.114.114 0 00-.11-.11z"/><path fill="#FFF" d="M51.472 24.857c-.368.317-1.06.133-1.134.713-.048.324-.502.308-.632.568-.341.671-.934.399-1.109.623a1.425 1.425 0 01-1.192.597c-.46-.098-.934.376-1.373.657-.782.501-1.525.289-1.525 2.04a4.425 4.425 0 00.184 1.881c.457.623 1.304.543 2.177.734.165.033.923-.697 1.626-.496.311.09.666-.133 1.022-.063a.957.957 0 001.123-.376c.239-.499.738-.535.738-.744 0-1.37.084-4.844.094-6.127"/><path fill="none" stroke="#0B070C" stroke-width=".044" stroke-miterlimit="2.613" d="M51.472 24.857c-.368.317-1.06.133-1.134.713-.048.324-.502.308-.632.568-.341.671-.934.399-1.109.623a1.425 1.425 0 01-1.192.597c-.46-.098-.934.376-1.373.657-.782.501-1.525.289-1.525 2.04a4.425 4.425 0 00.184 1.881c.457.623 1.304.543 2.177.734.165.033.923-.697 1.626-.496.311.09.666-.133 1.022-.063a.957.957 0 001.123-.376c.239-.499.738-.535.738-.744 0-1.377.083-4.851.095-6.134z"/><path fill="#0B070C" d="M46.418 25.933c.768-.581 3.843-1.787 4.278-2.654.425-.861-.318-2.062-.124-1.419.259.796-2.537 1.951-3.304 2.279-.298.129-1.27.456-1.27.857 0 .063.096.368.096.454 0 .275.319.426.319.481"/><path fill="none" stroke="#0B070C" stroke-width=".044" stroke-miterlimit="2.613" d="M46.418 25.933c.768-.581 3.843-1.787 4.278-2.654.425-.861-.318-2.062-.124-1.419.259.796-2.537 1.951-3.304 2.279-.298.129-1.27.456-1.27.857 0 .063.096.368.096.454.006.276.324.427.324.483z"/><path fill="#DAEF41" d="M46.225 25.82c.78-.624 3.914-1.926 4.361-2.871.438-.927-.324-2.228-.114-1.524.261.863-2.597 2.1-3.387 2.458-.303.141-1.289.485-1.289.914 0 .073.104.398.104.507 0 .289.323.445.323.516"/><path fill="none" stroke="#0B070C" stroke-width=".044" stroke-miterlimit="2.613" d="M46.225 25.82c.78-.624 3.914-1.926 4.361-2.871.438-.927-.324-2.228-.114-1.524.261.863-2.597 2.1-3.387 2.458-.303.141-1.289.485-1.289.914 0 .073.104.398.104.507.002.288.325.447.325.516z"/><path fill="#FC0918" d="M44.968 25.873c-.042-3.184-.671-6.637-.258-7.97a30.917 30.917 0 003.906-2.926c.131-.119 1.523 5.383 1.971 6.606-.525 1.558-3.068 2.076-5.619 4.29"/><path fill="none" stroke="#0B070C" stroke-width=".044" stroke-miterlimit="2.613" d="M44.968 25.873c-.042-3.184-.671-6.637-.258-7.97a30.917 30.917 0 003.906-2.926c.131-.119 1.523 5.383 1.971 6.606-.524 1.558-3.066 2.076-5.619 4.29z"/><path fill="#FFF" d="M46.279 19.477c.229-.094.752-.607.999-.719.558-.25 1.711-1.268 1.97-1.027.411.489.655 1.095.694 1.732.043.281-.212.287-.435.389-.39.179-.563.39-.975.446-1.07.133-1.645.941-2.197.699-.216-.103-.115-.864-.38-.992-.379-.19.167-.312.324-.528"/><path fill="none" stroke="#0B070C" stroke-width=".044" stroke-miterlimit="2.613" d="M46.279 19.477c.229-.094.752-.607.999-.719.558-.25 1.711-1.268 1.97-1.027.411.489.655 1.095.694 1.732.043.281-.212.287-.435.389-.39.179-.563.39-.975.446-1.07.133-1.645.941-2.197.699-.216-.103-.115-.864-.38-.992-.38-.192.167-.313.324-.528z"/><path fill="#B86F4C" d="M44.813 21.93c-.022.054.036.167.119.3a.236.236 0 01-.163-.085c.028.09.08.17.15.233-.039.021-.09 0-.14-.08v.061c.016.046.04.123.063.179.044.013.059.113.089.193a.613.613 0 00.048-.526c.063-.057-.006-.163-.06-.249.013 0 .056.041.076.049a.63.63 0 00-.148-.365.128.128 0 00-.205.051c-.019.07-.019.089.101.148.127.089.119.089.068.089"/><path fill="#0B070C" d="M48.663 15.014c-.614 1.763-.671 4.841-1.141 6.752a3.66 3.66 0 01-.134.591c.115-.138.239-.269.371-.39.419-.256 1.472-.999 2.439-.516.074.045.142.097.203.156.081.08.134.122.134.122.055-.133.064-.191-.063-.309-.125-.55-.259-1.139-.394-1.745-.071-.282-.137-.571-.205-.855a15.863 15.863 0 00-1.21-3.808"/><path fill="none" stroke="#0B070C" stroke-width=".044" stroke-miterlimit="2.613" d="M48.663 15.014c-.614 1.763-.671 4.841-1.141 6.752a3.66 3.66 0 01-.134.591c.115-.138.239-.269.371-.39.419-.256 1.472-.999 2.439-.516.074.045.142.097.203.156.081.08.134.122.134.122.055-.133.064-.191-.063-.309-.125-.55-.259-1.139-.394-1.745-.071-.282-.137-.571-.205-.855a15.997 15.997 0 00-1.21-3.806z"/><path fill="#0B070C" d="M44.9 17.907l3.883-2.914-.052-.167c-.01-.029-2.206 1.699-3.985 2.921-.069.046.113 0 .154.16"/><path fill="none" stroke="#0B070C" stroke-width=".044" stroke-miterlimit="2.613" d="M44.899 17.907l3.883-2.914-.052-.167c-.01-.03-2.206 1.699-3.984 2.92-.069.048.113-.002.153.161zm2.331 6.626v.211a.334.334 0 00.032.1c0 .019.03.047.03.075 0 .029.016.089.016.121v.072c0 .046.016.116-.035 0m-.356-.376v.212c.005.03.015.061.029.088 0 .02.037.052.037.073 0 .021.017.089.017.13 0 .02-.009.062-.009.07 0 .037.018.11-.027 0m-.412-.348v.211a.27.27 0 00.037.096c0 .019.024.046.024.075a.53.53 0 01.007.126v.068c0 .045.021.112-.023 0m1.096-1.259c.019.019.065.05.063.089v.047l.01.017v.504m.234-.879a.6.6 0 01.057.375c-.004.05 0 .102.014.149a.767.767 0 01.081.135l.014.018c.046.051-.046-.018.194.039m.249-1.019c0 .031.015.071.015.103v.044l.015.039v.221a.366.366 0 00-.006.065v.206c0 .051.013.088-.033-.036m.277-.825c0 .031.017.061.017.095v.053l.016.03v.139l-.007.029v.305l-.004.019c0 .048.012.085-.031-.034m1.611-1.902c.02.026.042.05.067.068l.014.017v.017l.019.021v.017l.011.015v.02l.02.034v.027l.016.023v.033c0 .034.009.07.009.096 0 .024.019.04.019.056v.168c0 .052.012.052-.033.008m-.535-.18c.021 0 .072.017.072.033l.008.019v.035l.02.009v.058h.008v.048l-.01.019v.019l.02.031v.032c0 .02.015.05.015.072 0 .023.021 0 .021.029l-.006.05v.106c0 .015.015.03.015.047m-1.96.601c.06.115.08.247.059.377a.472.472 0 00.014.15.549.549 0 01.082.13l.016.018c.041.05-.049-.018.191.037m1.105-1.772c.031.139.05.279.06.421.001.068-.001.135-.008.202v.1c0 .053.032.1-.011 0m-.402-.446c.051.148.077.302.076.458v.17c0 .048-.02.147.027.147m-2.786.859c0 .019-.039.073-.039.089v.235l.014.038v.019l.019.013v.034c.013.015.045.018.045.048 0 .031.03.056.03.07 0 .017.019.032.019.051l.016.016v.107m.55-1.128c0 .019.034.073.034.09v.033l.009.008v.021l.015.017v.021l.02.014v.03l.013.018v.101a.119.119 0 01.011.072v.188s0 .053-.013.027m2.905-2.58a.83.83 0 01.06.073l.018.016v.02l.013.017v.014l.019.016v.021l.019.034v.034l.013.017v.029c0 .033.015.066.014.097-.002.031.016.041.016.059l-.006.066v.102c0 .053.019.053-.029.016m-.537-.137v.199l.015.036v.032l.019.037v.014c0 .021.016.032.016.064v.069a.198.198 0 01.016.054v.099c0 .05.008.05-.039.018m-.381-.459c0 .035.014.072.014.096v.06l.016.029v.492c0 .049.01.083-.037-.04m-.588-.129l.016.064v.021l.011.013v.053h.013v.049l.016.017v.051c0 .031.016.07.016.102v.2c0 .022 0 .053-.022.053m.191-.867c0 .015.019.065.019.091v.114l.013.019v.115c0 .05-.001.1-.007.147v.268m-3.005.833c0 .022.018.068.018.089 0 .021.023.033.013.045l.019.024.017.029-.005.019h.022v.015l.016.018v.019h.015v.019l.016.017v.035l.016.007v.24l-.005.02v.1m1.462-1.518c0 .033.028.082.028.115v.262a.433.433 0 000 .072v.038c0 .04.011 0 .011.04v.034l.022.018-.006.016h.017c.015.014.046.09-.017.014m.535-.858l.008.061v.03l.024.021v.016l.01.015v.067c0 .035.02.055.02.082v.092c0 .015-.005.032-.005.053v.107m.185-.753c.082.015.064.034.06.098 0 .225 0 .494-.01.714m-.604-.395l.046.08v.071l.013.018v.151c0 .019-.005.052-.005.069v.236m-.606-.314c.013.018.066.056.066.09v.053l.014.017v.388l-.008.011v.107m-.605-.462v.209a.358.358 0 00.018.101c0 .01.039.043.039.075s.016.075.016.126a.315.315 0 01-.006.067c0 .041.016.111-.029 0m3.135-2.614c.019.023.04.046.063.067l.014.02v.017l.021.021v.017l.011.013v.013l.015.033v.035l.014.02v.033c0 .034.019.067.019.1 0 .019.012.036.012.052v.161c0 .051.015.056-.033.017"/><path fill="#0B070C" d="M50.802 22.435c.02.073-.127-.566-.192-.787-.05-.146-.578-.765-.836-.765-.132 0-.351-.035-.511-.035a1.735 1.735 0 00-1.376.713c-.068.059-.252.188-.26.288a3.107 3.107 0 00-.261.594c1.078-.802 3.178-.937 3.437 0"/><path fill="none" stroke="#0B070C" stroke-width=".044" stroke-miterlimit="2.613" d="M50.802 22.435c.02.073-.127-.566-.192-.787-.05-.146-.578-.765-.836-.765-.132 0-.351-.035-.511-.035a1.735 1.735 0 00-1.376.713c-.068.059-.252.188-.26.288a3.107 3.107 0 00-.261.594c1.077-.805 3.177-.938 3.436-.008z"/><path fill="#DAEF41" d="M50.802 22.312c.02.066-.127-.521-.192-.723-.05-.143-.578-.713-.836-.713-.132 0-.351-.03-.511-.03a1.79 1.79 0 00-1.376.655c-.068.059-.236.179-.26.262-.065.168-.118.34-.16.516 1.082-.751 3.077-.824 3.335.033"/><path fill="none" stroke="#0B070C" stroke-width=".044" stroke-miterlimit="2.613" d="M50.802 22.312c.02.066-.127-.521-.192-.723-.05-.143-.578-.713-.836-.713-.132 0-.351-.03-.511-.03a1.79 1.79 0 00-1.376.655c-.068.059-.236.179-.26.262-.065.168-.118.34-.16.516 1.081-.75 3.076-.823 3.335.033z"/><path fill="#FC0918" d="M48.747 14.926c-.63 1.817-.625 4.991-1.159 6.831a2.663 2.663 0 012.65-.479c.141.075.265.178.367.303-1.032-3.605-1.31-5.395-1.863-6.654"/><path fill="none" stroke="#0B070C" stroke-width=".044" stroke-miterlimit="2.613" d="M48.747 14.926c-.63 1.817-.625 4.991-1.159 6.831a2.663 2.663 0 012.65-.479c.141.075.265.178.367.303-1.026-3.606-1.305-5.397-1.858-6.655z"/><path fill="#FFF" d="M48.151 17.861a28.2 28.2 0 00-.11 1.306c-.01.068 1.475-.32 2.057.566-.217-.745-.26-1.17-.405-1.567a.336.336 0 00-.051-.124c-.322-.295-1.469-.336-1.491-.178"/><path fill="none" stroke="#0B070C" stroke-width=".044" stroke-miterlimit="2.613" d="M48.151 17.861a28.2 28.2 0 00-.11 1.306c-.01.068 1.475-.32 2.057.566-.217-.745-.26-1.17-.405-1.567a.336.336 0 00-.051-.124c-.322-.293-1.47-.335-1.491-.181z"/><path fill="#0B070C" d="M48.779 14.332l.772-.371v.858l-.843.256.071-.743z"/><path fill="none" stroke="#0B070C" stroke-width=".044" stroke-miterlimit="2.613" d="M48.779 14.332l.772-.371v.858l-.843.256.071-.743z"/><path fill="#DAEF41" d="M48.741 15.047l.083-.712.693-.363-.016.77c0 .083-.754.215-.76.31"/><path fill="none" stroke="#0B070C" stroke-width=".044" stroke-miterlimit="2.613" d="M48.741 15.047l.083-.712.693-.363-.016.77c0 .079-.754.21-.76.305z"/><path fill="#DAEF41" d="M48.741 15.047l.765-1.039-.013.766c0 .083-.695.206-.752.273"/><path fill="none" stroke="#0B070C" stroke-width=".044" stroke-miterlimit="2.613" d="M48.741 15.047l.765-1.039-.013.766c.002.083-.695.206-.752.273z"/><path fill="#0B070C" d="M48.729 14.761a.223.223 0 00-.231.214v.009a.23.23 0 00.461 0c0-.123-.1-.223-.223-.223h-.007"/><path fill="none" stroke="#0B070C" stroke-width=".044" stroke-miterlimit="2.613" d="M48.729 14.761a.223.223 0 00-.231.214v.009a.23.23 0 00.461 0c0-.123-.1-.223-.223-.223h-.007z"/><path fill="#DAEF41" d="M48.729 14.826a.16.16 0 00-.166.152v.008a.164.164 0 10.166-.16"/><path fill="none" stroke="#0B070C" stroke-width=".044" stroke-miterlimit="2.613" d="M48.729 14.826a.158.158 0 00-.17.147.159.159 0 00.147.171h.023a.16.16 0 00.024-.319l-.024.001zm-1.063 6.929c.026.036.026.036.026.063v.126c0 .013-.013.032-.013.052v.078c0 .028.008.034.028.057m.155-.468c.001.095-.004.188-.017.281v.109h0m.178-.483v.411m.221-.507v.471m.178-.525c.015.126-.005.323.015.427m.195-.482c.009.089 0 .196 0 .298v.133c0 .01.009.068.009-.006m.146-.464v.254c0 .062.022.106.022.174m.155-.444v.126c0 .043.012.099.012.15v.15m.131-.446v.432s.014 0 .014-.005m.126-.461v.448c0 .014.006.034.006.007m.156-.47v.422c0 .013.019.032.019.041m.137-.4c.008-.079.008 0 .008.009v.234c0 .016.021.077.021.089s.008.024.008.036c0 .014.011 0 .011.021v.007m.428-.305v.069a.716.716 0 01.046.166c0 .021.005.071.005.104 0 .012 0 .121.02.041m-.387-.46c.009-.078.019.009.019.016 0 .121.005.263.005.383m.155-.366a.387.387 0 01.041.217v.101c0 .024.034.068.038.08m.142-.324c0 .07.063.135.063.205 0 .021.017.051.017.084 0 .032.008.055.008.097m.084-.283c-.012-.076.007-.01.007 0s.013.022.024.038a.35.35 0 01.022.095c0 .048.02.075.02.117a.207.207 0 00.005.061l.008.031c.009.013.009.042.02.013m.082-.288c.04.055.056.121.046.188 0 .07.026.133.02.191m.308 2.373c.156.6.198 1.226.125 1.842 0 .619.033 1.247.033 1.845m-3.379-1.767c.005.322-.033.643-.116.954a1.311 1.311 0 000 .354l-.03.1c.006.113.021.228.042.34l-.02.065c.016.133-.061.343.096.388m.714-2.656c-.041.336-.089.707-.13 1.051-.035.311.019.635-.005.938-.019.125-.115.624.121.545m1.157-3.234c.045.479.056.96.031 1.441 0 .183.125.467.125.653v.406m-.605-2.468a3.299 3.299 0 00-.102 1.939c.042.162.065.327.069.494v.535m1.069-3.107c.485.563.327 2.344.327 3.15m.42 2.049a7.66 7.66 0 01-.133 1.782 2.682 2.682 0 00-.253.815 1.777 1.777 0 01-.128.302c-.033.043-.065.076-.098.076-.034 0-.125.083-.125-.033m.059-2.687c-.179.675-.284 1.448-.398 2.133-.061.261-.17.509-.322.73-.042.067-.301.413-.362.41m-.184-3.247a7.225 7.225 0 01-.319 1.546c-.063.162-.107.459-.168.62-.084.171-.148.35-.192.534a2.566 2.566 0 01-.118.495c0 .039-.178.231-.19.315-.011.039-.099.159-.076.027m.367-2.799c-.058.194-.153.478-.211.669-.076.232-.321.472-.396.714-.09.283-.324.464-.394.708-.062.188-.217.561-.297.796m2.679-3.212a15.254 15.254 0 00-.395 1.621c-.067.202-.174.39-.316.549-.049.055-.303.322-.368.319"/><path fill="#0B070C" d="M39.542 36.214c.178-.221.445-.545-.09-.647-.364.138-.068.452.09.647m.668-2.244c.255.649.546 1.283.871 1.901.041.094.095.199.041.279-.355.479.303.734.249.831-.054.098.105.107.134.198.064.233-.209.194-.428.189-.236-.008.371.864.286.845-.724-.187-1.745-.047-1.762-.704 0-.288.39-.445.341-.674-.006-.036-.195.028-.346-.016a.188.188 0 01-.1-.048.046.046 0 01-.031.014c-.157.04-.34-.031-.357.014-.043.229.344.382.344.67-.019.666-1.039.519-1.766.697-.076.027.534-.843.291-.838-.218.005-.49.052-.422-.179.025-.088.178-.106.128-.203-.05-.098.603-.356.251-.831-.06-.084 0-.19.039-.28.326-.618.616-1.253.872-1.903.151.024.304-.227.332-.256.189-.23.132-.214.128-.027.022.266.101.522.232.755a1.8 1.8 0 00.222-.714c-.011-.194-.068-.206.121.021.024.031.179.281.333.259"/><path fill="none" stroke="#0B070C" stroke-width=".044" stroke-miterlimit="2.613" d="M39.542 36.214c.178-.221.445-.545-.09-.647-.362.138-.067.452.09.647zm.668-2.244c.255.649.546 1.283.871 1.901.041.094.095.199.041.279-.355.479.303.734.249.831-.054.098.105.107.134.198.064.233-.209.194-.428.189-.236-.008.371.864.286.845-.724-.187-1.745-.047-1.762-.704 0-.288.39-.445.341-.674-.006-.036-.195.028-.346-.016a.188.188 0 01-.1-.048.046.046 0 01-.031.014c-.157.04-.34-.031-.357.014-.043.229.344.382.344.67-.019.666-1.039.519-1.766.697-.076.027.534-.843.291-.838-.218.005-.49.052-.422-.179.025-.088.178-.106.128-.203-.05-.098.603-.356.251-.831-.06-.084 0-.19.039-.28.326-.618.616-1.253.872-1.903.151.024.304-.227.332-.256.189-.23.132-.214.128-.027.022.266.101.522.232.755a1.8 1.8 0 00.222-.714c-.011-.194-.068-.206.121.021.021.031.179.281.33.259h0z"/><path fill="#FC0918" d="M38.888 34.072a18.44 18.44 0 01-.827 1.843c-.03.089-.088.188-.03.268.335.463-.284.712-.24.803.043.088-.095.107-.116.198-.063.226.193.183.4.183.207 0-.349.83-.268.803.676-.168 1.636-.033 1.658-.677 0-.278-.368-.422-.321-.643.007-.042.179.031.329-.017a.22.22 0 00.16-.233.886.886 0 00-.013-.185c-.033-.177-.74-.712.071-.815.068 0 .297.105.297.047-.032-.514-.685-1.328-.668-1.844 0-.188.051-.193-.119.02-.025.023-.166.277-.309.251"/><path fill="none" stroke="#0B070C" stroke-width=".044" stroke-miterlimit="2.613" d="M38.889 34.071a18.323 18.323 0 01-.828 1.843c-.031.089-.088.188-.031.268.335.463-.283.712-.24.798.043.084-.095.111-.117.199-.063.227.193.179.399.179.208 0-.349.833-.267.802.676-.166 1.635-.033 1.657-.676 0-.278-.367-.423-.321-.642.008-.043.178.03.33-.019a.222.222 0 00.161-.232.891.891 0 00-.013-.186c-.032-.179-.74-.712.071-.814.068 0 .298.105.298.047-.033-.515-.685-1.328-.669-1.844 0-.188.052-.193-.118.019-.029.032-.171.284-.312.258zm-1.086 4.101c.834-.09 1.502-.196 1.616-.437.31-.642-1.752-.252-1.764-.405-.03-.92 1.919-.221 1.976-.607.106-.742-1.613-.292-1.604-.535.051-.943 2.063-.552 1.847-.512"/><path fill="#FC0918" d="M40.17 34.108c.24.628.515 1.242.822 1.842.035.088.089.192.035.267-.335.471.284.713.239.802-.057.103.09.113.117.206.061.226-.193.179-.398.179-.221 0 .345.836.267.817-.676-.179-1.637-.043-1.656-.679 0-.282.363-.436.321-.65-.005-.035-.179.025-.325-.014a.226.226 0 01-.168-.238.83.83 0 01.016-.178c.032-.179.746-.713-.078-.813-.06-.009-.294.096-.294.043.035-.516.687-1.337.672-1.845-.004-.188-.056-.194.116.026.018.027.17.267.31.246"/><path fill="none" stroke="#0B070C" stroke-width=".044" stroke-miterlimit="2.613" d="M40.17 34.108c.241.628.515 1.242.822 1.842.035.088.089.192.035.267-.335.471.284.713.239.802-.044.09.09.113.12.205.059.227-.195.179-.4.179-.221 0 .345.837.267.817-.675-.179-1.637-.044-1.656-.68 0-.282.362-.434.321-.65-.005-.035-.178.025-.325-.014a.225.225 0 01-.167-.237.715.715 0 01.016-.178c.032-.178.747-.713-.078-.813-.06-.009-.293.096-.293.044.035-.517.687-1.337.672-1.846-.005-.188-.056-.195.117.027.017.016.17.258.31.235zm1.08 4.106c-.834-.098-1.505-.201-1.617-.445-.305-.639 1.759-.259 1.764-.405.036-.914-1.916-.227-1.97-.611-.106-.743 1.611-.295 1.604-.534-.054-.943-2.06-.545-1.856-.511"/><path fill="#0B070C" d="M39.533 35.302a1.937 1.937 0 00-1.309-.749c-1.383-.199-2.734.027-4.031-.534-.838-.357-2.869-1.619-2.646-3.923.258-2.721 1.389-3.53 1.515-6.506a4.781 4.781 0 00-1.328-2.978c.795-.859 1.744-2.034 2.541-2.892 1.604 1.277 3.722.879 5.254.011 1.543.879 3.654 1.266 5.258-.007.802.854 1.743 2.029 2.544 2.896a4.794 4.794 0 00-1.322 2.962c.123 2.979 1.254 3.793 1.516 6.506.223 2.312-1.815 3.573-2.648 3.931-1.298.557-2.653.338-4.034.534a2.045 2.045 0 00-1.315.749"/><path fill="none" stroke="#0B070C" stroke-width=".044" stroke-miterlimit="2.613" d="M39.533 35.302a1.937 1.937 0 00-1.309-.749c-1.383-.199-2.734.027-4.031-.534-.838-.357-2.869-1.619-2.646-3.923.258-2.721 1.389-3.53 1.515-6.506a4.781 4.781 0 00-1.328-2.978c.795-.859 1.744-2.034 2.541-2.892 1.604 1.277 3.722.879 5.254.011 1.543.879 3.654 1.266 5.258-.007.802.854 1.743 2.029 2.544 2.896a4.794 4.794 0 00-1.322 2.962c.123 2.979 1.254 3.793 1.516 6.506.223 2.312-1.815 3.573-2.648 3.931-1.298.557-2.653.338-4.034.534a2.05 2.05 0 00-1.31.749z"/><path fill="#FFF" d="M39.864 26.205V18.64a5.062 5.062 0 004.679 0c.747.802 1.214 1.248 1.959 2.06a4.762 4.762 0 00-1.059 3.129c.035.811.188 1.611.455 2.377h-6.034z"/><path fill="#63C0D3" d="M33.293 26.205a6.896 6.896 0 00.415-2.418 4.865 4.865 0 00-1.12-3.221c.738-.81 1.103-1.248 1.846-2.05 1.385 1.098 3.375.736 4.795.027v7.663h-5.936z"/><path fill="#DAEF41" d="M46.177 26.61H33.006a10.537 10.537 0 00-.986 3.268c-.206 2.182 1.705 3.355 2.496 3.693 1.217.524 2.496.316 3.788.504.486.06.93.312 1.231.699a1.914 1.914 0 011.234-.699c1.305-.183 2.577.028 3.79-.498.796-.338 2.699-1.515 2.495-3.695a12.369 12.369 0 00-.876-3.267m-6.449-.29h6.354a6.784 6.784 0 01-.451-2.563 4.579 4.579 0 011.089-3.08c-.75-.811-1.384-1.472-2.139-2.286a4.76 4.76 0 01-4.855-.025l.002 7.954zm-6.613 0h6.245v-7.978c-1.438.762-3.507 1.147-4.951-.006-.758.812-1.314 1.425-2.072 2.24.779.873 1.211 2 1.214 3.17a7.195 7.195 0 01-.439 2.567m6.417 8.833a1.955 1.955 0 00-1.292-.7c-1.368-.19-2.706.035-3.984-.519-.825-.355-2.838-1.604-2.613-3.886.252-2.678 1.377-3.485 1.49-6.433a4.887 4.887 0 00-1.233-3.02c.791-.854 1.618-1.866 2.413-2.722 1.583 1.263 3.703.821 5.218-.041 1.528.863 3.664 1.331 5.25.065.792.848 1.636 1.852 2.424 2.701a4.872 4.872 0 00-1.269 3.016c.117 2.941 1.239 3.755 1.494 6.438.217 2.277-1.782 3.519-2.62 3.884-1.276.547-2.615.327-3.975.519a2 2 0 00-1.306.693"/><path fill="#FC0918" d="M39.534 34.639a1.823 1.823 0 00-1.216-.662c-1.282-.179-2.542.025-3.743-.493-.777-.332-2.622-1.509-2.415-3.647a9.923 9.923 0 01.942-3.143c4.348 0 8.624.018 12.981.018.417.999.694 2.051.825 3.125a3.764 3.764 0 01-2.406 3.654c-1.201.516-2.458.312-3.735.495-.479.049-.92.284-1.228.654"/><path fill="#0B070C" d="M40.536 27.649c.324.112.669.248.691.53a.726.726 0 01.625.585c.256.122.396.169.419.357.167.019.312.13.371.287a.59.59 0 01.536.293c.14-.053.3-.021.409.082a.521.521 0 01.471 0 2.6 2.6 0 01.2-.027.47.47 0 01.383-.201.2.2 0 01.109-.238c-.072-.122-.122-.243.01-.374a.227.227 0 01.006-.308.234.234 0 01-.081-.249.306.306 0 01-.207-.21c-.186-.034-.282-.099-.32-.172a.222.222 0 01-.192.027c-.067.089-.148.081-.235.089a.46.46 0 01-.243.234c.003.06.012.117.028.173.16-.068.327.179.221.343-.106.167-.376.225-.437.008a.413.413 0 01-.287-.229c-.057-.146-.099-.197-.004-.307a.328.328 0 01.136-.442l.007-.003c.089-.179.198-.268.352-.252.094-.118.128-.237.395-.21a.486.486 0 01.544 0 .398.398 0 01.421.178c.129.062.286.104.317.304.155.088.345.148.286.405.157.13.246.324.239.528a.663.663 0 01.027.47c.054.383-.033.772-.245 1.096a.691.691 0 01-.496.545c-.204.373-.446.463-.709.392a.662.662 0 01-.653.206c-.287.138-.571.268-.74.12a.884.884 0 01-.928-.037.721.721 0 01-.852-.284.603.603 0 01-.653-.226c-.404.168-.74.196-.968-.035a.293.293 0 01-.217.063.69.69 0 01.064.754.667.667 0 01.601.164.584.584 0 01.901.177c.614-.234.849-.048.979.412a.4.4 0 01.413-.077c.247-.415.632-.287.817.057.185.343-.217.775-.671.703a.549.549 0 01-.58.101.913.913 0 01-.764-.087.638.638 0 01-.735.155c-.371.642-.73.418-1.098.204-.274.144-.5-.009-.728-.148a.489.489 0 01-.469.249.451.451 0 01-.374-.15.713.713 0 01-.896-.071.512.512 0 01-.64-.338.467.467 0 01-.308.021.565.565 0 01-.999-.406c-.226.006-.453-.004-.603-.43-.041-.111.01-.193.051-.307-.259-.165-.357-.298-.22-.69-.272-.13-.391-.393-.166-.803a.837.837 0 01.172-1.158c.211-.231.482-.396.782-.481-.006-.31.15-.558.676-.644a.774.774 0 01.822-.696.874.874 0 01.98-.35c.138-.232.435-.325 1.108-.103a.889.889 0 011.104.118c.165-.194.83.025 1.051.311"/><path fill="#EEB930" d="M33.966 30.574c.054 0 .101-.015.154-.015-.135-.306.066-.571.469-.585.511.043.991.263 1.357.624.398.317.851.56 1.337.713.524.079 1.042.19 1.553.332.229.113.193.26.136.54a.474.474 0 00.317-.401c-.03-.417-.317-.756-1.01-.992a2.424 2.424 0 01-1.758-.58 2.22 2.22 0 00-1.144-.945 1.224 1.224 0 00-1 .097c-.47.245-.52.506-.509.758.033.149.065.301.103.446m3.183-.158c-.455-.437-.248-.68-.69-1.33-.379-.558-1.418-.892-1.548-.044 1.293.095 1.233.648 1.878 1.152.145.019.378.177.357.222m.748.187c-.508-.438-.508-1.524-.892-2.179-.344-.58-1.069-.853-1.414-.022 1.455.321 1 1.421 1.826 2.051.153.07.313.121.48.15m.331-.011c-.322-.535-.156-1.673-.382-2.401-.141-.494-.963-1.112-1.505-.395 1.399.328.776 1.715 1.705 2.791.138.045.215-.038.177.006m.387.104c-.299-.62.06-1.744.101-2.489.027-.497-.644-1.364-1.355-.802 1.282.643.452 1.911 1.07 3.242.13.089.223.015.188.049m.283.132c-.199-.624.527-1.688.684-2.504a.795.795 0 00-1.044-.96c.822.843-.208 2.497.161 3.358.099.082.247.072.199.106m.238.077c.088-.587 1.016-1.694 1.256-2.496.159-.518.033-.998-.777-.906.604 1.007-.785 2.406-.632 3.325-.043.081.208.021.154.081m.136.013c.498.654 2.786-2.713 1.343-3.107a2.685 2.685 0 01-.5 1.64c-.363.611-.846 1-.843 1.467m.429.112c.967.562 2.828-2.308 1.515-2.706.197.807-1.11 2.658-1.515 2.706m.847.005c.713.556 1.439-.209 1.561-1.131a1.02 1.02 0 00-.23-.944 3.192 3.192 0 01-1.331 2.075m.827.299c.687.558 1.223-.275 1.272-1.031.022-.507-.073-.945-.381-.987.11.784-.355 1.873-.891 2.018m.748.218c.725.452 1.101-.445 1.096-1.075 0-.494-.403-.854-.508-.802.255.674-.162 1.827-.588 1.877m.911-.042c.687.259 1.037-.768.673-1.316-.196-.289-.351-.303-.46-.257.22.523.14 1.126-.213 1.573m.754-.061c.55.089.697-.733.431-1.146-.19-.301-.356-.317-.459-.269.269.429.28.971.029 1.411m.612-.246c.546.082.557-.593.292-1.021-.195-.297-.357-.311-.467-.256.23.384.294.845.178 1.277m.606-.352a.602.602 0 00.052-1.024c-.299-.226-.476-.204-.624-.022.402.188.633.619.568 1.059m.426-.544a.481.481 0 000-.757.445.445 0 00-.653 0c.292-.022.774.502.65.757m.227-.699a.326.326 0 00-.179-.423.324.324 0 00-.107-.022c-.305-.045-.378.04-.4.163a.682.682 0 01.687.285m-1.815-2.087c-.09.024-.322.078-.247.331.023.11.132.18.243.157a.215.215 0 00.106-.062.384.384 0 01-.102-.426m.467-.053c-.088-.021-.315-.076-.374.188a.202.202 0 00.121.259.201.201 0 00.137.002.41.41 0 01.116-.446m.46.145a.307.307 0 00-.472.07.222.222 0 00.026.311.228.228 0 00.152.052.507.507 0 01.291-.432m.338.267a.268.268 0 00-.439.017.205.205 0 00.07.333c-.013-.135.161-.326.369-.35m.267.435a.249.249 0 00-.236-.262.24.24 0 00-.167.051c-.262.145-.178.376-.089.376.008-.139.275-.229.495-.165m.191.409c-.011-.148-.127-.329-.427-.219-.299.109-.32.344-.236.355.019-.142.439-.201.663-.134m.079.387a.375.375 0 00-.506-.3c-.287.104-.298.225-.252.348a.639.639 0 01.758-.048m-2.27-.624a.347.347 0 01-.312-.042c-.028.121.096.315.25.269.156-.047.133-.153.062-.227m.042-.238c-.124.025-.212-.082-.258-.211-.043.112-.124.242 0 .319.106.056.216.075.258-.108m.034-.517a.213.213 0 00-.166.25c.001.013.005.022.009.033.064.165.214.164.331.067a.4.4 0 01-.174-.35m.075.879c-.013.059-.089.161-.16.169a.161.161 0 00.187.132.164.164 0 00.096-.057c.101-.158.027-.268-.123-.244"/><path fill="#EEB930" d="M39.595 32.82a.42.42 0 01-.403.28c-.231.015-.435-.11-.445-.28v-.006a.38.38 0 00.232-.298h.005c.112.218.351.34.593.304h.018zm-.313.761a.473.473 0 01-.607.011.301.301 0 01.003-.425c.011-.01.023-.021.036-.029a.564.564 0 00.554.054.35.35 0 00-.031.281.24.24 0 00.045.108m-1.639-.363a.413.413 0 01-.322.445.345.345 0 01-.431-.23c-.004-.01-.005-.02-.008-.029a.341.341 0 01.015-.149.463.463 0 00.288-.171.582.582 0 00.436.051.326.326 0 01.023.081m.82.255a.495.495 0 01-.561.179.267.267 0 01-.109-.361.594.594 0 00.452.114.44.44 0 00.304-.179.346.346 0 01-.083.255m-.67-.834a.386.386 0 01-.025.312c-.108.163-.336.163-.522 0a.534.534 0 01-.186-.411.278.278 0 00.09-.205c.003-.009.01-.014.019-.018a.46.46 0 00.51.357.273.273 0 00.111-.035m.724.426a.491.491 0 01-.562.186.288.288 0 01-.06-.463.643.643 0 01.145-.125.58.58 0 00.525.191h.04a.364.364 0 01-.089.211m4.424-.276a.307.307 0 01-.263.393.237.237 0 01-.155-.012.418.418 0 000-.205.492.492 0 00-.252-.29.302.302 0 01.231-.155.392.392 0 01.438.268m-.543.177a.318.318 0 01-.221.39c-.012.004-.025.006-.038.008a.434.434 0 01-.25-.047.383.383 0 00.106-.386.41.41 0 00-.128-.211c.029-.009.057-.021.09-.028a.392.392 0 01.438.275m-.544-.006a.317.317 0 01-.267.404.4.4 0 01-.455-.29c-.006-.016-.006-.025-.01-.041.079.02.159.024.239.016a.439.439 0 00.365-.283.35.35 0 01.128.194m-.836.083a.29.29 0 01-.254.357.343.343 0 01-.32-.112.365.365 0 00.063-.465.222.222 0 01.096-.034.403.403 0 01.179.017.51.51 0 00.198.161.913.913 0 01.033.078m-.871.382a.331.331 0 01-.31.351h-.007a.467.467 0 01-.508-.278.314.314 0 01.267-.383.6.6 0 00.562.31m.279-.486a.316.316 0 01-.268.396.402.402 0 01-.453-.287.317.317 0 01.194-.378.514.514 0 00.527.268m-.603-.303a.36.36 0 01-.23.138.434.434 0 01-.487-.303.342.342 0 01.288-.433.446.446 0 01.422.172.34.34 0 00-.06.291.532.532 0 00.067.135m-2.81-.474a.299.299 0 01-.287.367.465.465 0 01-.489-.267.191.191 0 01.006-.152.799.799 0 00.079.062.527.527 0 00.619 0 .371.371 0 00.045-.071.213.213 0 01.028.059m.076.822a.348.348 0 01-.208.179.39.39 0 01-.456-.216.265.265 0 01.012-.252c.079.024.16.027.24.011a.334.334 0 00.188-.144.288.288 0 000 .223.38.38 0 00.221.202m-.288.226a.204.204 0 01-.038.157.309.309 0 01-.425 0 .297.297 0 01-.12-.4h.001a.22.22 0 01.144-.077.238.238 0 00-.013.151.306.306 0 00.34.214.251.251 0 00.111-.045m4.806-.693a.31.31 0 01-.221.377c-.013.004-.026.006-.041.009a.388.388 0 01-.434-.269.3.3 0 01.206-.373.394.394 0 01.49.256m-.948-.132a.307.307 0 01-.267.388.395.395 0 01-.437-.279.309.309 0 01.222-.377c.013-.003.026-.007.04-.007a.393.393 0 01.439.275m-5.287-.566a.288.288 0 01-.026.267.372.372 0 01-.504 0 .338.338 0 01-.134-.459l.004-.006a.279.279 0 01.247-.1.498.498 0 00.409.299l.004-.001zm-.568-1.203a.377.377 0 01.336.308.267.267 0 00-.149.33.39.39 0 01-.188.054.414.414 0 01-.371-.383.348.348 0 01.372-.309m-.543.036c.067 0 .133.019.191.053a.3.3 0 00-.145.245c.01.139.083.264.199.338a.37.37 0 01-.246.091.437.437 0 01-.378-.416.356.356 0 01.386-.316m1.123 1.524c.07.052.12.125.143.21a.354.354 0 01-.239.443l-.006.002a.479.479 0 01-.515-.302.3.3 0 01.026-.229s.006.009.012.009c.2.099.443.044.579-.133m.511-.632a.36.36 0 01.189.062.361.361 0 00.124.48.38.38 0 01-.312.179.437.437 0 01-.394-.397h.021a.357.357 0 00.356-.324h.016zm-.211 1.643a.415.415 0 01-.336.171.496.496 0 01-.445-.454.098.098 0 01.015-.057.427.427 0 00.307.151.47.47 0 00.203-.054.513.513 0 00.254.241m-.067-.518s0 .012.016.016a.345.345 0 01-.149.217.36.36 0 00.133-.23m-.908-1.204a.317.317 0 00-.166.283.488.488 0 00.15.332.394.394 0 01-.108.018.513.513 0 01-.452-.475.32.32 0 01.039-.154c.032.01.066.015.1.013.1.002.196-.032.272-.096.05.037.105.064.165.079m.105.793a.3.3 0 00-.159.268.368.368 0 00.078.206h-.032a.463.463 0 01-.405-.396.271.271 0 01.096-.215.33.33 0 00.21.063.817.817 0 00.099 0c.032.033.071.06.114.076m1.032.143a.376.376 0 01.365.363.348.348 0 01-.365.323.437.437 0 01-.356-.229.316.316 0 00.192-.287.306.306 0 00-.026-.138.555.555 0 01.188-.032m-.363-1.468a.44.44 0 01.407.441.4.4 0 01-.407.393.513.513 0 01-.458-.468.425.425 0 01.458-.366m3.165 1.218c.177.097.244.32.147.497a.417.417 0 01-.545 0 .365.365 0 01-.137-.497.391.391 0 01.535 0m-.912-.229a.38.38 0 01.122.496.331.331 0 01-.468.01l-.009-.01a.399.399 0 01-.126-.5.332.332 0 01.47-.014l.012.014m-.968-.494a.426.426 0 01.159.577.46.46 0 01-.615 0 .423.423 0 01-.167-.575v-.002a.466.466 0 01.623 0"/><path fill="none" stroke="#0B070C" stroke-width=".044" stroke-miterlimit="2.613" d="M39.595 32.82a.42.42 0 01-.403.28c-.231.015-.435-.11-.445-.28v-.006a.38.38 0 00.232-.298h.005c.112.218.351.34.593.304h.018zm-.313.761a.473.473 0 01-.607.011.301.301 0 01.003-.425c.011-.01.023-.021.036-.029a.564.564 0 00.554.054.35.35 0 00-.031.281.257.257 0 00.045.108zm-1.639-.364a.413.413 0 01-.322.445.345.345 0 01-.431-.23c-.004-.01-.005-.02-.008-.029a.34.34 0 01.015-.149.463.463 0 00.288-.171.575.575 0 00.436.052c.01.026.018.054.022.082zm.821.255a.496.496 0 01-.561.179.267.267 0 01-.11-.362h.001a.594.594 0 00.452.114.44.44 0 00.304-.179.348.348 0 01-.086.248zm-.67-.834a.397.397 0 01-.025.313c-.108.16-.337.16-.522 0a.537.537 0 01-.186-.412.264.264 0 00.089-.206.037.037 0 01.02-.017.459.459 0 00.511.356.232.232 0 00.113-.034zm.724.426a.492.492 0 01-.561.188.291.291 0 01-.116-.393.292.292 0 01.056-.071.597.597 0 01.145-.125.579.579 0 00.525.19h.04a.355.355 0 01-.089.211zm4.425-.277a.307.307 0 01-.262.392.23.23 0 01-.155-.011.448.448 0 000-.206.496.496 0 00-.253-.29.306.306 0 01.231-.155.395.395 0 01.439.27h0zm-.544.178a.318.318 0 01-.221.391l-.038.008a.442.442 0 01-.25-.046.385.385 0 00.106-.388.416.416 0 00-.127-.211c.028-.008.057-.021.089-.028a.394.394 0 01.441.274zm-.545-.005a.316.316 0 01-.268.404.401.401 0 01-.454-.29c-.005-.016-.005-.025-.01-.042.079.02.159.025.239.016a.439.439 0 00.365-.283.352.352 0 01.128.195h0zm-.835.085a.29.29 0 01-.212.349c-.014.003-.028.006-.042.006a.345.345 0 01-.32-.111.365.365 0 00.102-.377.797.797 0 00-.039-.089.208.208 0 01.096-.033.39.39 0 01.179.017.49.49 0 00.198.16c.014.024.026.05.038.078h0zm-.874.381a.33.33 0 01-.309.351h-.006a.468.468 0 01-.509-.277.313.313 0 01.235-.377l.032-.007a.597.597 0 00.557.31zm.28-.484a.319.319 0 01-.227.388l-.042.008a.404.404 0 01-.454-.288.318.318 0 01.194-.378.513.513 0 00.529.27zm-.603-.301a.35.35 0 01-.23.136.435.435 0 01-.487-.303.34.34 0 01.234-.421c.017-.006.036-.009.054-.012a.452.452 0 01.422.173.339.339 0 00-.06.29.513.513 0 00.067.137zm-2.809-.474a.299.299 0 01-.287.367.462.462 0 01-.489-.268.189.189 0 01.006-.151c.025.021.051.043.079.062a.524.524 0 00.619 0 .405.405 0 00.045-.071.223.223 0 01.027.061zm.076.824a.358.358 0 01-.208.179.39.39 0 01-.457-.216.266.266 0 01.013-.251c.079.022.16.025.24.011a.344.344 0 00.188-.146.3.3 0 000 .224.399.399 0 00.224.199h0zm-.289.225a.203.203 0 01-.038.158.31.31 0 01-.424 0 .297.297 0 01-.122-.4l.001-.001a.226.226 0 01.144-.077.264.264 0 00-.013.152.307.307 0 00.34.214.277.277 0 00.112-.046zm4.805-.692a.308.308 0 01-.262.384.385.385 0 01-.434-.267.302.302 0 01.262-.385.39.39 0 01.434.268zm-.946-.134a.307.307 0 01-.268.387.396.396 0 01-.438-.277.31.31 0 01.262-.385.392.392 0 01.444.275zm-5.286-.567a.287.287 0 01-.027.269.372.372 0 01-.504 0 .338.338 0 01-.133-.459l.004-.008a.278.278 0 01.246-.098.495.495 0 00.409.297l.005-.001zm-.567-1.201a.373.373 0 01.335.306.27.27 0 00-.148.33.358.358 0 01-.188.055.416.416 0 01-.371-.384.344.344 0 01.372-.307zm-.543.034c.067 0 .133.019.19.054a.3.3 0 00-.145.245.433.433 0 00.2.338.366.366 0 01-.246.089.437.437 0 01-.391-.411.358.358 0 01.392-.315zm1.123 1.524c.07.053.12.126.143.211a.355.355 0 01-.239.443c-.001.002-.003.002-.006.003a.483.483 0 01-.515-.303.3.3 0 01.026-.229s.006.008.012.008a.47.47 0 00.582-.135l-.003.002zm.51-.632a.37.37 0 01.189.063.362.362 0 00.123.48.385.385 0 01-.312.179.438.438 0 01-.394-.399h.021a.354.354 0 00.356-.324l.017.001zm-.211 1.643a.415.415 0 01-.336.172.498.498 0 01-.446-.455c0-.02.005-.039.015-.057a.422.422 0 00.306.15.471.471 0 00.204-.052.502.502 0 00.257.242h0zm-.066-.518s0 .013.017.015a.347.347 0 01-.149.217.364.364 0 00.132-.232h0zm-.908-1.203a.324.324 0 00-.167.284.488.488 0 00.15.332.359.359 0 01-.108.017.512.512 0 01-.452-.474c0-.054.013-.107.04-.155a.408.408 0 00.372-.083.442.442 0 00.165.079h0zm.105.795a.299.299 0 00-.16.267.372.372 0 00.079.206h-.031a.46.46 0 01-.406-.396.268.268 0 01.095-.215.343.343 0 00.211.063.817.817 0 00.099 0c.031.033.07.057.113.075h0zm1.033.143a.376.376 0 01.366.363.348.348 0 01-.366.323.443.443 0 01-.356-.229.313.313 0 00.192-.288.311.311 0 00-.026-.138.534.534 0 01.19-.031h0zm-.372-1.469a.44.44 0 01.407.441.4.4 0 01-.407.393.513.513 0 01-.458-.468.424.424 0 01.458-.366zm3.165 1.218a.366.366 0 01.147.497h0a.417.417 0 01-.545 0 .365.365 0 01-.137-.497.387.387 0 01.535 0zm-.912-.23a.38.38 0 01.122.496.33.33 0 01-.468.01l-.011-.01a.4.4 0 01-.125-.5.332.332 0 01.47-.008l.012.012h0zm-.968-.492a.422.422 0 01.158.575.458.458 0 01-.615 0 .422.422 0 01-.168-.574v-.001a.463.463 0 01.625 0z"/><path fill="#B4562D" d="M42.694 22.493a5.18 5.18 0 00-.647-1.683c-.198-.197-.406-.377-.601-.587.248.178.494.361.744.541.269.438.471.914.598 1.413.09-.074.129-.027.218-.103a6.495 6.495 0 001.317-1.264c-.057.139-.304.542-.366.68-.802.777-1.115.841-1.102 1.128-.024.089-.045.188-.07.279.153-.143.604-.595.761-.739-.144.211-.609.732-.629.941-.157.179-.076.352-.04.534a7.44 7.44 0 001.896-1.132c-.645.787-1.248.802-1.872 1.532-.032.297-.065.576-.089.861.026.248.058.487.078.741.144.037.266.13.34.257.683.043 1.358.153 2.021.329l-5.115.01a6.284 6.284 0 011.808-.254.878.878 0 01.489-.395c.027-.407.053-.819.081-1.225a.632.632 0 00-.268-.549 5.292 5.292 0 01-1.256-1.35c.481.506 1.011.963 1.583 1.364.019-.081.042-.154.061-.224v-.572a4.502 4.502 0 01-1.082-1.069c.013-.015-.415-.486-.401-.506.462.497.969.951 1.516 1.354a1.157 1.157 0 00-.013-.132 3.762 3.762 0 00-.124-.167 1.7 1.7 0 01.16-.017"/><path fill="none" stroke="#5D4D43" stroke-width=".044" stroke-miterlimit="2.613" d="M42.694 22.493a5.18 5.18 0 00-.647-1.683c-.198-.197-.406-.377-.601-.587.248.178.494.361.744.541.269.438.471.914.598 1.413.09-.074.129-.027.218-.103a6.495 6.495 0 001.317-1.264c-.057.139-.304.542-.366.68-.802.777-1.115.841-1.102 1.128-.024.089-.045.188-.07.279.153-.143.604-.595.761-.739-.144.211-.609.732-.629.941-.157.179-.076.352-.04.534a7.44 7.44 0 001.896-1.132c-.645.787-1.248.802-1.872 1.532-.032.297-.065.576-.089.861.026.248.058.487.078.741.144.037.266.13.34.257.683.043 1.358.153 2.021.329l-5.115.01a6.284 6.284 0 011.808-.254.878.878 0 01.489-.395c.027-.407.053-.819.081-1.225a.632.632 0 00-.268-.549 5.292 5.292 0 01-1.256-1.35c.481.506 1.011.963 1.583 1.364.019-.081.042-.154.061-.224v-.572a4.502 4.502 0 01-1.082-1.069c.013-.015-.415-.486-.401-.506.462.497.969.951 1.516 1.354a1.157 1.157 0 00-.013-.132 3.762 3.762 0 00-.124-.167c.054-.005.109-.01.164-.013z"/><path fill="#358346" d="M44.715 22.441c.22-.624.403-.606.782-.803-.256.576-.48.798-.782.803"/><path fill="none" stroke="#339744" stroke-width=".044" stroke-miterlimit="2.613" d="M44.715 22.441c.22-.624.403-.606.782-.803-.256.58-.48.802-.782.803z"/><path fill="#358346" d="M43.006 23.978c.681-.373.844.139 1.175.131-.406.31-.927-.133-1.175-.131"/><path fill="none" stroke="#339744" stroke-width=".044" stroke-miterlimit="2.613" d="M43.006 23.978c.681-.373.844.139 1.175.131-.406.31-.927-.133-1.175-.131z"/><path fill="#358346" d="M43.509 20.53c-.366-.852.306-.883.341-1.243.323.529-.309.956-.341 1.243"/><path fill="none" stroke="#339744" stroke-width=".044" stroke-miterlimit="2.613" d="M43.509 20.53c-.366-.852.306-.883.341-1.243.323.529-.309.956-.341 1.243z"/><path fill="#358346" d="M42.303 23.613c-.312-.432-.168-.52-.045-.821.249.421.244.647.045.821"/><path fill="none" stroke="#339744" stroke-width=".044" stroke-miterlimit="2.613" d="M42.303 23.613c-.312-.432-.168-.52-.045-.821.25.421.244.647.045.821z"/><path fill="#358346" d="M41.477 22.91c-.624-.469-.057-.762-.167-1.031.475.25.09.82.167 1.031"/><path fill="none" stroke="#339744" stroke-width=".044" stroke-miterlimit="2.613" d="M41.477 22.91c-.624-.469-.057-.762-.167-1.031.475.25.086.82.167 1.031z"/><path fill="#358346" d="M41.996 23.337c-.613-.473-.178-.822-.313-1.107.451.246.212.878.313 1.107"/><path fill="none" stroke="#339744" stroke-width=".044" stroke-miterlimit="2.613" d="M41.996 23.337c-.613-.473-.178-.822-.313-1.107.451.246.212.878.313 1.107z"/><path fill="#358346" d="M44.356 20.795c-.058-.875.414-.998.755-1.332-.004.809-.409 1.248-.755 1.332"/><path fill="none" stroke="#339744" stroke-width=".044" stroke-miterlimit="2.613" d="M44.356 20.795c-.058-.875.414-.998.755-1.332-.004.809-.409 1.247-.755 1.332z"/><path fill="#358346" d="M43.377 23.647c.673-.395.853.117 1.179.098-.394.32-.925-.108-1.179-.098"/><path fill="none" stroke="#339744" stroke-width=".044" stroke-miterlimit="2.613" d="M43.377 23.647c.673-.395.853.117 1.179.098-.394.32-.925-.109-1.179-.098z"/><path fill="#358346" d="M43.889 23.328c.723-.31.835.226 1.165.244-.437.273-.901-.221-1.165-.244"/><path fill="none" stroke="#339744" stroke-width=".044" stroke-miterlimit="2.613" d="M43.889 23.328c.723-.31.835.226 1.165.244-.438.273-.901-.221-1.165-.244z"/><path fill="#358346" d="M44.291 23.11c.446-.529.744-.083 1.002-.179-.239.405-.795.115-1.002.179"/><path fill="none" stroke="#339744" stroke-width=".044" stroke-miterlimit="2.613" d="M44.291 23.11c.446-.529.744-.083 1.002-.179-.239.405-.795.115-1.002.179z"/><path fill="#358346" d="M44.636 22.775c.247-.547.561-.133.738-.24-.105.4-.591.155-.738.24"/><path fill="none" stroke="#339744" stroke-width=".044" stroke-miterlimit="2.613" d="M44.636 22.775c.247-.547.561-.133.738-.24-.105.4-.591.155-.738.24z"/><path fill="#358346" d="M42.565 23.978c-.683-.373-.853.139-1.182.131.409.31.924-.133 1.182-.131"/><path fill="none" stroke="#339744" stroke-width=".044" stroke-miterlimit="2.613" d="M42.565 23.978c-.683-.373-.853.139-1.182.131.409.31.924-.133 1.182-.131z"/><path fill="#358346" d="M42.189 23.647c-.678-.395-.858.117-1.182.098.396.32.927-.108 1.182-.098"/><path fill="none" stroke="#339744" stroke-width=".044" stroke-miterlimit="2.613" d="M42.189 23.647c-.678-.395-.858.117-1.182.098.396.32.927-.109 1.182-.098z"/><path fill="#358346" d="M41.679 23.328c-.721-.31-.842.226-1.158.244.433.273.891-.221 1.158-.244"/><path fill="none" stroke="#339744" stroke-width=".044" stroke-miterlimit="2.613" d="M41.679 23.328c-.721-.31-.842.226-1.158.244.431.273.892-.221 1.158-.244z"/><path fill="#358346" d="M41.283 23.11c-.46-.529-.753-.083-1.015-.179.246.405.803.115 1.015.179"/><path fill="none" stroke="#339744" stroke-width=".044" stroke-miterlimit="2.613" d="M41.283 23.11c-.46-.529-.753-.083-1.015-.179.246.405.795.115 1.015.179z"/><path fill="#358346" d="M40.933 22.775c-.241-.547-.559-.133-.744-.24.109.4.588.155.744.24"/><path fill="none" stroke="#339744" stroke-width=".044" stroke-miterlimit="2.613" d="M40.933 22.775c-.241-.547-.559-.133-.744-.24.109.4.588.155.744.24z"/><path fill="#358346" d="M40.961 22.4c-.219-.636-.399-.609-.774-.803.251.579.48.795.774.803"/><path fill="none" stroke="#339744" stroke-width=".044" stroke-miterlimit="2.613" d="M40.961 22.4c-.219-.636-.399-.609-.774-.803.251.58.48.796.774.803z"/><path fill="#358346" d="M43.211 23.461a.987.987 0 00.227-.869.733.733 0 00-.227.869"/><path fill="none" stroke="#339744" stroke-width=".044" stroke-miterlimit="2.613" d="M43.211 23.461a.987.987 0 00.227-.869.733.733 0 00-.227.869z"/><path fill="#358346" d="M44.223 22.732c.721-.301.263-.749.4-1.221a3.05 3.05 0 00-.4 1.221"/><path fill="none" stroke="#339744" stroke-width=".044" stroke-miterlimit="2.613" d="M44.223 22.732c.721-.301.263-.749.4-1.221a3.05 3.05 0 00-.4 1.221z"/><path fill="#358346" d="M43.621 23.171c.719-.306.352-.874.558-1.122-.428.235-.4.925-.558 1.122"/><path fill="none" stroke="#339744" stroke-width=".044" stroke-miterlimit="2.613" d="M43.621 23.171c.719-.306.352-.874.558-1.122-.428.235-.4.925-.558 1.122z"/><path fill="#358346" d="M41.432 21.821a1.089 1.089 0 00-.999-.535c.421.479.709.617.999.535"/><path fill="none" stroke="#339744" stroke-width=".044" stroke-miterlimit="2.613" d="M41.432 21.821a1.089 1.089 0 00-.999-.535c.421.472.709.609.999.535z"/><path fill="#358346" d="M41.293 21.571c.045-.772-.161-.82-.486-1.184.024.73.17 1.053.486 1.184"/><path fill="none" stroke="#339744" stroke-width=".044" stroke-miterlimit="2.613" d="M41.293 21.571c.045-.772-.161-.82-.486-1.184.024.73.17 1.053.486 1.184z"/><path fill="#358346" d="M41.643 20.348c.413-.582.207-.654.025-.987-.328.548-.307.822-.025.987"/><path fill="none" stroke="#339744" stroke-width=".044" stroke-miterlimit="2.613" d="M41.643 20.348c.413-.582.207-.654.025-.987-.328.548-.308.822-.025.987z"/><path fill="#358346" d="M41.747 22.144c-.624-.467-.066-.766-.166-1.032.475.253.088.816.166 1.032"/><path fill="none" stroke="#339744" stroke-width=".044" stroke-miterlimit="2.613" d="M41.747 22.144c-.624-.467-.066-.766-.166-1.032.475.253.087.816.166 1.032z"/><path fill="#358346" d="M42.303 22.527c-.312-.432-.168-.518-.045-.816.249.413.244.646.045.816"/><path fill="none" stroke="#339744" stroke-width=".044" stroke-miterlimit="2.613" d="M42.303 22.527c-.312-.432-.168-.518-.045-.816.25.413.244.646.045.816z"/><path fill="#358346" d="M41.996 22.305a.985.985 0 00-.005-.891.711.711 0 00.005.891"/><path fill="none" stroke="#339744" stroke-width=".044" stroke-miterlimit="2.613" d="M41.996 22.305a.985.985 0 00-.005-.891.711.711 0 00.005.891z"/><path fill="#358346" d="M42.153 20.69c-.625-.466-.06-.767-.163-1.036.473.254.089.824.163 1.036"/><path fill="none" stroke="#339744" stroke-width=".044" stroke-miterlimit="2.613" d="M42.153 20.69c-.625-.466-.06-.767-.163-1.036.474.251.09.821.163 1.036z"/><path fill="#358346" d="M43.461 20.387c-.747-.225-.337-.696-.542-.913.54.077.388.741.542.913"/><path fill="none" stroke="#339744" stroke-width=".044" stroke-miterlimit="2.613" d="M43.461 20.387c-.747-.225-.337-.696-.542-.913.54.078.388.742.542.913z"/><path fill="#358346" d="M42.992 22.123c.183-.345.189-.757.018-1.108a.921.921 0 00-.018 1.108"/><path fill="none" stroke="#339744" stroke-width=".044" stroke-miterlimit="2.613" d="M42.992 22.123c.183-.345.189-.757.018-1.108a.921.921 0 00-.018 1.108z"/><path fill="#358346" d="M44.039 21.043c.605-.482.043-.789.043-1.276a2.909 2.909 0 00-.043 1.276"/><path fill="none" stroke="#339744" stroke-width=".044" stroke-miterlimit="2.613" d="M44.039 21.043c.605-.482.043-.789.043-1.276a2.909 2.909 0 00-.043 1.276z"/><path fill="#358346" d="M43.393 21.851c.578-.64-.139-.935-.064-1.247-.312.419.114.996.064 1.247"/><path fill="none" stroke="#339744" stroke-width=".044" stroke-miterlimit="2.613" d="M43.393 21.851c.578-.64-.139-.935-.064-1.247-.312.419.114.994.064 1.247z"/><path fill="#358346" d="M45.549 20.735c-.581.528-.789.375-1.337.328.59-.445.973-.515 1.337-.328"/><path fill="none" stroke="#339744" stroke-width=".044" stroke-miterlimit="2.613" d="M45.549 20.735c-.581.528-.789.375-1.337.328.587-.45.97-.515 1.337-.328z"/><path fill="#358346" d="M43.813 21.562c.643-.446.829-.281 1.37-.164-.642.368-1.03.392-1.37.164"/><path fill="none" stroke="#339744" stroke-width=".044" stroke-miterlimit="2.613" d="M43.813 21.562c.643-.446.829-.281 1.37-.164-.642.369-1.03.393-1.37.164z"/><path fill="#358346" d="M43.865 21.386a1.21 1.21 0 00-.235-1.055.893.893 0 00.235 1.055"/><path fill="none" stroke="#339744" stroke-width=".044" stroke-miterlimit="2.613" d="M43.865 21.386a1.21 1.21 0 00-.235-1.055.893.893 0 00.235 1.055z"/><path fill="#358346" d="M42.595 21.513c-.214-.491-.043-.546.144-.813.147.467.089.688-.144.813"/><path fill="none" stroke="#339744" stroke-width=".044" stroke-miterlimit="2.613" d="M42.595 21.513c-.214-.491-.043-.546.144-.813.147.466.085.688-.144.813z"/><path fill="#358346" d="M42.294 20.99c.224-.225.333-.537.299-.852a.754.754 0 00-.299.852"/><path fill="none" stroke="#339744" stroke-width=".044" stroke-miterlimit="2.613" d="M42.294 20.99c.224-.225.333-.537.299-.852a.754.754 0 00-.299.852z"/><path fill="#358346" d="M41.973 20.746a1.08 1.08 0 00-.903-.205.803.803 0 00.903.205"/><path fill="none" stroke="#339744" stroke-width=".044" stroke-miterlimit="2.613" d="M41.973 20.746a1.08 1.08 0 00-.903-.205.803.803 0 00.903.205z"/><path fill="#358346" d="M42.359 21.513a1.069 1.069 0 00-.896-.204.788.788 0 00.896.204"/><path fill="none" stroke="#339744" stroke-width=".044" stroke-miterlimit="2.613" d="M42.359 21.513a1.069 1.069 0 00-.896-.204.788.788 0 00.896.204z"/><path fill="#358346" d="M42.303 21.198a1.058 1.058 0 00-.901-.204c.229.249.588.33.901.204"/><path fill="none" stroke="#339744" stroke-width=".044" stroke-miterlimit="2.613" d="M42.303 21.198a1.058 1.058 0 00-.901-.204c.229.249.588.33.901.204z"/><path fill="#358346" d="M43.006 22.284c.67.393.858-.114 1.188-.09-.398-.323-.924.105-1.188.09"/><path fill="none" stroke="#339744" stroke-width=".044" stroke-miterlimit="2.613" d="M43.006 22.284c.67.393.858-.114 1.188-.09-.398-.326-.924.101-1.188.09z"/><path fill="#358346" d="M43.522 21.878a1.09 1.09 0 011.134-.09c-.588.263-.912.278-1.134.09"/><path fill="none" stroke="#339744" stroke-width=".044" stroke-miterlimit="2.613" d="M43.522 21.878a1.09 1.09 0 011.134-.09c-.588.266-.913.28-1.134.09z"/><path fill="#358346" d="M41.54 20.401c-.569.046-.652-.236-.883-.445.528-.006.82.242.883.445"/><path fill="none" stroke="#339744" stroke-width=".044" stroke-miterlimit="2.613" d="M41.54 20.401c-.569.046-.652-.236-.883-.445.528-.007.82.239.883.445z"/><path fill="#5E4D55" d="M39.229 25.845a1.534 1.534 0 00-.227-.035c-.177 0-.712-.156-.83-.137-.324.11-.841-.227-1.025-.111-.347.055-.699.07-1.048.047a2.699 2.699 0 00-1.293.083c-.215.101-.52-.22-.623-.112-.216.19-.497.29-.785.277-.037.12-.077.236-.121.351h5.957l-.005-.363z"/><path fill="none" stroke="#0B070C" stroke-width=".044" stroke-miterlimit="2.613" d="M39.229 25.845a1.534 1.534 0 00-.227-.035c-.177 0-.712-.156-.83-.137-.324.11-.841-.227-1.025-.111-.347.055-.699.07-1.048.047a2.699 2.699 0 00-1.293.083c-.215.101-.52-.22-.623-.112-.216.19-.497.29-.785.277-.037.12-.077.236-.121.351h5.957l-.005-.363z"/><path fill="#0B070C" d="M38.119 23.415c-.3.117-.498.926-.619 1.164-.071.129-.219.434-.078.629.061.084.163.118.179.191.203.027.317.122.304.279-.084.137-.39.106-.535.032a.12.12 0 00-.061-.11 1.765 1.765 0 01-.037-.11c-.436-.213-.136-.492-.185-1.088-.031.107-.058.217-.09.327-.04.245-.052.493-.041.741a.552.552 0 00.234.225c.096.04.096.073.198.21.008.036.057.124.015.149-.042.075-.064.123-.416.032-.007-.05-.009-.09-.014-.138-.046.024-.076 0-.09-.054a.353.353 0 00-.133-.192c0-.095-.127-.097-.163-.227-.01-.194.009-.386.054-.574a4.14 4.14 0 00.109-.874.788.788 0 01-.152-.613 1.108 1.108 0 01-.823-.198c-.132-.089-.071.584-.547.855a.544.544 0 00-.188.304c-.167.171.102.724.267.903.084.089.214.258.292.357.128.077.309.167.301.311a.868.868 0 01-.578 0c-.015-.063-.106-.168-.036-.232a.4.4 0 01-.263-.106 8.73 8.73 0 00-.514-1.017c-.063 0-.089-.179-.089-.238.017-.111.03.015.163-.368-.095.184-.36.348-.347.572.034.178.201.588.231.762.108.089.073.178.313.268.112.089.293.251.293.362a.834.834 0 01-.598.026c-.035-.075-.044-.192-.08-.278-.051-.012-.033-.074-.083-.09-.061-.035-.205-.023-.268-.059-.09-.391-.188-1.034-.284-1.423a.407.407 0 01.114-.344c.179-.107.295-.337.428-.481.199-.146.089-.543-.098-.753-.079.116-.035.15-.065.169-.095.053-.229-.218-.184-.356.03-.167-.01-.297.03-.521.074-.367.282-.437.488-.248.258-.255.616-.383.977-.35a1.947 1.947 0 011.306.109c.281.062.541.201.748.401.096.077.219.013.299-.082a4.136 4.136 0 00-.299-1.735c-.256.15-.445-.014-.713-.178-.065-.038-.063-.071-.014-.105.089 0 .163-.06.249-.06-.135-.097-.105-.143-.027-.163.213.048.408-.102.598.014.123-.188.336-.178.542-.193.18.005.35.084.468.22.065.101.319.123.368.178.049.055.011.192-.019.283a.266.266 0 01-.212.13c-.048.019-.117.005-.169.021-.011.045-.1.097-.167.132.189.559.266 1.149.226 1.737.041.393-.102.781-.387 1.053-.137.113-.054.278-.131.408"/><path fill="#B4562D" d="M37.629 19.737c-.048.055-.214.202-.341.183-.144-.033-.144-.123-.307-.152-.079-.023-.068-.054.016-.082.188-.063.436-.184.616-.012-.148.018-.178.032-.343.043a.59.59 0 00.355.019"/><path fill="#813931" d="M37.09 19.543c-.07-.035-.109-.04-.026-.073.227.046.395-.101.545.038-.049.028-.037.046-.09.046-.038-.066-.323 0-.424-.01"/><path fill="#B4562D" d="M37.703 19.482a.565.565 0 01.728-.048c.121.11.271.186.433.217a.108.108 0 00.096.094c-.012.021-.019.079-.033.102-.048.053-.192.039-.333.039.098.035.203.047.306.035-.025.056-.112.151-.341.11-.06.115-.178.211-.415.122-.071.012-.169-.046-.239-.062.096.115.23.191.377.215.173.5.266 1.025.276 1.555a2.265 2.265 0 01-.191.884c-.052.135-.153.155-.206.227-.137.187-.099.357-.15.445-.387.052-.426 1.146-.638 1.102-.154-.037-.228-.6-.029-.712.673-.382.424-1.315.459-1.233-.148.498-.043.98-.375.955-.273-.104-.401.658-.397.788a.964.964 0 01-.076.345c-.035.212-.06.425-.073.639a.728.728 0 00.021.213.671.671 0 00.284.267c.146.054.209.227.173.267a.243.243 0 01-.322.017.307.307 0 01-.031-.139c-.112-.01-.112-.146-.216-.238.024-.089-.179-.119-.179-.286.035-.295.089-.588.161-.874a1.43 1.43 0 00.089-.438c-.052-.129.109-.129 0-.225-.216-.199-.191-.535.106-.858-.061-.029-.094-.13-.136-.189v.229l-.23.287a1.144 1.144 0 01-.891-.31.443.443 0 01-.208-.409c0-.035-.137 0-.112.026.045.058-.039.122-.012.212.012.075.196.131.186.193l-.049.39c-.07.29-.235.548-.469.732l-.179.397c-.013.232.324.688.495.893.065.057.121.168.183.227a.649.649 0 01.289.228.74.74 0 01-.465 0 .174.174 0 010-.214.513.513 0 01-.292-.12 9.953 9.953 0 00-.546-1.05.254.254 0 01.054-.323c.192-.307.246-.679.147-1.027-.177-.063-.335-.379-.375-.671a1.044 1.044 0 01.21-.892 1.1 1.1 0 01.869-.249 2.574 2.574 0 011.605.201c.288.039.356.348.58.324a.294.294 0 00.267-.285 5.153 5.153 0 00-.291-1.669.25.25 0 01.152-.156c-.057-.047-.105-.101-.089-.15.012-.045.025-.089.041-.133"/><path fill="#0B070C" d="M38.545 19.686c-.156-.052-.16-.118-.329-.068a.258.258 0 00-.149.137c.064-.032.09-.048.128-.037.068.037.189.032.217-.027.049-.016.075.016.133-.005"/><path fill="#B4562D" d="M37.443 23.614a.359.359 0 01-.045.353.373.373 0 01-.057.493c.135.231-.045.357-.031.652.068.189.216.189.216.312.178.025.305.07.314.201.007.025-.035-.046-.089-.027.056.038.073.076.056.083a.527.527 0 01-.258.039c-.043-.018-.101-.022-.128-.098a.553.553 0 00.029-.12.27.27 0 01-.25-.285l.001-.019a.965.965 0 00-.058.148.317.317 0 01-.078-.233c.074-.242.096-.501.063-.754 0-.558.153-.635.318-.742"/><path fill="#B86F4C" d="M34.213 21.907c.029.048-.032.167-.113.296a.202.202 0 00.156-.09.574.574 0 01-.138.242c.039.011.078 0 .138-.09v.063a1.738 1.738 0 00-.065.167c-.049.026-.058.129-.089.202a.594.594 0 01-.051-.522c-.065-.056.011-.161.069-.25-.018 0-.069.038-.09.044a.665.665 0 01.145-.362c.089-.047.156-.049.213.056.013.056.013.089-.106.151-.125.081-.111.09-.07.09"/><path fill="#5D4D43" d="M34.835 22.864c.005.297.071.486.068.736a2.12 2.12 0 01-.254.756c.042-.041.099-.125.136-.108.036-.145.096-.28.179-.403a.53.53 0 00.048-.438 1.465 1.465 0 01-.173-.543"/><path fill="#B4562D" d="M34.149 24.403c-.012.056-.02.114-.03.169.039.276.126.545.255.792a.409.409 0 01.149.146c.042.04.082.08.126.115.131.06.243.154.324.274a.544.544 0 01-.45-.011 3.418 3.418 0 00-.103-.268c-.023-.022-.051-.038-.079-.065-.073-.032-.267-.103-.28-.179a6.074 6.074 0 00-.218-1.165.343.343 0 01.057-.382c.146-.101.273-.226.378-.367a.639.639 0 00.215-.431.605.605 0 01.14.352.87.87 0 01-.054.549c-.144.161-.286.312-.43.471"/><path fill="#5D4D43" d="M34.449 23.313c-.032.372-.476.601-.486.98a.76.76 0 01.064-.462c.172-.144.315-.318.422-.516m-.416.313a.76.76 0 00-.156.32c-.004-.077-.038-.147.02-.218a.2.2 0 01.136-.102"/><path fill="none" d="M39.68 17.321c.246-.345.666-.52 1.083-.451a1.058 1.058 0 011.134-.519c.016-.256.116-.5.286-.693a1.809 1.809 0 01-.713-1.022 1.666 1.666 0 01-.987-.446c-.227.044-.433.15-.706-.084-.157.234-.313.155-.602 0-.245.019-.565.15-.811.168a.81.81 0 01-.859.306c.056.368-.051.741-.293 1.023.19.267.103.218.19.479.119.245.619.421.719.713a.863.863 0 00.692.133c.323.041.626.18.867.398m.784.793c.76.102 1.193-.016 1.292-.342.054.212 1.567-.245 1.329-.623.39-.105.687-.423.766-.818.022-.061-.287.099-.34.044.372-.366.427-.945.132-1.375-.026-.744-.233-1.224-.659-1.31-.016.042.058.844-.014.467a2.004 2.004 0 00-1.019-1.049 1.486 1.486 0 00-1.49-.501.972.972 0 00-.614.084c-.285-.096-.82-.166-1.006 0-.299-.16-.376-.096-.703 0-.554-.038-.594.102-1.011.46-.393.089-.713.37-.854.747-.29.268-.65.486-.65.981-.406.389-.122 1.102-.049 1.297-.103 1.083.237.938.624 1.07.015.609.833.361 1.255.657.482.473.749.406 2.25.051.246.087.503.14.764.156"/><path fill="none" d="M39.68 17.321c.246-.345.666-.52 1.083-.451a1.058 1.058 0 011.134-.519c.016-.256.116-.5.286-.693a1.809 1.809 0 01-.713-1.022 1.666 1.666 0 01-.987-.446c-.227.044-.433.15-.706-.084-.157.234-.313.155-.602 0-.245.019-.565.15-.811.168a.81.81 0 01-.859.306c.056.368-.051.741-.293 1.023.19.267.103.218.19.479.119.245.619.421.719.713a.863.863 0 00.692.133c.322.039.625.177.867.393zm.784.792c.76.102 1.193-.016 1.292-.341.054.211 1.567-.245 1.329-.623.39-.106.687-.423.766-.818.022-.061-.287.098-.34.044.372-.366.427-.946.132-1.375-.026-.744-.233-1.224-.659-1.311-.016.043.058.845-.014.468a2.01 2.01 0 00-1.019-1.05 1.488 1.488 0 00-1.49-.5.972.972 0 00-.614.084c-.285-.095-.82-.166-1.006 0-.299-.16-.376-.095-.703 0-.554-.038-.594.103-1.011.461a1.189 1.189 0 00-.854.747c-.29.268-.65.486-.65.98-.406.389-.122 1.103-.049 1.297-.103 1.084.237.939.624 1.07.015.61.833.362 1.255.658.482.472.749.405 2.25.05.244.088.499.143.758.16h.003z"/><path fill="#339744" d="M41.991 14.121c-.035.695.514.752 1.134 1.136a1.746 1.746 0 00-1.134-1.136"/><path fill="none" stroke="#0B070C" stroke-width=".044" stroke-miterlimit="2.613" d="M41.991 14.121c-.035.695.514.752 1.134 1.136a1.746 1.746 0 00-1.134-1.136z"/><path fill="#339744" d="M43.178 13.891c.585 1.103-.17 1.256-.131 1.75-.482-.667.15-1.353.131-1.75"/><path fill="none" stroke="#0B070C" stroke-width=".044" stroke-miterlimit="2.613" d="M43.178 13.891c.585 1.103-.17 1.256-.131 1.75-.482-.664.15-1.353.131-1.75z"/><path fill="#339744" d="M41.778 14.784c.316.935.491.625 1.079.904-.364-.623-.479-.751-1.079-.904"/><path fill="none" stroke="#0B070C" stroke-width=".044" stroke-miterlimit="2.613" d="M41.778 14.784c.316.935.491.625 1.079.904-.364-.619-.479-.751-1.079-.904z"/><path fill="#339744" d="M43.134 16.865c-.485-1.178.43-1.219.48-1.706.437.733-.433 1.317-.48 1.706"/><path fill="none" stroke="#0B070C" stroke-width=".044" stroke-miterlimit="2.613" d="M43.134 16.865c-.485-1.178.43-1.219.48-1.706.437.733-.433 1.317-.48 1.706z"/><path fill="#339744" d="M42.218 17.076c.924-.755.096-1.07.247-1.469-.696.426-.132 1.158-.247 1.469"/><path fill="none" stroke="#0B070C" stroke-width=".044" stroke-miterlimit="2.613" d="M42.218 17.076c.924-.755.096-1.07.247-1.469-.696.426-.132 1.157-.247 1.469z"/><path fill="#339744" d="M42.996 15.385c-.642.765-.281.737-.211 1.364.349-.623.4-.797.211-1.364"/><path fill="none" stroke="#0B070C" stroke-width=".044" stroke-miterlimit="2.613" d="M42.996 15.385c-.642.765-.281.737-.211 1.364.347-.626.399-.797.211-1.364z"/><path fill="#339744" d="M42.257 17.296c.446-1.041 1.128-.579 1.49-.891-.178.729-1.199.651-1.49.891"/><path fill="none" stroke="#0B070C" stroke-width=".044" stroke-miterlimit="2.613" d="M42.257 17.296c.446-1.041 1.128-.579 1.49-.891-.182.731-1.202.654-1.49.891z"/><path fill="#339744" d="M41.557 17.288c.414-.666.631-.519 1.125-.545-.446.577-.768.707-1.125.545"/><path fill="none" stroke="#0B070C" stroke-width=".044" stroke-miterlimit="2.613" d="M41.557 17.288c.414-.666.631-.519 1.125-.545-.447.577-.768.707-1.125.545z"/><path fill="#339744" d="M41.205 17.465c.856-.762 1.284-.073 1.748-.203-.479.584-1.373.114-1.748.203"/><path fill="none" stroke="#0B070C" stroke-width=".044" stroke-miterlimit="2.613" d="M41.205 17.465c.856-.762 1.284-.073 1.748-.203-.48.584-1.373.114-1.748.203z"/><path fill="#339744" d="M40.854 17.229c.335-1.192 1.142-.569 1.499-.892-.097.843-1.206.647-1.499.892"/><path fill="none" stroke="#0B070C" stroke-width=".044" stroke-miterlimit="2.613" d="M40.854 17.229c.335-1.192 1.142-.569 1.499-.892-.096.844-1.205.648-1.499.892z"/><path fill="#339744" d="M40.553 17.583c.575-.543.741-.356 1.226-.261-.573.453-.925.501-1.226.261"/><path fill="none" stroke="#0B070C" stroke-width=".044" stroke-miterlimit="2.613" d="M40.553 17.583c.575-.543.741-.356 1.226-.261-.573.453-.925.501-1.226.261z"/><path fill="#339744" d="M39.672 17.729c.333-1.189 1.14-.566 1.494-.891-.089.839-1.207.642-1.494.891"/><path fill="none" stroke="#0B070C" stroke-width=".044" stroke-miterlimit="2.613" d="M39.672 17.729c.333-1.189 1.14-.566 1.494-.891-.087.843-1.206.646-1.494.891z"/><path fill="#339744" d="M39.857 17.803c.958-.639 1.276.102 1.753.046-.55.506-1.365-.089-1.753-.046"/><path fill="none" stroke="#0B070C" stroke-width=".044" stroke-miterlimit="2.613" d="M39.857 17.803c.958-.639 1.276.102 1.753.046-.55.506-1.365-.087-1.753-.046z"/><path fill="#339744" d="M37.272 14.221c.035.697-.518.753-1.132 1.125.17-.538.592-.958 1.132-1.125"/><path fill="none" stroke="#0B070C" stroke-width=".044" stroke-miterlimit="2.613" d="M37.272 14.221c.035.697-.518.753-1.132 1.125.17-.538.592-.958 1.132-1.125z"/><path fill="#339744" d="M36.235 14.109c-.877.91-.194 1.252-.367 1.721.647-.527.231-1.348.367-1.721"/><path fill="none" stroke="#0B070C" stroke-width=".044" stroke-miterlimit="2.613" d="M36.235 14.109c-.877.91-.194 1.252-.367 1.721.648-.527.231-1.348.367-1.721z"/><path fill="#339744" d="M37.403 14.788c-.168.974-.384.684-.921 1.056.267-.674.356-.819.921-1.056"/><path fill="none" stroke="#0B070C" stroke-width=".044" stroke-miterlimit="2.613" d="M37.403 14.788c-.168.974-.384.684-.921 1.056.264-.675.357-.819.921-1.056z"/><path fill="#339744" d="M36.1 16.752c.488-1.177-.425-1.213-.477-1.71-.437.736.43 1.324.477 1.71"/><path fill="none" stroke="#0B070C" stroke-width=".044" stroke-miterlimit="2.613" d="M36.1 16.752c.488-1.177-.425-1.213-.477-1.71-.437.736.43 1.324.477 1.71z"/><path fill="#339744" d="M36.9 17.136c-.721-.942.161-1.07.109-1.482.578.573-.142 1.149-.109 1.482"/><path fill="none" stroke="#0B070C" stroke-width=".044" stroke-miterlimit="2.613" d="M36.9 17.136c-.721-.942.161-1.07.109-1.482.578.573-.142 1.149-.109 1.482z"/><path fill="#339744" d="M36.269 15.485c.633.76.273.725.212 1.366-.356-.64-.4-.802-.212-1.366"/><path fill="none" stroke="#0B070C" stroke-width=".044" stroke-miterlimit="2.613" d="M36.269 15.485c.633.76.273.725.212 1.366-.358-.64-.4-.798-.212-1.366z"/><path fill="#339744" d="M36.988 17.456c-.345-1.077-1.07-.683-1.403-1.019.103.735 1.125.761 1.403 1.019"/><path fill="none" stroke="#0B070C" stroke-width=".044" stroke-miterlimit="2.613" d="M36.988 17.456c-.345-1.077-1.07-.683-1.403-1.019.103.735 1.125.761 1.403 1.019z"/><path fill="#339744" d="M37.703 17.388c-.415-.661-.629-.523-1.127-.542.445.571.768.706 1.127.542"/><path fill="none" stroke="#0B070C" stroke-width=".044" stroke-miterlimit="2.613" d="M37.703 17.388c-.415-.661-.629-.523-1.127-.542.446.571.768.709 1.127.542z"/><path fill="#339744" d="M38.05 17.567c-.849-.769-1.277-.079-1.741-.205.477.58 1.374.103 1.741.205"/><path fill="none" stroke="#0B070C" stroke-width=".044" stroke-miterlimit="2.613" d="M38.05 17.567c-.849-.769-1.277-.079-1.741-.205.481.58 1.372.103 1.741.205z"/><path fill="#339744" d="M37.877 17.6c.438-1.008-.475-.997-.534-1.413-.409.634.478 1.089.534 1.413"/><path fill="none" stroke="#0B070C" stroke-width=".044" stroke-miterlimit="2.613" d="M37.877 17.6c.438-1.008-.475-.997-.534-1.413-.41.634.477 1.086.534 1.413z"/><path fill="#339744" d="M38.7 17.682c-.569-.546-.739-.357-1.223-.259.584.446.924.499 1.223.259"/><path fill="none" stroke="#0B070C" stroke-width=".044" stroke-miterlimit="2.613" d="M38.7 17.682c-.569-.546-.739-.357-1.223-.259.584.447.924.498 1.223.259z"/><path fill="#339744" d="M39.583 17.824c-.333-1.186-1.134-.566-1.498-.883.095.84 1.215.638 1.498.883"/><path fill="none" stroke="#0B070C" stroke-width=".044" stroke-miterlimit="2.613" d="M39.583 17.824c-.333-1.186-1.134-.566-1.498-.883.095.844 1.215.638 1.498.883z"/><path fill="#339744" d="M39.406 17.902c-.96-.64-1.286.096-1.758.033.557.516 1.373-.077 1.758-.033"/><path fill="none" stroke="#0B070C" stroke-width=".044" stroke-miterlimit="2.613" d="M39.406 17.902c-.96-.64-1.286.096-1.758.033.557.517 1.373-.076 1.758-.033z"/><path fill="#339744" d="M39.931 12.859c.853-.301.964.254 1.352.279-.522.28-1.052-.249-1.352-.279"/><path fill="none" stroke="#0B070C" stroke-width=".044" stroke-miterlimit="2.613" d="M39.931 12.859c.853-.301.964.254 1.352.279-.522.279-1.052-.249-1.352-.279z"/><path fill="#339744" d="M40.744 12.697c.966-.103.936.508 1.327.641-.608.149-1.023-.544-1.327-.641"/><path fill="none" stroke="#0B070C" stroke-width=".044" stroke-miterlimit="2.613" d="M40.744 12.697c.966-.103.936.508 1.327.641-.607.148-1.022-.544-1.327-.641z"/><path fill="#339744" d="M39.604 13.817c.876.5 1.122-.097 1.547-.052-.515-.402-1.207.083-1.547.052"/><path fill="none" stroke="#0B070C" stroke-width=".044" stroke-miterlimit="2.613" d="M39.604 13.817c.876.5 1.122-.097 1.547-.052-.515-.402-1.207.079-1.547.052z"/><path fill="#339744" d="M40.741 14.009c.748.66 1.118.127 1.528.25-.417-.493-1.207-.156-1.528-.25"/><path fill="none" stroke="#0B070C" stroke-width=".044" stroke-miterlimit="2.613" d="M40.741 14.009c.748.66 1.118.127 1.528.25-.419-.493-1.211-.156-1.528-.25z"/><path fill="#339744" d="M39.53 13.273c.835.563 1.073.233 1.717.119a2.038 2.038 0 00-1.717-.119"/><path fill="none" stroke="#0B070C" stroke-width=".044" stroke-miterlimit="2.613" d="M39.53 13.273c.835.563 1.073.233 1.717.119a2.038 2.038 0 00-1.717-.119z"/><path fill="#339744" d="M40.888 13.286c.572.814.638.473 1.288.588-.526-.503-.676-.597-1.288-.588"/><path fill="none" stroke="#0B070C" stroke-width=".044" stroke-miterlimit="2.613" d="M40.888 13.286c.572.814.638.473 1.288.588-.526-.499-.676-.595-1.288-.588z"/><path fill="#339744" d="M41.914 13.185c1.208.422.763 1.035 1.135 1.367-.823-.178-.843-1.09-1.135-1.367"/><path fill="none" stroke="#0B070C" stroke-width=".044" stroke-miterlimit="2.613" d="M41.914 13.185c1.208.422.763 1.035 1.135 1.367-.824-.177-.844-1.091-1.135-1.367z"/><path fill="#339744" d="M39.159 12.956c-.855-.303-.971.252-1.347.285.516.276 1.045-.259 1.347-.285"/><path fill="none" stroke="#0B070C" stroke-width=".044" stroke-miterlimit="2.613" d="M39.159 12.956c-.855-.303-.971.252-1.347.285.516.274 1.045-.26 1.347-.285z"/><path fill="#339744" d="M38.515 12.792c-.971-.1-.938.513-1.327.634.611.16 1.03-.528 1.327-.634"/><path fill="none" stroke="#0B070C" stroke-width=".044" stroke-miterlimit="2.613" d="M38.515 12.792c-.971-.1-.938.513-1.327.634.611.16 1.03-.528 1.327-.634z"/><path fill="#339744" d="M39.655 13.913c-.873.501-1.125-.095-1.55-.049.516-.406 1.212.073 1.55.049"/><path fill="none" stroke="#0B070C" stroke-width=".044" stroke-miterlimit="2.613" d="M39.655 13.913c-.873.501-1.125-.095-1.55-.049.516-.406 1.212.073 1.55.049z"/><path fill="#339744" d="M38.521 14.101c-.752.663-1.122.128-1.533.259.425-.502 1.207-.169 1.533-.259"/><path fill="none" stroke="#0B070C" stroke-width=".044" stroke-miterlimit="2.613" d="M38.521 14.101c-.752.663-1.122.128-1.533.259.425-.502 1.207-.169 1.533-.259z"/><path fill="#339744" d="M39.728 13.367c-.833.562-1.07.239-1.722.126a2.061 2.061 0 011.722-.126"/><path fill="none" stroke="#0B070C" stroke-width=".044" stroke-miterlimit="2.613" d="M39.728 13.367c-.833.562-1.07.239-1.722.126a2.061 2.061 0 011.722-.126z"/><path fill="#339744" d="M38.373 13.385c-.572.812-.64.475-1.291.588.535-.507.677-.599 1.291-.588"/><path fill="none" stroke="#0B070C" stroke-width=".044" stroke-miterlimit="2.613" d="M38.373 13.385c-.572.812-.64.475-1.291.588.532-.508.677-.6 1.291-.588z"/><path fill="#339744" d="M37.343 13.281c-1.202.422-.757 1.032-1.133 1.365.822-.168.847-1.09 1.133-1.365"/><path fill="none" stroke="#0B070C" stroke-width=".044" stroke-miterlimit="2.613" d="M37.343 13.281c-1.202.422-.757 1.032-1.133 1.365.822-.168.847-1.088 1.133-1.365z"/><path fill="#339744" d="M39.9 12.904c-.826.573-.772.233-1.427.135.677-.307.847-.349 1.427-.135"/><path fill="none" stroke="#0B070C" stroke-width=".044" stroke-miterlimit="2.613" d="M39.9 12.904c-.826.573-.772.233-1.427.135.678-.307.848-.348 1.427-.135z"/><path fill="#0B070C" d="M51.957 12.131l.238.253-.703.624a1.977 1.977 0 00-.211.198.276.276 0 00-.06.188.444.444 0 00.309.34.228.228 0 00.179-.035c.082-.053.159-.113.231-.179l.729-.624.236.249-.688.604c-.11.101-.229.191-.356.267a.402.402 0 01-.23.065.597.597 0 01-.249-.051.87.87 0 01-.267-.21 1.004 1.004 0 01-.209-.309.603.603 0 01-.028-.246.435.435 0 01.082-.204 1.47 1.47 0 01.308-.312l.689-.618zm-1.652-.498l.198.173a.977.977 0 00.249.194.149.149 0 00.122.013.25.25 0 00.179-.191.206.206 0 00-.052-.142 1.87 1.87 0 00-.178-.178l-.208-.192-.31.323zm-.953.479l1.208-1.234.545.494c.105.085.196.188.268.303a.397.397 0 01.036.249.55.55 0 01-.13.255.52.52 0 01-.313.15.501.501 0 01-.364-.116.935.935 0 01.042.235 1.807 1.807 0 01-.05.335l-.076.382-.318-.272.076-.446a2.34 2.34 0 00.039-.311.247.247 0 00-.027-.124.456.456 0 00-.116-.128l-.049-.05-.504.527-.267-.249zm-1.337-.939l1.07-1.358 1.042.763-.183.224-.76-.554-.234.301.713.515-.188.229-.702-.516-.298.371.795.58-.179.235-1.076-.79zm-.411-1.856l-.238.428.165.098c.085.043.175.078.267.1a.23.23 0 00.139-.021.26.26 0 00.105-.098.206.206 0 00.023-.157.25.25 0 00-.089-.138 1.158 1.158 0 00-.216-.13l-.156-.082zm-1.019 1.069l.857-1.487.495.268c.125.064.244.139.357.224.077.07.125.165.138.268a.614.614 0 01-.259.534.508.508 0 01-.214.09.507.507 0 01-.205-.018 3.442 3.442 0 01-.335-.148l-.201-.114-.325.561-.308-.178zm-2.017-.801l.594-1.589.336.119L45 9.43l.833.298-.101.267-1.164-.41zm-1.604-.426l.425-1.65 1.274.305-.076.273-.921-.219-.098.367.863.208-.08.278-.854-.209-.117.445.957.231-.07.28-1.303-.309zm-1.191-1.635L41.61 8.65l.262.029c.071.01.143.016.214.016a.661.661 0 00.158-.05.431.431 0 00.11-.153c.043-.096.071-.198.084-.303a.899.899 0 00.004-.306.447.447 0 00-.07-.179.38.38 0 00-.156-.101 2.095 2.095 0 00-.284-.055l-.159-.024zm-.313-.335l.643.089c.11.013.219.039.325.077a.59.59 0 01.239.192.63.63 0 01.128.306c.024.133.024.27 0 .403a1.002 1.002 0 01-.103.347.728.728 0 01-.229.275.719.719 0 01-.268.103.992.992 0 01-.317-.009l-.664-.094.246-1.689zm-1.801.949l-.255-.624-.224.643.479-.019zm.684.662l-.386.008-.17-.378-.7.021-.14.392-.372.011.625-1.726.375-.009.768 1.681zm-2.317-.531l.357.062a.773.773 0 01-.204.446.805.805 0 01-.445.201.78.78 0 01-.608-.156.908.908 0 01-.318-.604.887.887 0 01.133-.677.778.778 0 01.555-.314.754.754 0 01.553.108.686.686 0 01.223.29l-.338.128a.36.36 0 00-.157-.189.413.413 0 00-.255-.049.384.384 0 00-.292.183.612.612 0 00-.058.453c.006.161.07.314.179.433a.408.408 0 00.332.093.331.331 0 00.223-.113.529.529 0 00.109-.297m-1.713.926l-.422-1.651.346-.083.421 1.655-.345.079zm-1.416.395l-.511-1.622.341-.098.427 1.347.845-.253.09.268-1.192.358zm-1.638-.165l.187.419.303-.131c.077-.025.15-.06.22-.102a.19.19 0 00.096-.11.202.202 0 00-.014-.147.248.248 0 00-.089-.106.24.24 0 00-.138-.033.976.976 0 00-.298.103l-.267.107zm-.267-.624l.153.356.22-.089c.127-.058.205-.089.232-.103a.232.232 0 00.107-.103.189.189 0 00-.014-.147.176.176 0 00-.089-.102.173.173 0 00-.141 0c-.039.015-.129.042-.279.11l-.189.078zm-.446-.131l.647-.268c.095-.042.194-.076.295-.102a.406.406 0 01.196-.004.526.526 0 01.178.078.41.41 0 01.132.171.354.354 0 01.029.22.462.462 0 01-.107.214.455.455 0 01.292.045.364.364 0 01.178.198.478.478 0 01.041.233.399.399 0 01-.065.22.609.609 0 01-.184.166c-.057.027-.188.08-.398.168l-.549.229-.685-1.568zm-1.739.899l.314-.17.46.812c.046.083.098.164.155.242a.28.28 0 00.179.089.409.409 0 00.24-.046.328.328 0 00.165-.169.206.206 0 00.008-.17l-.127-.262-.477-.82.314-.17.446.783c.076.125.14.256.192.392a.465.465 0 01-.098.458.775.775 0 01-.275.198.934.934 0 01-.356.138.508.508 0 01-.249-.035.488.488 0 01-.184-.118 2.048 2.048 0 01-.249-.356l-.458-.796zm-1.055 1.082l.306.386.151-.112c.08-.052.151-.115.214-.186a.253.253 0 00.039-.13.277.277 0 00-.05-.126.267.267 0 00-.145-.096.32.32 0 00-.167.024c-.031.017-.102.068-.21.138l-.138.102zm.597 1.346l-1.063-1.368.466-.332c.109-.085.226-.16.349-.223a.43.43 0 01.312-.016.638.638 0 01.403.452.42.42 0 01-.02.219.466.466 0 01-.094.172 1.824 1.824 0 01-.278.234l-.185.14.398.508-.288.214zm-1.234 1.058L27.9 11.805l.957-.864.205.207-.697.632.267.278.643-.588.211.209-.65.585.331.342.714-.643.198.196-.975.894zm-1.741.331l.181-.189c.076-.074.142-.159.194-.252a.176.176 0 00.008-.113.188.188 0 00-.074-.106.205.205 0 00-.136-.062.204.204 0 00-.138.052 4.233 4.233 0 00-.178.186l-.19.192.333.292zm.526.914l-1.317-1.141.506-.541c.086-.104.191-.192.309-.259.081-.045.176-.061.267-.045a.571.571 0 01.258.131c.091.075.149.18.165.297a.54.54 0 01-.118.351c.079-.021.16-.034.241-.04.117.003.234.016.35.038l.395.068-.284.309-.456-.06a1.5 1.5 0 00-.312-.035.291.291 0 00-.133.03.655.655 0 00-.138.114l-.045.052.547.473-.235.258zm24.601-1.796l.336-.127.194.201-.413.048-.117-.122zM31.296 9.153l-.036-.356.246-.135-.064.412-.146.079z"/></g></g></svg>