<svg xmlns="http://www.w3.org/2000/svg" width="152.499" height="46.629"><g data-name="Grupo 1017"><path data-name="Trazado 1896" d="M2.511 36.695a1.183 1.183 0 01-.317.837 1.371 1.371 0 01-1.069.41h-.22v1.35H.311v-3.8h.888a1.392 1.392 0 01.959.314 1.133 1.133 0 01.354.892m-.605.015a.667.667 0 00-.188-.5.8.8 0 00-.574-.2H.906v1.431h.262a.652.652 0 00.739-.736" fill="#40332f"/><path data-name="Trazado 1897" d="M4.682 36.597l-.226.531a.582.582 0 00-.3-.075.792.792 0 00-.537.271v1.968h-.588v-2.729h.492l.073.3a1.14 1.14 0 01.747-.369.57.57 0 01.339.1" fill="#40332f"/><path data-name="Trazado 1898" d="M6.093 36.493a1.206 1.206 0 01.956.4 1.679 1.679 0 01.005 2.046 1.345 1.345 0 01-1.855.075 1.45 1.45 0 01-.4-1.079 1.51 1.51 0 01.345-1.016 1.186 1.186 0 01.95-.427m0 .485a.582.582 0 00-.51.257 1.2 1.2 0 00-.177.69 1.142 1.142 0 00.189.687.6.6 0 00.51.259.587.587 0 00.513-.259 1.183 1.183 0 00.18-.687 1.155 1.155 0 00-.186-.69.6.6 0 00-.518-.257" fill="#40332f"/><path data-name="Trazado 1899" d="M10.281 36.562l-1.029 2.885a2.276 2.276 0 01-.6 1 1.017 1.017 0 01-.667.214 1.363 1.363 0 01-.583-.121l.147-.461a.9.9 0 00.413.1q.492 0 .764-.883l-1.222-2.729h.629l.875 2.038h.011l.674-2.037z" fill="#40332f"/><path data-name="Trazado 1900" d="M12.781 38.068h-1.72a.786.786 0 00.227.563.777.777 0 00.577.222 1.344 1.344 0 00.673-.19l.153.392a1.518 1.518 0 01-.933.294 1.194 1.194 0 01-.99-.439 1.76 1.76 0 01.008-2.011 1.1 1.1 0 011.694-.02 1.582 1.582 0 01.311 1.022zm-.611-.444a.774.774 0 00-.141-.45.477.477 0 00-.41-.214.489.489 0 00-.4.2.733.733 0 00-.155.468z" fill="#40332f"/><path data-name="Trazado 1901" d="M15.393 39.061a1.547 1.547 0 01-.916.289 1.192 1.192 0 01-.961-.416 1.625 1.625 0 01.051-2.022 1.27 1.27 0 01.99-.419 1.364 1.364 0 01.729.185l-.006.514a1.124 1.124 0 00-.678-.213.754.754 0 00-.6.261.989.989 0 00-.229.676 1.018 1.018 0 00.209.662.733.733 0 00.6.276 1.258 1.258 0 00.645-.19z" fill="#40332f"/><path data-name="Trazado 1902" d="M17.477 39.061a1.382 1.382 0 01-.837.289.55.55 0 01-.628-.618v-1.7h-.464v-.467h.464v-.618l.588-.185v.8h.831l-.187.467H16.6v1.489q0 .318.26.318a.775.775 0 00.452-.168z" fill="#40332f"/><path data-name="Trazado 1903" d="M19.04 36.493a1.2 1.2 0 01.956.4 1.678 1.678 0 01.005 2.046 1.345 1.345 0 01-1.855.075 1.451 1.451 0 01-.4-1.079 1.51 1.51 0 01.345-1.016 1.186 1.186 0 01.95-.427m0 .485a.583.583 0 00-.51.257 1.2 1.2 0 00-.177.69 1.142 1.142 0 00.189.687.6.6 0 00.51.259.587.587 0 00.512-.259 1.183 1.183 0 00.181-.687 1.155 1.155 0 00-.186-.69.6.6 0 00-.518-.257" fill="#40332f"/><path data-name="Trazado 1904" d="M22.574 36.36l-.532.248a1.718 1.718 0 01-.153-.7 1.619 1.619 0 01.2-.774l.368.075a2.024 2.024 0 00-.045.41 2.048 2.048 0 00.164.739m1.012 0l-.532.248a1.718 1.718 0 01-.153-.7 1.619 1.619 0 01.2-.774l.367.075a1.789 1.789 0 00.119 1.148" fill="#40332f"/><path data-name="Trazado 1905" d="M26.992 39.294h-.644l-.369-.97h-1.376l-.354.97h-.587l1.442-3.82h.413zm-1.2-1.477l-.347-1.016a4.587 4.587 0 01-.137-.467h-.005a3.864 3.864 0 01-.148.46l-.362 1.023z" fill="#40332f"/><path data-name="Trazado 1906" d="M29.288 39.061a1.547 1.547 0 01-.916.289 1.191 1.191 0 01-.961-.416 1.625 1.625 0 01.051-2.022 1.27 1.27 0 01.99-.419 1.364 1.364 0 01.729.185l-.006.514a1.125 1.125 0 00-.679-.213.755.755 0 00-.6.261.989.989 0 00-.229.676 1.02 1.02 0 00.209.662.734.734 0 00.605.276 1.258 1.258 0 00.645-.19z" fill="#40332f"/><path data-name="Trazado 1907" d="M31.759 39.061a1.547 1.547 0 01-.916.289 1.192 1.192 0 01-.962-.416 1.625 1.625 0 01.051-2.022 1.27 1.27 0 01.99-.419 1.363 1.363 0 01.729.185l-.005.514a1.124 1.124 0 00-.678-.213.756.756 0 00-.6.261.991.991 0 00-.229.676 1.018 1.018 0 00.209.662.733.733 0 00.605.276 1.257 1.257 0 00.644-.19z" fill="#40332f"/><path data-name="Trazado 1908" d="M32.523 35.339a.357.357 0 01.266.109.367.367 0 01.108.266.376.376 0 01-.373.375.368.368 0 01-.269-.11.376.376 0 010-.531.368.368 0 01.269-.109m.294 3.953h-.588v-2.729h.588z" fill="#40332f"/><path data-name="Trazado 1909" d="M34.728 36.493a1.2 1.2 0 01.956.4 1.678 1.678 0 01.005 2.046 1.345 1.345 0 01-1.855.075 1.45 1.45 0 01-.4-1.079 1.508 1.508 0 01.345-1.016 1.185 1.185 0 01.95-.427m0 .485a.582.582 0 00-.51.257 1.2 1.2 0 00-.177.69 1.142 1.142 0 00.189.687.6.6 0 00.51.259.587.587 0 00.513-.259 1.182 1.182 0 00.18-.687 1.153 1.153 0 00-.186-.69.6.6 0 00-.518-.257" fill="#40332f"/><path data-name="Trazado 1910" d="M38.89 39.292h-.588v-1.636q0-.629-.418-.629a1.22 1.22 0 00-.73.329v1.933h-.588v-2.73h.492l.068.306a1.584 1.584 0 01.95-.375.742.742 0 01.554.226 1.013 1.013 0 01.26.75z" fill="#40332f"/><path data-name="Trazado 1911" d="M41.735 38.068h-1.719a.785.785 0 00.227.563.776.776 0 00.577.222 1.347 1.347 0 00.673-.19l.153.392a1.519 1.519 0 01-.933.294 1.193 1.193 0 01-.99-.439 1.759 1.759 0 01.008-2.011 1.1 1.1 0 011.693-.02 1.578 1.578 0 01.312 1.022zm-.611-.444a.778.778 0 00-.141-.45.479.479 0 00-.411-.214.488.488 0 00-.4.2.733.733 0 00-.155.468z" fill="#40332f"/><path data-name="Trazado 1912" d="M44.03 38.513a.744.744 0 01-.317.646 1.3 1.3 0 01-.741.19 1.7 1.7 0 01-.927-.242l.2-.444a1.219 1.219 0 00.7.225q.492 0 .492-.329 0-.213-.317-.363-.56-.266-.594-.289a.742.742 0 01-.316-.635.7.7 0 01.254-.559 1.057 1.057 0 01.713-.22 1.859 1.859 0 01.746.144v.508a1.884 1.884 0 00-.724-.173q-.419 0-.418.271c0 .131.109.246.328.346q.526.242.6.294a.733.733 0 01.323.629" fill="#40332f"/><path data-name="Trazado 1913" d="M49.256 39.292h-.549l-1.76-2.336a5.375 5.375 0 01-.371-.55v2.885h-.588v-3.8h.588l1.7 2.25a5.971 5.971 0 01.39.571v-2.823h.594z" fill="#40332f"/><path data-name="Trazado 1914" d="M52.123 39.292h-.493l-.113-.254a1.108 1.108 0 01-.792.312.84.84 0 01-.608-.237.825.825 0 01-.246-.623.778.778 0 01.291-.646 1.387 1.387 0 01.817-.254l.5-.017v-.081a.467.467 0 00-.537-.519 1.245 1.245 0 00-.7.22l-.2-.387a1.7 1.7 0 011.012-.311q1.012 0 1.012.969v1a3.728 3.728 0 00.051.831m-.645-.646v-.63l-.438.017c-.386.012-.58.148-.58.41a.405.405 0 00.122.3.475.475 0 00.344.118.764.764 0 00.552-.219" fill="#40332f"/><path data-name="Trazado 1915" d="M54.797 39.061a1.547 1.547 0 01-.916.289 1.191 1.191 0 01-.961-.416 1.626 1.626 0 01.051-2.022 1.269 1.269 0 01.99-.419 1.365 1.365 0 01.729.185l-.005.514a1.126 1.126 0 00-.679-.213.755.755 0 00-.6.261.991.991 0 00-.229.676 1.018 1.018 0 00.209.662.733.733 0 00.6.276 1.258 1.258 0 00.645-.19z" fill="#40332f"/><path data-name="Trazado 1916" d="M55.558 35.339a.359.359 0 01.266.109.367.367 0 01.107.266.376.376 0 01-.373.375.368.368 0 01-.269-.11.376.376 0 010-.531.368.368 0 01.269-.109m.294 3.953h-.588v-2.729h.588z" fill="#40332f"/><path data-name="Trazado 1917" d="M57.766 36.493a1.205 1.205 0 01.956.4 1.677 1.677 0 01.005 2.046 1.345 1.345 0 01-1.855.075 1.451 1.451 0 01-.4-1.079 1.508 1.508 0 01.345-1.016 1.186 1.186 0 01.95-.427m0 .485a.581.581 0 00-.509.257 1.192 1.192 0 00-.178.69 1.142 1.142 0 00.189.687.6.6 0 00.51.259.587.587 0 00.513-.259 1.185 1.185 0 00.18-.687 1.155 1.155 0 00-.186-.69.6.6 0 00-.518-.257" fill="#40332f"/><path data-name="Trazado 1918" d="M61.928 39.292h-.588v-1.636q0-.629-.419-.629a1.217 1.217 0 00-.729.329v1.933h-.588v-2.73h.492l.068.306a1.581 1.581 0 01.95-.375.743.743 0 01.554.226 1.014 1.014 0 01.26.75z" fill="#40332f"/><path data-name="Trazado 1919" d="M64.705 39.292h-.492l-.113-.254a1.108 1.108 0 01-.792.312.84.84 0 01-.608-.237.824.824 0 01-.246-.623.778.778 0 01.291-.646 1.387 1.387 0 01.817-.254l.5-.017v-.081a.467.467 0 00-.538-.519 1.244 1.244 0 00-.7.22l-.2-.387a1.7 1.7 0 011.012-.311q1.012 0 1.012.969v1a3.791 3.791 0 00.051.831m-.644-.646v-.63l-.438.017c-.387.012-.58.148-.58.41a.4.4 0 00.122.3.474.474 0 00.344.118.765.765 0 00.552-.219" fill="#40332f"/><path data-name="Trazado 1920" d="M66.333 39.228a.964.964 0 01-.469.121.5.5 0 01-.56-.572v-3.572h.588v3.312q0 .288.192.289a.721.721 0 00.175-.023z" fill="#40332f"/><path data-name="Trazado 1921" d="M68.934 38.068h-1.719a.767.767 0 00.8.785 1.344 1.344 0 00.673-.19l.153.392a1.517 1.517 0 01-.933.294 1.2 1.2 0 01-.99-.439 1.76 1.76 0 01.009-2.011 1.1 1.1 0 011.694-.02 1.582 1.582 0 01.311 1.022zm-.611-.444a.771.771 0 00-.141-.45.478.478 0 00-.41-.214.488.488 0 00-.4.2.731.731 0 00-.155.468z" fill="#40332f"/><path data-name="Trazado 1922" d="M71.231 38.513a.744.744 0 01-.317.646 1.3 1.3 0 01-.741.19 1.7 1.7 0 01-.927-.242l.2-.444a1.219 1.219 0 00.7.225q.492 0 .492-.329c0-.142-.106-.263-.317-.363q-.56-.266-.594-.289a.742.742 0 01-.316-.635.7.7 0 01.254-.559 1.057 1.057 0 01.713-.22 1.86 1.86 0 01.747.144v.508a1.883 1.883 0 00-.724-.173q-.418 0-.418.271c0 .131.109.246.328.346q.526.242.6.294a.733.733 0 01.323.629" fill="#40332f"/><path data-name="Trazado 1923" d="M75.815 39.294h-.645l-.368-.97h-1.376l-.354.97h-.588l1.442-3.82h.413zm-1.2-1.477l-.347-1.016a4.581 4.581 0 01-.137-.467h-.005a3.9 3.9 0 01-.148.46l-.362 1.023z" fill="#40332f"/><path data-name="Trazado 1924" d="M78.639 37.884a1.441 1.441 0 01-.4 1.062 1.34 1.34 0 01-.989.4 1.1 1.1 0 01-.4-.075v1.384h-.589v-3.982a2.948 2.948 0 01.984-.185 1.277 1.277 0 011.4 1.391m-.605.026a.923.923 0 00-.243-.685.793.793 0 00-.582-.219 1.334 1.334 0 00-.362.046v1.72a.986.986 0 00.373.081.745.745 0 00.6-.253 1.023 1.023 0 00.217-.69" fill="#40332f"/><path data-name="Trazado 1925" d="M80.827 36.597l-.226.531a.581.581 0 00-.3-.075.794.794 0 00-.538.271v1.968h-.588v-2.729h.492l.074.3a1.14 1.14 0 01.746-.369.569.569 0 01.34.1" fill="#40332f"/><path data-name="Trazado 1926" d="M82.235 36.493a1.2 1.2 0 01.956.4 1.679 1.679 0 01.005 2.046 1.345 1.345 0 01-1.855.075 1.45 1.45 0 01-.4-1.079 1.506 1.506 0 01.345-1.016 1.186 1.186 0 01.95-.427m0 .485a.582.582 0 00-.51.257 1.2 1.2 0 00-.177.69 1.144 1.144 0 00.188.687.6.6 0 00.51.259.588.588 0 00.513-.259 1.183 1.183 0 00.18-.687 1.15 1.15 0 00-.186-.69.6.6 0 00-.517-.257" fill="#40332f"/><path data-name="Trazado 1927" d="M86.454 37.884a1.44 1.44 0 01-.4 1.062 1.339 1.339 0 01-.99.4 1.1 1.1 0 01-.4-.075v1.384h-.588v-3.982a2.946 2.946 0 01.984-.185 1.277 1.277 0 011.4 1.391m-.605.026a.923.923 0 00-.243-.685.793.793 0 00-.583-.219 1.338 1.338 0 00-.362.046v1.72a.988.988 0 00.373.081.744.744 0 00.6-.253 1.022 1.022 0 00.218-.69" fill="#40332f"/><path data-name="Trazado 1928" d="M87.357 35.339a.358.358 0 01.266.109.366.366 0 01.108.266.377.377 0 01-.373.375.369.369 0 01-.269-.11.376.376 0 010-.531.368.368 0 01.269-.109m.294 3.953h-.588v-2.729h.588z" fill="#40332f"/><path data-name="Trazado 1929" d="M90.526 39.292h-.492l-.113-.254a1.11 1.11 0 01-.792.312.839.839 0 01-.608-.237.825.825 0 01-.246-.623.778.778 0 01.291-.646 1.389 1.389 0 01.817-.254l.5-.017v-.081a.467.467 0 00-.537-.519 1.244 1.244 0 00-.7.22l-.2-.387a1.7 1.7 0 011.012-.311q1.013 0 1.012.969v1a3.727 3.727 0 00.051.831m-.645-.646v-.63l-.438.017c-.387.012-.581.148-.581.41a.4.4 0 00.122.3.475.475 0 00.344.118.765.765 0 00.551-.219" fill="#40332f"/><path data-name="Trazado 1930" d="M93.41 39.136a2.016 2.016 0 01-.978.214 1.451 1.451 0 01-1.012-.352 1.329 1.329 0 01-.419-1.044 1.424 1.424 0 01.41-1.047 1.4 1.4 0 011.038-.412 2.219 2.219 0 01.373.029v-1.316h.588zm-.588-.335v-1.765a1.281 1.281 0 00-.351-.047.85.85 0 00-.63.255.92.92 0 00-.252.677.948.948 0 00.241.674.863.863 0 00.664.258.944.944 0 00.328-.052" fill="#40332f"/><path data-name="Trazado 1931" d="M96.181 39.292h-.492l-.113-.254a1.11 1.11 0 01-.792.312.839.839 0 01-.608-.237.825.825 0 01-.246-.623.778.778 0 01.291-.646 1.388 1.388 0 01.817-.254l.5-.017v-.081a.467.467 0 00-.537-.519 1.244 1.244 0 00-.7.22l-.2-.387a1.7 1.7 0 011.012-.311q1.013 0 1.012.969v1a3.734 3.734 0 00.051.831m-.645-.646v-.63l-.439.017c-.386.012-.58.148-.58.41a.4.4 0 00.122.3.473.473 0 00.344.118.765.765 0 00.552-.219" fill="#40332f"/><path data-name="Trazado 1932" d="M98.539 38.513a.745.745 0 01-.317.646 1.3 1.3 0 01-.741.19 1.7 1.7 0 01-.927-.242l.2-.444a1.217 1.217 0 00.7.225q.493 0 .492-.329 0-.213-.317-.363-.559-.266-.594-.289a.742.742 0 01-.317-.635.705.705 0 01.254-.559 1.059 1.059 0 01.713-.22 1.862 1.862 0 01.747.144v.508a1.885 1.885 0 00-.724-.173q-.419 0-.419.271c0 .131.109.246.328.346q.526.242.6.294a.733.733 0 01.323.629" fill="#40332f"/><path data-name="Trazado 1933" d="M102.701 39.136a2.017 2.017 0 01-.978.214 1.453 1.453 0 01-1.012-.352 1.329 1.329 0 01-.418-1.044 1.424 1.424 0 01.41-1.047 1.4 1.4 0 011.038-.412 2.222 2.222 0 01.374.029v-1.316h.588zm-.588-.335v-1.765a1.281 1.281 0 00-.351-.047.85.85 0 00-.63.255.92.92 0 00-.252.677.947.947 0 00.241.674.862.862 0 00.664.258.944.944 0 00.328-.052" fill="#40332f"/><path data-name="Trazado 1934" d="M105.54 38.068h-1.72a.786.786 0 00.226.563.778.778 0 00.577.222 1.346 1.346 0 00.673-.19l.153.392a1.52 1.52 0 01-.933.294 1.2 1.2 0 01-.99-.439 1.763 1.763 0 01.009-2.011 1.1 1.1 0 011.694-.02 1.581 1.581 0 01.312 1.022zm-.611-.444a.766.766 0 00-.141-.45.477.477 0 00-.41-.214.489.489 0 00-.4.2.731.731 0 00-.155.468z" fill="#40332f"/><path data-name="Trazado 1935" d="M111.189 39.292h-.577v-2.828a2.553 2.553 0 01-.221.386l-.848 1.356h-.312l-.916-1.373a8.84 8.84 0 01-.226-.369c.011.111.017.242.017.392v2.436h-.588v-3.8h.57l1.077 1.615a4.114 4.114 0 01.227.382h.006a3.9 3.9 0 01.215-.39l1-1.607h.569z" fill="#40332f"/><path data-name="Trazado 1936" d="M112.303 35.339a.358.358 0 01.266.109.367.367 0 01.107.266.376.376 0 01-.373.375.368.368 0 01-.269-.11.375.375 0 010-.531.368.368 0 01.269-.109m.293 3.953h-.584v-2.729h.588z" fill="#40332f"/><path data-name="Trazado 1937" d="M115.029 39.061a1.384 1.384 0 01-.838.289.55.55 0 01-.627-.618v-1.7h-.464v-.467h.464v-.618l.588-.185v.8h.831l-.186.467h-.649v1.489q0 .318.26.318a.776.776 0 00.453-.168z" fill="#40332f"/><path data-name="Trazado 1938" d="M115.799 35.339a.358.358 0 01.266.109.366.366 0 01.107.266.376.376 0 01-.373.375.368.368 0 01-.269-.11.375.375 0 010-.531.367.367 0 01.269-.109m.294 3.953h-.588v-2.729h.588z" fill="#40332f"/><path data-name="Trazado 1939" d="M119.271 39.753a.748.748 0 01-.345.629 1.833 1.833 0 01-1.086.277 1.613 1.613 0 01-.933-.243.671.671 0 01-.328-.571.719.719 0 01.492-.658.367.367 0 01-.181-.346.639.639 0 01.328-.508.822.822 0 01-.331-.343 1.029 1.029 0 01-.121-.493.983.983 0 01.291-.713 1.174 1.174 0 011.275-.187.051.051 0 00.068-.006.848.848 0 01.617-.219 1.679 1.679 0 01.192.011l-.135.468a.622.622 0 00-.379 0 .983.983 0 01.272.7.907.907 0 01-.311.713 1.13 1.13 0 01-.775.274 1.027 1.027 0 01-.351-.052.418.418 0 00-.1.254c0 .1.16.173.481.219a5.512 5.512 0 01.882.173.649.649 0 01.475.623m-.645.063c0-.115-.085-.206-.254-.271a2.377 2.377 0 00-.526-.112 3.057 3.057 0 01-.464-.084.52.52 0 00-.271.4.385.385 0 00.215.329 1.065 1.065 0 00.566.133 1.152 1.152 0 00.532-.106.324.324 0 00.2-.292m-.792-2.856a.476.476 0 00-.359.144.542.542 0 00-.138.393.593.593 0 00.141.4.472.472 0 00.373.162.508.508 0 00.376-.144.546.546 0 00.144-.4.563.563 0 00-.147-.392.5.5 0 00-.39-.162" fill="#40332f"/><path data-name="Trazado 1940" d="M121.663 39.292h-.492l-.113-.254a1.109 1.109 0 01-.792.312.84.84 0 01-.608-.237.825.825 0 01-.246-.623.778.778 0 01.292-.646 1.384 1.384 0 01.817-.254l.5-.017v-.081a.467.467 0 00-.537-.519 1.243 1.243 0 00-.7.22l-.2-.387a1.7 1.7 0 011.012-.311q1.012 0 1.012.969v1a3.767 3.767 0 00.051.831m-.644-.646v-.63l-.438.017c-.387.012-.58.148-.58.41a.405.405 0 00.122.3.475.475 0 00.344.118.766.766 0 00.552-.219" fill="#40332f"/><path data-name="Trazado 1941" d="M124.338 39.061a1.548 1.548 0 01-.916.289 1.192 1.192 0 01-.962-.416 1.625 1.625 0 01.051-2.022 1.27 1.27 0 01.99-.419 1.367 1.367 0 01.73.185l-.006.514a1.125 1.125 0 00-.678-.213.754.754 0 00-.6.261.989.989 0 00-.229.676 1.02 1.02 0 00.209.662.732.732 0 00.605.276 1.258 1.258 0 00.645-.19z" fill="#40332f"/><path data-name="Trazado 1942" d="M125.101 35.339a.358.358 0 01.266.109.366.366 0 01.107.266.376.376 0 01-.373.375.367.367 0 01-.269-.11.375.375 0 010-.531.367.367 0 01.269-.109m.294 3.953h-.588v-2.729h.588z" fill="#40332f"/><path data-name="Trazado 1943" d="M127.307 36.492a1.2 1.2 0 01.956.4 1.679 1.679 0 01.006 2.046 1.348 1.348 0 01-1.856.075 1.453 1.453 0 01-.4-1.079 1.51 1.51 0 01.345-1.016 1.184 1.184 0 01.95-.427m0 .485a.583.583 0 00-.51.257 1.2 1.2 0 00-.178.69 1.145 1.145 0 00.189.687.6.6 0 00.51.259.588.588 0 00.513-.259 1.185 1.185 0 00.181-.687 1.155 1.155 0 00-.186-.69.6.6 0 00-.518-.257m.981-1.6l-.707.848h-.492l.492-.848z" fill="#40332f"/><path data-name="Trazado 1944" d="M131.469 39.292h-.588v-1.636q0-.629-.418-.629a1.219 1.219 0 00-.73.329v1.933h-.589v-2.73h.492l.068.306a1.585 1.585 0 01.95-.375.742.742 0 01.555.226 1.013 1.013 0 01.26.75z" fill="#40332f"/><path data-name="Trazado 1945" d="M134.894 40.361l-.407.3a3.629 3.629 0 01-.741-1.367 5.635 5.635 0 01-.187-1.547 5.7 5.7 0 01.187-1.552 3.686 3.686 0 01.741-1.373l.407.295a3.614 3.614 0 00-.548 1.079 5.941 5.941 0 00-.164 1.552 5.712 5.712 0 00.169 1.547 3.379 3.379 0 00.543 1.068" fill="#40332f"/><path data-name="Trazado 1946" d="M138.719 39.292h-.549l-1.761-2.336a5.308 5.308 0 01-.371-.55v2.885h-.588v-3.8h.588l1.7 2.25a5.985 5.985 0 01.39.571v-2.823h.594z" fill="#40332f"/><path data-name="Trazado 1947" d="M142.519 39.294h-.644l-.369-.97h-1.376l-.354.97h-.588l1.442-3.82h.413zm-1.2-1.477l-.347-1.016q-.1-.305-.137-.467h-.005a3.9 3.9 0 01-.148.46l-.362 1.023z" fill="#40332f"/><path data-name="Trazado 1948" d="M146.652 39.292h-.577v-2.828a2.541 2.541 0 01-.22.386l-.849 1.356h-.31l-.916-1.373a7.064 7.064 0 01-.226-.369c.011.111.017.242.017.392v2.436h-.588v-3.8h.571l1.077 1.615a4.04 4.04 0 01.227.382h.006a3.853 3.853 0 01.216-.39l1-1.607h.57z" fill="#40332f"/><path data-name="Trazado 1949" d="M150.458 39.294h-.645l-.368-.97h-1.376l-.355.97h-.587l1.442-3.82h.413zm-1.2-1.477l-.347-1.016a4.42 4.42 0 01-.136-.467h-.006a3.752 3.752 0 01-.148.46l-.361 1.023z" fill="#40332f"/><path data-name="Trazado 1950" d="M151.987 37.746a5.618 5.618 0 01-.187 1.547 3.625 3.625 0 01-.741 1.368l-.407-.3a3.39 3.39 0 00.543-1.068 5.71 5.71 0 00.169-1.547 5.987 5.987 0 00-.164-1.552 3.622 3.622 0 00-.548-1.079l.407-.294a3.673 3.673 0 01.741 1.373 5.686 5.686 0 01.187 1.552" fill="#40332f"/><path data-name="Trazado 1951" d="M2.324 44.038H.604a.784.784 0 00.227.562.775.775 0 00.577.222 1.345 1.345 0 00.673-.19l.153.392a1.518 1.518 0 01-.933.294 1.194 1.194 0 01-.99-.439 1.761 1.761 0 01.008-2.011 1.1 1.1 0 011.694-.02 1.581 1.581 0 01.311 1.022zm-.611-.444a.769.769 0 00-.141-.451.48.48 0 00-.411-.214.489.489 0 00-.4.2.732.732 0 00-.155.468z" fill="#40332f"/><path data-name="Trazado 1952" d="M5.186 45.262h-.588v-1.634q0-.629-.418-.629a1.223 1.223 0 00-.73.329v1.933h-.588v-2.73h.492l.068.306a1.583 1.583 0 01.95-.375.745.745 0 01.555.225 1.016 1.016 0 01.26.751z" fill="#40332f"/><path data-name="Trazado 1953" d="M8.228 45.197a.96.96 0 01-.47.121.5.5 0 01-.56-.571v-3.572h.588v3.313q0 .288.192.289a.7.7 0 00.175-.023z" fill="#40332f"/><path data-name="Trazado 1954" d="M9.8 42.463a1.2 1.2 0 01.956.4 1.678 1.678 0 01.006 2.046 1.346 1.346 0 01-1.855.075 1.451 1.451 0 01-.4-1.079 1.51 1.51 0 01.345-1.015 1.185 1.185 0 01.95-.427m0 .485a.581.581 0 00-.51.257 1.194 1.194 0 00-.177.69 1.141 1.141 0 00.189.687.6.6 0 00.51.26.586.586 0 00.513-.26 1.182 1.182 0 00.18-.687 1.154 1.154 0 00-.186-.69.6.6 0 00-.518-.257" fill="#40332f"/><path data-name="Trazado 1955" d="M13.397 44.482a.745.745 0 01-.316.646 1.305 1.305 0 01-.741.19 1.7 1.7 0 01-.928-.242l.2-.444a1.218 1.218 0 00.7.226c.327 0 .492-.11.492-.329 0-.142-.106-.263-.317-.363q-.56-.266-.594-.289a.742.742 0 01-.317-.635.705.705 0 01.254-.56 1.058 1.058 0 01.713-.219 1.861 1.861 0 01.746.144v.508a1.884 1.884 0 00-.724-.173q-.418 0-.418.271 0 .2.328.346.526.242.6.294a.733.733 0 01.323.629" fill="#40332f"/><path data-name="Trazado 1956" d="M17.033 44.482a.745.745 0 01-.317.646 1.3 1.3 0 01-.741.19 1.7 1.7 0 01-.928-.242l.2-.444a1.217 1.217 0 00.7.226q.492 0 .492-.329 0-.213-.317-.363-.56-.266-.594-.289a.742.742 0 01-.317-.635.705.705 0 01.254-.56 1.057 1.057 0 01.713-.219 1.86 1.86 0 01.746.144v.508a1.885 1.885 0 00-.724-.173q-.419 0-.418.271 0 .2.328.346.526.242.6.294a.733.733 0 01.323.629" fill="#40332f"/><path data-name="Trazado 1957" d="M19.742 44.038h-1.72a.785.785 0 00.227.562.776.776 0 00.577.222 1.347 1.347 0 00.673-.19l.152.392a1.516 1.516 0 01-.933.294 1.193 1.193 0 01-.99-.439 1.762 1.762 0 01.009-2.011 1.1 1.1 0 011.693-.02 1.583 1.583 0 01.311 1.022zm-.611-.444a.774.774 0 00-.141-.451.479.479 0 00-.411-.214.489.489 0 00-.4.2.732.732 0 00-.155.468z" fill="#40332f"/><path data-name="Trazado 1958" d="M22.355 45.03a1.546 1.546 0 01-.916.288 1.189 1.189 0 01-.961-.416 1.624 1.624 0 01.051-2.022 1.272 1.272 0 01.99-.418 1.366 1.366 0 01.729.185l-.006.513a1.125 1.125 0 00-.679-.213.754.754 0 00-.6.261.989.989 0 00-.229.676 1.018 1.018 0 00.209.661.732.732 0 00.605.276 1.254 1.254 0 00.644-.19z" fill="#40332f"/><path data-name="Trazado 1959" d="M24.435 45.03a1.381 1.381 0 01-.837.288.55.55 0 01-.628-.617v-1.7h-.464v-.467h.464v-.618l.588-.185v.8h.831l-.186.467h-.645v1.488q0 .318.26.318a.775.775 0 00.452-.168z" fill="#40332f"/><path data-name="Trazado 1960" d="M26.002 42.463a1.2 1.2 0 01.956.4 1.679 1.679 0 01.005 2.046 1.346 1.346 0 01-1.855.075 1.449 1.449 0 01-.4-1.079 1.508 1.508 0 01.345-1.015 1.184 1.184 0 01.95-.427m0 .485a.582.582 0 00-.51.257 1.2 1.2 0 00-.177.69 1.141 1.141 0 00.189.687.6.6 0 00.51.26.586.586 0 00.513-.26 1.182 1.182 0 00.18-.687 1.154 1.154 0 00-.186-.69.6.6 0 00-.518-.257" fill="#40332f"/><path data-name="Trazado 1961" d="M29.491 42.566l-.227.531a.585.585 0 00-.3-.075.792.792 0 00-.537.271v1.968h-.588v-2.729h.492l.074.3a1.139 1.139 0 01.746-.369.571.571 0 01.339.1" fill="#40332f"/><path data-name="Trazado 1962" d="M31.917 44.038h-1.719a.767.767 0 00.8.784 1.344 1.344 0 00.673-.19l.153.392a1.516 1.516 0 01-.933.294 1.194 1.194 0 01-.99-.439 1.763 1.763 0 01.008-2.011 1.1 1.1 0 011.694-.02 1.583 1.583 0 01.311 1.022zm-.611-.444a.765.765 0 00-.141-.451.48.48 0 00-.411-.214.488.488 0 00-.4.2.73.73 0 00-.155.468z" fill="#40332f"/><path data-name="Trazado 1963" d="M34.213 44.482a.744.744 0 01-.317.646 1.3 1.3 0 01-.741.19 1.7 1.7 0 01-.927-.242l.2-.444a1.217 1.217 0 00.7.226q.492 0 .492-.329c0-.142-.106-.263-.317-.363q-.56-.266-.594-.289a.741.741 0 01-.317-.635.7.7 0 01.254-.56 1.057 1.057 0 01.712-.219 1.862 1.862 0 01.747.144v.508a1.884 1.884 0 00-.724-.173q-.419 0-.419.271 0 .2.328.346.526.242.6.294a.733.733 0 01.322.629" fill="#40332f"/><path data-name="Trazado 1964" d="M38.375 45.105a2.021 2.021 0 01-.979.213 1.452 1.452 0 01-1.012-.352 1.329 1.329 0 01-.419-1.044 1.425 1.425 0 01.41-1.047 1.4 1.4 0 011.038-.413 2.211 2.211 0 01.373.029v-1.316h.588zm-.588-.335v-1.765a1.264 1.264 0 00-.35-.047.85.85 0 00-.631.255.92.92 0 00-.251.677.951.951 0 00.24.675.864.864 0 00.664.257.934.934 0 00.328-.052" fill="#40332f"/><path data-name="Trazado 1965" d="M41.214 44.038h-1.719a.784.784 0 00.227.562.776.776 0 00.577.222 1.347 1.347 0 00.673-.19l.152.392a1.517 1.517 0 01-.933.294 1.193 1.193 0 01-.99-.439 1.762 1.762 0 01.008-2.011 1.1 1.1 0 011.694-.02 1.583 1.583 0 01.311 1.022zm-.611-.444a.774.774 0 00-.141-.451.48.48 0 00-.411-.214.489.489 0 00-.4.2.73.73 0 00-.155.468z" fill="#40332f"/><path data-name="Trazado 1966" d="M45.546 45.723a.747.747 0 01-.345.628 1.835 1.835 0 01-1.086.277 1.609 1.609 0 01-.933-.243.671.671 0 01-.328-.571.719.719 0 01.492-.658.368.368 0 01-.181-.346.64.64 0 01.328-.508.822.822 0 01-.331-.343 1.036 1.036 0 01-.121-.493.982.982 0 01.291-.713 1.171 1.171 0 011.275-.187.052.052 0 00.068-.006.846.846 0 01.616-.219 1.767 1.767 0 01.192.011l-.135.468a.617.617 0 00-.379 0 .981.981 0 01.271.7.905.905 0 01-.311.713 1.128 1.128 0 01-.775.274 1.025 1.025 0 01-.351-.052.419.419 0 00-.1.254q0 .15.481.219a5.536 5.536 0 01.882.173.649.649 0 01.475.624m-.645.063c0-.115-.085-.206-.255-.271a2.438 2.438 0 00-.526-.112 3.045 3.045 0 01-.464-.084.519.519 0 00-.271.4.384.384 0 00.215.329 1.064 1.064 0 00.566.133 1.146 1.146 0 00.532-.107.324.324 0 00.2-.292m-.792-2.857a.476.476 0 00-.359.144.544.544 0 00-.139.392.592.592 0 00.142.4.472.472 0 00.373.161.51.51 0 00.376-.144.548.548 0 00.144-.4.562.562 0 00-.147-.393.5.5 0 00-.39-.162" fill="#40332f"/><path data-name="Trazado 1967" d="M48.016 44.038h-1.719a.786.786 0 00.227.562.775.775 0 00.577.222 1.347 1.347 0 00.673-.19l.152.392a1.515 1.515 0 01-.933.294 1.193 1.193 0 01-.989-.439 1.76 1.76 0 01.008-2.011 1.1 1.1 0 011.694-.02 1.581 1.581 0 01.311 1.022zm-.611-.444a.778.778 0 00-.141-.451.48.48 0 00-.411-.214.49.49 0 00-.4.2.734.734 0 00-.154.468z" fill="#40332f"/><path data-name="Trazado 1968" d="M50.878 45.262h-.588v-1.634q0-.629-.418-.629a1.222 1.222 0 00-.73.329v1.933h-.588v-2.73h.492l.068.306a1.582 1.582 0 01.95-.375.744.744 0 01.554.225 1.016 1.016 0 01.26.751z" fill="#40332f"/><path data-name="Trazado 1969" d="M53.723 44.038h-1.719a.767.767 0 00.8.784 1.346 1.346 0 00.673-.19l.152.392a1.517 1.517 0 01-.933.294 1.194 1.194 0 01-.99-.439 1.764 1.764 0 01.008-2.011 1.1 1.1 0 011.694-.02 1.585 1.585 0 01.311 1.022zm-.611-.444a.774.774 0 00-.141-.451.48.48 0 00-.411-.214.489.489 0 00-.4.2.73.73 0 00-.155.468z" fill="#40332f"/><path data-name="Trazado 1970" d="M55.911 42.566l-.226.531a.588.588 0 00-.3-.075.792.792 0 00-.537.271v1.968h-.588v-2.729h.492l.073.3a1.14 1.14 0 01.746-.369.571.571 0 01.339.1" fill="#40332f"/><path data-name="Trazado 1971" d="M58.225 45.262h-.492l-.113-.254a1.111 1.111 0 01-.792.311.842.842 0 01-.608-.237.823.823 0 01-.246-.623.776.776 0 01.291-.646 1.382 1.382 0 01.817-.254l.5-.017v-.081a.467.467 0 00-.537-.519 1.249 1.249 0 00-.7.219l-.2-.387a1.7 1.7 0 011.012-.311q1.012 0 1.012.969v1a3.758 3.758 0 00.051.831m-.645-.646v-.63l-.438.018q-.581.017-.58.409a.4.4 0 00.122.3.475.475 0 00.344.118.767.767 0 00.552-.219" fill="#40332f"/><path data-name="Trazado 1972" d="M60.903 45.03a1.547 1.547 0 01-.916.288 1.193 1.193 0 01-.962-.416 1.627 1.627 0 01.052-2.022 1.27 1.27 0 01.99-.418 1.365 1.365 0 01.729.185l-.006.513a1.124 1.124 0 00-.679-.213.755.755 0 00-.6.261.987.987 0 00-.229.676 1.016 1.016 0 00.209.661.732.732 0 00.605.276 1.257 1.257 0 00.645-.19z" fill="#40332f"/><path data-name="Trazado 1973" d="M61.663 41.308a.358.358 0 01.266.11.366.366 0 01.107.266.375.375 0 01-.373.375.368.368 0 01-.269-.109.375.375 0 010-.531.367.367 0 01.269-.11m.294 3.953h-.588v-2.729h.588z" fill="#40332f"/><path data-name="Trazado 1974" d="M63.868 42.463a1.2 1.2 0 01.956.4 1.678 1.678 0 01.005 2.046 1.346 1.346 0 01-1.855.075 1.453 1.453 0 01-.4-1.079 1.508 1.508 0 01.345-1.015 1.185 1.185 0 01.95-.427m0 .485a.581.581 0 00-.509.257 1.191 1.191 0 00-.178.69 1.146 1.146 0 00.188.687.6.6 0 00.51.259.586.586 0 00.513-.259 1.179 1.179 0 00.181-.687 1.151 1.151 0 00-.186-.69.6.6 0 00-.518-.257m.981-1.6l-.707.848h-.492l.492-.848z" fill="#40332f"/><path data-name="Trazado 1975" d="M68.03 45.262h-.588v-1.634q0-.629-.418-.629a1.221 1.221 0 00-.73.329v1.933h-.588v-2.73h.492l.068.306a1.583 1.583 0 01.95-.375.744.744 0 01.554.225 1.016 1.016 0 01.26.751z" fill="#40332f"/><path data-name="Trazado 1976" d="M72.328 45.105a2.021 2.021 0 01-.979.213 1.452 1.452 0 01-1.012-.352 1.329 1.329 0 01-.419-1.044 1.423 1.423 0 01.41-1.047 1.4 1.4 0 011.038-.413 2.21 2.21 0 01.373.029v-1.316h.588zm-.588-.335v-1.765a1.267 1.267 0 00-.351-.047.851.851 0 00-.63.255.922.922 0 00-.252.677.949.949 0 00.241.675.863.863 0 00.664.257.935.935 0 00.328-.052" fill="#40332f"/><path data-name="Trazado 1977" d="M75.169 44.038H73.45a.784.784 0 00.227.562.775.775 0 00.576.222 1.344 1.344 0 00.673-.19l.153.392a1.516 1.516 0 01-.933.294 1.194 1.194 0 01-.99-.439 1.762 1.762 0 01.009-2.011 1.1 1.1 0 011.693-.02 1.581 1.581 0 01.311 1.022zm-.611-.444a.771.771 0 00-.141-.451.48.48 0 00-.411-.214.489.489 0 00-.4.2.73.73 0 00-.155.468z" fill="#40332f"/><path data-name="Trazado 1978" d="M79.261 44.038h-1.719a.786.786 0 00.226.562.777.777 0 00.577.222 1.341 1.341 0 00.673-.19l.153.392a1.517 1.517 0 01-.933.294 1.193 1.193 0 01-.99-.439 1.762 1.762 0 01.008-2.011 1.1 1.1 0 011.694-.02 1.581 1.581 0 01.311 1.022zm-.61-.444a.774.774 0 00-.141-.451.48.48 0 00-.41-.214.49.49 0 00-.4.2.734.734 0 00-.154.468z" fill="#40332f"/><path data-name="Trazado 1979" d="M82.122 45.262h-.588v-1.634q0-.629-.419-.629a1.219 1.219 0 00-.729.329v1.933H79.8v-2.73h.492l.068.306a1.582 1.582 0 01.95-.375.744.744 0 01.555.225 1.015 1.015 0 01.26.751z" fill="#40332f"/><path data-name="Trazado 1980" d="M84.967 44.038h-1.719a.785.785 0 00.226.562.776.776 0 00.577.222 1.347 1.347 0 00.673-.19l.152.392a1.515 1.515 0 01-.932.294 1.2 1.2 0 01-.99-.439 1.764 1.764 0 01.008-2.011 1.1 1.1 0 011.694-.02 1.581 1.581 0 01.311 1.022zm-.61-.444a.772.772 0 00-.141-.451.478.478 0 00-.41-.214.488.488 0 00-.4.2.729.729 0 00-.155.468z" fill="#40332f"/><path data-name="Trazado 1981" d="M87.156 42.566l-.226.531a.591.591 0 00-.3-.075.792.792 0 00-.537.271v1.968h-.588v-2.729h.492l.074.3a1.138 1.138 0 01.746-.369.575.575 0 01.34.1" fill="#40332f"/><path data-name="Trazado 1982" d="M89.779 45.723a.746.746 0 01-.345.628 1.836 1.836 0 01-1.086.277 1.61 1.61 0 01-.933-.243.672.672 0 01-.328-.571.719.719 0 01.492-.658.368.368 0 01-.181-.346.639.639 0 01.328-.508.823.823 0 01-.332-.343 1.036 1.036 0 01-.121-.493.981.981 0 01.292-.713 1.171 1.171 0 011.275-.187.052.052 0 00.068-.006.846.846 0 01.616-.219 1.776 1.776 0 01.193.011l-.136.468a.616.616 0 00-.379 0 .981.981 0 01.271.7.905.905 0 01-.311.713 1.131 1.131 0 01-.775.274 1.027 1.027 0 01-.351-.052.416.416 0 00-.1.254q0 .15.481.219a5.514 5.514 0 01.882.173.649.649 0 01.476.624m-.645.063c0-.115-.085-.206-.254-.271a2.441 2.441 0 00-.526-.112 3.045 3.045 0 01-.464-.084.518.518 0 00-.271.4.383.383 0 00.215.329 1.064 1.064 0 00.565.133 1.145 1.145 0 00.532-.107.324.324 0 00.2-.292m-.791-2.857a.475.475 0 00-.359.144.542.542 0 00-.139.392.592.592 0 00.141.4.472.472 0 00.373.161.51.51 0 00.376-.144.549.549 0 00.144-.4.564.564 0 00-.147-.393.5.5 0 00-.39-.162" fill="#40332f"/><path data-name="Trazado 1983" d="M91.3 41.349l-.706.848h-.487l.486-.848zm-.509 3.913h-.584v-2.729h.588z" fill="#40332f"/><path data-name="Trazado 1984" d="M93.665 45.262h-.493l-.113-.254a1.11 1.11 0 01-.792.311.841.841 0 01-.608-.237.824.824 0 01-.246-.623.778.778 0 01.292-.646 1.382 1.382 0 01.817-.254l.5-.017v-.081a.467.467 0 00-.537-.519 1.247 1.247 0 00-.7.219l-.2-.387a1.7 1.7 0 011.012-.311q1.012 0 1.012.969v1a3.712 3.712 0 00.051.831m-.645-.646v-.63l-.438.018q-.58.017-.58.409a.4.4 0 00.122.3.477.477 0 00.344.118.767.767 0 00.552-.219" fill="#40332f"/><path data-name="Trazado 1985" d="M98.109 42.532l-1.032 2.885a2.266 2.266 0 01-.6 1 1.017 1.017 0 01-.668.214 1.356 1.356 0 01-.582-.121l.147-.462a.894.894 0 00.413.1q.492 0 .763-.883l-1.221-2.729h.627l.875 2.038h.011l.674-2.037z" fill="#40332f"/><path data-name="Trazado 1986" d="M101.615 44.482a.744.744 0 01-.317.646 1.3 1.3 0 01-.741.19 1.706 1.706 0 01-.928-.242l.2-.444a1.216 1.216 0 00.7.226q.492 0 .492-.329 0-.213-.317-.363-.56-.266-.594-.289a.742.742 0 01-.317-.635.706.706 0 01.254-.56 1.058 1.058 0 01.713-.219 1.86 1.86 0 01.746.144v.508a1.883 1.883 0 00-.724-.173c-.28 0-.418.09-.418.271q0 .2.327.346.527.242.6.294a.734.734 0 01.322.629" fill="#40332f"/><path data-name="Trazado 1987" d="M104.437 45.262h-.486l-.108-.272a1.231 1.231 0 01-.837.329.84.84 0 01-.572-.2 1.043 1.043 0 01-.305-.831v-1.76h.588v1.715q0 .576.5.576a.8.8 0 00.583-.271v-2.02h.588v1.841a4.327 4.327 0 00.051.889" fill="#40332f"/><path data-name="Trazado 1988" d="M108.758 45.262h-.487l-.107-.272a1.232 1.232 0 01-.837.329.837.837 0 01-.571-.2 1.043 1.043 0 01-.305-.831v-1.76h.588v1.715q0 .576.5.576a.8.8 0 00.582-.271v-2.02h.589v1.841a4.254 4.254 0 00.051.889" fill="#40332f"/><path data-name="Trazado 1989" d="M111.166 44.482a.744.744 0 01-.317.646 1.3 1.3 0 01-.741.19 1.7 1.7 0 01-.927-.242l.2-.444a1.218 1.218 0 00.7.226q.492 0 .492-.329 0-.213-.317-.363-.559-.266-.593-.289a.742.742 0 01-.317-.635.706.706 0 01.255-.56 1.055 1.055 0 01.712-.219 1.863 1.863 0 01.747.144v.508a1.888 1.888 0 00-.724-.173c-.28 0-.419.09-.419.271 0 .131.11.246.327.346q.527.242.6.294a.733.733 0 01.322.629" fill="#40332f"/><path data-name="Trazado 1990" d="M112.846 42.463a1.2 1.2 0 01.956.4 1.677 1.677 0 01.006 2.046 1.346 1.346 0 01-1.855.075 1.452 1.452 0 01-.4-1.079 1.507 1.507 0 01.345-1.015 1.184 1.184 0 01.95-.427m0 .485a.582.582 0 00-.51.257 1.194 1.194 0 00-.177.69 1.143 1.143 0 00.188.687.6.6 0 00.51.26.585.585 0 00.512-.26 1.179 1.179 0 00.181-.687 1.151 1.151 0 00-.186-.69.6.6 0 00-.518-.257" fill="#40332f"/><path data-name="Trazado 1991" d="M117.619 41.29l-.114.45a.787.787 0 00-.339-.081q-.328 0-.328.4v.468h.7l-.164.473h-.537v2.257h-.589V43h-.373v-.473h.373v-.416a.838.838 0 01.888-.941 1 1 0 01.481.115" fill="#40332f"/><path data-name="Trazado 1992" d="M118.286 41.308a.359.359 0 01.266.11.366.366 0 01.107.266.375.375 0 01-.373.375.369.369 0 01-.269-.109.375.375 0 010-.531.368.368 0 01.269-.11m.293 3.953h-.588v-2.729h.59z" fill="#40332f"/><path data-name="Trazado 1993" d="M121.651 45.262h-.588v-1.634q0-.629-.418-.629a1.219 1.219 0 00-.729.329v1.933h-.589v-2.73h.492l.068.306a1.581 1.581 0 01.949-.375.742.742 0 01.554.225 1.012 1.012 0 01.26.751z" fill="#40332f"/><path data-name="Trazado 1994" d="M124.428 45.262h-.49l-.113-.254a1.109 1.109 0 01-.792.311.841.841 0 01-.608-.237.822.822 0 01-.246-.623.776.776 0 01.292-.646 1.383 1.383 0 01.817-.254l.5-.017v-.081a.467.467 0 00-.538-.519 1.25 1.25 0 00-.7.219l-.2-.387a1.7 1.7 0 011.012-.311q1.012 0 1.013.969v1a3.726 3.726 0 00.051.831m-.645-.646v-.63l-.439.018q-.579.017-.58.409a.4.4 0 00.123.3.475.475 0 00.344.118.768.768 0 00.552-.219" fill="#40332f"/><path data-name="Trazado 1995" d="M126.056 45.197a.962.962 0 01-.47.121.5.5 0 01-.561-.571v-3.572h.589v3.313q0 .288.192.289a.7.7 0 00.175-.023z" fill="#40332f"/><path data-name="Trazado 1996" d="M130.02 44.038h-1.719a.766.766 0 00.8.784 1.347 1.347 0 00.673-.19l.153.392a1.516 1.516 0 01-.933.294 1.2 1.2 0 01-.99-.439 1.762 1.762 0 01.008-2.011 1.1 1.1 0 011.694-.02 1.581 1.581 0 01.311 1.022zm-.611-.444a.769.769 0 00-.141-.451.479.479 0 00-.41-.214.488.488 0 00-.4.2.73.73 0 00-.155.468z" fill="#40332f"/><path data-name="Trazado 1997" d="M132.884 45.262h-.588v-1.634q0-.629-.418-.629a1.22 1.22 0 00-.729.329v1.933h-.588v-2.73h.492l.068.306a1.581 1.581 0 01.95-.375.743.743 0 01.554.225 1.015 1.015 0 01.26.751z" fill="#40332f"/><path data-name="Trazado 1998" d="M137.089 44.038h-1.716a.767.767 0 00.8.784 1.344 1.344 0 00.673-.19l.153.392a1.517 1.517 0 01-.933.294 1.194 1.194 0 01-.99-.439 1.762 1.762 0 01.009-2.011 1.1 1.1 0 011.694-.02 1.583 1.583 0 01.311 1.022zm-.611-.444a.771.771 0 00-.141-.451.479.479 0 00-.41-.214.488.488 0 00-.4.2.728.728 0 00-.155.468z" fill="#40332f"/><path data-name="Trazado 1999" d="M138.656 45.197a.961.961 0 01-.469.121.5.5 0 01-.56-.571v-3.572h.588v3.313q0 .288.192.289a.7.7 0 00.175-.023z" fill="#40332f"/><path data-name="Trazado 2000" d="M142.705 42.664a1.183 1.183 0 01-.316.836 1.373 1.373 0 01-1.069.41h-.221v1.35h-.594v-3.8h.888a1.389 1.389 0 01.958.314 1.131 1.131 0 01.354.892m-.6.014a.665.665 0 00-.188-.5.8.8 0 00-.574-.2h-.239v1.431h.262a.652.652 0 00.739-.736" fill="#40332f"/><path data-name="Trazado 2001" d="M145.334 44.038h-1.719a.767.767 0 00.8.784 1.342 1.342 0 00.672-.19l.153.392a1.517 1.517 0 01-.933.294 1.193 1.193 0 01-.989-.439 1.762 1.762 0 01.008-2.011 1.1 1.1 0 011.694-.02 1.583 1.583 0 01.311 1.022zm-.61-.444a.776.776 0 00-.141-.451.48.48 0 00-.411-.214.489.489 0 00-.4.2.733.733 0 00-.154.468z" fill="#40332f"/><path data-name="Trazado 2002" d="M147.522 42.566l-.227.531a.59.59 0 00-.3-.075.79.79 0 00-.537.271v1.968h-.588v-2.729h.492l.073.3a1.142 1.142 0 01.747-.369.574.574 0 01.339.1" fill="#40332f"/><path data-name="Trazado 2003" d="M150.125 45.261h-.486l-.113-.271a1.22 1.22 0 01-.837.329.854.854 0 01-.571-.2 1.054 1.054 0 01-.3-.831v-1.76h.588v1.715q0 .576.492.576a.792.792 0 00.583-.27v-2.02h.588v1.84a3.889 3.889 0 00.057.889m-.277-3.912l-.707.848h-.486l.486-.848z" fill="#40332f"/><path data-name="Trazado 2004" d="M151.458 41.123a1.677 1.677 0 01.034.335 1.569 1.569 0 01-.419 1.079l-.339-.162a1.746 1.746 0 00.187-.767 2.923 2.923 0 00-.028-.375zm1.007 0a1.7 1.7 0 01.033.335 1.582 1.582 0 01-.412 1.079l-.345-.162a1.751 1.751 0 00.187-.767 2.964 2.964 0 00-.028-.375z" fill="#40332f"/><path data-name="Trazado 2005" d="M34.099 14.102V4.135q0-4.052 4.6-4.051h4.6v27.383q0 4.051-4.6 4.052a5 5 0 01-4.04-1.77l-10.31-12.294v10.013q0 4.051-4.6 4.052h-4.6V.106l4.6-.023a4.642 4.642 0 014.228 1.909z" fill="#1f3997"/><path data-name="Rectángulo 1648" fill="#fff" d="M21.082 19.525h5.655v.506h-5.655z"/><path data-name="Trazado 2006" d="M31.285 20.031h-1.528v-.506h1.528a.186.186 0 00.185-.189v-6.765a.187.187 0 00-.185-.188H16.553a.187.187 0 00-.185.188v6.765a.186.186 0 00.185.189h1.507v.506h-1.507a.689.689 0 01-.681-.7v-6.765a.689.689 0 01.681-.695h14.733a.688.688 0 01.68.695v6.765a.688.688 0 01-.68.7" fill="#fff"/><path data-name="Trazado 2007" d="M25.873 16.671H16.12v-.507h9.721v-4.033h.5v4.066a.47.47 0 01-.464.474" fill="#fff"/><path data-name="Rectángulo 1649" fill="#fff" d="M19.322 12.131h.496v4.287h-.496z"/><path data-name="Rectángulo 1650" fill="#fff" d="M22.63 12.131h.496v4.287h-.496z"/><path data-name="Trazado 2008" d="M31.718 16.671h-2.9a.47.47 0 01-.465-.474v-4.066h.5v4.033h2.868z" fill="#fff"/><path data-name="Trazado 2009" d="M28.247 21.575a1.8 1.8 0 111.758-1.8 1.779 1.779 0 01-1.758 1.8m0-3.085a1.289 1.289 0 101.263 1.289 1.277 1.277 0 00-1.263-1.289" fill="#fff"/><path data-name="Trazado 2010" d="M19.571 21.575a1.8 1.8 0 111.758-1.8 1.779 1.779 0 01-1.758 1.8m0-3.085a1.289 1.289 0 101.263 1.289 1.277 1.277 0 00-1.263-1.289" fill="#fff"/><path data-name="Trazado 2011" d="M38.301 27.381H17.415a1 1 0 01-.983-1v-6.784h.367v6.784a.624.624 0 00.617.629H38.3z" fill="#fff"/><path data-name="Trazado 2012" d="M40.666 28.923h-.767a1.729 1.729 0 010-3.458h.767a.348.348 0 01.344.351v2.756a.348.348 0 01-.344.351m-.767-3.082a1.354 1.354 0 000 2.707h.743v-2.707z" fill="#fff"/><path data-name="Trazado 2013" d="M41.885 26.615h-1.06a.188.188 0 010-.375h1.06a.188.188 0 010 .375" fill="#fff"/><path data-name="Trazado 2014" d="M41.885 28.202h-1.06a.188.188 0 010-.375h1.06a.188.188 0 010 .375" fill="#fff"/><path data-name="Trazado 2015" d="M70.591 27.076v-4.919a.215.215 0 01.429 0v4.919a.215.215 0 11-.429 0" fill="#fff"/><path data-name="Trazado 2016" d="M55.09 25.976l-.883 2.375q-1.184 3.167-3.89 3.168a4.41 4.41 0 01-3.878-1.666 5.389 5.389 0 01-1.172-2.992 6.263 6.263 0 01.58-2.607L56.83.084h2.972q2.971 0 4.388 3.167l9.615 21a6.227 6.227 0 01.6 2.631 5.432 5.432 0 01-1.138 2.981 4.38 4.38 0 01-3.889 1.654q-2.752 0-3.936-3.168l-.882-2.375zm6.735-7.451l-2-5.449-2 5.449z" fill="#ff1107"/><path data-name="Trazado 2017" d="M71.189 21.654a.215.215 0 01.214-.215.047.047 0 00.045-.045v-.006l-1.372-3.558a.044.044 0 00-.038-.025h-6.4a.053.053 0 00-.046.041l-1.328 3.546v.009a.047.047 0 00.046.044.215.215 0 110 .429.474.474 0 01-.475-.473.458.458 0 01.027-.156l1.327-3.541a.474.474 0 01.45-.326h6.399a.47.47 0 01.446.313l1.372 3.559a.476.476 0 01-.45.625.215.215 0 01-.214-.215" fill="#fff"/><path data-name="Trazado 2018" d="M62.573 27.075v-4.919a.215.215 0 01.429 0v4.919a.215.215 0 11-.429 0" fill="#fff"/><path data-name="Trazado 2019" d="M47.923 27.381a.215.215 0 010-.429h24.775a.215.215 0 010 .429z" fill="#fff"/><path data-name="Trazado 2020" d="M68.956 27.077v-3.11h-1.759v3.111a.215.215 0 01-.429 0v-3.163a.376.376 0 01.377-.376h1.865a.375.375 0 01.376.376v3.163a.214.214 0 01-.428 0" fill="#fff"/><path data-name="Trazado 2021" d="M53.289 27.061v-8.846a.203.203 0 01.407 0v8.846a.203.203 0 01-.407 0" fill="#fff"/><path data-name="Trazado 2022" d="M55.293 8.669a1.739 1.739 0 111.739 1.738 1.741 1.741 0 01-1.739-1.738m.482 0a1.257 1.257 0 101.257-1.257 1.261 1.261 0 00-1.257 1.257" fill="#fff"/><path data-name="Trazado 2023" d="M56.792 7.175V5.998a.24.24 0 01.481 0v1.177a.24.24 0 01-.481 0" fill="#fff"/><path data-name="Trazado 2024" d="M56.792 11.346V10.17a.24.24 0 11.481 0v1.176a.24.24 0 11-.481 0" fill="#fff"/><path data-name="Trazado 2025" d="M58.531 8.913a.24.24 0 110-.481h1.176a.24.24 0 110 .481z" fill="#fff"/><path data-name="Trazado 2026" d="M54.359 8.913a.241.241 0 110-.482h1.175a.241.241 0 010 .482z" fill="#fff"/><path data-name="Trazado 2027" d="M57.922 7.783a.239.239 0 010-.34l.831-.832a.241.241 0 11.34.341l-.831.831a.24.24 0 01-.34 0" fill="#fff"/><path data-name="Trazado 2028" d="M54.973 10.733a.242.242 0 010-.341l.831-.832a.241.241 0 11.341.34l-.831.833a.242.242 0 01-.171.069.239.239 0 01-.17-.069" fill="#fff"/><path data-name="Trazado 2029" d="M58.753 10.732l-.831-.832a.24.24 0 11.34-.34l.832.833a.239.239 0 010 .34.24.24 0 01-.34 0" fill="#fff"/><path data-name="Trazado 2030" d="M55.803 7.783l-.831-.831a.241.241 0 11.34-.341l.831.831a.241.241 0 01-.341.34" fill="#fff"/><path data-name="Trazado 2031" d="M71.769 21.444a.649.649 0 00-.338-.09c-.272 0-.726.485-.629.361-.124.148-.166.2-.295.2s-.172-.056-.3-.2a.725.725 0 00-1.255 0c-.125.148-.167.2-.3.2s-.17-.056-.3-.2a.726.726 0 00-1.255 0c-.125.148-.167.2-.295.2s-.17-.056-.3-.2a.726.726 0 00-1.255 0c-.124.148-.167.2-.3.2s-.17-.055-.295-.2a.725.725 0 00-1.254 0c-.125.148-.168.2-.3.2s-.171-.056-.3-.2a.786.786 0 00-.628-.361.214.214 0 100 .428c.128 0 .171.056.3.2a.725.725 0 001.255 0c.125-.148.167-.2.3-.2s.17.056.295.2a.725.725 0 001.254 0c.125-.148.168-.2.3-.2s.171.056.3.2a.725.725 0 001.255 0c.125-.148.167-.2.3-.2s.17.056.3.2a.725.725 0 001.255 0c.126-.148.168-.2.3-.2s.171.056.3.2a.726.726 0 001.256 0c.125-.148.167-.2.3-.2.048 0 .1-.033.136 0 .1-.025.336-.261.2-.339" fill="#fff"/><path data-name="Trazado 2032" d="M68.103 17.658a.16.16 0 01-.114-.047.156.156 0 01-.048-.113v-1.246a.161.161 0 01.162-.16h.609a.164.164 0 01.114.046.166.166 0 01.047.114v1.246a.159.159 0 01-.047.113.163.163 0 01-.114.047zm.16-.322h.288v-.923h-.288z" fill="#fff"/><path data-name="Trazado 2033" d="M67.704 16.334a.16.16 0 010-.164l.278-.446.279-.445a.159.159 0 01.135-.075.163.163 0 01.137.073l.283.441.284.442a.159.159 0 01-.134.247h-1.124a.163.163 0 01-.142-.082m.554-.439l-.123.2h.54l-.127-.2-.145-.227z" fill="#fff"/><path data-name="Trazado 2034" d="M56.48 18.253l-4.811.028-.07-.017-2.208-1.136a.153.153 0 01.069-.289l4.812-.029.071.016 2.207 1.137a.153.153 0 01-.069.289m-4.812-.124zm4.189-.178l-1.621-.835-4.152.026 1.621.834z" fill="#fff"/><path data-name="Trazado 2035" d="M55.112 18.167a.152.152 0 00-.061-.207l-1.971-1.071a.153.153 0 00-.145.269l1.971 1.07a.153.153 0 00.207-.061" fill="#fff"/><path data-name="Trazado 2036" d="M53.224 18.175a.151.151 0 00-.066-.206l-2.126-1.1a.153.153 0 00-.141.271l2.126 1.1a.155.155 0 00.071.017.151.151 0 00.135-.082" fill="#fff"/><path data-name="Trazado 2037" d="M50.449 17.638l4.779-.029a.153.153 0 000-.306l-4.779.029a.153.153 0 000 .305z" fill="#fff"/><path data-name="Trazado 2038" d="M118.812 25.889l-.881 2.374q-1.186 3.167-3.891 3.168a4.41 4.41 0 01-3.878-1.666 5.384 5.384 0 01-1.172-2.992 6.267 6.267 0 01.581-2.607l10.983-24.17h2.973q2.971 0 4.388 3.167l9.613 21a6.216 6.216 0 01.6 2.631 5.443 5.443 0 01-1.137 2.98 4.383 4.383 0 01-3.89 1.654q-2.75 0-3.935-3.168l-.883-2.374zm6.734-7.451l-2-5.449-2 5.449z" fill="#ffb80f"/><path data-name="Trazado 2039" d="M122.375 24.971h-8.2a.288.288 0 01-.288-.287v-2.345a.288.288 0 01.288-.287h.8a.161.161 0 010 .322h-.774v2.276h8.161l1.037-1.114-1.039-1.163h-7.315a.161.161 0 010-.322h7.326a.29.29 0 01.216.1l1.071 1.2a.285.285 0 010 .386l-1.069 1.148a.291.291 0 01-.212.092m0-2.6z" fill="#fff"/><path data-name="Trazado 2040" d="M120.272 21.618h-6.1a.288.288 0 01-.288-.287v-2.345a.288.288 0 01.288-.287h.8a.161.161 0 010 .321h-.77v2.276h6.058l1.037-1.114-1.04-1.163h-5.211a.161.161 0 010-.321h5.223a.29.29 0 01.216.1l1.07 1.2a.285.285 0 010 .386l-1.068 1.147a.292.292 0 01-.212.092m0-2.6z" fill="#fff"/><path data-name="Trazado 2041" d="M118.232 18.313h-4.057a.288.288 0 01-.288-.288v-2.344a.288.288 0 01.288-.287h.8a.161.161 0 010 .322h-.773v2.276h4.019l1.037-1.114-1.039-1.162h-3.172a.161.161 0 010-.322h3.183a.29.29 0 01.216.1l1.07 1.2a.285.285 0 010 .386l-1.068 1.147a.289.289 0 01-.212.093m0-2.6z" fill="#fff"/><path data-name="Trazado 2042" d="M116.76 17.383l.5-1.152a.2.2 0 01.185-.128h.018a.194.194 0 01.184.128l.5 1.152a.164.164 0 01.016.065.152.152 0 01-.15.155.163.163 0 01-.153-.111l-.1-.23h-.636l-.1.24a.156.156 0 01-.146.1.148.148 0 01-.147-.151.181.181 0 01.018-.068m.893-.406l-.2-.483-.2.483z" fill="#fff"/><path data-name="Trazado 2043" d="M118.965 19.596a.159.159 0 01.158-.162h.511a.515.515 0 01.377.131.337.337 0 01.1.249.339.339 0 01-.189.315.357.357 0 01.27.359c0 .268-.214.4-.54.4h-.528a.158.158 0 01-.158-.161zm.6.43c.14 0 .229-.046.229-.154 0-.1-.075-.151-.208-.151h-.313v.309zm.085.59c.14 0 .224-.051.224-.159 0-.1-.072-.159-.235-.159h-.366v.322z" fill="#fff"/><path data-name="Trazado 2044" d="M121.067 23.523a.739.739 0 01.753-.757.758.758 0 01.482.149.163.163 0 01.062.128.156.156 0 01-.156.156.158.158 0 01-.1-.031.473.473 0 00-.295-.1.431.431 0 00-.418.456.431.431 0 00.418.459.458.458 0 00.313-.114.144.144 0 01.095-.036.149.149 0 01.148.148.153.153 0 01-.053.115.717.717 0 01-.514.184.734.734 0 01-.74-.752" fill="#fff"/><path data-name="Trazado 2045" d="M110.771 27.292a.215.215 0 010-.43h24.774a.215.215 0 110 .43z" fill="#fff"/><path data-name="Trazado 2046" d="M126.875 7.632c.5.186.7.262 1.172.43l.53.2a2.94 2.94 0 01.543.23 2 2 0 01.881.956 3.816 3.816 0 01.126.812c.019.264.027.49.027.835 0 .621-.028.778-.028 1.537v14.502a.184.184 0 01-.181.125h-.077a.217.217 0 01-.174-.124V12.76c0-.719.031-.932.031-1.607 0-.338-.008-.712-.031-1.022a1.6 1.6 0 00-1.142-1.422c-.091-.031-.545-.218-.649-.244 0 0-.681-.257-1.115-.387" fill="#fff"/><path data-name="Trazado 2047" d="M126.962 7.44v-.019l-.017-.009c-.024-.012-.375-.146-.548-.217-1.012-.416-2.175-.8-2.374-.841a5.6 5.6 0 00-.617-.123 1.844 1.844 0 00-.185-.009 1.42 1.42 0 00-1.283.762.954.954 0 00-.138.379.169.169 0 00.022.089c.062.086.164.071.228.105a.793.793 0 00.109.43 2.288 2.288 0 001.671.868c.075.005.147.008.216.008a1.243 1.243 0 001.118-.5.578.578 0 00.148.04h.008c.093 0 .68-.066 1.424-.14h.017l.01-.015a1.143 1.143 0 00.1-.278l.065-.323a1.122 1.122 0 00.03-.189.079.079 0 000-.013m-.535.532c-.311.026-.769.109-1.052.108a.786.786 0 01-.112-.005c-.089-.01-.216-.052-.333-.081l-.264-.077-1.389-.366c-.392-.1-.844-.2-1.22-.3a1.134 1.134 0 011.056-.723 1.36 1.36 0 01.184.013 9.008 9.008 0 011.272.344c.281.094 1.319.467 1.951.727a3.678 3.678 0 01-.092.364" fill="#fff"/><path data-name="Trazado 2048" d="M91.709 9.769l6.455-7.777a5.259 5.259 0 014.273-1.909h4.6v27.383q0 4.052-4.6 4.052t-4.6-4.052V14.615l-6.13 7.219-6.131-7.173v12.807q0 4.052-4.6 4.052h-4.6V.083h4.6a5.3 5.3 0 014.226 1.909z" fill="#369c2a"/><path data-name="Trazado 2049" d="M101.755 9.759a1.245 1.245 0 01-.2-.319.587.587 0 01-.032-.36.491.491 0 01.02-.065 20.376 20.376 0 011.972-3.424 18.258 18.258 0 012.352-3 .372.372 0 01.3-.117c.1.014.171.152.169.238a.659.659 0 01-.02.213 9.86 9.86 0 01-.74 1.638c-.355.685-.769 1.439-1.071 2a26.242 26.242 0 01-1.675 2.714c-.184.216-.3.372-.411.489a.443.443 0 01-.4.194.527.527 0 01-.261-.2m4.206-6.943v-.008z" fill="#fff"/><path data-name="Trazado 2050" d="M102.07 9.987a1.254 1.254 0 01.378-.012.586.586 0 01.326.156.517.517 0 01.046.05 20.414 20.414 0 011.94 3.442 18.228 18.228 0 011.38 3.552.374.374 0 01-.052.317.256.256 0 01-.291.025.669.669 0 01-.173-.126 9.947 9.947 0 01-1.032-1.472c-.408-.655-.845-1.4-1.172-1.94a26.138 26.138 0 01-1.481-2.825c-.092-.268-.166-.45-.211-.6a.441.441 0 01.037-.442.526.526 0 01.305-.123m3.828 7.158z" fill="#fff"/><path data-name="Trazado 2051" d="M101.642 27.016V10.789a.4.4 0 11.789 0v16.227z" fill="#fff"/><path data-name="Trazado 2052" d="M86.676 9.512h-7.313l-2.624-3.4h7.313z" fill="#37992f"/><path data-name="Trazado 2053" d="M86.676 9.512h-7.313l-2.624-3.4h7.313z" fill="none" stroke="#fff" stroke-linecap="round" stroke-linejoin="round"/><path data-name="Línea 92" fill="none" stroke="#fff" stroke-linecap="round" stroke-linejoin="round" d="M81.68 6.159l2.624 3.301"/><path data-name="Línea 93" fill="none" stroke="#fff" stroke-linecap="round" stroke-linejoin="round" d="M79.232 6.159l2.624 3.301"/><path data-name="Línea 94" fill="none" stroke="#fff" stroke-linecap="round" stroke-linejoin="round" d="M78.525 8.302h7.149"/><path data-name="Línea 95" fill="none" stroke="#fff" stroke-linecap="round" stroke-linejoin="round" d="M77.678 7.178h7.199"/><path data-name="Rectángulo 1651" fill="#fff" d="M80.761 14.451h5.965v.462h-5.965z"/><path data-name="Rectángulo 1652" fill="#fff" d="M86.265 13.021h.461v1.891h-.461z"/><path data-name="Rectángulo 1653" fill="#fff" d="M81.708 12.153h.462v2.385h-.462z"/><path data-name="Trazado 2054" d="M92.916 13.1h-10.26l-3.682-5.086h10.26z" fill="#37992f"/><path data-name="Trazado 2055" d="M92.916 13.1h-10.26l-3.682-5.086h10.26z" fill="none" stroke="#fff" stroke-linecap="round" stroke-linejoin="round" stroke-width="1.25"/><path data-name="Línea 96" fill="none" stroke="#fff" stroke-linecap="round" stroke-linejoin="round" stroke-width="1.25" d="M85.907 8.091l3.682 4.931"/><path data-name="Línea 97" fill="none" stroke="#fff" stroke-linecap="round" stroke-linejoin="round" stroke-width="1.25" d="M82.474 8.091l3.682 4.931"/><path data-name="Línea 98" fill="none" stroke="#fff" stroke-linecap="round" stroke-linejoin="round" stroke-width="1.25" d="M81.481 11.292h10.03"/><path data-name="Línea 99" fill="none" stroke="#fff" stroke-linecap="round" stroke-linejoin="round" stroke-width="1.25" d="M80.292 9.612h10.1"/><path data-name="Trazado 2056" d="M102.116 9.936a1.243 1.243 0 01-.1.364.587.587 0 01-.248.263.524.524 0 01-.062.029 20.375 20.375 0 01-3.868.807 18.246 18.246 0 01-3.8.24c-.107-.025-.2-.024-.286-.146a.256.256 0 01.065-.285.645.645 0 01.172-.127 9.9 9.9 0 011.715-.538c.747-.19 1.586-.383 2.2-.53a26.027 26.027 0 013.14-.556c.283-.007.479-.022.639-.019a.442.442 0 01.41.169.525.525 0 01.024.328m-7.985 1.485v.008z" fill="#fff"/><path data-name="Trazado 2057" d="M100.518 10.366c-.071-.385.627-.834 1.012-.9a.708.708 0 01.255 1.392c-.385.071-1.2-.1-1.267-.487" fill="#fff"/><path data-name="Trazado 2058" d="M100.518 10.366c-.071-.385.627-.834 1.012-.9a.708.708 0 01.255 1.392c-.386.066-1.199-.107-1.267-.492z" fill="none" stroke="#37992f" stroke-width="1.214"/><path data-name="Trazado 2059" d="M79.199 27.381a.215.215 0 010-.429h24.774a.215.215 0 010 .429z" fill="#fff"/><path data-name="Trazado 2060" d="M80.807 14.451v12.531a.237.237 0 11-.466 0V14.451z" fill="#fff"/></g></svg>