<svg xmlns="http://www.w3.org/2000/svg" width="266.602" height="53"><g fill="#FFF"><path d="M12.454 37.45V26.5a1.528 1.528 0 10-3.057 0v10.95a4.85 4.85 0 00-3.313 4.593 4.848 4.848 0 004.842 4.841 4.847 4.847 0 004.841-4.841 4.852 4.852 0 00-3.313-4.593zm-1.529 6.376c-.984 0-1.785-.8-1.785-1.783s.801-1.783 1.785-1.783 1.784.8 1.784 1.783-.8 1.783-1.784 1.783z"/><path d="M17.55 33.314V6.625A6.633 6.633 0 0010.925 0 6.633 6.633 0 004.3 6.625v26.689a10.928 10.928 0 00-4.331 8.604c-.066 6.025 4.778 10.995 10.8 11.079l.158.003c2.898 0 5.624-1.117 7.691-3.156a10.875 10.875 0 003.264-7.801 10.922 10.922 0 00-4.332-8.729zm-1.078 14.354a7.844 7.844 0 01-5.546 2.273h-.114c-4.341-.061-7.833-3.645-7.785-7.988a7.884 7.884 0 013.63-6.558c.437-.281.7-.766.7-1.286V6.625a3.571 3.571 0 013.568-3.567 3.57 3.57 0 013.567 3.567v1.02h-1.529a1.529 1.529 0 100 3.056h1.529v2.039h-1.529a1.529 1.529 0 100 3.057h1.529v2.038h-1.529a1.53 1.53 0 000 3.058h1.529v13.215c0 .521.264 1.005.701 1.286a7.876 7.876 0 013.63 6.647 7.845 7.845 0 01-2.351 5.627zm37.798-4.201V24.479l-6.042 13.353h-5.28l-6.042-13.353v18.988h-9.9V7.42H37.82l7.768 16.957L53.406 7.42h10.763v36.047H54.27zm16.093 0V7.42h16.551c1.759 0 3.384.363 4.874 1.092 1.489.729 2.767 1.675 3.833 2.844a13.29 13.29 0 012.513 4.011c.61 1.505.915 3.021.915 4.543 0 2.099-.457 4.054-1.372 5.864a11.944 11.944 0 01-3.808 4.442l8.123 13.251H90.823l-6.854-11.068h-3.706v11.068h-9.9zm9.9-19.699h6.245c.609 0 1.176-.337 1.701-1.016.524-.676.787-1.624.787-2.843 0-1.252-.305-2.208-.914-2.868s-1.219-.99-1.828-.99h-5.991v7.717zM110.471 7.42l7.057 23.607 6.955-23.607h10.408l-13.252 36.047h-8.224L100.012 7.42h10.459zm36.608 12.5V7.928h5.085c.551 0 1.061.115 1.529.346.466.231.869.535 1.207.912.339.378.603.805.795 1.283.191.479.285.961.285 1.445 0 .507-.09.999-.27 1.478a4.117 4.117 0 01-.76 1.275 3.753 3.753 0 01-1.182.896c-.463.225-.97.338-1.521.338h-2.838v4.02h-2.33zm2.331-6.064h2.703c.428 0 .785-.175 1.072-.523s.431-.822.431-1.419a2.39 2.39 0 00-.134-.82 2.065 2.065 0 00-.355-.615c-.146-.17-.318-.297-.516-.381s-.397-.127-.6-.127h-2.602v3.885zm7.905-6.267h2.263v9.393c0 .687.31 1.03.93 1.03.124 0 .268-.022.431-.068.163-.044.318-.096.465-.15l.304 1.807c-.304.146-.658.26-1.064.338a5.775 5.775 0 01-1.098.118c-.709 0-1.258-.188-1.646-.565-.389-.378-.583-.915-.583-1.613V7.589zm7.804 12.501c-.428 0-.826-.07-1.199-.212a2.89 2.89 0 01-.963-.591 2.686 2.686 0 01-.862-2.002c0-.416.094-.803.279-1.157.187-.354.444-.655.777-.903a3.823 3.823 0 011.189-.582 5.158 5.158 0 011.521-.213c.394 0 .78.035 1.157.102a4.72 4.72 0 011.005.288v-.507c0-.585-.166-1.035-.498-1.352-.332-.314-.825-.473-1.479-.473a3.9 3.9 0 00-1.384.253 6.458 6.458 0 00-1.387.743l-.691-1.436c1.137-.754 2.365-1.131 3.682-1.131 1.273 0 2.261.313 2.965.938.703.625 1.057 1.527 1.057 2.711v2.753c0 .235.043.405.135.507.09.102.247.158.473.168v1.926a5.3 5.3 0 01-1.081.119c-.429-.012-.755-.109-.979-.296a1.212 1.212 0 01-.422-.751l-.052-.49a3.923 3.923 0 01-1.436 1.182 4.111 4.111 0 01-1.807.406zm.642-1.655c.384 0 .747-.067 1.09-.203.344-.136.611-.315.802-.54.248-.192.372-.406.372-.643v-1.014a5.523 5.523 0 00-.877-.245 4.747 4.747 0 00-.913-.093c-.586 0-1.064.133-1.437.397s-.556.599-.556 1.005c0 .383.145.701.438.953.293.255.654.383 1.081.383zm11.858 1.03c-.305.135-.679.27-1.124.405a4.765 4.765 0 01-1.393.202c-.315 0-.612-.039-.887-.117a1.977 1.977 0 01-.727-.381 1.848 1.848 0 01-.499-.676c-.124-.276-.186-.611-.186-1.005v-5.085h-1.148v-1.739h1.148V8.197h2.264v2.872h1.875v1.739h-1.875v4.325c0 .315.084.537.254.667.168.13.371.193.607.193s.467-.039.693-.117c.225-.078.404-.146.539-.203l.459 1.792zm3.565.625c-.429 0-.828-.07-1.199-.212-.371-.141-.693-.337-.963-.591s-.481-.549-.633-.887a2.686 2.686 0 01-.229-1.115c0-.416.092-.803.279-1.157.185-.354.443-.655.775-.903s.729-.442 1.191-.582a5.158 5.158 0 011.521-.213c.394 0 .779.035 1.157.102.377.068.712.164 1.005.288v-.507c0-.585-.167-1.035-.499-1.352-.332-.314-.824-.473-1.479-.473-.472 0-.934.084-1.384.253a6.453 6.453 0 00-1.386.743l-.692-1.436c1.138-.754 2.364-1.131 3.683-1.131 1.271 0 2.26.313 2.965.938.703.625 1.055 1.527 1.055 2.711v2.753c0 .235.045.405.136.507s.248.158.474.168v1.926a5.3 5.3 0 01-1.082.119c-.428-.012-.755-.109-.979-.296a1.218 1.218 0 01-.423-.751l-.051-.49a3.915 3.915 0 01-1.436 1.182 4.107 4.107 0 01-1.806.406zm.641-1.655c.384 0 .745-.067 1.09-.203.343-.136.609-.315.802-.54.248-.192.372-.406.372-.643v-1.014a5.473 5.473 0 00-1.79-.338c-.586 0-1.064.133-1.437.397s-.558.599-.558 1.005c0 .383.146.701.439.953.294.255.654.383 1.082.383zm7.213 1.485v-6.08h-1.149V12.1h1.149v-1.099c0-1.103.269-1.976.803-2.617s1.252-.964 2.152-.964c.722 0 1.448.176 2.18.524l-.456 1.706a2.916 2.916 0 00-.599-.229 2.458 2.458 0 00-.635-.092c-.787 0-1.181.529-1.181 1.588V12.1h2.16v1.74h-2.16v6.08h-2.264zm9.915.17c-.72 0-1.369-.125-1.943-.372a4.367 4.367 0 01-1.46-1.005 4.45 4.45 0 01-.921-1.461 4.771 4.771 0 01-.321-1.74c0-.619.107-1.205.321-1.757a4.34 4.34 0 012.381-2.466c.574-.248 1.224-.371 1.943-.371.721 0 1.365.123 1.934.371a4.365 4.365 0 012.375 2.466 4.84 4.84 0 01.32 1.757c0 .607-.107 1.189-.32 1.74a4.578 4.578 0 01-.912 1.461c-.396.422-.88.758-1.454 1.005-.574.247-1.222.372-1.943.372zm-2.313-4.578c0 .395.059.752.177 1.072.119.322.281.6.49.836s.453.42.734.549c.281.13.586.194.912.194a2.148 2.148 0 001.646-.743c.209-.236.372-.518.49-.844s.178-.688.178-1.082c0-.382-.06-.736-.178-1.064a2.605 2.605 0 00-.49-.844 2.163 2.163 0 00-1.646-.743c-.326 0-.631.067-.912.203-.281.135-.525.321-.734.558s-.371.518-.49.844a3.082 3.082 0 00-.177 1.064zm13.698-2.484c-.687.013-1.301.144-1.841.397s-.929.633-1.165 1.141v5.354h-2.264v-8.851h2.077v1.892a4.13 4.13 0 011.191-1.469c.489-.373 1.004-.559 1.546-.559a2.37 2.37 0 01.455.033v2.062zm15.016 6.892h-2.264v-4.966c0-.71-.125-1.227-.372-1.555-.247-.325-.585-.489-1.013-.489-.439 0-.856.172-1.25.516s-.676.791-.845 1.343v5.151h-2.264v-4.966c0-.71-.12-1.227-.362-1.555-.243-.325-.578-.489-1.005-.489-.44 0-.859.17-1.26.508-.399.337-.685.781-.852 1.334v5.168h-2.264v-8.851h2.043v1.639a3.387 3.387 0 011.344-1.326c.567-.31 1.218-.464 1.95-.464.744 0 1.314.18 1.715.54.399.36.661.806.785 1.335.36-.609.816-1.074 1.368-1.395s1.184-.48 1.892-.48c.541 0 .986.102 1.335.303.35.203.618.468.811.795.191.326.324.698.398 1.114.072.417.108.839.108 1.267v5.523zm4.375.17a3.33 3.33 0 01-1.198-.212 2.89 2.89 0 01-.963-.591 2.686 2.686 0 01-.863-2.002c0-.416.095-.803.28-1.157.187-.354.444-.655.776-.903s.729-.442 1.19-.582a5.158 5.158 0 011.521-.213c.395 0 .779.035 1.157.102.377.068.712.164 1.005.288v-.507c0-.585-.166-1.035-.498-1.352-.332-.314-.825-.473-1.479-.473-.472 0-.935.084-1.385.253a6.494 6.494 0 00-1.385.743l-.693-1.436c1.137-.754 2.365-1.131 3.683-1.131 1.272 0 2.261.313 2.965.938.702.625 1.056 1.527 1.056 2.711v2.753c0 .235.044.405.136.507.09.102.246.158.473.168v1.926a5.316 5.316 0 01-1.081.119c-.428-.012-.756-.109-.98-.296a1.21 1.21 0 01-.421-.751l-.052-.49a3.932 3.932 0 01-1.436 1.182 4.115 4.115 0 01-1.808.406zm.642-1.655c.383 0 .747-.067 1.089-.203.345-.136.612-.315.803-.54.248-.192.372-.406.372-.643v-1.014a5.477 5.477 0 00-.878-.245 4.723 4.723 0 00-.913-.093c-.585 0-1.063.133-1.436.397-.371.265-.559.599-.559 1.005 0 .383.147.701.44.953.294.255.654.383 1.082.383zm14.393 1.655a3.977 3.977 0 01-1.682-.355 4 4 0 01-1.325-.98 4.567 4.567 0 01-.871-1.46 5.086 5.086 0 01-.312-1.8c0-.641.098-1.238.296-1.789.196-.553.47-1.037.818-1.453s.766-.744 1.251-.98a3.569 3.569 0 011.587-.354c.642 0 1.226.157 1.748.473a3.43 3.43 0 011.226 1.232V7.589h2.264v9.73c0 .235.046.405.135.507s.246.158.472.168v1.926a6.126 6.126 0 01-1.081.119c-.416-.012-.74-.107-.97-.287-.231-.181-.375-.434-.431-.76l-.052-.609c-.326.563-.766.988-1.317 1.275s-1.137.432-1.756.432zm.59-1.927c.214 0 .434-.036.659-.11.224-.072.434-.176.624-.311.192-.136.366-.293.523-.474a1.89 1.89 0 00.355-.592v-2.11a2.762 2.762 0 00-.938-1.233c-.434-.326-.888-.49-1.36-.49-.338 0-.65.073-.938.22a2.226 2.226 0 00-.734.6c-.202.254-.36.543-.473.869a3.091 3.091 0 00-.169 1.014c0 .373.062.717.186 1.031s.296.592.515.828c.221.235.479.422.777.557.3.134.624.201.973.201zm10.828 1.927c-.709 0-1.35-.121-1.925-.364a4.446 4.446 0 01-1.472-.987 4.433 4.433 0 01-.937-1.453 4.668 4.668 0 01-.329-1.74c0-.63.107-1.225.321-1.781a4.29 4.29 0 01.929-1.469 4.387 4.387 0 011.478-1.006c.581-.248 1.23-.371 1.952-.371.719 0 1.364.123 1.934.371a4.43 4.43 0 011.452.996c.399.417.703.901.913 1.453a4.85 4.85 0 01.312 1.723c0 .146-.002.287-.008.423-.006.135-.02.247-.043.337h-6.841c.034.35.118.659.254.93a2.274 2.274 0 001.249 1.131c.272.101.552.152.846.152.449 0 .874-.11 1.275-.329.399-.221.672-.51.818-.871l1.942.541c-.326.676-.847 1.23-1.563 1.664-.714.433-1.567.65-2.557.65zm2.297-5.338c-.056-.665-.301-1.197-.734-1.598-.435-.399-.959-.599-1.58-.599-.304 0-.587.054-.853.16a2.259 2.259 0 00-1.2 1.14 2.44 2.44 0 00-.227.896h4.594zm3.698-7.163h2.264v9.393c0 .687.311 1.03.93 1.03.124 0 .268-.022.431-.068a5.4 5.4 0 00.465-.15l.305 1.807c-.305.146-.659.26-1.063.338a5.82 5.82 0 01-1.1.118c-.709 0-1.259-.188-1.646-.565-.39-.378-.584-.915-.584-1.613V7.589zm-111.838 32.77c-.36 0-.735-.027-1.123-.084s-.769-.136-1.141-.236a8.152 8.152 0 01-1.065-.372 5.142 5.142 0 01-.893-.49l.911-1.537c1.126.732 2.214 1.099 3.259 1.099.475 0 .846-.085 1.116-.254s.405-.411.405-.727c0-.314-.16-.549-.481-.7-.321-.153-.858-.318-1.613-.499a13.333 13.333 0 01-1.47-.422c-.404-.146-.731-.315-.979-.508a1.741 1.741 0 01-.542-.658 2.113 2.113 0 01-.167-.878c0-.45.088-.855.27-1.216.18-.361.43-.668.751-.921.321-.254.698-.448 1.132-.583s.904-.203 1.411-.203c.63 0 1.257.1 1.884.296a7.588 7.588 0 011.748.803l-.93 1.401a6.233 6.233 0 00-1.401-.684 4.3 4.3 0 00-1.317-.211c-.406 0-.748.078-1.021.236-.277.157-.416.41-.416.76 0 .305.133.523.398.659.264.136.734.287 1.41.456.629.158 1.169.314 1.613.473s.811.338 1.098.541.496.436.625.701c.13.265.195.582.195.954a2.523 2.523 0 01-.998 2.052 3.43 3.43 0 01-1.156.559 5.553 5.553 0 01-1.513.193zm9.206 0c-.709 0-1.351-.121-1.926-.363a4.4 4.4 0 01-1.469-.988 4.357 4.357 0 01-.938-1.452 4.676 4.676 0 01-.329-1.74c0-.63.107-1.225.32-1.782a4.348 4.348 0 01.93-1.469c.406-.422.898-.758 1.479-1.006s1.23-.371 1.95-.371 1.365.123 1.936.371c.568.248 1.052.58 1.452.998.399.416.704.899.912 1.451.207.553.312 1.127.312 1.723 0 .148-.003.288-.009.423-.005.136-.02.248-.041.338h-6.842c.035.349.119.659.254.929a2.267 2.267 0 001.25 1.131c.271.102.553.152.845.152.449 0 .876-.11 1.275-.329.399-.22.673-.51.819-.871l1.941.541c-.326.676-.847 1.23-1.562 1.664-.715.434-1.569.65-2.559.65zm2.299-5.338c-.057-.664-.303-1.196-.736-1.596-.434-.4-.959-.6-1.579-.6-.304 0-.589.053-.853.16a2.262 2.262 0 00-1.199 1.14c-.131.27-.207.568-.229.895h4.596zm3.174.745c0-.619.107-1.205.322-1.758a4.237 4.237 0 01.928-1.451 4.51 4.51 0 011.47-.998c.575-.248 1.222-.371 1.943-.371.968 0 1.792.209 2.476.625.68.416 1.189.963 1.527 1.639l-2.213.676a1.98 1.98 0 00-.76-.752 2.14 2.14 0 00-1.048-.263c-.326 0-.63.065-.912.195-.282.129-.526.31-.734.54s-.372.51-.49.837a3.16 3.16 0 00-.177 1.081c0 .394.062.754.186 1.08.123.326.289.608.498.846.209.235.453.418.734.548s.58.194.896.194c.405 0 .779-.102 1.124-.305.344-.202.582-.449.718-.742l2.213.676c-.305.676-.806 1.228-1.503 1.655-.699.428-1.539.642-2.518.642-.721 0-1.368-.125-1.943-.372a4.452 4.452 0 01-1.469-1.005 4.473 4.473 0 01-.938-1.469 4.725 4.725 0 01-.33-1.748zm15.388 3.968a9.82 9.82 0 01-1.123.405c-.446.136-.91.203-1.393.203-.316 0-.612-.04-.888-.118a1.947 1.947 0 01-.727-.381 1.84 1.84 0 01-.499-.676c-.123-.275-.185-.609-.185-1.004v-5.086h-1.149V31.34h1.149v-2.871h2.263v2.871h1.875v1.738h-1.875v4.326c0 .314.084.537.254.666.168.13.371.194.607.194.237 0 .468-.038.693-.117.225-.079.404-.147.54-.204l.458 1.791zm5.102.625c-.721 0-1.368-.125-1.942-.372a4.331 4.331 0 01-2.382-2.466 4.747 4.747 0 01-.321-1.74c0-.619.106-1.205.321-1.756a4.442 4.442 0 01.92-1.461 4.362 4.362 0 011.462-1.006c.574-.248 1.222-.371 1.942-.371s1.365.123 1.934.371c.57.248 1.054.584 1.453 1.006.4.422.706.909.92 1.461a4.79 4.79 0 01.322 1.756c0 .608-.107 1.189-.322 1.74a4.505 4.505 0 01-.912 1.461 4.236 4.236 0 01-1.451 1.005c-.576.247-1.223.372-1.944.372zm-2.314-4.578c0 .395.059.752.177 1.072.117.322.281.601.489.838a2.2 2.2 0 00.736.548c.281.13.584.194.911.194a2.148 2.148 0 001.646-.742c.208-.237.371-.52.49-.846s.178-.687.178-1.08c0-.383-.059-.738-.178-1.064a2.64 2.64 0 00-.49-.846 2.189 2.189 0 00-.734-.548 2.149 2.149 0 00-.912-.195c-.327 0-.63.069-.911.203-.283.136-.528.321-.736.558s-.372.518-.489.845c-.118.327-.177.68-.177 1.063zm13.699-2.482c-.688.012-1.301.143-1.841.396s-.93.634-1.165 1.141v5.355h-2.264V31.34h2.078v1.891c.303-.607.699-1.098 1.189-1.469.49-.372 1.006-.559 1.547-.559.123 0 .216.004.277.01.063.006.122.014.178.025v2.061zm9.087 7.06c-.71 0-1.352-.121-1.926-.363a4.405 4.405 0 01-1.47-.988 4.389 4.389 0 01-.938-1.452 4.675 4.675 0 01-.328-1.74c0-.63.107-1.225.32-1.782a4.332 4.332 0 012.408-2.475c.581-.248 1.23-.371 1.95-.371.722 0 1.366.123 1.936.371a4.43 4.43 0 011.452.998c.399.416.704.899.913 1.451.206.553.313 1.127.313 1.723 0 .148-.004.288-.01.423-.006.136-.02.248-.042.338h-6.841c.034.349.119.659.254.929a2.257 2.257 0 001.249 1.131c.271.102.552.152.845.152.449 0 .875-.11 1.275-.329.4-.22.673-.51.82-.871l1.941.541c-.327.676-.848 1.23-1.563 1.664s-1.567.65-2.558.65zm2.297-5.338c-.057-.664-.303-1.196-.735-1.596-.433-.4-.96-.6-1.579-.6-.303 0-.588.053-.853.16s-.499.257-.7.448c-.204.19-.369.421-.5.692-.129.27-.205.568-.228.895h4.595zm11.942 5.17h-2.263v-4.967c0-.71-.123-1.227-.371-1.555-.248-.326-.592-.488-1.03-.488-.226 0-.456.043-.692.134a2.586 2.586 0 00-.668.38 3.106 3.106 0 00-.565.584c-.17.225-.294.472-.372.742v5.17h-2.263V31.34h2.042v1.638a3.37 3.37 0 011.42-1.317c.619-.314 1.317-.473 2.096-.473.552 0 1.002.102 1.35.305.351.201.62.467.812.793.191.327.323.698.398 1.115.071.416.107.84.107 1.266v5.524zm6.065.168c-.71 0-1.352-.121-1.926-.363a4.405 4.405 0 01-1.47-.988 4.405 4.405 0 01-.938-1.452 4.695 4.695 0 01-.328-1.74c0-.63.107-1.225.321-1.782a4.324 4.324 0 012.407-2.475c.581-.248 1.23-.371 1.951-.371.72 0 1.364.123 1.935.371.569.248 1.053.58 1.453.998.398.416.703.899.911 1.451.208.553.313 1.127.313 1.723 0 .148-.003.288-.009.423-.006.136-.02.248-.041.338h-6.842c.035.349.119.659.253.929a2.263 2.263 0 001.25 1.131c.271.102.553.152.846.152.449 0 .875-.11 1.274-.329.4-.22.673-.51.819-.871l1.942.541c-.326.676-.847 1.23-1.563 1.664-.714.434-1.568.65-2.558.65zm2.298-5.338c-.058-.664-.303-1.196-.736-1.596-.433-.4-.959-.6-1.579-.6-.304 0-.588.053-.853.16s-.499.257-.7.448c-.203.19-.369.421-.499.692-.13.27-.206.568-.228.895h4.595zm8.986-1.722c-.688.012-1.302.143-1.842.396s-.931.634-1.166 1.141v5.355h-2.263V31.34h2.078v1.891c.303-.607.7-1.098 1.19-1.469.489-.372 1.005-.559 1.546-.559.121 0 .216.004.277.01.063.006.121.014.179.025v2.061zm4.729 6.942a3.655 3.655 0 01-1.612-.354 3.82 3.82 0 01-1.26-.971 4.557 4.557 0 01-.811-1.428 5.137 5.137 0 01-.288-1.723c0-.643.103-1.239.306-1.791a4.597 4.597 0 01.843-1.453 3.834 3.834 0 012.957-1.333c.698 0 1.306.155 1.824.465s.94.723 1.267 1.241V31.34h1.978v8.428c0 .654-.12 1.239-.364 1.758a3.726 3.726 0 01-1.021 1.318 4.688 4.688 0 01-1.554.826 6.406 6.406 0 01-1.96.287c-.979 0-1.799-.16-2.458-.481a4.927 4.927 0 01-1.696-1.36l1.232-1.198a3.49 3.49 0 001.275.979 3.886 3.886 0 001.646.355c.35 0 .685-.049 1.005-.145.321-.096.603-.245.845-.447.242-.203.434-.463.574-.777.142-.315.211-.688.211-1.115v-1.114c-.292.507-.703.897-1.232 1.174s-1.1.413-1.707.413zm.777-1.807c.247 0 .483-.039.709-.118.225-.079.431-.187.617-.321.186-.135.352-.293.498-.473a2.14 2.14 0 00.337-.574v-2.111a2.767 2.767 0 00-.945-1.25c-.429-.314-.879-.474-1.351-.474-.351 0-.668.076-.955.229a2.327 2.327 0 00-.734.607c-.203.254-.358.543-.466.87s-.16.663-.16 1.013c0 .36.063.699.187 1.014.124.316.295.592.516.828.218.236.479.422.776.558s.622.202.971.202zm6.453 1.757V31.34h2.262v8.852h-2.262zm1.705-9.882l-1.451-.438.91-2.01h2.111l-1.57 2.448zm5 10.05c-.429 0-.827-.07-1.198-.211a2.892 2.892 0 01-.965-.592 2.7 2.7 0 01-.862-2.001c0-.417.095-.803.279-1.157.185-.355.444-.656.778-.903a3.858 3.858 0 011.189-.583 5.188 5.188 0 011.521-.211c.393 0 .78.033 1.157.102.378.067.712.163 1.005.287v-.508c0-.584-.166-1.035-.497-1.352-.333-.314-.826-.473-1.48-.473a3.91 3.91 0 00-1.384.254c-.451.17-.914.417-1.385.743l-.693-1.437c1.137-.754 2.365-1.131 3.683-1.131 1.273 0 2.26.313 2.965.938.703.625 1.056 1.528 1.056 2.711v2.754c0 .236.045.404.136.506.089.102.247.158.473.169v1.927a5.736 5.736 0 01-1.082.117c-.429-.011-.755-.109-.979-.295a1.205 1.205 0 01-.422-.752l-.052-.489a3.927 3.927 0 01-1.437 1.182 4.1 4.1 0 01-1.806.405zm.642-1.655a2.94 2.94 0 001.09-.203c.344-.134.611-.314.802-.54.248-.191.372-.405.372-.643v-1.013a5.477 5.477 0 00-.878-.245 4.723 4.723 0 00-.913-.093c-.585 0-1.063.132-1.435.396-.373.265-.559.601-.559 1.006 0 .383.146.7.439.954.294.254.655.381 1.082.381zM139.245 7.42h3.058v36.047h-3.058z"/></g></svg>