<svg data-name="Grupo 407" xmlns="http://www.w3.org/2000/svg" width="209.804" height="43.806"><defs><clipPath id="a"><path data-name="Rectángulo 4" fill="none" d="M0 0h206.783v41.372H0z"/></clipPath><clipPath id="b"><path data-name="Rectángulo 6" fill="none" d="M0 0h41.471v41.372H0z"/></clipPath></defs><path data-name="Rectángulo 2" fill="#fff" d="M0 0h209.805v43.806H0z"/><path data-name="Rectángulo 3" fill="#333" d="M86.319 1.153h121.935v41.372H86.319z"/><text transform="translate(90.885 22.208)" fill="#fff" font-size="9" font-family="Calibri"><tspan x="0" y="0">Ministerio</tspan></text><text data-name="de Energía y Minas" transform="translate(90.885 32.47)" fill="#fff" font-size="9" font-family="Calibri"><tspan x="0" y="0">de Energía y Minas</tspan></text><path data-name="Trazado 198" d="M42.944 1.16v41.366h41.488L84.425 1.16z" fill="red"/><g data-name="Grupo 3"><g data-name="Grupo 2" clip-path="url(#a)" fill="#fff" transform="translate(1.471 1.153)"><path data-name="Trazado 199" d="M53.072 18.714a3.432 3.432 0 01-.242 1.32 2.772 2.772 0 01-.689 1 3.073 3.073 0 01-1.1.642 4.812 4.812 0 01-1.557.227h-1.108v3.514a.169.169 0 01-.036.106.221.221 0 01-.1.071 1.021 1.021 0 01-.2.046 2.494 2.494 0 01-.626 0 1.05 1.05 0 01-.2-.046.2.2 0 01-.106-.071.187.187 0 01-.03-.106v-9a.522.522 0 01.158-.432.554.554 0 01.354-.127h2.089q.317 0 .607.026a6.032 6.032 0 01.686.112 2.883 2.883 0 01.8.325 2.577 2.577 0 01.7.585 2.5 2.5 0 01.441.8 3.127 3.127 0 01.155 1.008m-1.365.1a2.017 2.017 0 00-.223-1 1.539 1.539 0 00-.549-.6 1.842 1.842 0 00-.679-.249 4.672 4.672 0 00-.681-.052h-1.2v3.928h1.168a2.7 2.7 0 00.976-.151 1.8 1.8 0 00.652-.421 1.741 1.741 0 00.4-.639 2.353 2.353 0 00.135-.812"/><path data-name="Trazado 200" d="M60.17 25.081a1.5 1.5 0 01-.016.238.462.462 0 01-.052.169.279.279 0 01-.088.1.2.2 0 01-.108.029h-4.681a.525.525 0 01-.328-.117.482.482 0 01-.155-.409v-8.707a.488.488 0 01.155-.411.537.537 0 01.328-.116h4.627a.2.2 0 01.11.031.23.23 0 01.079.1.739.739 0 01.048.17 1.358 1.358 0 01.02.253 1.254 1.254 0 01-.02.238.668.668 0 01-.048.167.23.23 0 01-.079.093.2.2 0 01-.11.03h-3.814V20h3.272a.184.184 0 01.109.035.268.268 0 01.083.094.46.46 0 01.049.166 1.654 1.654 0 01.015.249 1.455 1.455 0 01-.015.235.442.442 0 01-.049.158.2.2 0 01-.083.086.222.222 0 01-.109.027h-3.272v3.493h3.868a.21.21 0 01.108.03.273.273 0 01.088.093.423.423 0 01.052.167 1.609 1.609 0 01.016.254"/><path data-name="Trazado 201" d="M68.479 25.42a.245.245 0 01-.023.106.17.17 0 01-.1.075.815.815 0 01-.21.046 3.059 3.059 0 01-.363.015 2.449 2.449 0 01-.321-.015.669.669 0 01-.2-.051.258.258 0 01-.118-.094.637.637 0 01-.072-.15l-.9-2.3a9.46 9.46 0 00-.328-.72 2.289 2.289 0 00-.4-.565 1.631 1.631 0 00-.55-.369 1.969 1.969 0 00-.761-.132h-.867v4.155a.17.17 0 01-.034.106.224.224 0 01-.1.07 1.076 1.076 0 01-.2.046 2.491 2.491 0 01-.626 0 1.162 1.162 0 01-.2-.046.2.2 0 01-.1-.07.182.182 0 01-.03-.106v-9.037a.486.486 0 01.154-.412.537.537 0 01.328-.117h2.073c.246 0 .452.008.615.019s.311.027.44.042a3.7 3.7 0 011 .309 2.352 2.352 0 01.728.536 2.156 2.156 0 01.441.742 2.78 2.78 0 01.146.925 2.725 2.725 0 01-.132.879 2.105 2.105 0 01-.38.686 2.513 2.513 0 01-.6.518 3.862 3.862 0 01-.776.369 1.724 1.724 0 01.438.269 2.139 2.139 0 01.366.387 3.556 3.556 0 01.32.521c.1.194.2.415.3.665l.874 2.146c.072.182.115.31.137.382a.72.72 0 01.03.17m-1.952-6.857a1.755 1.755 0 00-.257-.971 1.44 1.44 0 00-.859-.568 2.577 2.577 0 00-.426-.076 7.282 7.282 0 00-.622-.022h-1.093v3.288h1.267a2.85 2.85 0 00.887-.124 1.769 1.769 0 00.62-.347 1.358 1.358 0 00.366-.524 1.84 1.84 0 00.117-.657"/><path data-name="Trazado 202" d="M77.381 22.013a4.519 4.519 0 01-.26 1.586 3.279 3.279 0 01-.742 1.18 3.148 3.148 0 01-1.176.731 4.616 4.616 0 01-1.576.251 4.328 4.328 0 01-1.47-.235 3.093 3.093 0 01-1.138-.691 3.032 3.032 0 01-.731-1.141 4.532 4.532 0 01-.256-1.584v-6.057a.178.178 0 01.03-.106.2.2 0 01.106-.071 1.357 1.357 0 01.2-.047 2.26 2.26 0 01.316-.019 2.331 2.331 0 01.31.019 1.142 1.142 0 01.2.047.2.2 0 01.1.071.19.19 0 01.03.106v5.9a3.766 3.766 0 00.167 1.183 2.228 2.228 0 00.478.841 2.012 2.012 0 00.754.505 2.756 2.756 0 00.992.17 2.873 2.873 0 001.006-.167 1.885 1.885 0 00.746-.5 2.193 2.193 0 00.468-.82 3.678 3.678 0 00.161-1.147v-5.965a.181.181 0 01.03-.106.2.2 0 01.106-.071 1.3 1.3 0 01.2-.047 2.3 2.3 0 01.313-.019 2.235 2.235 0 01.306.019 1.211 1.211 0 01.2.047.223.223 0 01.106.071.168.168 0 01.033.106zm-2.894-8.85a.785.785 0 01.162-.151.736.736 0 01.177-.083 1.1 1.1 0 01.234-.041c.091-.008.2-.012.325-.012a1.412 1.412 0 01.352.035.427.427 0 01.182.086.119.119 0 01.034.122.39.39 0 01-.087.143l-1.712 1.6a.928.928 0 01-.138.118.648.648 0 01-.146.068 1.183 1.183 0 01-.193.038 3.284 3.284 0 01-.269.011 1.507 1.507 0 01-.271-.02.226.226 0 01-.135-.06.1.1 0 01-.023-.1.387.387 0 01.082-.143z"/></g></g><path data-name="Rectángulo 5" fill="#fff" d="M1.471 1.153h41.471v41.372H1.471z"/><g data-name="Grupo 5"><g data-name="Grupo 4" clip-path="url(#b)" transform="translate(1.471 1.153)"><path data-name="Trazado 203" d="M20.702 34.793L13.223 17.65l-6.167-5 .215 17.102c.055 3.771 4.149 9.43 13.428 5.041" fill="#0b070c" fill-rule="evenodd"/><path data-name="Trazado 204" d="M21.202 34.505L13.569 17.64l-6.294-4.925.23 16.83c.055 3.711 4.225 9.276 13.7 4.961" fill="#fc0918" fill-rule="evenodd"/><path data-name="Trazado 205" d="M10.082 15.024l-3.048-2.3.037-.135c.006-.026 1.736 1.345 3.137 2.3.058.039-.089.005-.126.131" fill="#0b070c" fill-rule="evenodd"/><path data-name="Trazado 206" d="M10.082 15.024l-3.048-2.3.037-.135c.006-.026 1.736 1.345 3.137 2.3.058.044-.089.012-.126.135z" fill="none" stroke="#0b070c" stroke-miterlimit="2.613" stroke-width=".044"/><path data-name="Trazado 207" d="M7.035 12.203l-.614-.294v.646s0 .005.007.005v.024l.656.2z" fill="#0b070c" fill-rule="evenodd"/><path data-name="Trazado 208" d="M7.035 12.203l-.614-.294v.646s0 .005.007.005v.024l.656.2z" fill="none" stroke="#0b070c" stroke-miterlimit="2.613" stroke-width=".044"/><path data-name="Trazado 209" d="M7.065 12.769l-.072-.567-.543-.286.016.613c0 .064.588.167.6.24" fill="#daef41" fill-rule="evenodd"/><path data-name="Trazado 210" d="M7.065 12.769l-.072-.567-.543-.286.016.613c0 .064.588.172.599.24z" fill="none" stroke="#0b070c" stroke-miterlimit="2.613" stroke-width=".044"/><path data-name="Trazado 211" d="M7.065 12.768l-.61-.812.011.6c0 .067.558.158.6.215" fill="#daef41" fill-rule="evenodd"/><path data-name="Trazado 212" d="M7.065 12.768l-.61-.812.011.6c0 .064.558.155.599.212z" fill="none" stroke="#0b070c" stroke-miterlimit="2.613" stroke-width=".044"/><path data-name="Trazado 213" d="M7.071 12.544a.174.174 0 01.182.174.18.18 0 01-.182.179.188.188 0 01-.185-.179.18.18 0 01.185-.174" fill="#0b070c" fill-rule="evenodd"/><path data-name="Trazado 214" d="M7.071 12.544a.174.174 0 01.182.174.18.18 0 01-.182.179.188.188 0 01-.185-.179.18.18 0 01.185-.174z" fill="none" stroke="#0b070c" stroke-miterlimit="2.613" stroke-width=".044"/><path data-name="Trazado 215" d="M7.071 12.594a.121.121 0 01.127.125.129.129 0 01-.127.13.132.132 0 01-.13-.13.123.123 0 01.13-.125" fill="#daef41" fill-rule="evenodd"/><path data-name="Trazado 216" d="M7.071 12.594a.121.121 0 01.127.125.129.129 0 01-.127.13.132.132 0 01-.13-.13.123.123 0 01.13-.125z" fill="none" stroke="#0b070c" stroke-miterlimit="2.613" stroke-width=".044"/><path data-name="Trazado 217" d="M7.397 23.027c.413.355 1.192.143 1.278.8.049.359.563.348.711.639.387.751 1.044.443 1.24.694a1.58 1.58 0 001.337.672c.517-.106 1.05.421 1.541.738.875.557 1.712.321 1.712 2.3a4.966 4.966 0 01-.208 2.1c-.516.7-1.464.609-2.445.827-.188.039-1.028-.787-1.828-.555-.346.095-.74-.152-1.143-.07a1.069 1.069 0 01-1.259-.425c-.267-.566-.829-.6-.829-.827 0-1.551-.1-5.443-.107-6.884" fill="#fff" fill-rule="evenodd"/><path data-name="Trazado 218" d="M7.397 23.027c.413.355 1.192.143 1.278.8.049.359.563.348.711.639.387.751 1.044.443 1.24.694a1.58 1.58 0 001.337.672c.517-.106 1.05.421 1.541.738.875.557 1.712.321 1.712 2.3a4.966 4.966 0 01-.208 2.1c-.516.7-1.464.609-2.445.827-.188.039-1.028-.787-1.828-.555-.346.095-.74-.152-1.143-.07a1.069 1.069 0 01-1.259-.425c-.267-.566-.829-.6-.829-.827 0-1.559-.098-5.451-.107-6.893z" fill="none" stroke="#0b070c" stroke-miterlimit="2.613" stroke-width=".044"/><path data-name="Trazado 219" d="M13.066 24.239c-.856-.646-4.307-2.009-4.793-2.987s.357-2.307.125-1.587c-.291.895 2.851 2.188 3.712 2.553.331.146 1.423.521 1.423.97 0 .068-.113.4-.113.508 0 .307-.354.477-.354.543" fill="#0b070c" fill-rule="evenodd"/><path data-name="Trazado 220" d="M13.066 24.239c-.856-.646-4.307-2.009-4.793-2.987s.357-2.307.125-1.587c-.291.895 2.851 2.188 3.712 2.553.331.146 1.423.521 1.423.97 0 .068-.113.4-.113.508.001.307-.354.474-.354.543z" fill="none" stroke="#0b070c" stroke-miterlimit="2.613" stroke-width=".044"/><path data-name="Trazado 221" d="M13.283 24.11c-.878-.709-4.393-2.173-4.9-3.219s.366-2.49.131-1.713c-.288.964 2.92 2.361 3.8 2.758.34.151 1.446.56 1.446 1.03 0 .076-.11.446-.11.555 0 .33-.367.511-.367.588" fill="#daef41" fill-rule="evenodd"/><path data-name="Trazado 222" d="M13.283 24.11c-.878-.709-4.393-2.173-4.9-3.219s.366-2.49.131-1.713c-.288.964 2.92 2.361 3.8 2.758.34.151 1.446.56 1.446 1.03 0 .076-.11.446-.11.555 0 .331-.367.517-.367.589z" fill="none" stroke="#0b070c" stroke-miterlimit="2.613" stroke-width=".044"/><path data-name="Trazado 223" d="M14.693 24.171c.052-3.572.745-7.443.288-8.945a34.775 34.775 0 01-4.378-3.28c-.149-.134-1.714 6.034-2.216 7.41.591 1.75 3.444 2.339 6.306 4.816" fill="#fc0918" fill-rule="evenodd"/><path data-name="Trazado 224" d="M14.693 24.171c.052-3.572.745-7.443.288-8.945a34.775 34.775 0 01-4.378-3.28c-.149-.134-1.714 6.034-2.216 7.41.591 1.75 3.444 2.339 6.306 4.815z" fill="none" stroke="#0b070c" stroke-miterlimit="2.613" stroke-width=".044"/><path data-name="Trazado 225" d="M13.223 16.993c-.253-.106-.844-.675-1.122-.805-.626-.287-1.916-1.428-2.2-1.155a3.29 3.29 0 00-.78 1.945c-.052.318.236.318.487.428.44.208.632.45 1.1.5 1.185.146 1.837 1.062 2.451.789.254-.114.134-.964.424-1.1.437-.209-.182-.352-.361-.6" fill="#fff" fill-rule="evenodd"/><path data-name="Trazado 226" d="M13.223 16.993c-.253-.106-.844-.675-1.122-.805-.626-.287-1.916-1.428-2.2-1.155a3.29 3.29 0 00-.78 1.945c-.052.318.236.318.487.428.44.208.632.45 1.1.5 1.185.146 1.837 1.062 2.451.789.254-.114.134-.964.424-1.1.437-.216-.181-.358-.36-.602z" fill="none" stroke="#0b070c" stroke-miterlimit="2.613" stroke-width=".044"/><path data-name="Trazado 227" d="M14.869 19.745c.031.057-.041.188-.132.343a.294.294 0 00.179-.106.736.736 0 01-.161.274c.041.006.089 0 .147-.1v.07c-.015.058-.049.141-.064.19-.058.027-.065.142-.1.22a.646.646 0 01-.053-.587c-.078-.058 0-.185.07-.281a.434.434 0 01-.091.058.716.716 0 01.16-.4c.093-.06.176-.06.237.06.015.065.019.09-.122.155-.134.1-.124.109-.069.106" fill="#b86f4c" fill-rule="evenodd"/><path data-name="Trazado 228" d="M10.552 11.984c.693 1.979.747 5.426 1.275 7.575a6.339 6.339 0 00.15.666 2.95 2.95 0 00-.411-.44c-.463-.28-1.65-1.114-2.734-.577a2.081 2.081 0 00-.233.17c-.088.088-.144.147-.144.147-.058-.151-.073-.219.064-.349.145-.618.294-1.285.446-1.957.075-.319.154-.642.228-.959a17.474 17.474 0 011.36-4.276" fill="#0b070c" fill-rule="evenodd"/><path data-name="Trazado 229" d="M10.552 11.984c.693 1.979.747 5.426 1.275 7.575a6.339 6.339 0 00.15.666 2.95 2.95 0 00-.411-.44c-.463-.28-1.65-1.114-2.734-.577a2.081 2.081 0 00-.233.17c-.088.088-.144.147-.144.147-.058-.151-.073-.219.064-.349.145-.618.294-1.285.446-1.957.075-.319.154-.642.228-.959a17.474 17.474 0 011.359-4.276z" fill="none" stroke="#0b070c" stroke-miterlimit="2.613" stroke-width=".044"/><path data-name="Trazado 230" d="M14.773 15.231l-4.355-3.254.054-.2c.016-.042 2.473 1.91 4.47 3.274.082.058-.12.006-.169.179" fill="#0b070c" fill-rule="evenodd"/><path data-name="Trazado 231" d="M14.774 15.232l-4.356-3.255.056-.2c.014-.041 2.472 1.91 4.469 3.274.081.059-.12.007-.169.181zm-2.62 7.438v.239a.486.486 0 01-.03.107c0 .018-.036.043-.036.08s-.018.095-.018.146v.073c0 .046-.012.129.034 0m.4-.421v.233c0 .045-.033.092-.028.115s-.039.042-.039.073a1.026 1.026 0 00-.011.147v.079c0 .049-.02.127.032 0m.458-.393c0 .062.008.173.008.241 0 .042-.039.1-.039.109s-.04.049-.034.082-.017.089-.017.145v.075c0 .048-.014.125.041 0m-1.235-1.415c-.015.016-.068.058-.068.094v.049l-.019.023v.074l.006.023v.48m-.255-1a.681.681 0 00-.067.419c0 .056 0 .153-.02.168a.922.922 0 00-.081.157l-.022.015c-.052.057.052-.015-.217.037m-.276-1.133c0 .035-.013.071-.013.108v.062l-.012.039v.534c0 .063-.012.1.035-.028m-.307-.938c0 .049-.018.088-.018.123v.054l-.025.04v.021l.009.018v.51c0 .053-.016.092.033-.039m-1.811-2.129a.7.7 0 00-.07.08l-.012.009v.024l-.018.018v.019l-.021.018v.018l-.015.041v.039l-.023.012v.04c.01.036-.015.075-.015.113 0 .021-.012.037-.012.058v.19c0 .057-.021.057.037.021m.589-.211c-.018 0-.066.021-.066.046l-.022.014v.038l-.022.025.007.013v.033h-.021v.094l-.013.046v.034c0 .018-.018.058-.018.08s-.022 0-.022.036v.171c0 .015-.006.037-.006.052m2.188.674a.615.615 0 00-.058.414c0 .057 0 .154-.02.169a1.157 1.157 0 00-.085.153l-.021.022c-.054.058.049-.022-.221.04m-1.234-1.985a2.878 2.878 0 00-.064.477v.336c0 .056-.03.11.022 0m.443-.5a1.593 1.593 0 00-.082.519v.182c0 .059.021.172-.03.172m3.124.954c0 .023.036.081.036.1v.268l-.009.043v.018l-.018.015v.036c-.021.022-.056.022-.056.062 0 .016-.036.055-.036.073s-.015.041-.015.056l-.021.023v.113m-.614-1.261c0 .018-.028.077-.028.1v.034l-.021.023v.013l-.019.026v.015l-.012.021v.037l-.021.02v.111a.114.114 0 00-.015.077l.007.055v.15s0 .058.014.04M8.65 20.335c-.018.024-.054.059-.069.08l-.024.018v.021l-.016.019v.012l-.02.027v.016l-.018.039v.036l-.012.021v.033c0 .044-.018.078-.018.121 0 .013-.015.036-.015.046v.2c0 .056-.018.056.037.015m.6-.155v.228l-.017.039v.041l-.018.039v.018a.366.366 0 00-.014.078v.076a.143.143 0 00-.016.052v.112c0 .056-.012.056.037.02m.425-.519c0 .039-.012.075-.012.114v.055l-.021.044.006.014v.531c.006.053-.012.093.033-.04m.669-.146l-.015.069v.023l-.019.018v.058h-.012v.059l-.024.013v.061c0 .039-.01.074-.01.112v.226c0 .018 0 .058.022.058m-.215-.97c0 .019-.02.072-.02.1v.091l.006.02v.021l-.015.018v.132c0 .029 0 .111.006.173v.3m3.365.945c0 .015-.021.08-.021.09s-.015.037-.015.068l-.015.011-.022.033v.016h-.015v.018l-.021.018v.012l-.018.012v.019l-.013.018v.035l-.021.026v.116l.01.052v.223m-1.632-1.7c0 .04-.037.1-.037.134v.284c0 .019.007.057.007.08v.053c0 .041-.021 0-.021.041v.033l-.021.02v.026h-.018c-.022.01-.055.088.018.01m-.595-.972l-.011.074v.038l-.016.024v.006l-.02.018v.082c0 .03-.019.054-.019.091v.288m-.206-.85c-.085.021-.066.034-.066.109v.793m.688-.444l-.053.1v.079l-.021.015.006.04v.479m.688-.357c-.02.023-.07.061-.07.1v.057l-.025.018v.482a.228.228 0 01.011.083m.677-.523v.242a.791.791 0 01-.028.111c0 .016-.039.046-.039.078s-.015.092-.015.137v.084c0 .05-.012.125.039 0m-3.52-2.934a.354.354 0 00-.07.083l-.017.011v.028l-.021.018v.021l-.018.019v.012l-.018.046v.034l-.016.018v.039c0 .032-.018.074-.018.111 0 .015-.017.04-.017.061v.189c0 .056-.012.056.043.013" fill="none" stroke="#0b070c" stroke-miterlimit="2.613" stroke-width=".044"/><path data-name="Trazado 232" d="M8.149 20.305c-.018.085.147-.631.222-.881.054-.173.649-.855.931-.855.146 0 .4-.04.578-.04a1.98 1.98 0 011.547.793c.07.071.278.214.284.324a3.243 3.243 0 01.3.659c-1.213-.894-3.569-1.045-3.86 0" fill="#0b070c" fill-rule="evenodd"/><path data-name="Trazado 233" d="M8.149 20.305c-.018.085.147-.631.222-.881.054-.173.649-.855.931-.855.146 0 .4-.04.578-.04a1.98 1.98 0 011.547.793c.07.071.278.214.284.324a3.243 3.243 0 01.3.659c-1.214-.891-3.57-1.042-3.862 0z" fill="none" stroke="#0b070c" stroke-miterlimit="2.613" stroke-width=".044"/><path data-name="Trazado 234" d="M8.149 20.173c-.018.073.147-.585.222-.807.054-.163.649-.8.931-.8.146 0 .4-.035.578-.035a2.018 2.018 0 011.547.733c.07.061.256.2.284.294a4.74 4.74 0 01.184.581c-1.217-.834-3.454-.927-3.746.033" fill="#daef41" fill-rule="evenodd"/><path data-name="Trazado 235" d="M8.149 20.173c-.018.073.147-.585.222-.807.054-.163.649-.8.931-.8.146 0 .4-.035.578-.035a2.018 2.018 0 011.547.733c.07.061.256.2.284.294a4.74 4.74 0 01.184.581c-1.217-.834-3.454-.926-3.746.034z" fill="none" stroke="#0b070c" stroke-miterlimit="2.613" stroke-width=".044"/><path data-name="Trazado 236" d="M10.454 11.884c.7 2.041.693 5.605 1.305 7.676a3.02 3.02 0 00-2.98-.556 1.418 1.418 0 00-.409.346c1.15-4.03 1.469-6.047 2.084-7.466" fill="#fc0918" fill-rule="evenodd"/><path data-name="Trazado 237" d="M10.454 11.884c.7 2.041.693 5.605 1.305 7.676a3.02 3.02 0 00-2.98-.556 1.418 1.418 0 00-.409.346c1.15-4.031 1.469-6.048 2.084-7.466z" fill="none" stroke="#0b070c" stroke-miterlimit="2.613" stroke-width=".044"/><path data-name="Trazado 238" d="M11.126 15.187c.038.4.09 1.022.124 1.46 0 .082-1.659-.358-2.311.628.245-.834.291-1.3.449-1.76.018-.039.036-.085.059-.133.36-.329 1.654-.367 1.679-.195" fill="#fff" fill-rule="evenodd"/><path data-name="Trazado 239" d="M11.126 15.187c.038.4.09 1.022.124 1.46 0 .082-1.659-.358-2.311.628.245-.834.291-1.3.449-1.76.018-.039.036-.085.059-.133.36-.33 1.654-.368 1.679-.195z" fill="none" stroke="#0b070c" stroke-miterlimit="2.613" stroke-width=".044"/><path data-name="Trazado 240" d="M10.424 11.217l-.871-.416v.962l.942.285z" fill="#0b070c" fill-rule="evenodd"/><path data-name="Trazado 241" d="M10.424 11.217l-.871-.416v.962l.942.285z" fill="none" stroke="#0b070c" stroke-miterlimit="2.613" stroke-width=".044"/><path data-name="Trazado 242" d="M10.466 12.022l-.094-.807-.782-.4.015.868c.01.091.84.239.862.343" fill="#daef41" fill-rule="evenodd"/><path data-name="Trazado 243" d="M10.466 12.022l-.094-.807-.782-.4.015.868c.009.086.839.235.861.339z" fill="none" stroke="#0b070c" stroke-miterlimit="2.613" stroke-width=".044"/><path data-name="Trazado 244" d="M10.466 12.022l-.864-1.16.015.855c0 .094.785.231.85.306" fill="#daef41" fill-rule="evenodd"/><path data-name="Trazado 245" d="M10.466 12.022l-.864-1.16.015.855c0 .093.784.231.849.305z" fill="none" stroke="#0b070c" stroke-miterlimit="2.613" stroke-width=".044"/><path data-name="Trazado 246" d="M10.471 11.692a.255.255 0 11-.257.26.259.259 0 01.257-.26" fill="#0b070c" fill-rule="evenodd"/><path data-name="Trazado 247" d="M10.471 11.692a.255.255 0 11-.257.26.259.259 0 01.257-.26z" fill="none" stroke="#0b070c" stroke-miterlimit="2.613" stroke-width=".044"/><path data-name="Trazado 248" d="M10.473 11.783a.182.182 0 01.188.177.184.184 0 01-.188.175.179.179 0 01-.179-.175.177.177 0 01.179-.177" fill="#daef41" fill-rule="evenodd"/><path data-name="Trazado 249" d="M10.473 11.783a.182.182 0 01.188.177.184.184 0 01-.188.175.179.179 0 01-.179-.175.177.177 0 01.179-.177z" fill="none" stroke="#0b070c" stroke-miterlimit="2.613" stroke-width=".044"/><path data-name="Trazado 250" d="M11.696 24.6a3.28 3.28 0 00.128 1.08 1.71 1.71 0 010 .4l.036.1c.005.036-.049.392-.049.392l.018.069c-.018.156.07.388-.1.446m-.795-2.99c.042.379.095.807.137 1.188.044.342-.021.7.022 1.049.012.14.119.7-.146.616m-1.3-3.635a11.437 11.437 0 00-.03 1.613c0 .206-.146.52-.146.727v.461m.674-2.766a3.686 3.686 0 01.118 2.167 2.284 2.284 0 00-.082.566v.593m-1.2-3.484c-.543.626-.361 2.631-.361 3.529m-.542-4.267a5.471 5.471 0 00-.145 2.066c0 .695-.037 1.4-.037 2.069m3.763-7.028c-.03.021-.03.021-.03.061v.144c0 .015.019.033.019.052v.089c0 .034-.016.04-.031.071m-.18-.526c-.007.091.026.207.026.314v.123h0m-.2-.545v.461m-.245-.563v.524m-.2-.588c-.018.143.009.357-.018.473m-.219-.537c-.01.109 0 .224 0 .338v.146c0 .014-.01.084-.01-.015m-.156-.508v.276c0 .075-.03.128-.03.211m-.172-.516v.143c0 .054-.021.112-.021.163v.169m-.14-.491v.48h-.018m-.137-.521c-.007.089-.007.192-.007.277v.223c0 .021-.015.041-.015.015m-.168-.534v.47c0 .018-.028.041-.028.049m-.146-.451c-.009-.086-.009 0-.009.01v.268c0 .012-.031.083-.031.1s-.006.022-.006.039v.031m-.489-.339v.075a.922.922 0 00-.052.18c0 .027-.011.084-.011.117 0 .015 0 .14-.019.052m.436-.511c-.008-.094-.02 0-.02.014 0 .13-.006.294-.006.432m-.181-.418a.41.41 0 00-.038.248v.114c0 .027-.036.068-.05.083m-.164-.357c0 .077-.064.148-.064.225 0 .027-.019.062-.019.1s-.011.055-.011.1m-.095-.318c.009-.089-.006-.018-.006 0s-.019.027-.027.044-.031.092-.031.1c0 .064-.012.09-.012.134a.123.123 0 01-.012.069.216.216 0 00-.009.041c-.012.012-.012.036-.022.012m-.085-.325c-.055.047-.055.138-.055.214s-.027.15-.022.2" fill="none" stroke="#0b070c" stroke-miterlimit="2.613" stroke-width=".058"/><path data-name="Trazado 251" d="M8.149 29.023a9.073 9.073 0 00.147 1.993 3 3 0 01.287.916 1.85 1.85 0 00.145.341c.033.039.073.082.11.082s.146.092.146-.043m-.065-3.006c.2.755.315 1.611.443 2.382a2.3 2.3 0 00.357.823c.055.078.34.468.413.459m.2-3.631a8.211 8.211 0 00.358 1.731c.07.189.122.513.186.689a3.624 3.624 0 01.221.606 2.414 2.414 0 00.127.558c0 .046.205.261.217.355.006.05.11.173.085.037m-.412-3.15c.073.213.167.536.237.743.079.274.357.537.444.81.1.316.361.528.446.794.07.211.25.628.331.9m-3-3.609a17.681 17.681 0 01.44 1.815 1.593 1.593 0 00.359.62c.053.061.344.363.407.356" fill="none" stroke="#0b070c" stroke-miterlimit="2.613" stroke-width=".044"/><path data-name="Trazado 252" d="M20.919 34.847l7.487-17.142 6.165-5-.22 17.1c-.052 3.777-4.139 9.426-13.432 5.04" fill="#0b070c" fill-rule="evenodd"/><path data-name="Trazado 253" d="M20.421 34.564l7.641-16.87 6.29-4.917-.229 16.824c-.048 3.715-4.231 9.275-13.7 4.962" fill="#fc0918" fill-rule="evenodd"/><path data-name="Trazado 254" d="M31.546 15.082l3.063-2.3-.049-.136c-.007-.018-1.731 1.344-3.132 2.295-.06.039.084.013.118.136" fill="#0b070c" fill-rule="evenodd"/><path data-name="Trazado 255" d="M31.546 15.082l3.063-2.3-.049-.136c-.007-.018-1.731 1.344-3.132 2.295-.06.043.084.018.118.141z" fill="none" stroke="#0b070c" stroke-miterlimit="2.613" stroke-width=".044"/><path data-name="Trazado 256" d="M34.594 12.263l.612-.287v.641l-.006.015v.009l-.658.2z" fill="#0b070c" fill-rule="evenodd"/><path data-name="Trazado 257" d="M34.594 12.263l.612-.287v.641l-.006.015v.009l-.658.2z" fill="none" stroke="#0b070c" stroke-miterlimit="2.613" stroke-width=".044"/><path data-name="Trazado 258" d="M34.567 12.827l.066-.563.542-.287v.606c-.01.06-.594.167-.606.244" fill="#daef41" fill-rule="evenodd"/><path data-name="Trazado 259" d="M34.567 12.827l.066-.563.542-.287v.606c-.012.059-.596.167-.608.244z" fill="none" stroke="#0b070c" stroke-miterlimit="2.613" stroke-width=".044"/><path data-name="Trazado 260" d="M34.567 12.827l.606-.814-.01.607c0 .06-.553.159-.6.208" fill="#daef41" fill-rule="evenodd"/><path data-name="Trazado 261" d="M34.567 12.827l.606-.814-.01.607c0 .06-.554.159-.596.207z" fill="none" stroke="#0b070c" stroke-miterlimit="2.613" stroke-width=".044"/><path data-name="Trazado 262" d="M34.56 12.598a.184.184 0 00-.187.179.181.181 0 00.187.175.175.175 0 00.179-.175.178.178 0 00-.179-.179" fill="#0b070c" fill-rule="evenodd"/><path data-name="Trazado 263" d="M34.56 12.598a.184.184 0 00-.187.179.181.181 0 00.187.175.175.175 0 00.179-.175.178.178 0 00-.179-.179z" fill="none" stroke="#0b070c" stroke-miterlimit="2.613" stroke-width=".044"/><path data-name="Trazado 264" d="M34.56 12.651a.123.123 0 00-.129.124.121.121 0 00.129.125.127.127 0 00.124-.125.129.129 0 00-.124-.124" fill="#daef41" fill-rule="evenodd"/><path data-name="Trazado 265" d="M34.56 12.651a.123.123 0 00-.129.124.121.121 0 00.129.125.127.127 0 00.124-.125.129.129 0 00-.124-.124z" fill="none" stroke="#0b070c" stroke-miterlimit="2.613" stroke-width=".044"/><path data-name="Trazado 266" d="M34.232 23.088c-.412.355-1.19.149-1.272.8-.054.364-.563.345-.709.637-.382.753-1.047.45-1.245.7a1.6 1.6 0 01-1.337.67c-.516-.11-1.047.421-1.54.737-.877.561-1.711.323-1.711 2.288a4.967 4.967 0 00.207 2.11c.513.7 1.462.61 2.443.825.184.037 1.036-.783 1.824-.557.349.1.747-.149 1.147-.07a1.074 1.074 0 001.259-.422c.268-.56.828-.6.828-.835 0-1.537.094-5.435.106-6.874" fill="#fff" fill-rule="evenodd"/><path data-name="Trazado 267" d="M34.232 23.088c-.412.355-1.19.149-1.272.8-.054.364-.563.345-.709.637-.382.753-1.047.45-1.245.7a1.6 1.6 0 01-1.337.67c-.516-.11-1.047.421-1.54.737-.877.561-1.711.323-1.711 2.288a4.967 4.967 0 00.207 2.11c.513.7 1.462.61 2.443.825.184.037 1.036-.783 1.824-.557.349.1.747-.149 1.147-.07a1.074 1.074 0 001.259-.422c.268-.56.828-.6.828-.835-.001-1.545.093-5.443.106-6.883z" fill="none" stroke="#0b070c" stroke-miterlimit="2.613" stroke-width=".044"/><path data-name="Trazado 268" d="M28.562 24.296c.861-.653 4.311-2.006 4.8-2.979.477-.965-.358-2.312-.139-1.591.291.892-2.847 2.189-3.707 2.556-.335.145-1.425.513-1.425.963 0 .07.109.412.109.51 0 .309.357.477.357.54" fill="#0b070c" fill-rule="evenodd"/><path data-name="Trazado 269" d="M28.562 24.296c.861-.653 4.311-2.006 4.8-2.979.477-.965-.358-2.312-.139-1.591.291.892-2.847 2.189-3.707 2.556-.335.145-1.425.513-1.425.963 0 .07.109.412.109.51.005.309.362.478.362.541z" fill="none" stroke="#0b070c" stroke-miterlimit="2.613" stroke-width=".044"/><path data-name="Trazado 270" d="M28.345 24.17c.875-.7 4.392-2.161 4.893-3.222.492-1.04-.364-2.5-.128-1.711.293.969-2.913 2.357-3.8 2.758-.34.158-1.446.546-1.446 1.027 0 .081.116.447.116.567 0 .326.362.5.362.58" fill="#daef41" fill-rule="evenodd"/><path data-name="Trazado 271" d="M28.345 24.17c.875-.7 4.392-2.161 4.893-3.222.492-1.04-.364-2.5-.128-1.711.293.969-2.913 2.357-3.8 2.758-.34.158-1.446.546-1.446 1.027 0 .081.116.447.116.567.003.324.365.503.365.581z" fill="none" stroke="#0b070c" stroke-miterlimit="2.613" stroke-width=".044"/><path data-name="Trazado 272" d="M26.935 24.229c-.047-3.572-.753-7.447-.289-8.942a34.83 34.83 0 004.382-3.283c.146-.134 1.709 6.039 2.212 7.411-.59 1.748-3.443 2.33-6.306 4.813" fill="#fc0918" fill-rule="evenodd"/><path data-name="Trazado 273" d="M26.935 24.229c-.047-3.572-.753-7.447-.289-8.942a34.83 34.83 0 004.382-3.283c.146-.134 1.709 6.039 2.212 7.411-.588 1.748-3.441 2.33-6.305 4.814z" fill="none" stroke="#0b070c" stroke-miterlimit="2.613" stroke-width=".044"/><path data-name="Trazado 274" d="M28.406 17.052c.257-.106.843-.681 1.121-.807.626-.281 1.92-1.422 2.21-1.152a3.335 3.335 0 01.778 1.943c.049.316-.238.322-.488.437-.437.2-.631.437-1.094.5-1.2.149-1.846 1.055-2.465.784-.242-.115-.129-.97-.426-1.113-.425-.212.187-.349.364-.592" fill="#fff" fill-rule="evenodd"/><path data-name="Trazado 275" d="M28.406 17.052c.257-.106.843-.681 1.121-.807.626-.281 1.92-1.422 2.21-1.152a3.335 3.335 0 01.778 1.943c.049.316-.238.322-.488.437-.437.2-.631.437-1.094.5-1.2.149-1.846 1.055-2.465.784-.242-.115-.129-.97-.426-1.113-.426-.214.187-.35.364-.592z" fill="none" stroke="#0b070c" stroke-miterlimit="2.613" stroke-width=".044"/><path data-name="Trazado 276" d="M26.761 19.804c-.024.061.04.188.134.337a.265.265 0 01-.183-.095.605.605 0 00.168.262c-.043.023-.1 0-.156-.09v.067c.019.052.045.139.07.2.049.015.066.128.1.217a.689.689 0 00.054-.59c.07-.063-.007-.182-.068-.279.015 0 .064.046.086.055a.7.7 0 00-.166-.41.142.142 0 00-.229.056c-.022.079-.022.1.113.167.143.1.133.1.076.1" fill="#b86f4c" fill-rule="evenodd"/><path data-name="Trazado 277" d="M31.08 12.045c-.689 1.977-.753 5.432-1.281 7.575a3.945 3.945 0 01-.15.663 4.663 4.663 0 01.416-.437c.47-.286 1.651-1.12 2.736-.578a1.2 1.2 0 01.228.175c.091.09.149.137.149.137.063-.149.073-.215-.07-.347l-.443-1.958c-.079-.316-.153-.64-.229-.959a17.861 17.861 0 00-1.357-4.272" fill="#0b070c" fill-rule="evenodd"/><path data-name="Trazado 278" d="M31.08 12.045c-.689 1.977-.753 5.432-1.281 7.575a3.945 3.945 0 01-.15.663 4.663 4.663 0 01.416-.437c.47-.286 1.651-1.12 2.736-.578a1.2 1.2 0 01.228.175c.091.09.149.137.149.137.063-.149.073-.215-.07-.347l-.443-1.958c-.079-.316-.153-.64-.229-.959a17.861 17.861 0 00-1.356-4.271z" fill="none" stroke="#0b070c" stroke-miterlimit="2.613" stroke-width=".044"/><path data-name="Trazado 279" d="M26.859 15.291l4.356-3.269-.058-.188c-.012-.033-2.475 1.906-4.472 3.277-.076.052.128 0 .174.179" fill="#0b070c" fill-rule="evenodd"/><path data-name="Trazado 280" d="M26.858 15.291l4.356-3.269-.058-.186c-.012-.034-2.475 1.906-4.471 3.276-.076.053.128-.004.173.179zm2.615 7.435v.237a.353.353 0 00.036.11c0 .021.034.053.034.085s.018.1.018.135v.082c0 .052.019.13-.039 0m-.4-.421v.236a.321.321 0 00.032.1c0 .023.042.058.042.082s.018.1.018.146c0 .021-.009.069-.009.079 0 .042.019.124-.031 0m-.462-.392v.236a.3.3 0 00.041.108c0 .021.027.052.027.084a.587.587 0 01.009.142v.077c0 .05.022.127-.027 0m1.23-1.413c.021.021.073.056.07.1v.053l.012.018v.566m.263-.986a.671.671 0 01.064.42.485.485 0 00.015.168.9.9 0 01.091.152l.016.019c.052.057-.052-.019.218.044m.279-1.142c0 .035.017.079.017.114v.051l.015.044v.248a.339.339 0 00-.006.073v.23c0 .058.015.1-.037-.04m.312-.926c0 .036.018.068.018.106v.06l.019.033V22l-.009.033v.342l-.005.021c0 .053.014.094-.034-.039m1.808-2.132a.441.441 0 00.076.076l.015.018v.019l.022.023v.019l.012.016v.022l.022.038v.031l.018.027v.037c0 .038.009.079.009.107s.022.045.022.063v.187c0 .059.014.059-.037.01m-.6-.2c.024 0 .081.019.081.037l.009.021v.039l.022.01v.066h.009v.053l-.01.021v.02l.022.036v.036c0 .021.017.055.017.081s.023 0 .023.032l-.007.057v.12c0 .015.018.033.018.051m-2.2.675a.674.674 0 01.065.423.552.552 0 00.016.169.611.611 0 01.091.146l.018.019c.046.057-.055-.019.215.042m1.24-1.988a3.008 3.008 0 01.067.472 1.856 1.856 0 01-.009.226v.113c0 .058.036.112-.012 0m-.45-.5a1.551 1.551 0 01.085.513v.19c0 .054-.023.167.03.167m-3.126.963c0 .021-.043.082-.043.1v.264l.016.042v.021l.02.015v.038c.016.016.052.019.052.054s.033.061.033.079.022.036.022.056l.018.019v.118m.616-1.264c0 .021.039.082.039.1v.038l.009.009v.023l.018.018v.025l.022.015v.033l.014.021v.113a.135.135 0 01.013.08v.212s0 .058-.015.03m3.259-2.893a.709.709 0 01.067.082l.021.018v.022l.014.018v.015l.021.017v.025l.02.038v.039l.015.019v.033c0 .037.018.074.016.108s.018.046.018.066l-.007.074v.114c0 .059.022.059-.033.018m-.6-.152v.224l.016.04v.037l.021.041v.015c0 .025.017.036.017.073v.076a.212.212 0 01.018.062v.109c0 .057.009.057-.043.02m-.427-.513c0 .039.016.081.016.106v.067l.017.033v.553c0 .054.012.092-.041-.045m-.659-.145l.018.071v.024l.012.016v.057h.015v.056l.018.018v.058c0 .033.018.078.018.113v.225c0 .024 0 .058-.024.058m.214-.969c0 .015.021.073.021.1v.129l.014.021v.13a1.408 1.408 0 01-.007.165v.3m-3.372.935c0 .024.02.076.02.1s.027.037.015.049l.021.028.018.033-.006.021h.026v.016l.017.02v.02h.017v.022l.018.018v.04l.018.007v.271l-.006.021v.111m1.642-1.7c0 .036.031.092.031.13v.293a.562.562 0 000 .081v.042c0 .046.013 0 .013.046v.037l.024.021-.007.018h.019c.016.014.052.1-.019.014m.6-.961l.009.068v.034l.027.022v.018l.012.016v.076c0 .039.022.061.022.091v.105c0 .015-.006.035-.006.058v.121m.208-.844c.091.016.072.039.067.11 0 .251 0 .555-.012.8m-.677-.443l.052.091v.079l.015.021v.169c0 .021-.006.058-.006.079v.264m-.681-.352c.015.019.074.061.074.1v.06l.016.018v.435l-.009.012v.121m-.679-.518v.235a.5.5 0 00.021.113c0 .011.043.048.043.084s.018.085.018.141a.4.4 0 01-.006.076c0 .047.018.125-.033 0m3.518-2.933a.725.725 0 00.07.075l.016.023v.018l.024.024v.018l.012.015v.015l.018.037v.039l.015.022v.037c0 .039.022.076.022.112 0 .02.012.041.012.058v.182c0 .056.017.062-.037.018" fill="none" stroke="#0b070c" stroke-miterlimit="2.613" stroke-width=".044"/><path data-name="Trazado 281" d="M33.48 20.371a18.2 18.2 0 00-.216-.884c-.057-.164-.648-.857-.937-.857-.149 0-.395-.039-.574-.039a1.95 1.95 0 00-1.544.8c-.077.066-.283.211-.292.324a3.538 3.538 0 00-.293.666c1.21-.9 3.567-1.051 3.857 0" fill="#0b070c" fill-rule="evenodd"/><path data-name="Trazado 282" d="M33.48 20.371a18.2 18.2 0 00-.216-.884c-.057-.164-.648-.857-.937-.857-.149 0-.395-.039-.574-.039a1.95 1.95 0 00-1.544.8c-.077.066-.283.211-.292.324a3.538 3.538 0 00-.293.666c1.209-.904 3.566-1.054 3.856-.01z" fill="none" stroke="#0b070c" stroke-miterlimit="2.613" stroke-width=".044"/><path data-name="Trazado 283" d="M33.48 20.232a15.7 15.7 0 00-.216-.81c-.057-.16-.648-.8-.937-.8-.149 0-.395-.033-.574-.033a2.009 2.009 0 00-1.544.734c-.077.067-.264.2-.292.294a4.5 4.5 0 00-.179.578c1.215-.841 3.453-.923 3.743.036" fill="#daef41" fill-rule="evenodd"/><path data-name="Trazado 284" d="M33.48 20.232a15.7 15.7 0 00-.216-.81c-.057-.16-.648-.8-.937-.8-.149 0-.395-.033-.574-.033a2.009 2.009 0 00-1.544.734c-.077.067-.264.2-.292.294a4.5 4.5 0 00-.179.578c1.214-.84 3.452-.922 3.742.037z" fill="none" stroke="#0b070c" stroke-miterlimit="2.613" stroke-width=".044"/><path data-name="Trazado 285" d="M31.174 11.947c-.706 2.038-.7 5.6-1.3 7.663a2.989 2.989 0 012.974-.537 1.361 1.361 0 01.412.339c-1.157-4.045-1.47-6.053-2.091-7.465" fill="#fc0918" fill-rule="evenodd"/><path data-name="Trazado 286" d="M31.174 11.947c-.706 2.038-.7 5.6-1.3 7.663a2.989 2.989 0 012.974-.537 1.361 1.361 0 01.412.339c-1.152-4.045-1.465-6.054-2.086-7.465z" fill="none" stroke="#0b070c" stroke-miterlimit="2.613" stroke-width=".044"/><path data-name="Trazado 287" d="M30.506 15.239c-.049.4-.094 1.021-.124 1.466-.01.076 1.656-.359 2.309.635-.243-.836-.292-1.313-.454-1.759a.375.375 0 00-.058-.139c-.36-.332-1.648-.377-1.672-.2" fill="#fff" fill-rule="evenodd"/><path data-name="Trazado 288" d="M30.506 15.239c-.049.4-.094 1.021-.124 1.466-.01.076 1.656-.359 2.309.635-.243-.836-.292-1.313-.454-1.759a.375.375 0 00-.058-.139c-.361-.329-1.649-.376-1.673-.203z" fill="none" stroke="#0b070c" stroke-miterlimit="2.613" stroke-width=".044"/><path data-name="Trazado 289" d="M31.21 11.28l.867-.417v.963l-.946.288z" fill="#0b070c" fill-rule="evenodd"/><path data-name="Trazado 290" d="M31.21 11.28l.867-.417v.963l-.946.288z" fill="none" stroke="#0b070c" stroke-miterlimit="2.613" stroke-width=".044"/><path data-name="Trazado 291" d="M31.168 12.083l.093-.8.778-.407-.018.864c0 .093-.847.24-.853.347" fill="#daef41" fill-rule="evenodd"/><path data-name="Trazado 292" d="M31.168 12.083l.093-.8.778-.407-.018.864c0 .089-.847.236-.853.343z" fill="none" stroke="#0b070c" stroke-miterlimit="2.613" stroke-width=".044"/><path data-name="Trazado 293" d="M31.168 12.083l.858-1.166-.015.859c0 .092-.779.231-.843.307" fill="#daef41" fill-rule="evenodd"/><path data-name="Trazado 294" d="M31.168 12.083l.858-1.166-.015.859c.003.092-.779.231-.843.307z" fill="none" stroke="#0b070c" stroke-miterlimit="2.613" stroke-width=".044"/><path data-name="Trazado 295" d="M31.155 11.762a.25.25 0 00-.26.25.259.259 0 00.518 0 .25.25 0 00-.258-.25" fill="#0b070c" fill-rule="evenodd"/><path data-name="Trazado 296" d="M31.155 11.762a.25.25 0 00-.26.25.259.259 0 00.518 0 .25.25 0 00-.258-.25z" fill="none" stroke="#0b070c" stroke-miterlimit="2.613" stroke-width=".044"/><path data-name="Trazado 297" d="M31.155 11.835a.178.178 0 00-.186.179.184.184 0 10.186-.179" fill="#daef41" fill-rule="evenodd"/><path data-name="Trazado 298" d="M31.155 11.835a.179.179 0 100 .357.179.179 0 100-.357zm-1.193 7.773c.03.04.03.04.03.072v.14c0 .015-.015.037-.015.059v.088c0 .031.009.038.031.063m.173-.524a1.966 1.966 0 01-.018.314v.123h0m.2-.542v.461m.247-.569v.527m.2-.588c.018.142-.006.363.018.479m.217-.54c.01.1 0 .22 0 .334v.149c0 .011.01.076.01-.007m.164-.52v.285c0 .068.025.12.025.195m.174-.499v.142c0 .049.014.11.014.169v.168m.147-.5v.483s.015 0 .015-.005m.142-.516v.502c0 .015.007.039.007.008m.174-.528v.475c0 .014.022.036.022.046m.153-.45c.009-.088.009 0 .009.01v.263c0 .018.024.087.024.1s.009.027.009.041.012 0 .012.022v.009m.48-.343v.077a.788.788 0 01.052.187c0 .024.006.08.006.118 0 .013 0 .135.022.046m-.434-.518c.01-.088.021.01.021.018 0 .136.006.295.006.429m.174-.41a.431.431 0 01.046.244v.113c0 .027.038.076.042.089m.16-.363c0 .079.071.152.071.231 0 .024.02.057.02.094s.009.061.009.109m.092-.317c-.012-.085.009-.011.009 0s.015.025.028.043.024.1.024.106c0 .054.022.084.022.131a.233.233 0 00.006.068.355.355 0 01.009.035c.01.015.01.047.022.015m.091-.323a.282.282 0 01.052.21c0 .079.028.149.022.215m.346 2.662a5.611 5.611 0 01.141 2.066c0 .694.037 1.4.037 2.069m-3.792-1.98a3.89 3.89 0 01-.13 1.068 1.532 1.532 0 000 .4l-.033.11a2.7 2.7 0 00.048.382l-.023.073c.018.15-.067.385.108.436m.8-2.981c-.046.377-.1.794-.146 1.179-.039.348.022.713-.006 1.054-.021.14-.13.7.135.61m1.3-3.627a11.3 11.3 0 01.035 1.616c0 .206.14.525.14.735v.455m-.68-2.771a3.7 3.7 0 00-.114 2.176 2.409 2.409 0 01.077.555v.6m1.2-3.487c.544.633.367 2.63.367 3.534m.471 2.3a8.612 8.612 0 01-.149 2 3.007 3.007 0 00-.285.914 1.957 1.957 0 01-.143.338c-.037.05-.073.086-.111.086s-.14.093-.14-.036m.067-3.016c-.2.756-.318 1.624-.446 2.393a2.416 2.416 0 01-.361.819c-.046.076-.337.463-.406.461m-.207-3.646a8.15 8.15 0 01-.357 1.736c-.07.181-.12.514-.189.695a2.844 2.844 0 00-.215.6 2.99 2.99 0 01-.132.554c0 .045-.2.261-.214.355-.012.045-.11.179-.085.031m.411-3.141c-.065.217-.172.535-.237.75-.085.26-.361.53-.445.8-.1.319-.363.521-.442.795-.069.212-.244.63-.334.894m3.008-3.605a17.214 17.214 0 00-.444 1.819 1.755 1.755 0 01-.354.616c-.055.06-.34.361-.412.358" fill="none" stroke="#0b070c" stroke-miterlimit="2.613" stroke-width=".044"/><path data-name="Trazado 299" d="M20.847 35.831c.2-.248.5-.611-.1-.726-.409.155-.077.507.1.726m.75-2.518a21.24 21.24 0 00.978 2.132c.046.106.106.224.046.315-.4.538.339.823.278.932s.118.121.15.223c.073.262-.235.218-.48.211-.265-.009.416.971.321.948-.812-.209-1.958-.052-1.977-.789 0-.324.437-.5.382-.757-.006-.04-.218.033-.388-.016a.239.239 0 01-.113-.055.055.055 0 01-.035.016c-.176.045-.382-.034-.4.015-.049.257.386.428.386.752-.022.746-1.165.581-1.982.783-.085.03.6-.947.327-.941-.245.005-.55.058-.473-.2.028-.1.2-.12.144-.229s.676-.4.282-.932c-.067-.094 0-.213.043-.315a21.21 21.21 0 00.978-2.134c.17.026.342-.255.372-.289.212-.257.148-.239.144-.03a2.07 2.07 0 00.26.847 2.023 2.023 0 00.249-.8c-.012-.219-.076-.231.136.023.027.035.2.316.374.29" fill="#0b070c" fill-rule="evenodd"/><path data-name="Trazado 300" d="M20.847 35.831c.2-.248.5-.611-.1-.726-.408.155-.076.506.1.726zm.75-2.518a21.24 21.24 0 00.978 2.132c.046.106.106.224.046.315-.4.538.339.823.278.932s.118.121.15.223c.073.262-.235.218-.48.211-.265-.009.416.971.321.948-.812-.209-1.958-.052-1.977-.789 0-.324.437-.5.382-.757-.006-.04-.218.033-.388-.016a.239.239 0 01-.113-.055.055.055 0 01-.035.016c-.176.045-.382-.034-.4.015-.049.257.386.428.386.752-.022.746-1.165.581-1.982.783-.085.03.6-.947.327-.941-.245.005-.55.058-.473-.2.028-.1.2-.12.144-.229s.676-.4.282-.932c-.067-.094 0-.213.043-.315a21.21 21.21 0 00.978-2.134c.17.026.342-.255.372-.289.212-.257.148-.239.144-.03a2.07 2.07 0 00.26.847 2.023 2.023 0 00.249-.8c-.012-.219-.076-.231.136.023.025.035.202.316.371.29z" fill="none" stroke="#0b070c" stroke-miterlimit="2.613" stroke-width=".044"/><path data-name="Trazado 301" d="M20.113 33.428a20.69 20.69 0 01-.928 2.067c-.034.1-.1.212-.034.3.376.519-.319.8-.27.9s-.106.122-.13.223c-.07.254.217.206.449.206s-.392.932-.3.9c.758-.189 1.835-.038 1.859-.759 0-.312-.412-.474-.36-.72.009-.048.2.033.369-.02a.248.248 0 00.18-.261.921.921 0 00-.015-.207c-.037-.2-.83-.8.079-.916.077 0 .334.119.334.052-.036-.575-.768-1.489-.75-2.067 0-.211.058-.218-.134.021-.028.027-.186.311-.346.282" fill="#fc0918" fill-rule="evenodd"/><path data-name="Trazado 302" d="M20.114 33.427a20.709 20.709 0 01-.928 2.067c-.035.1-.1.212-.035.3.376.519-.318.8-.269.895s-.106.125-.132.225c-.07.254.217.2.449.2s-.392.934-.3.9c.759-.188 1.835-.038 1.859-.76 0-.312-.412-.474-.36-.719.009-.049.2.033.369-.021a.248.248 0 00.181-.261.9.9 0 00-.015-.207c-.036-.2-.83-.8.08-.915.076 0 .334.119.334.053-.037-.577-.768-1.49-.751-2.068 0-.211.059-.218-.133.021-.031.035-.19.319-.349.29zm-1.218 4.6c.935-.1 1.685-.22 1.813-.489.348-.72-1.965-.283-1.978-.455-.033-1.032 2.153-.248 2.216-.682.12-.833-1.809-.328-1.8-.6.058-1.059 2.314-.619 2.072-.574" fill="none" stroke="#0b070c" stroke-miterlimit="2.613" stroke-width=".044"/><path data-name="Trazado 303" d="M21.551 33.468a20.888 20.888 0 00.923 2.066c.039.1.1.217.039.3-.376.528.318.8.269.9-.064.115.1.127.131.231.068.253-.217.2-.448.2-.248 0 .387.938.3.917-.759-.2-1.837-.048-1.858-.762 0-.316.407-.488.36-.729-.006-.039-.2.028-.364-.015a.254.254 0 01-.189-.267.853.853 0 01.018-.2c.036-.2.837-.8-.087-.913-.067-.009-.33.108-.33.048.039-.578.77-1.5.754-2.069-.005-.211-.063-.218.13.029.019.03.191.3.347.275" fill="#fc0918" fill-rule="evenodd"/><path data-name="Trazado 304" d="M21.551 33.468a21.03 21.03 0 00.923 2.066c.039.1.1.217.039.3-.376.528.319.8.269.9s.1.126.133.23c.067.254-.218.2-.449.2-.248 0 .387.939.3.917-.758-.2-1.837-.049-1.858-.763 0-.316.406-.487.36-.729-.006-.039-.2.029-.364-.016a.253.253 0 01-.189-.265.886.886 0 01.018-.2c.036-.2.838-.8-.087-.913-.067-.009-.329.108-.329.049.039-.579.77-1.5.754-2.07-.006-.212-.063-.219.131.03.021.018.193.289.349.264zm1.212 4.607c-.935-.11-1.688-.226-1.813-.5-.342-.717 1.973-.29 1.979-.455.04-1.025-2.149-.254-2.211-.685-.119-.834 1.808-.331 1.8-.6-.061-1.059-2.311-.612-2.082-.573" fill="none" stroke="#0b070c" stroke-miterlimit="2.613" stroke-width=".044"/><path data-name="Trazado 305" d="M20.836 34.808a2.172 2.172 0 00-1.468-.841c-1.552-.224-3.068.03-4.523-.6-.939-.4-3.218-1.816-2.968-4.4.29-3.053 1.559-3.961 1.7-7.3a5.37 5.37 0 00-1.49-3.341c.892-.964 1.956-2.282 2.851-3.244 1.8 1.433 4.176.986 5.894.012 1.733.986 4.1 1.421 5.9-.008.9.959 1.956 2.276 2.855 3.249a5.367 5.367 0 00-1.483 3.323c.138 3.343 1.407 4.256 1.7 7.3.25 2.594-2.036 4.009-2.971 4.409-1.456.625-2.976.38-4.525.6a2.3 2.3 0 00-1.476.841" fill="#0b070c" fill-rule="evenodd"/><path data-name="Trazado 306" d="M20.836 34.808a2.172 2.172 0 00-1.468-.841c-1.552-.224-3.068.03-4.523-.6-.939-.4-3.218-1.816-2.968-4.4.29-3.053 1.559-3.961 1.7-7.3a5.37 5.37 0 00-1.49-3.341c.892-.964 1.956-2.282 2.851-3.244 1.8 1.433 4.176.986 5.894.012 1.733.986 4.1 1.421 5.9-.008.9.959 1.956 2.276 2.855 3.249a5.367 5.367 0 00-1.483 3.323c.138 3.343 1.407 4.256 1.7 7.3.25 2.594-2.036 4.009-2.971 4.409-1.456.625-2.976.38-4.525.6a2.3 2.3 0 00-1.472.841z" fill="none" stroke="#0b070c" stroke-miterlimit="2.613" stroke-width=".044"/><path data-name="Trazado 307" d="M21.208 24.602v-8.489a5.673 5.673 0 005.249 0c.838.9 1.363 1.4 2.2 2.311a5.336 5.336 0 00-1.189 3.511 9.378 9.378 0 00.511 2.667z" fill="#fff" fill-rule="evenodd"/><path data-name="Trazado 308" d="M13.836 24.602a7.7 7.7 0 00.465-2.714 5.456 5.456 0 00-1.256-3.614c.828-.909 1.238-1.4 2.072-2.3 1.553 1.231 3.787.826 5.38.03v8.598z" fill="#63c0d3" fill-rule="evenodd"/><path data-name="Trazado 309" d="M28.291 25.056H13.514a11.842 11.842 0 00-1.106 3.666c-.232 2.448 1.913 3.764 2.8 4.143 1.366.589 2.8.356 4.249.566a2.072 2.072 0 011.382.785 2.144 2.144 0 011.385-.784c1.464-.206 2.892.031 4.252-.56.894-.379 3.027-1.7 2.8-4.145a13.835 13.835 0 00-.984-3.666m-7.235-.326h7.129a7.6 7.6 0 01-.507-2.876 5.141 5.141 0 011.222-3.455c-.841-.909-1.553-1.651-2.4-2.564a5.339 5.339 0 01-5.447-.027zm-7.42 0h7.007v-8.95c-1.613.855-3.936 1.287-5.556-.007-.85.911-1.474 1.6-2.324 2.514a5.354 5.354 0 011.361 3.557 8.057 8.057 0 01-.492 2.881m7.2 9.909a2.19 2.19 0 00-1.449-.786c-1.534-.214-3.035.039-4.47-.581-.925-.4-3.184-1.8-2.931-4.361.282-3.005 1.545-3.91 1.672-7.217a5.482 5.482 0 00-1.384-3.387c.888-.959 1.815-2.094 2.707-3.054 1.776 1.417 4.155.921 5.854-.046 1.715.969 4.112 1.493 5.891.073.889.951 1.835 2.077 2.72 3.031a5.461 5.461 0 00-1.424 3.384c.132 3.3 1.391 4.212 1.677 7.224.243 2.555-2 3.946-2.94 4.356-1.431.615-2.933.368-4.46.582a2.239 2.239 0 00-1.465.779" fill="#daef41" fill-rule="evenodd"/><path data-name="Trazado 310" d="M20.837 34.063a2.048 2.048 0 00-1.364-.743c-1.438-.2-2.852.03-4.2-.552-.871-.373-2.941-1.694-2.709-4.093a11.091 11.091 0 011.057-3.526c4.877 0 9.675.019 14.564.019a13.348 13.348 0 01.926 3.507 4.224 4.224 0 01-2.7 4.1c-1.348.578-2.758.349-4.191.555a2.062 2.062 0 00-1.378.734" fill="#fc0918" fill-rule="evenodd"/><path data-name="Trazado 311" d="M21.962 26.223c.364.125.75.276.776.593a.813.813 0 01.7.657c.288.136.444.189.471.4a.51.51 0 01.417.323.663.663 0 01.6.329.439.439 0 01.458.092.583.583 0 01.529 0c.071-.013.151-.022.224-.031a.532.532 0 01.431-.227.221.221 0 01.122-.265c-.08-.138-.137-.275.012-.421a.254.254 0 01.006-.345.262.262 0 01-.09-.279.34.34 0 01-.232-.236c-.209-.039-.316-.11-.359-.192a.25.25 0 01-.216.03c-.075.1-.166.091-.264.1a.526.526 0 01-.273.264.9.9 0 00.031.192c.18-.075.367.2.248.386s-.422.252-.489.008a.463.463 0 01-.322-.256c-.064-.164-.112-.222-.005-.344a.367.367 0 01.16-.5c.1-.2.222-.3.394-.282.106-.134.144-.267.443-.237a.549.549 0 01.611 0 .449.449 0 01.473.2c.144.069.321.116.355.34.174.1.388.167.321.456a.733.733 0 01.268.592.748.748 0 01.03.528 1.789 1.789 0 01-.274 1.229.778.778 0 01-.557.611c-.228.419-.5.519-.795.44a.741.741 0 01-.733.23c-.322.155-.641.3-.83.135a.991.991 0 01-1.041-.041.808.808 0 01-.955-.319.679.679 0 01-.734-.253c-.453.188-.83.22-1.085-.039a.332.332 0 01-.244.07.779.779 0 01.073.846.75.75 0 01.673.184.656.656 0 011.011.2c.69-.262.952-.054 1.1.463a.448.448 0 01.463-.087c.277-.466.709-.322.917.063s-.243.87-.753.789a.613.613 0 01-.651.113 1.028 1.028 0 01-.857-.097.72.72 0 01-.825.175c-.416.719-.819.467-1.232.228-.307.161-.561-.011-.816-.167a.546.546 0 01-.525.279.505.505 0 01-.419-.169.8.8 0 01-1.006-.079.575.575 0 01-.718-.38.518.518 0 01-.346.024.633.633 0 01-1.121-.456c-.253.007-.508-.005-.677-.483-.045-.125.012-.215.058-.343-.291-.186-.4-.335-.247-.775-.306-.145-.439-.44-.186-.9a.94.94 0 01.194-1.3 1.871 1.871 0 01.877-.54c-.007-.348.168-.626.758-.723a.87.87 0 01.921-.781.98.98 0 011.1-.391c.155-.261.488-.365 1.243-.116a1 1 0 011.239.133c.185-.219.932.028 1.179.349" fill="#0b070c" fill-rule="evenodd"/><path data-name="Trazado 312" d="M14.591 29.503c.061 0 .114-.017.173-.017-.152-.342.074-.64.526-.656a2.458 2.458 0 011.523.7 4.65 4.65 0 001.5.8 15.011 15.011 0 011.742.373c.258.127.217.291.153.607a.533.533 0 00.356-.452c-.034-.467-.356-.848-1.134-1.113a2.729 2.729 0 01-1.973-.65 2.494 2.494 0 00-1.283-1.061 1.374 1.374 0 00-1.123.109c-.527.274-.583.566-.571.85.037.167.073.337.115.5m3.573-.176c-.51-.49-.278-.762-.774-1.493-.425-.626-1.591-1-1.736-.049 1.45.107 1.382.728 2.107 1.292.162.021.424.2.4.249m.838.209c-.569-.491-.569-1.71-1-2.443-.385-.651-1.2-.956-1.587-.025 1.633.36 1.123 1.594 2.049 2.3a2.136 2.136 0 00.538.169m.372-.012c-.361-.6-.174-1.876-.428-2.695-.158-.554-1.081-1.247-1.69-.441 1.571.367.871 1.924 1.913 3.131.156.051.242-.043.2.006m.434.116c-.336-.695.068-1.957.113-2.793.031-.557-.721-1.53-1.52-.9 1.438.722.507 2.146 1.2 3.638.146.1.25.018.21.055m.319.149c-.223-.7.591-1.894.767-2.808a.893.893 0 00-1.171-1.078c.923.944-.233 2.8.181 3.766.11.094.276.082.223.119m.266.086c.1-.658 1.14-1.9 1.409-2.8.178-.581.037-1.119-.871-1.016.677 1.129-.881 2.7-.71 3.73-.048.091.234.024.173.091m.153.016c.559.734 3.126-3.044 1.507-3.487a3 3 0 01-.561 1.84c-.407.686-.949 1.123-.947 1.647m.482.126c1.085.63 3.173-2.589 1.7-3.036.221.905-1.245 2.98-1.7 3.036m.951.006c.8.623 1.615-.235 1.751-1.27a1.142 1.142 0 00-.258-1.06 3.589 3.589 0 01-1.492 2.33m.927.335c.77.625 1.372-.31 1.427-1.159.025-.568-.082-1.059-.427-1.106.124.88-.4 2.1-1 2.265m.839.244c.813.507 1.235-.5 1.23-1.206 0-.555-.453-.959-.569-.9.285.756-.183 2.05-.661 2.107m1.022-.049c.771.291 1.164-.861.756-1.477-.22-.324-.394-.34-.517-.288a1.752 1.752 0 01-.239 1.765m.847-.068c.617.1.782-.822.483-1.287-.214-.337-.4-.355-.516-.3a1.54 1.54 0 01.033 1.583m.687-.276c.613.093.625-.665.328-1.145-.218-.334-.4-.349-.524-.288a1.849 1.849 0 01.2 1.433m.679-.395a.677.677 0 00.058-1.15c-.336-.254-.534-.228-.7-.025a1.129 1.129 0 01.638 1.187m.477-.609a.538.538 0 000-.849.5.5 0 00-.732 0c.328-.025.868.564.73.849m.254-.783a.364.364 0 00-.321-.5c-.343-.05-.425.046-.449.183a.766.766 0 01.77.321m-2.036-2.342c-.1.027-.361.088-.276.371a.229.229 0 00.392.107.434.434 0 01-.116-.478m.525-.061c-.1-.023-.354-.085-.419.211a.227.227 0 00.289.292.46.46 0 01.13-.5m.516.164a.343.343 0 00-.528.078.247.247 0 00.2.406.57.57 0 01.326-.484m.377.3a.3.3 0 00-.492.021.23.23 0 00.079.373c-.015-.151.18-.367.413-.395m.3.49a.28.28 0 00-.452-.236c-.294.162-.2.421-.1.421.009-.155.308-.258.556-.185m.214.458c-.013-.165-.144-.368-.48-.245s-.358.386-.264.4c.021-.159.493-.226.744-.151m.089.434a.422.422 0 00-.569-.337c-.321.118-.334.252-.283.391a.719.719 0 01.853-.055m-2.548-.7a.392.392 0 01-.351-.046c-.031.136.108.352.282.3s.149-.171.069-.254m.047-.268c-.139.029-.239-.092-.29-.236-.049.126-.139.272 0 .358.119.063.243.085.29-.122m.038-.579a.239.239 0 00-.177.317c.072.187.24.185.371.077a.455.455 0 01-.194-.395m.084.987c-.015.067-.1.181-.18.19a.181.181 0 00.318.084c.113-.177.03-.3-.137-.273" fill="#eeb930" fill-rule="evenodd"/><path data-name="Trazado 313" d="M20.907 32.023a.469.469 0 01-.452.314c-.26.018-.489-.123-.5-.314v-.006a.43.43 0 00.26-.334h.006a.642.642 0 00.665.34zm-.352.853c-.009.013-.021.023-.027.023a.532.532 0 01-.655-.01.337.337 0 01.043-.51.638.638 0 00.623.061.4.4 0 00-.036.315.313.313 0 00.052.122m-1.839-.408a.463.463 0 01-.361.5.388.388 0 01-.492-.292.378.378 0 01.016-.167.519.519 0 00.323-.193.647.647 0 00.407.078.219.219 0 00.082-.018.33.33 0 01.025.09m.922.286a.555.555 0 01-.63.2.3.3 0 01-.122-.406.665.665 0 00.507.129.487.487 0 00.341-.2.391.391 0 01-.093.286m-.752-.936a.436.436 0 01-.028.35c-.121.181-.378.181-.586 0a.6.6 0 01-.208-.462.3.3 0 00.1-.23.04.04 0 01.022-.019.516.516 0 00.572.4.265.265 0 00.124-.039m.813.478a.552.552 0 01-.63.21.324.324 0 01-.068-.52.684.684 0 01.163-.14.65.65 0 00.588.214h.045a.4.4 0 01-.1.237m4.965-.31a.345.345 0 01-.294.44.264.264 0 01-.174-.013.487.487 0 000-.231.56.56 0 00-.283-.325.34.34 0 01.259-.174.442.442 0 01.493.3m-.612.2a.355.355 0 01-.291.446.486.486 0 01-.28-.052.429.429 0 00.119-.434.47.47 0 00-.143-.237c.032-.009.064-.022.1-.031a.441.441 0 01.492.309m-.611-.006a.355.355 0 01-.3.452.45.45 0 01-.51-.325c-.006-.018-.006-.029-.011-.046a.75.75 0 00.268.016.488.488 0 00.409-.317.4.4 0 01.144.219m-.938.094a.324.324 0 01-.284.4.381.381 0 01-.358-.126.411.411 0 00.114-.423.81.81 0 00-.044-.1.247.247 0 01.108-.037.451.451 0 01.2.019.57.57 0 00.222.18.848.848 0 01.038.088m-.979.429a.371.371 0 01-.354.394.526.526 0 01-.571-.313.352.352 0 01.3-.429.672.672 0 00.63.347m.313-.543a.356.356 0 01-.3.444.452.452 0 01-.509-.323.356.356 0 01.218-.424.572.572 0 00.59.3m-.675-.339a.4.4 0 01-.258.154.488.488 0 01-.547-.34.383.383 0 01.323-.486.507.507 0 01.474.194.378.378 0 00-.068.326.6.6 0 00.076.151m-3.153-.531a.335.335 0 01-.322.412.519.519 0 01-.548-.3.213.213 0 01.006-.17.929.929 0 00.089.069.587.587 0 00.694 0 .4.4 0 00.051-.079.249.249 0 01.031.064m.086.925a.39.39 0 01-.233.2.436.436 0 01-.512-.242.3.3 0 01.014-.282.552.552 0 00.269.012.381.381 0 00.211-.162.325.325 0 000 .25.445.445 0 00.248.228m-.324.252a.232.232 0 01-.043.177.346.346 0 01-.476 0 .331.331 0 01-.134-.45.243.243 0 01.161-.087.289.289 0 00-.015.171.345.345 0 00.382.24.288.288 0 00.125-.051m5.392-.777a.347.347 0 01-.294.432.432.432 0 01-.487-.3.339.339 0 01.294-.431.437.437 0 01.486.3m-1.063-.15a.344.344 0 01-.3.435.443.443 0 01-.491-.313.347.347 0 01.294-.431.441.441 0 01.493.309m-5.931-.635a.318.318 0 01-.03.3.418.418 0 01-.565 0 .379.379 0 01-.146-.522.31.31 0 01.277-.111.555.555 0 00.459.334zm-.636-1.348a.417.417 0 01.376.343.3.3 0 00-.182.271.207.207 0 00.016.1.417.417 0 01-.211.061.464.464 0 01-.416-.431.386.386 0 01.416-.343m-.609.039a.408.408 0 01.214.059.335.335 0 00-.162.276.492.492 0 00.224.379.422.422 0 01-.276.1.491.491 0 01-.425-.467.4.4 0 01.433-.353m1.26 1.709a.437.437 0 01.16.236.4.4 0 01-.275.5.538.538 0 01-.577-.339.33.33 0 01.029-.256s.006.009.013.009a.53.53 0 00.651-.15m.572-.709a.41.41 0 01.212.07.407.407 0 00.139.539.426.426 0 01-.35.2.487.487 0 01-.442-.446h.024a.4.4 0 00.4-.364zm-.237 1.844a.47.47 0 01-.377.192.559.559 0 01-.5-.51.117.117 0 01.017-.063.485.485 0 00.343.169.522.522 0 00.228-.06.579.579 0 00.285.271m-.073-.582s0 .013.018.016a.379.379 0 01-.167.243.4.4 0 00.149-.258m-1.019-1.35a.36.36 0 00-.186.318.549.549 0 00.168.373.442.442 0 01-.121.019.576.576 0 01-.507-.531.342.342 0 01.044-.174.31.31 0 00.112.014.468.468 0 00.306-.107.488.488 0 00.184.088m.118.891a.336.336 0 00-.179.3.415.415 0 00.088.231h-.036a.517.517 0 01-.455-.445.3.3 0 01.107-.241.374.374 0 00.236.071.825.825 0 00.111 0 .34.34 0 00.128.085m1.159.162a.42.42 0 01.41.407.391.391 0 01-.41.363.493.493 0 01-.4-.258.353.353 0 00.216-.322.35.35 0 00-.029-.155.626.626 0 01.211-.035m-.408-1.648a.494.494 0 01.457.495.451.451 0 01-.457.441.578.578 0 01-.515-.525.479.479 0 01.515-.41m3.551 1.366a.412.412 0 01.165.559.47.47 0 01-.611 0 .411.411 0 01-.153-.559.437.437 0 01.6 0m-1.023-.257a.427.427 0 01.137.556.372.372 0 01-.537 0 .448.448 0 01-.141-.561.373.373 0 01.541 0m-1.086-.553a.475.475 0 01.178.646.515.515 0 01-.69 0 .475.475 0 01-.188-.646.522.522 0 01.7 0" fill="#eeb930" fill-rule="evenodd"/><path data-name="Trazado 314" d="M20.907 32.023a.469.469 0 01-.452.314c-.26.018-.489-.123-.5-.314v-.006a.43.43 0 00.26-.334h.006a.642.642 0 00.665.34zm-.352.853c-.009.013-.021.023-.027.023a.532.532 0 01-.655-.01.337.337 0 01.043-.51.638.638 0 00.623.061.4.4 0 00-.036.315.313.313 0 00.052.121zm-1.839-.408a.463.463 0 01-.361.5.388.388 0 01-.492-.292.378.378 0 01.016-.167.519.519 0 00.323-.193.647.647 0 00.407.078.219.219 0 00.082-.018.33.33 0 01.025.092zm.922.286a.555.555 0 01-.63.2.3.3 0 01-.122-.407.665.665 0 00.507.129.487.487 0 00.341-.2.391.391 0 01-.096.278zm-.752-.936a.436.436 0 01-.028.35c-.121.181-.378.181-.586 0a.6.6 0 01-.208-.462.3.3 0 00.1-.23.04.04 0 01.022-.019.516.516 0 00.572.4.265.265 0 00.128-.039zm.813.478a.552.552 0 01-.63.21.324.324 0 01-.068-.52.684.684 0 01.163-.14.65.65 0 00.588.214h.045a.4.4 0 01-.098.236zm4.965-.31a.345.345 0 01-.294.44.264.264 0 01-.174-.013.487.487 0 000-.231.56.56 0 00-.283-.325.34.34 0 01.259-.174.442.442 0 01.492.303zm-.612.2a.355.355 0 01-.291.446.486.486 0 01-.28-.052.429.429 0 00.119-.434.47.47 0 00-.143-.237c.032-.009.064-.022.1-.031a.441.441 0 01.495.308zm-.611-.006a.355.355 0 01-.3.452.45.45 0 01-.51-.325c-.006-.018-.006-.029-.011-.046a.75.75 0 00.268.016.488.488 0 00.409-.317.4.4 0 01.144.219zm-.938.094a.324.324 0 01-.284.4.381.381 0 01-.358-.126.411.411 0 00.114-.423.81.81 0 00-.044-.1.247.247 0 01.108-.037.451.451 0 01.2.019.57.57 0 00.222.18.848.848 0 01.042.086zm-.979.429a.371.371 0 01-.354.394.526.526 0 01-.571-.313.352.352 0 01.3-.429.672.672 0 00.625.348zm.313-.543a.356.356 0 01-.3.444.452.452 0 01-.509-.323.356.356 0 01.218-.424.572.572 0 00.591.303zm-.675-.339a.4.4 0 01-.258.154.488.488 0 01-.547-.34.383.383 0 01.323-.486.507.507 0 01.474.194.378.378 0 00-.068.326.6.6 0 00.076.152zm-3.153-.531a.335.335 0 01-.322.412.519.519 0 01-.548-.3.213.213 0 01.006-.17.929.929 0 00.089.069.587.587 0 00.694 0 .4.4 0 00.051-.079.249.249 0 01.03.068zm.086.925a.39.39 0 01-.233.2.436.436 0 01-.512-.242.3.3 0 01.014-.282.552.552 0 00.269.012.381.381 0 00.211-.162.325.325 0 000 .25.445.445 0 00.251.224zm-.324.252a.232.232 0 01-.043.177.346.346 0 01-.476 0 .331.331 0 01-.134-.45.243.243 0 01.161-.087.289.289 0 00-.015.171.345.345 0 00.382.24.288.288 0 00.125-.051zm5.392-.777a.347.347 0 01-.294.432.432.432 0 01-.487-.3.339.339 0 01.294-.431.437.437 0 01.487.299zm-1.063-.15a.344.344 0 01-.3.435.443.443 0 01-.491-.313.347.347 0 01.294-.431.441.441 0 01.497.309zm-5.931-.635a.318.318 0 01-.03.3.418.418 0 01-.565 0 .379.379 0 01-.146-.522.31.31 0 01.277-.111.555.555 0 00.459.334zm-.636-1.348a.417.417 0 01.376.343.3.3 0 00-.182.271.207.207 0 00.016.1.417.417 0 01-.211.061.464.464 0 01-.416-.431.386.386 0 01.417-.344zm-.609.039a.408.408 0 01.214.059.335.335 0 00-.162.276.492.492 0 00.224.379.422.422 0 01-.276.1.491.491 0 01-.438-.463.4.4 0 01.438-.351zm1.26 1.709a.437.437 0 01.16.236.4.4 0 01-.275.5.538.538 0 01-.577-.339.33.33 0 01.029-.256s.006.009.013.009a.53.53 0 00.652-.151zm.572-.709a.41.41 0 01.212.07.407.407 0 00.139.539.426.426 0 01-.35.2.487.487 0 01-.442-.446h.024a.4.4 0 00.4-.364zm-.237 1.844a.47.47 0 01-.377.192.559.559 0 01-.5-.51.117.117 0 01.017-.063.485.485 0 00.343.169.522.522 0 00.228-.06.579.579 0 00.288.271zm-.073-.582s0 .013.018.016a.379.379 0 01-.167.243.4.4 0 00.148-.26zm-1.019-1.35a.36.36 0 00-.186.318.549.549 0 00.168.373.442.442 0 01-.121.019.576.576 0 01-.507-.531.342.342 0 01.044-.174.31.31 0 00.112.014.468.468 0 00.306-.107.488.488 0 00.184.087zm.118.891a.336.336 0 00-.179.3.415.415 0 00.088.231h-.036a.517.517 0 01-.455-.445.3.3 0 01.107-.241.374.374 0 00.236.071.825.825 0 00.111 0 .34.34 0 00.128.083zm1.159.162a.42.42 0 01.41.407.391.391 0 01-.41.363.493.493 0 01-.4-.258.353.353 0 00.216-.322.35.35 0 00-.029-.155.626.626 0 01.213-.036zm-.418-1.649a.494.494 0 01.457.495.451.451 0 01-.457.441.578.578 0 01-.515-.525.479.479 0 01.515-.411zm3.551 1.366a.412.412 0 01.165.559.47.47 0 01-.611 0 .411.411 0 01-.153-.559.437.437 0 01.599 0zm-1.023-.257a.427.427 0 01.137.556.372.372 0 01-.537 0 .448.448 0 01-.141-.561.373.373 0 01.54.005zm-1.086-.553a.475.475 0 01.178.646.515.515 0 01-.69 0 .475.475 0 01-.188-.646.522.522 0 01.7 0z" fill="none" stroke="#0b070c" stroke-miterlimit="2.613" stroke-width=".044"/><path data-name="Trazado 315" d="M24.383 20.437a5.825 5.825 0 00-.725-1.888c-.223-.222-.456-.423-.675-.659.278.2.555.405.835.606a5.765 5.765 0 01.671 1.586c.1-.084.144-.031.244-.115a7.293 7.293 0 001.477-1.419c-.064.156-.34.607-.41.764-.9.872-1.251.943-1.236 1.264-.027.1-.051.212-.079.314.172-.159.678-.667.854-.829-.162.236-.683.822-.706 1.056-.176.2-.085.395-.044.6a8.379 8.379 0 002.127-1.271c-.723.883-1.4.9-2.1 1.719-.036.334-.074.648-.1.967.029.278.065.547.087.832a.616.616 0 01.382.288 11.69 11.69 0 012.266.369l-5.738.011a7.007 7.007 0 012.028-.285.985.985 0 01.549-.442l.091-1.375a.711.711 0 00-.3-.615 5.927 5.927 0 01-1.409-1.515 11.742 11.742 0 001.776 1.531c.022-.09.047-.173.069-.25v-.643a5.009 5.009 0 01-1.214-1.2c.015-.016-.465-.545-.45-.567a12.162 12.162 0 001.7 1.519 1.142 1.142 0 00-.015-.147c-.043-.062-.089-.122-.138-.188a1.738 1.738 0 01.179-.018" fill="#b4562d" fill-rule="evenodd"/><path data-name="Trazado 316" d="M24.383 20.437a5.825 5.825 0 00-.725-1.888c-.223-.222-.456-.423-.675-.659.278.2.555.405.835.606a5.765 5.765 0 01.671 1.586c.1-.084.144-.031.244-.115a7.293 7.293 0 001.477-1.419c-.064.156-.34.607-.41.764-.9.872-1.251.943-1.236 1.264-.027.1-.051.212-.079.314.172-.159.678-.667.854-.829-.162.236-.683.822-.706 1.056-.176.2-.085.395-.044.6a8.379 8.379 0 002.127-1.271c-.723.883-1.4.9-2.1 1.719-.036.334-.074.648-.1.967.029.278.065.547.087.832a.616.616 0 01.382.288 11.69 11.69 0 012.266.369l-5.738.011a7.007 7.007 0 012.028-.285.985.985 0 01.549-.442l.091-1.375a.711.711 0 00-.3-.615 5.927 5.927 0 01-1.409-1.515 11.742 11.742 0 001.776 1.531c.022-.09.047-.173.069-.25v-.643a5.009 5.009 0 01-1.214-1.2c.015-.016-.465-.545-.45-.567a12.162 12.162 0 001.7 1.519 1.142 1.142 0 00-.015-.147c-.043-.062-.089-.122-.138-.188a1.738 1.738 0 01.183-.018z" fill="none" stroke="#5d4d43" stroke-miterlimit="2.613" stroke-width=".044"/><path data-name="Trazado 317" d="M26.651 20.379c.246-.7.452-.681.877-.9-.287.644-.538.893-.877.9" fill="#358346" fill-rule="evenodd"/><path data-name="Trazado 318" d="M26.651 20.379c.246-.7.452-.681.877-.9-.287.648-.538.897-.877.9z" fill="none" stroke="#339744" stroke-miterlimit="2.613" stroke-width=".044"/><path data-name="Trazado 319" d="M24.734 22.102c.764-.418.947.155 1.318.147-.456.348-1.04-.149-1.318-.147" fill="#358346" fill-rule="evenodd"/><path data-name="Trazado 320" d="M24.734 22.102c.764-.418.947.155 1.318.147-.456.348-1.04-.149-1.318-.147z" fill="none" stroke="#339744" stroke-miterlimit="2.613" stroke-width=".044"/><path data-name="Trazado 321" d="M25.298 18.234c-.411-.956.343-.99.382-1.394.363.593-.346 1.072-.382 1.394" fill="#358346" fill-rule="evenodd"/><path data-name="Trazado 322" d="M25.298 18.234c-.411-.956.343-.99.382-1.394.362.593-.346 1.072-.382 1.394z" fill="none" stroke="#339744" stroke-miterlimit="2.613" stroke-width=".044"/><path data-name="Trazado 323" d="M23.945 21.693c-.351-.483-.19-.583-.051-.921.279.471.273.725.051.921" fill="#358346" fill-rule="evenodd"/><path data-name="Trazado 324" d="M23.945 21.693c-.351-.483-.19-.583-.051-.921.28.471.274.725.051.921z" fill="none" stroke="#339744" stroke-miterlimit="2.613" stroke-width=".044"/><path data-name="Trazado 325" d="M23.019 20.904c-.7-.525-.064-.854-.188-1.157.533.281.1.921.188 1.157" fill="#358346" fill-rule="evenodd"/><path data-name="Trazado 326" d="M23.019 20.904c-.7-.525-.064-.854-.188-1.157.533.281.096.921.188 1.157z" fill="none" stroke="#339744" stroke-miterlimit="2.613" stroke-width=".044"/><path data-name="Trazado 327" d="M23.6 21.383c-.688-.529-.2-.922-.352-1.242.507.276.239.985.352 1.242" fill="#358346" fill-rule="evenodd"/><path data-name="Trazado 328" d="M23.6 21.383c-.688-.529-.2-.922-.352-1.242.507.276.239.985.352 1.242z" fill="none" stroke="#339744" stroke-miterlimit="2.613" stroke-width=".044"/><path data-name="Trazado 329" d="M26.248 18.531c-.065-.981.465-1.119.848-1.494-.005.907-.46 1.4-.848 1.494" fill="#358346" fill-rule="evenodd"/><path data-name="Trazado 330" d="M26.248 18.531c-.065-.981.465-1.119.848-1.494-.005.907-.46 1.399-.848 1.494z" fill="none" stroke="#339744" stroke-miterlimit="2.613" stroke-width=".044"/><path data-name="Trazado 331" d="M25.15 21.731c.755-.444.957.131 1.323.109-.443.361-1.038-.121-1.323-.109" fill="#358346" fill-rule="evenodd"/><path data-name="Trazado 332" d="M25.15 21.731c.755-.444.957.131 1.323.109-.443.361-1.038-.122-1.323-.109z" fill="none" stroke="#339744" stroke-miterlimit="2.613" stroke-width=".044"/><path data-name="Trazado 333" d="M25.724 21.374c.812-.349.938.252 1.308.273-.491.306-1.012-.249-1.308-.273" fill="#358346" fill-rule="evenodd"/><path data-name="Trazado 334" d="M25.724 21.374c.812-.349.938.252 1.308.273-.492.306-1.012-.249-1.308-.273z" fill="none" stroke="#339744" stroke-miterlimit="2.613" stroke-width=".044"/><path data-name="Trazado 335" d="M26.175 21.129c.5-.594.835-.093 1.124-.2-.268.453-.891.128-1.124.2" fill="#358346" fill-rule="evenodd"/><path data-name="Trazado 336" d="M26.175 21.129c.5-.594.835-.093 1.124-.2-.268.453-.891.128-1.124.2z" fill="none" stroke="#339744" stroke-miterlimit="2.613" stroke-width=".044"/><path data-name="Trazado 337" d="M26.562 20.754c.276-.614.629-.149.828-.271-.118.449-.663.174-.828.271" fill="#358346" fill-rule="evenodd"/><path data-name="Trazado 338" d="M26.562 20.754c.276-.614.629-.149.828-.271-.118.449-.663.174-.828.271z" fill="none" stroke="#339744" stroke-miterlimit="2.613" stroke-width=".044"/><path data-name="Trazado 339" d="M24.239 22.102c-.767-.418-.957.155-1.326.147.459.348 1.036-.149 1.326-.147" fill="#358346" fill-rule="evenodd"/><path data-name="Trazado 340" d="M24.239 22.102c-.767-.418-.957.155-1.326.147.459.348 1.036-.149 1.326-.147z" fill="none" stroke="#339744" stroke-miterlimit="2.613" stroke-width=".044"/><path data-name="Trazado 341" d="M23.817 21.731c-.761-.444-.963.131-1.326.109.444.361 1.04-.121 1.326-.109" fill="#358346" fill-rule="evenodd"/><path data-name="Trazado 342" d="M23.817 21.731c-.761-.444-.963.131-1.326.109.444.361 1.04-.122 1.326-.109z" fill="none" stroke="#339744" stroke-miterlimit="2.613" stroke-width=".044"/><path data-name="Trazado 343" d="M23.245 21.374c-.81-.349-.945.252-1.3.273.486.306 1-.249 1.3-.273" fill="#358346" fill-rule="evenodd"/><path data-name="Trazado 344" d="M23.245 21.374c-.81-.349-.945.252-1.3.273.483.306 1.001-.249 1.3-.273z" fill="none" stroke="#339744" stroke-miterlimit="2.613" stroke-width=".044"/><path data-name="Trazado 345" d="M22.8 21.129c-.516-.594-.845-.093-1.138-.2.275.453.9.128 1.138.2" fill="#358346" fill-rule="evenodd"/><path data-name="Trazado 346" d="M22.8 21.129c-.516-.594-.845-.093-1.138-.2.275.453.892.128 1.138.2z" fill="none" stroke="#339744" stroke-miterlimit="2.613" stroke-width=".044"/><path data-name="Trazado 347" d="M22.408 20.754c-.271-.614-.627-.149-.835-.271.122.449.66.174.835.271" fill="#358346" fill-rule="evenodd"/><path data-name="Trazado 348" d="M22.408 20.754c-.271-.614-.627-.149-.835-.271.122.449.66.174.835.271z" fill="none" stroke="#339744" stroke-miterlimit="2.613" stroke-width=".044"/><path data-name="Trazado 349" d="M22.439 20.332c-.245-.713-.447-.683-.868-.9.281.648.539.89.868.9" fill="#358346" fill-rule="evenodd"/><path data-name="Trazado 350" d="M22.439 20.332c-.245-.713-.447-.683-.868-.9.281.65.539.892.868.9z" fill="none" stroke="#339744" stroke-miterlimit="2.613" stroke-width=".044"/><path data-name="Trazado 351" d="M24.963 21.522a1.106 1.106 0 00.255-.975.825.825 0 00-.255.975" fill="#358346" fill-rule="evenodd"/><path data-name="Trazado 352" d="M24.963 21.522a1.106 1.106 0 00.255-.975.825.825 0 00-.255.975z" fill="none" stroke="#339744" stroke-miterlimit="2.613" stroke-width=".044"/><path data-name="Trazado 353" d="M26.099 20.705c.809-.337.295-.84.449-1.369a3.4 3.4 0 00-.449 1.369" fill="#358346" fill-rule="evenodd"/><path data-name="Trazado 354" d="M26.099 20.705c.809-.337.295-.84.449-1.369a3.4 3.4 0 00-.449 1.369z" fill="none" stroke="#339744" stroke-miterlimit="2.613" stroke-width=".044"/><path data-name="Trazado 355" d="M25.423 21.198c.807-.343.395-.982.626-1.26-.48.264-.449 1.038-.626 1.26" fill="#358346" fill-rule="evenodd"/><path data-name="Trazado 356" d="M25.423 21.198c.807-.343.395-.982.626-1.26-.48.264-.448 1.038-.626 1.26z" fill="none" stroke="#339744" stroke-miterlimit="2.613" stroke-width=".044"/><path data-name="Trazado 357" d="M22.967 19.683a1.221 1.221 0 00-1.12-.6c.473.536.795.691 1.12.6" fill="#358346" fill-rule="evenodd"/><path data-name="Trazado 358" d="M22.967 19.683a1.221 1.221 0 00-1.12-.6c.473.528.795.683 1.12.6z" fill="none" stroke="#339744" stroke-miterlimit="2.613" stroke-width=".044"/><path data-name="Trazado 359" d="M22.812 19.402c.051-.866-.181-.92-.545-1.328.026.819.19 1.181.545 1.328" fill="#358346" fill-rule="evenodd"/><path data-name="Trazado 360" d="M22.812 19.402c.051-.866-.181-.92-.545-1.328.026.819.19 1.181.545 1.328z" fill="none" stroke="#339744" stroke-miterlimit="2.613" stroke-width=".044"/><path data-name="Trazado 361" d="M23.205 18.029c.462-.652.232-.733.027-1.107-.367.615-.344.923-.027 1.107" fill="#358346" fill-rule="evenodd"/><path data-name="Trazado 362" d="M23.205 18.029c.462-.652.232-.733.027-1.107-.367.615-.345.922-.027 1.107z" fill="none" stroke="#339744" stroke-miterlimit="2.613" stroke-width=".044"/><path data-name="Trazado 363" d="M23.321 20.045c-.7-.524-.074-.86-.187-1.159.533.285.1.917.187 1.159" fill="#358346" fill-rule="evenodd"/><path data-name="Trazado 364" d="M23.321 20.045c-.7-.524-.074-.86-.187-1.159.533.285.098.917.187 1.159z" fill="none" stroke="#339744" stroke-miterlimit="2.613" stroke-width=".044"/><path data-name="Trazado 365" d="M23.945 20.475c-.351-.484-.19-.581-.051-.915.279.462.273.723.051.915" fill="#358346" fill-rule="evenodd"/><path data-name="Trazado 366" d="M23.945 20.475c-.351-.484-.19-.581-.051-.915.28.462.274.723.051.915z" fill="none" stroke="#339744" stroke-miterlimit="2.613" stroke-width=".044"/><path data-name="Trazado 367" d="M23.6 20.226a1.108 1.108 0 00-.006-1 .8.8 0 00.006 1" fill="#358346" fill-rule="evenodd"/><path data-name="Trazado 368" d="M23.6 20.226a1.108 1.108 0 00-.006-1 .8.8 0 00.006 1z" fill="none" stroke="#339744" stroke-miterlimit="2.613" stroke-width=".044"/><path data-name="Trazado 369" d="M23.776 18.413c-.7-.523-.067-.86-.183-1.162.531.285.1.925.183 1.162" fill="#358346" fill-rule="evenodd"/><path data-name="Trazado 370" d="M23.776 18.413c-.7-.523-.067-.86-.183-1.162.532.281.101.921.183 1.162z" fill="none" stroke="#339744" stroke-miterlimit="2.613" stroke-width=".044"/><path data-name="Trazado 371" d="M25.245 18.073c-.838-.252-.379-.78-.608-1.023.605.086.434.831.608 1.023" fill="#358346" fill-rule="evenodd"/><path data-name="Trazado 372" d="M25.245 18.073c-.838-.252-.379-.78-.608-1.023.605.087.434.832.608 1.023z" fill="none" stroke="#339744" stroke-miterlimit="2.613" stroke-width=".044"/><path data-name="Trazado 373" d="M24.717 20.022a1.373 1.373 0 00.021-1.244 1.036 1.036 0 00-.021 1.244" fill="#358346" fill-rule="evenodd"/><path data-name="Trazado 374" d="M24.717 20.022a1.373 1.373 0 00.021-1.244 1.036 1.036 0 00-.021 1.244z" fill="none" stroke="#339744" stroke-miterlimit="2.613" stroke-width=".044"/><path data-name="Trazado 375" d="M25.892 18.81c.679-.541.049-.886.049-1.432a3.282 3.282 0 00-.049 1.432" fill="#358346" fill-rule="evenodd"/><path data-name="Trazado 376" d="M25.892 18.81c.679-.541.049-.886.049-1.432a3.282 3.282 0 00-.049 1.432z" fill="none" stroke="#339744" stroke-miterlimit="2.613" stroke-width=".044"/><path data-name="Trazado 377" d="M25.167 19.716c.65-.719-.155-1.049-.072-1.4-.349.471.129 1.118.072 1.4" fill="#358346" fill-rule="evenodd"/><path data-name="Trazado 378" d="M25.167 19.716c.65-.719-.155-1.049-.072-1.4-.349.47.129 1.117.072 1.4z" fill="none" stroke="#339744" stroke-miterlimit="2.613" stroke-width=".044"/><path data-name="Trazado 379" d="M27.586 18.464c-.651.593-.885.421-1.5.368.662-.5 1.092-.578 1.5-.368" fill="#358346" fill-rule="evenodd"/><path data-name="Trazado 380" d="M27.586 18.464c-.651.593-.885.421-1.5.368.66-.505 1.088-.578 1.5-.368z" fill="none" stroke="#339744" stroke-miterlimit="2.613" stroke-width=".044"/><path data-name="Trazado 381" d="M25.639 19.391c.722-.5.931-.315 1.537-.184-.72.413-1.155.44-1.537.184" fill="#358346" fill-rule="evenodd"/><path data-name="Trazado 382" d="M25.639 19.391c.722-.5.931-.315 1.537-.184-.72.414-1.155.441-1.537.184z" fill="none" stroke="#339744" stroke-miterlimit="2.613" stroke-width=".044"/><path data-name="Trazado 383" d="M25.698 19.194a1.355 1.355 0 00-.264-1.183 1 1 0 00.264 1.183" fill="#358346" fill-rule="evenodd"/><path data-name="Trazado 384" d="M25.698 19.194a1.355 1.355 0 00-.264-1.183 1 1 0 00.264 1.183z" fill="none" stroke="#339744" stroke-miterlimit="2.613" stroke-width=".044"/><path data-name="Trazado 385" d="M24.273 19.337c-.24-.552-.049-.613.161-.912.165.523.1.771-.161.912" fill="#358346" fill-rule="evenodd"/><path data-name="Trazado 386" d="M24.273 19.337c-.24-.552-.049-.613.161-.912.165.522.096.771-.161.912z" fill="none" stroke="#339744" stroke-miterlimit="2.613" stroke-width=".044"/><path data-name="Trazado 387" d="M23.935 18.75a1.175 1.175 0 00.336-.956.845.845 0 00-.336.956" fill="#358346" fill-rule="evenodd"/><path data-name="Trazado 388" d="M23.935 18.75a1.175 1.175 0 00.336-.956.845.845 0 00-.336.956z" fill="none" stroke="#339744" stroke-miterlimit="2.613" stroke-width=".044"/><path data-name="Trazado 389" d="M23.575 18.477a1.209 1.209 0 00-1.014-.23.907.907 0 001.014.23" fill="#358346" fill-rule="evenodd"/><path data-name="Trazado 390" d="M23.575 18.477a1.209 1.209 0 00-1.014-.23.907.907 0 001.014.23z" fill="none" stroke="#339744" stroke-miterlimit="2.613" stroke-width=".044"/><path data-name="Trazado 391" d="M24.008 19.337a1.2 1.2 0 00-1.006-.23.888.888 0 001.006.23" fill="#358346" fill-rule="evenodd"/><path data-name="Trazado 392" d="M24.008 19.337a1.2 1.2 0 00-1.006-.23.888.888 0 001.006.23z" fill="none" stroke="#339744" stroke-miterlimit="2.613" stroke-width=".044"/><path data-name="Trazado 393" d="M23.945 18.983a1.186 1.186 0 00-1.011-.228.91.91 0 001.011.228" fill="#358346" fill-rule="evenodd"/><path data-name="Trazado 394" d="M23.945 18.983a1.186 1.186 0 00-1.011-.228.91.91 0 001.011.228z" fill="none" stroke="#339744" stroke-miterlimit="2.613" stroke-width=".044"/><path data-name="Trazado 395" d="M24.734 20.202c.752.441.963-.128 1.332-.1-.445-.364-1.036.117-1.332.1" fill="#358346" fill-rule="evenodd"/><path data-name="Trazado 396" d="M24.734 20.202c.752.441.963-.128 1.332-.1-.445-.367-1.036.113-1.332.1z" fill="none" stroke="#339744" stroke-miterlimit="2.613" stroke-width=".044"/><path data-name="Trazado 397" d="M25.313 19.746a1.219 1.219 0 011.272-.1c-.66.294-1.024.312-1.272.1" fill="#358346" fill-rule="evenodd"/><path data-name="Trazado 398" d="M25.313 19.746a1.219 1.219 0 011.272-.1c-.66.297-1.025.314-1.272.1z" fill="none" stroke="#339744" stroke-miterlimit="2.613" stroke-width=".044"/><path data-name="Trazado 399" d="M23.088 18.09c-.638.052-.731-.265-.991-.5.594-.007.921.271.991.5" fill="#358346" fill-rule="evenodd"/><path data-name="Trazado 400" d="M23.088 18.09c-.638.052-.731-.265-.991-.5.594-.008.921.268.991.5z" fill="none" stroke="#339744" stroke-miterlimit="2.613" stroke-width=".044"/><path data-name="Trazado 401" d="M20.497 24.196a1.845 1.845 0 00-.254-.038c-.2 0-.8-.177-.932-.154-.363.124-.944-.255-1.15-.125a5.227 5.227 0 01-1.176.053 3.038 3.038 0 00-1.451.092c-.242.115-.583-.246-.7-.126a1.245 1.245 0 01-.879.312 6.507 6.507 0 01-.136.394h6.682z" fill="#5e4d55" fill-rule="evenodd"/><path data-name="Trazado 402" d="M20.497 24.196a1.845 1.845 0 00-.254-.038c-.2 0-.8-.177-.932-.154-.363.124-.944-.255-1.15-.125a5.227 5.227 0 01-1.176.053 3.038 3.038 0 00-1.451.092c-.242.115-.583-.246-.7-.126a1.245 1.245 0 01-.879.312 6.507 6.507 0 01-.136.394h6.682z" fill="none" stroke="#0b070c" stroke-miterlimit="2.613" stroke-width=".044"/><path data-name="Trazado 403" d="M19.25 21.471c-.336.131-.558 1.039-.694 1.305-.079.146-.246.487-.088.707.069.094.183.132.2.214.229.031.357.137.342.314-.095.153-.437.119-.6.035a.135.135 0 00-.069-.123c-.015-.043-.027-.076-.041-.123-.489-.24-.152-.553-.208-1.221-.034.12-.064.242-.1.366a4.042 4.042 0 00-.046.832.6.6 0 00.262.252c.109.046.109.082.222.237.01.04.064.137.018.167-.048.085-.073.137-.467.035-.007-.055-.01-.1-.016-.154-.051.027-.085 0-.1-.06a.4.4 0 00-.15-.216c0-.106-.142-.109-.183-.255a2.245 2.245 0 01.06-.643 4.742 4.742 0 00.123-.981.887.887 0 01-.171-.688 1.238 1.238 0 01-.923-.223c-.149-.1-.08.655-.614.96a.625.625 0 00-.211.341c-.187.192.115.811.3 1.014.095.1.24.289.327.4.145.087.347.187.338.349a.966.966 0 01-.648 0c-.017-.072-.119-.189-.041-.26a.454.454 0 01-.295-.12 9.872 9.872 0 00-.576-1.141c-.072 0-.1-.2-.1-.268.019-.125.034.018.183-.413-.107.207-.405.39-.39.643.039.2.226.659.26.854.121.1.082.2.351.3.126.1.328.282.328.407a.942.942 0 01-.67.03c-.04-.084-.049-.215-.09-.313-.057-.012-.037-.082-.094-.1-.067-.039-.23-.027-.3-.067-.1-.437-.211-1.16-.318-1.595a.459.459 0 01.128-.386c.2-.121.33-.378.479-.54.224-.164.1-.61-.109-.845-.089.13-.039.168-.073.19-.107.058-.258-.245-.206-.4.033-.188-.012-.334.033-.585.083-.411.316-.489.548-.278a1.383 1.383 0 011.095-.392 2.187 2.187 0 011.465.123 1.738 1.738 0 01.84.45c.107.086.246.014.335-.092a4.646 4.646 0 00-.335-1.947c-.287.168-.5-.015-.8-.2-.073-.042-.07-.079-.015-.118.1 0 .182-.067.279-.067-.152-.11-.118-.161-.03-.184.239.055.458-.113.67.016.138-.211.378-.2.608-.217a.723.723 0 01.525.247c.073.112.358.138.413.2s.012.215-.021.318a.3.3 0 01-.238.145c-.055.022-.132.006-.191.024-.012.051-.112.109-.187.149a5 5 0 01.253 1.949 1.424 1.424 0 01-.434 1.181c-.153.127-.061.312-.147.458" fill="#0b070c" fill-rule="evenodd"/><path data-name="Trazado 404" d="M18.701 17.345c-.054.061-.241.226-.383.205-.161-.037-.161-.138-.344-.171-.089-.026-.077-.061.018-.091.211-.071.489-.206.691-.014-.166.02-.2.037-.385.049a.667.667 0 00.4.022" fill="#b4562d" fill-rule="evenodd"/><path data-name="Trazado 405" d="M18.096 17.126c-.079-.039-.122-.045-.03-.081.255.052.443-.113.612.042-.055.031-.041.052-.1.052-.042-.075-.364 0-.476-.012" fill="#813931" fill-rule="evenodd"/><path data-name="Trazado 406" d="M18.784 17.058a.631.631 0 01.816-.054.994.994 0 00.485.243.123.123 0 00.108.106c-.013.023-.022.088-.037.115-.055.058-.216.043-.373.043a.786.786 0 00.343.04c-.028.062-.126.169-.382.123-.068.129-.2.237-.466.137-.079.012-.19-.052-.268-.07a.691.691 0 00.424.241 5.741 5.741 0 01.31 1.745 2.534 2.534 0 01-.214.991c-.059.151-.172.175-.232.255-.154.209-.111.4-.169.5-.434.056-.477 1.286-.715 1.235-.173-.041-.256-.673-.033-.8.755-.428.476-1.475.516-1.383-.166.559-.049 1.1-.421 1.072-.307-.117-.45.738-.445.883a1.11 1.11 0 01-.085.388 7 7 0 00-.082.717.844.844 0 00.022.237.742.742 0 00.32.3c.163.06.234.254.194.3a.273.273 0 01-.361.018.346.346 0 01-.036-.155c-.126-.012-.126-.164-.242-.268.028-.1-.2-.133-.2-.322a7.933 7.933 0 01.18-.98 1.623 1.623 0 00.1-.49c-.058-.147.123-.147 0-.254-.242-.223-.215-.6.119-.962-.068-.033-.105-.146-.152-.213v.258l-.258.322a1.289 1.289 0 01-1-.348.5.5 0 01-.233-.459c0-.039-.153 0-.125.03.051.065-.044.136-.014.237.014.085.221.147.209.218l-.055.437a1.491 1.491 0 01-.526.822l-.2.446c-.016.26.363.772.555 1 .073.063.134.19.205.255a.723.723 0 01.324.256.84.84 0 01-.523 0 .2.2 0 010-.241.576.576 0 01-.328-.134 10.829 10.829 0 00-.613-1.178.288.288 0 01.061-.363 1.437 1.437 0 00.165-1.153c-.2-.07-.376-.425-.422-.753a1.171 1.171 0 01.236-1 1.233 1.233 0 01.975-.279 2.869 2.869 0 011.8.226c.324.043.4.389.651.363a.329.329 0 00.3-.32 5.8 5.8 0 00-.327-1.873.283.283 0 01.171-.174c-.064-.053-.118-.114-.1-.168a1.25 1.25 0 01.046-.15" fill="#b4562d" fill-rule="evenodd"/><path data-name="Trazado 407" d="M19.729 17.287c-.175-.057-.179-.132-.369-.077a.293.293 0 00-.168.154c.072-.035.1-.053.143-.041.077.041.213.036.244-.03.055-.019.085.018.15-.006" fill="#0b070c" fill-rule="evenodd"/><path data-name="Trazado 408" d="M18.493 21.695a.4.4 0 01-.051.395.42.42 0 01-.064.554c.152.258-.049.4-.034.731.076.213.242.213.242.35.2.028.342.078.352.225.009.03-.039-.052-.1-.031.064.043.082.086.064.093a.588.588 0 01-.29.045c-.049-.021-.114-.026-.144-.11a.617.617 0 00.033-.135.3.3 0 01-.278-.34.854.854 0 00-.064.167.36.36 0 01-.088-.262 1.983 1.983 0 00.07-.846c0-.626.172-.713.357-.834" fill="#b4562d" fill-rule="evenodd"/><path data-name="Trazado 409" d="M14.869 19.779c.033.054-.037.188-.127.332a.23.23 0 00.174-.1.644.644 0 01-.155.271c.043.012.088 0 .155-.1v.07a2.3 2.3 0 00-.073.186c-.055.031-.065.146-.1.227a.662.662 0 01-.058-.586c-.073-.062.013-.181.077-.28-.019 0-.077.043-.1.049a.742.742 0 01.162-.406c.1-.052.174-.055.239.062.015.062.015.1-.119.17-.141.091-.125.1-.079.1" fill="#b86f4c" fill-rule="evenodd"/><path data-name="Trazado 410" d="M15.566 20.853c.006.334.08.545.076.826a2.356 2.356 0 01-.285.848c.047-.047.11-.14.152-.122a1.458 1.458 0 01.2-.453.6.6 0 00.055-.491 1.633 1.633 0 01-.194-.609" fill="#5d4d43" fill-rule="evenodd"/><path data-name="Trazado 411" d="M14.796 22.58c-.013.062-.022.128-.033.19a2.735 2.735 0 00.286.887.474.474 0 01.168.164c.046.044.092.09.141.129a.891.891 0 01.364.308.616.616 0 01-.505-.012c-.035-.1-.07-.2-.115-.3-.025-.025-.058-.043-.089-.073-.082-.037-.3-.115-.314-.2a6.91 6.91 0 00-.244-1.309.382.382 0 01.063-.427 1.815 1.815 0 00.425-.413.71.71 0 00.24-.483.681.681 0 01.158.395.973.973 0 01-.061.616c-.163.179-.322.349-.483.528" fill="#b4562d" fill-rule="evenodd"/><path data-name="Trazado 412" d="M15.133 21.356c-.036.417-.534.673-.546 1.1a.852.852 0 01.073-.518 1.982 1.982 0 00.473-.579" fill="#5d4d43" fill-rule="evenodd"/><path data-name="Trazado 413" d="M14.665 21.709a.87.87 0 00-.174.36c-.005-.087-.042-.166.022-.245a.228.228 0 01.152-.115" fill="#5d4d43" fill-rule="evenodd"/><path data-name="Trazado 414" d="M21.001 14.634a1.245 1.245 0 011.216-.506 1.187 1.187 0 011.273-.582 1.291 1.291 0 01.32-.777 2.037 2.037 0 01-.8-1.147 1.873 1.873 0 01-1.107-.5c-.254.049-.486.168-.792-.095-.177.263-.351.174-.676 0-.274.021-.635.168-.91.189a.911.911 0 01-.963.343 1.43 1.43 0 01-.329 1.147c.213.3.115.245.213.538.134.275.694.473.806.8a.965.965 0 00.777.149 1.768 1.768 0 01.972.447m.88.888c.853.115 1.339-.017 1.45-.382.061.237 1.758-.275 1.492-.7a1.194 1.194 0 00.859-.918c.024-.068-.322.111-.382.049a1.207 1.207 0 00.149-1.543c-.03-.835-.262-1.373-.74-1.47-.018.048.066.948-.015.525a2.256 2.256 0 00-1.144-1.178 1.669 1.669 0 00-1.672-.561 1.079 1.079 0 00-.688.094c-.32-.107-.921-.186-1.129 0-.336-.179-.422-.107-.789 0-.621-.042-.666.115-1.134.517a1.334 1.334 0 00-.958.838c-.325.3-.729.545-.729 1.1-.455.436-.137 1.237-.056 1.456-.115 1.215.267 1.052.7 1.2.017.683.935.406 1.408.737.541.53.841.455 2.525.057a3.054 3.054 0 00.856.174" fill="#0b070c" fill-rule="evenodd"/><path data-name="Trazado 415" d="M21.001 14.634a1.245 1.245 0 011.216-.506 1.187 1.187 0 011.273-.582 1.291 1.291 0 01.32-.777 2.037 2.037 0 01-.8-1.147 1.873 1.873 0 01-1.107-.5c-.254.049-.486.168-.792-.095-.177.263-.351.174-.676 0-.274.021-.635.168-.91.189a.911.911 0 01-.963.343 1.43 1.43 0 01-.329 1.147c.213.3.115.245.213.538.134.275.694.473.806.8a.965.965 0 00.777.149 1.768 1.768 0 01.972.441zm.88.888c.853.115 1.339-.017 1.45-.382.061.237 1.758-.275 1.492-.7a1.194 1.194 0 00.859-.918c.024-.068-.322.111-.382.049a1.207 1.207 0 00.149-1.543c-.03-.835-.262-1.373-.74-1.47-.018.048.066.948-.015.525a2.256 2.256 0 00-1.144-1.178 1.669 1.669 0 00-1.672-.561 1.079 1.079 0 00-.688.094c-.32-.107-.921-.186-1.129 0-.336-.179-.422-.107-.789 0-.621-.042-.666.115-1.134.517a1.334 1.334 0 00-.958.838c-.325.3-.729.545-.729 1.1-.455.436-.137 1.237-.056 1.456-.115 1.215.267 1.052.7 1.2.017.683.935.406 1.408.737.541.53.841.455 2.525.057a3.054 3.054 0 00.85.179z" fill="none" stroke="#0b070c" stroke-miterlimit="2.613" stroke-width=".044"/><path data-name="Trazado 416" d="M23.595 11.043c-.04.78.576.845 1.272 1.275a1.958 1.958 0 00-1.272-1.275" fill="#339744" fill-rule="evenodd"/><path data-name="Trazado 417" d="M23.595 11.043c-.04.78.576.845 1.272 1.275a1.958 1.958 0 00-1.272-1.275z" fill="none" stroke="#0b070c" stroke-miterlimit="2.613" stroke-width=".044"/><path data-name="Trazado 418" d="M24.926 10.785c.656 1.237-.191 1.41-.146 1.963-.541-.748.168-1.518.146-1.963" fill="#339744" fill-rule="evenodd"/><path data-name="Trazado 419" d="M24.926 10.785c.656 1.237-.191 1.41-.146 1.963-.541-.744.168-1.518.146-1.963z" fill="none" stroke="#0b070c" stroke-miterlimit="2.613" stroke-width=".044"/><path data-name="Trazado 420" d="M23.356 11.787c.355 1.049.551.7 1.211 1.015-.409-.7-.537-.844-1.211-1.015" fill="#339744" fill-rule="evenodd"/><path data-name="Trazado 421" d="M23.356 11.787c.355 1.049.551.7 1.211 1.015-.409-.696-.537-.843-1.211-1.015z" fill="none" stroke="#0b070c" stroke-miterlimit="2.613" stroke-width=".044"/><path data-name="Trazado 422" d="M24.876 14.122c-.544-1.321.483-1.367.539-1.914.491.822-.486 1.478-.539 1.914" fill="#339744" fill-rule="evenodd"/><path data-name="Trazado 423" d="M24.876 14.122c-.544-1.321.483-1.367.539-1.914.491.822-.486 1.478-.539 1.914z" fill="none" stroke="#0b070c" stroke-miterlimit="2.613" stroke-width=".044"/><path data-name="Trazado 424" d="M23.85 14.358c1.036-.847.107-1.2.276-1.648-.781.478-.148 1.3-.276 1.648" fill="#339744" fill-rule="evenodd"/><path data-name="Trazado 425" d="M23.85 14.358c1.036-.847.107-1.2.276-1.648-.781.478-.148 1.299-.276 1.648z" fill="none" stroke="#0b070c" stroke-miterlimit="2.613" stroke-width=".044"/><path data-name="Trazado 426" d="M24.722 12.462c-.721.858-.315.827-.237 1.53.391-.7.449-.894.237-1.53" fill="#339744" fill-rule="evenodd"/><path data-name="Trazado 427" d="M24.722 12.462c-.721.858-.315.827-.237 1.53.39-.703.448-.894.237-1.53z" fill="none" stroke="#0b070c" stroke-miterlimit="2.613" stroke-width=".044"/><path data-name="Trazado 428" d="M23.893 14.605c.5-1.167 1.266-.649 1.672-1-.2.819-1.345.732-1.672 1" fill="#339744" fill-rule="evenodd"/><path data-name="Trazado 429" d="M23.893 14.605c.5-1.167 1.266-.649 1.672-1-.204.821-1.349.734-1.672 1z" fill="none" stroke="#0b070c" stroke-miterlimit="2.613" stroke-width=".044"/><path data-name="Trazado 430" d="M23.108 14.597c.465-.747.708-.582 1.262-.613-.5.649-.862.794-1.262.613" fill="#339744" fill-rule="evenodd"/><path data-name="Trazado 431" d="M23.108 14.597c.465-.747.708-.582 1.262-.613-.501.649-.862.794-1.262.613z" fill="none" stroke="#0b070c" stroke-miterlimit="2.613" stroke-width=".044"/><path data-name="Trazado 432" d="M22.712 14.796c.961-.856 1.441-.082 1.961-.229-.537.656-1.54.128-1.961.229" fill="#339744" fill-rule="evenodd"/><path data-name="Trazado 433" d="M22.712 14.796c.961-.856 1.441-.082 1.961-.229-.538.656-1.54.128-1.961.229z" fill="none" stroke="#0b070c" stroke-miterlimit="2.613" stroke-width=".044"/><path data-name="Trazado 434" d="M22.319 14.53c.376-1.338 1.281-.637 1.681-1-.108.946-1.352.726-1.681 1" fill="#339744" fill-rule="evenodd"/><path data-name="Trazado 435" d="M22.319 14.53c.376-1.338 1.281-.637 1.681-1-.107.947-1.351.727-1.681 1z" fill="none" stroke="#0b070c" stroke-miterlimit="2.613" stroke-width=".044"/><path data-name="Trazado 436" d="M21.981 14.927c.645-.61.832-.4 1.375-.293-.643.51-1.036.562-1.375.293" fill="#339744" fill-rule="evenodd"/><path data-name="Trazado 437" d="M21.981 14.927c.645-.61.832-.4 1.375-.293-.642.509-1.036.562-1.375.293z" fill="none" stroke="#0b070c" stroke-miterlimit="2.613" stroke-width=".044"/><path data-name="Trazado 438" d="M20.994 15.091c.373-1.334 1.278-.635 1.675-1-.1.942-1.354.721-1.675 1" fill="#339744" fill-rule="evenodd"/><path data-name="Trazado 439" d="M20.994 15.091c.373-1.334 1.278-.635 1.675-1-.098.946-1.353.725-1.675 1z" fill="none" stroke="#0b070c" stroke-miterlimit="2.613" stroke-width=".044"/><path data-name="Trazado 440" d="M21.201 15.174c1.074-.717 1.431.114 1.966.052-.617.568-1.532-.1-1.966-.052" fill="#339744" fill-rule="evenodd"/><path data-name="Trazado 441" d="M21.201 15.174c1.074-.717 1.431.114 1.966.052-.617.568-1.532-.098-1.966-.052z" fill="none" stroke="#0b070c" stroke-miterlimit="2.613" stroke-width=".044"/><path data-name="Trazado 442" d="M18.3 11.155c.039.783-.581.845-1.27 1.263a1.931 1.931 0 011.27-1.263" fill="#339744" fill-rule="evenodd"/><path data-name="Trazado 443" d="M18.3 11.155c.039.783-.581.845-1.27 1.263a1.931 1.931 0 011.27-1.263z" fill="none" stroke="#0b070c" stroke-miterlimit="2.613" stroke-width=".044"/><path data-name="Trazado 444" d="M17.137 11.03c-.984 1.022-.218 1.406-.412 1.931.726-.592.259-1.513.412-1.931" fill="#339744" fill-rule="evenodd"/><path data-name="Trazado 445" d="M17.137 11.03c-.984 1.022-.218 1.406-.412 1.931.727-.592.259-1.513.412-1.931z" fill="none" stroke="#0b070c" stroke-miterlimit="2.613" stroke-width=".044"/><path data-name="Trazado 446" d="M18.447 11.792c-.189 1.093-.431.768-1.033 1.185.3-.756.4-.918 1.033-1.185" fill="#339744" fill-rule="evenodd"/><path data-name="Trazado 447" d="M18.447 11.792c-.189 1.093-.431.768-1.033 1.185.296-.757.401-.918 1.033-1.185z" fill="none" stroke="#0b070c" stroke-miterlimit="2.613" stroke-width=".044"/><path data-name="Trazado 448" d="M16.985 13.994c.548-1.32-.477-1.36-.535-1.919-.49.827.483 1.487.535 1.919" fill="#339744" fill-rule="evenodd"/><path data-name="Trazado 449" d="M16.985 13.994c.548-1.32-.477-1.36-.535-1.919-.49.827.483 1.487.535 1.919z" fill="none" stroke="#0b070c" stroke-miterlimit="2.613" stroke-width=".044"/><path data-name="Trazado 450" d="M17.883 14.426c-.808-1.057.181-1.2.123-1.663.648.643-.16 1.29-.123 1.663" fill="#339744" fill-rule="evenodd"/><path data-name="Trazado 451" d="M17.883 14.426c-.808-1.057.181-1.2.123-1.663.648.643-.16 1.29-.123 1.663z" fill="none" stroke="#0b070c" stroke-miterlimit="2.613" stroke-width=".044"/><path data-name="Trazado 452" d="M17.175 12.574c.71.853.307.814.238 1.532-.4-.718-.449-.9-.238-1.532" fill="#339744" fill-rule="evenodd"/><path data-name="Trazado 453" d="M17.175 12.574c.71.853.307.814.238 1.532-.401-.718-.449-.895-.238-1.532z" fill="none" stroke="#0b070c" stroke-miterlimit="2.613" stroke-width=".044"/><path data-name="Trazado 454" d="M17.981 14.785c-.387-1.209-1.2-.765-1.574-1.143.116.825 1.262.854 1.574 1.143" fill="#339744" fill-rule="evenodd"/><path data-name="Trazado 455" d="M17.981 14.785c-.387-1.209-1.2-.765-1.574-1.143.116.825 1.262.854 1.574 1.143z" fill="none" stroke="#0b070c" stroke-miterlimit="2.613" stroke-width=".044"/><path data-name="Trazado 456" d="M18.784 14.708c-.465-.741-.706-.587-1.265-.607.5.64.862.792 1.265.607" fill="#339744" fill-rule="evenodd"/><path data-name="Trazado 457" d="M18.784 14.708c-.465-.741-.706-.587-1.265-.607.501.64.862.796 1.265.607z" fill="none" stroke="#0b070c" stroke-miterlimit="2.613" stroke-width=".044"/><path data-name="Trazado 458" d="M19.173 14.91c-.952-.862-1.432-.089-1.953-.229.534.65 1.541.115 1.953.229" fill="#339744" fill-rule="evenodd"/><path data-name="Trazado 459" d="M19.173 14.91c-.952-.862-1.432-.089-1.953-.229.539.65 1.539.115 1.953.229z" fill="none" stroke="#0b070c" stroke-miterlimit="2.613" stroke-width=".044"/><path data-name="Trazado 460" d="M18.979 14.946c.491-1.131-.533-1.118-.6-1.585-.459.712.537 1.222.6 1.585" fill="#339744" fill-rule="evenodd"/><path data-name="Trazado 461" d="M18.979 14.946c.491-1.131-.533-1.118-.6-1.585-.46.712.536 1.219.6 1.585z" fill="none" stroke="#0b070c" stroke-miterlimit="2.613" stroke-width=".044"/><path data-name="Trazado 462" d="M19.903 15.038c-.639-.612-.829-.4-1.372-.29.654.5 1.036.561 1.372.29" fill="#339744" fill-rule="evenodd"/><path data-name="Trazado 463" d="M19.903 15.038c-.639-.612-.829-.4-1.372-.29.654.502 1.036.559 1.372.29z" fill="none" stroke="#0b070c" stroke-miterlimit="2.613" stroke-width=".044"/><path data-name="Trazado 464" d="M20.894 15.198c-.374-1.33-1.273-.635-1.682-.99.107.941 1.364.715 1.682.99" fill="#339744" fill-rule="evenodd"/><path data-name="Trazado 465" d="M20.894 15.198c-.374-1.33-1.273-.635-1.682-.99.107.946 1.364.715 1.682.99z" fill="none" stroke="#0b070c" stroke-miterlimit="2.613" stroke-width=".044"/><path data-name="Trazado 466" d="M20.695 15.285c-1.077-.718-1.444.108-1.973.037.625.579 1.541-.086 1.973-.037" fill="#339744" fill-rule="evenodd"/><path data-name="Trazado 467" d="M20.695 15.285c-1.077-.718-1.444.108-1.973.037.625.58 1.541-.085 1.973-.037z" fill="none" stroke="#0b070c" stroke-miterlimit="2.613" stroke-width=".044"/><path data-name="Trazado 468" d="M21.284 9.627c.957-.338 1.082.285 1.516.313-.585.315-1.18-.279-1.516-.313" fill="#339744" fill-rule="evenodd"/><path data-name="Trazado 469" d="M21.284 9.627c.957-.338 1.082.285 1.516.313-.585.314-1.18-.279-1.516-.313z" fill="none" stroke="#0b070c" stroke-miterlimit="2.613" stroke-width=".044"/><path data-name="Trazado 470" d="M22.196 9.446c1.084-.115 1.05.571 1.488.719-.682.167-1.147-.61-1.488-.719" fill="#339744" fill-rule="evenodd"/><path data-name="Trazado 471" d="M22.196 9.446c1.084-.115 1.05.571 1.488.719-.681.166-1.146-.611-1.488-.719z" fill="none" stroke="#0b070c" stroke-miterlimit="2.613" stroke-width=".044"/><path data-name="Trazado 472" d="M20.916 10.703c.984.561 1.259-.109 1.736-.058-.577-.453-1.354.091-1.736.058" fill="#339744" fill-rule="evenodd"/><path data-name="Trazado 473" d="M20.916 10.703c.984.561 1.259-.109 1.736-.058-.577-.453-1.354.087-1.736.058z" fill="none" stroke="#0b070c" stroke-miterlimit="2.613" stroke-width=".044"/><path data-name="Trazado 474" d="M22.193 10.918c.838.74 1.254.143 1.715.281-.47-.554-1.355-.177-1.715-.281" fill="#339744" fill-rule="evenodd"/><path data-name="Trazado 475" d="M22.193 10.918c.838.74 1.254.143 1.715.281-.471-.554-1.36-.177-1.715-.281z" fill="none" stroke="#0b070c" stroke-miterlimit="2.613" stroke-width=".044"/><path data-name="Trazado 476" d="M20.833 10.092c.937.632 1.205.262 1.927.133a2.285 2.285 0 00-1.927-.133" fill="#339744" fill-rule="evenodd"/><path data-name="Trazado 477" d="M20.833 10.092c.937.632 1.205.262 1.927.133a2.285 2.285 0 00-1.927-.133z" fill="none" stroke="#0b070c" stroke-miterlimit="2.613" stroke-width=".044"/><path data-name="Trazado 478" d="M22.357 10.106c.641.914.716.531 1.445.661-.59-.565-.758-.67-1.445-.661" fill="#339744" fill-rule="evenodd"/><path data-name="Trazado 479" d="M22.357 10.106c.641.914.716.531 1.445.661-.59-.561-.758-.668-1.445-.661z" fill="none" stroke="#0b070c" stroke-miterlimit="2.613" stroke-width=".044"/><path data-name="Trazado 480" d="M23.508 9.993c1.357.474.856 1.161 1.274 1.534-.924-.2-.947-1.223-1.274-1.534" fill="#339744" fill-rule="evenodd"/><path data-name="Trazado 481" d="M23.508 9.993c1.357.474.856 1.161 1.274 1.534-.925-.199-.948-1.224-1.274-1.534z" fill="none" stroke="#0b070c" stroke-miterlimit="2.613" stroke-width=".044"/><path data-name="Trazado 482" d="M20.417 9.736c-.96-.339-1.089.284-1.511.32.579.309 1.173-.29 1.511-.32" fill="#339744" fill-rule="evenodd"/><path data-name="Trazado 483" d="M20.417 9.736c-.96-.339-1.089.284-1.511.32.579.307 1.173-.292 1.511-.32z" fill="none" stroke="#0b070c" stroke-miterlimit="2.613" stroke-width=".044"/><path data-name="Trazado 484" d="M19.695 9.552c-1.089-.112-1.052.576-1.489.712.686.178 1.156-.592 1.489-.712" fill="#339744" fill-rule="evenodd"/><path data-name="Trazado 485" d="M19.695 9.552c-1.089-.112-1.052.576-1.489.712.686.178 1.156-.593 1.489-.712z" fill="none" stroke="#0b070c" stroke-miterlimit="2.613" stroke-width=".044"/><path data-name="Trazado 486" d="M20.973 10.811c-.978.561-1.262-.107-1.739-.056.58-.456 1.36.082 1.739.056" fill="#339744" fill-rule="evenodd"/><path data-name="Trazado 487" d="M20.973 10.811c-.978.561-1.262-.107-1.739-.056.58-.456 1.36.082 1.739.056z" fill="none" stroke="#0b070c" stroke-miterlimit="2.613" stroke-width=".044"/><path data-name="Trazado 488" d="M19.702 11.021c-.844.744-1.259.143-1.721.291.477-.564 1.354-.19 1.721-.291" fill="#339744" fill-rule="evenodd"/><path data-name="Trazado 489" d="M19.702 11.021c-.844.744-1.259.143-1.721.291.477-.564 1.354-.19 1.721-.291z" fill="none" stroke="#0b070c" stroke-miterlimit="2.613" stroke-width=".044"/><path data-name="Trazado 490" d="M21.056 10.197c-.934.631-1.2.269-1.932.143a2.315 2.315 0 011.932-.143" fill="#339744" fill-rule="evenodd"/><path data-name="Trazado 491" d="M21.056 10.197c-.934.631-1.2.269-1.932.143a2.315 2.315 0 011.932-.143z" fill="none" stroke="#0b070c" stroke-miterlimit="2.613" stroke-width=".044"/><path data-name="Trazado 492" d="M19.536 10.218c-.642.91-.718.532-1.449.659.6-.568.76-.672 1.449-.659" fill="#339744" fill-rule="evenodd"/><path data-name="Trazado 493" d="M19.536 10.218c-.642.91-.718.532-1.449.659.597-.569.76-.673 1.449-.659z" fill="none" stroke="#0b070c" stroke-miterlimit="2.613" stroke-width=".044"/><path data-name="Trazado 494" d="M18.38 10.102c-1.348.472-.849 1.157-1.271 1.531.922-.19.95-1.224 1.271-1.531" fill="#339744" fill-rule="evenodd"/><path data-name="Trazado 495" d="M18.38 10.102c-1.348.472-.849 1.157-1.271 1.531.922-.19.95-1.222 1.271-1.531z" fill="none" stroke="#0b070c" stroke-miterlimit="2.613" stroke-width=".044"/><path data-name="Trazado 496" d="M21.248 9.679c-.926.642-.866.261-1.6.151.76-.346.95-.392 1.6-.151" fill="#339744" fill-rule="evenodd"/><path data-name="Trazado 497" d="M21.248 9.679c-.926.642-.866.261-1.6.151.761-.346.951-.391 1.6-.151z" fill="none" stroke="#0b070c" stroke-miterlimit="2.613" stroke-width=".044"/><path data-name="Trazado 498" d="M34.777 8.811l.267.284-.789.7a2.254 2.254 0 00-.236.222.293.293 0 00-.067.211.5.5 0 00.346.381.251.251 0 00.2-.04 1.971 1.971 0 00.26-.2l.819-.7.264.279-.771.677a2.539 2.539 0 01-.4.3.464.464 0 01-.258.073.671.671 0 01-.279-.057.966.966 0 01-.3-.236 1.141 1.141 0 01-.235-.346.666.666 0 01-.031-.275.478.478 0 01.093-.229 1.634 1.634 0 01.344-.349zm-1.855-.559l.222.194a1.107 1.107 0 00.279.218.166.166 0 00.137.015.281.281 0 00.2-.215.226.226 0 00-.058-.159 2.213 2.213 0 00-.2-.2l-.233-.215zm-1.069.537l1.354-1.384.613.554a1.365 1.365 0 01.3.34.451.451 0 01.041.279.628.628 0 01-.147.286.589.589 0 01-.351.169.569.569 0 01-.41-.13 1.012 1.012 0 01.047.264 2.045 2.045 0 01-.056.376l-.085.429-.354-.307.085-.5a2.4 2.4 0 00.043-.349.277.277 0 00-.03-.138.519.519 0 00-.131-.144l-.055-.056-.566.59zm-1.5-1.053l1.2-1.524 1.17.856-.206.251-.852-.621-.263.337.8.578-.211.257-.787-.578-.334.416.891.651-.2.264zm-.461-2.082l-.268.48.186.11a1.359 1.359 0 00.3.112.243.243 0 00.155-.024.287.287 0 00.118-.109.235.235 0 00.026-.177.279.279 0 00-.1-.154 1.3 1.3 0 00-.242-.147zm-1.143 1.2l.962-1.669.556.3a2.978 2.978 0 01.4.251.488.488 0 01.156.3.692.692 0 01-.291.6.583.583 0 01-.242.1.568.568 0 01-.229-.019 4.074 4.074 0 01-.376-.166l-.225-.128-.365.629zm-2.263-.9l.667-1.783.377.134-.56 1.475.935.334-.114.3zm-1.8-.477l.478-1.852 1.429.343-.085.306-1.034-.246-.109.412.968.234-.089.311-.958-.234-.131.5 1.073.259-.079.314zM23.35 3.643l-.183 1.262.294.033a1.5 1.5 0 00.241.018.653.653 0 00.176-.057.471.471 0 00.124-.171 1.177 1.177 0 00.095-.34 1.024 1.024 0 00.005-.343.5.5 0 00-.079-.2.436.436 0 00-.175-.114 2.363 2.363 0 00-.318-.061zm-.351-.377l.721.1a1.677 1.677 0 01.364.086.655.655 0 01.269.216.7.7 0 01.144.344 1.275 1.275 0 010 .452 1.147 1.147 0 01-.116.389.825.825 0 01-.257.308.778.778 0 01-.3.115 1.118 1.118 0 01-.357-.009l-.744-.106zm-2.021 1.065l-.286-.7-.252.722zm.768.742l-.433.009-.191-.424-.786.024-.157.44-.417.013.7-1.937.421-.01zm-2.6-.595l.4.069a.866.866 0 01-.228.5.9.9 0 01-.5.225.878.878 0 01-.683-.174 1.016 1.016 0 01-.356-.678.992.992 0 01.148-.76.874.874 0 01.623-.352.847.847 0 01.62.121.749.749 0 01.25.325l-.379.144a.4.4 0 00-.175-.211.465.465 0 00-.287-.056.435.435 0 00-.326.206.689.689 0 00-.065.508.76.76 0 00.2.485.462.462 0 00.373.106.373.373 0 00.25-.127.592.592 0 00.122-.333m-1.921 1.039l-.473-1.853.388-.094.473 1.858zm-1.589.443l-.573-1.819.382-.111.48 1.511.948-.283.1.3zm-1.837-.186l.209.471.339-.146a1.148 1.148 0 00.247-.115.213.213 0 00.108-.123.23.23 0 00-.016-.165.278.278 0 00-.1-.119.27.27 0 00-.155-.037 1.077 1.077 0 00-.335.115zm-.3-.7l.172.4.247-.1c.142-.065.23-.1.26-.115a.274.274 0 00.121-.115.218.218 0 00-.016-.166.194.194 0 00-.1-.115.205.205 0 00-.158 0c-.044.017-.144.048-.312.124zm-.5-.147l.725-.3a2.122 2.122 0 01.331-.114.455.455 0 01.22-.005.588.588 0 01.2.087.448.448 0 01.148.192.4.4 0 01.033.246.508.508 0 01-.12.24.51.51 0 01.327.051.411.411 0 01.2.222.536.536 0 01.046.263.45.45 0 01-.073.246.705.705 0 01-.207.186c-.064.031-.211.089-.447.189l-.616.257zm-1.951 1.01l.352-.191.517.91a2.442 2.442 0 00.174.272.308.308 0 00.2.1.458.458 0 00.269-.051.373.373 0 00.186-.19.232.232 0 00.009-.19c-.027-.053-.076-.156-.143-.294l-.535-.92.352-.191.5.879a2.756 2.756 0 01.216.44.575.575 0 01.016.269.513.513 0 01-.126.244.875.875 0 01-.309.223 1.05 1.05 0 01-.4.154.562.562 0 01-.279-.039.547.547 0 01-.206-.131 2.3 2.3 0 01-.28-.4zM9.851 7.148l.344.434.17-.126a1.173 1.173 0 00.239-.209.279.279 0 00.044-.146.321.321 0 00-.056-.142.3.3 0 00-.162-.108.364.364 0 00-.187.027c-.036.018-.115.076-.237.155zm.67 1.51L9.329 7.123l.522-.373a2.358 2.358 0 01.392-.25.483.483 0 01.349-.019.719.719 0 01.452.507.457.457 0 01-.022.246.5.5 0 01-.106.194 2.046 2.046 0 01-.312.262l-.207.158.446.569zM9.136 9.845l-1.35-1.4 1.073-.969.229.231-.782.709.3.312.722-.66.236.236-.73.656.372.384.8-.722.223.22zm-1.953.372l.203-.212a1.253 1.253 0 00.218-.283.2.2 0 00.009-.127.214.214 0 00-.083-.118.225.225 0 00-.153-.07.229.229 0 00-.155.059c-.031.03-.088.087-.2.208l-.214.216zm.59 1.025L6.294 9.963l.568-.607a1.291 1.291 0 01.346-.291.47.47 0 01.3-.05.638.638 0 01.289.147.522.522 0 01.185.333.6.6 0 01-.133.394 1.42 1.42 0 01.271-.045 2.516 2.516 0 01.392.042l.443.077-.319.346-.512-.068a1.712 1.712 0 00-.349-.039.355.355 0 00-.149.033.7.7 0 00-.154.128l-.052.058.615.531zm27.6-2.015l.377-.143.218.225-.463.054z" fill="#0b070c" fill-rule="evenodd"/><path data-name="Trazado 499" d="M11.595 5.47l-.04-.4.276-.151-.072.462z" fill="#0b070c"/></g></g></svg>