<svg version="1.1" id="Capa_1" xmlns="http://www.w3.org/2000/svg" xmlns:xlink="http://www.w3.org/1999/xlink" x="0" y="0" width="266.602" height="53" xml:space="preserve"><style><![CDATA[@keyframes termometro_small{from{y:479.745}to{y:0}}@keyframes termometro_large{from{y:479.745}to{y:0}}@keyframes letra_vector_eme{from{y:487.165}to{y:7.42}}@keyframes letra_vector_ere{from{y:487.165}to{y:7.42}}@keyframes letra_vector_uve{from{y:487.165}to{y:7.42}}]]></style><path id="letraV_x5F_blanca" fill="#343a40" d="M110.503 7.42l7.057 23.607 6.955-23.607h10.408l-13.251 36.047h-8.224L100.044 7.42h10.459z"/><path id="letraR_x5F_blanca" fill="#343a40" d="M70.394 43.467V7.42h16.552c1.759 0 3.384.363 4.874 1.092 1.488.729 2.767 1.675 3.833 2.844a13.33 13.33 0 012.513 4.011c.61 1.505.915 3.021.915 4.543 0 2.099-.457 4.054-1.372 5.864a11.944 11.944 0 01-3.808 4.442l8.123 13.251h-11.17L84 32.399h-3.706v11.068h-9.9zm9.901-19.699h6.245c.609 0 1.176-.337 1.701-1.016.523-.676.787-1.624.787-2.843 0-1.252-.306-2.208-.914-2.868-.609-.66-1.22-.99-1.828-.99h-5.991v7.717z"/><path id="letraM_x5F_blanca" fill="#343a40" d="M54.302 43.467V24.479L48.26 37.832h-5.28l-6.043-13.353v18.988h-9.899V7.42h10.813l7.769 16.957L53.437 7.42h10.764v36.047h-9.899z"/><g id="termometro_x5F_blanco" fill="#343a40"><path id="temp01_x5F_mascara_x5F_blanca_1_" d="M12.486 37.45V26.5a1.529 1.529 0 10-3.057 0v10.95a4.85 4.85 0 00-3.313 4.593c0 2.669 2.173 4.841 4.842 4.841s4.841-2.172 4.841-4.841a4.852 4.852 0 00-3.313-4.593zm-1.529 6.376c-.984 0-1.785-.801-1.785-1.783s.801-1.783 1.785-1.783 1.784.801 1.784 1.783-.8 1.783-1.784 1.783z"/><path id="temp02_x5F_mascara_x5F_blanca_1_" d="M17.582 33.314V6.625C17.582 2.973 14.61 0 10.957 0S4.332 2.973 4.332 6.625v26.689a10.928 10.928 0 00-4.331 8.604c-.066 6.025 4.778 10.995 10.8 11.079a10.876 10.876 0 007.849-3.153 10.878 10.878 0 003.264-7.801 10.925 10.925 0 00-4.332-8.729zm-1.078 14.354a7.844 7.844 0 01-5.546 2.273h-.114c-4.341-.062-7.833-3.646-7.785-7.988a7.888 7.888 0 013.631-6.559c.437-.281.699-.766.699-1.285V6.625c0-1.968 1.602-3.567 3.568-3.567s3.567 1.6 3.567 3.567v1.02h-1.529a1.529 1.529 0 100 3.056h1.529v2.039h-1.529a1.529 1.529 0 100 3.057h1.529v2.038h-1.529a1.53 1.53 0 000 3.058h1.529v13.214c0 .521.264 1.006.7 1.287a7.874 7.874 0 013.631 6.646 7.85 7.85 0 01-2.351 5.628z"/></g><defs><path id="temp01_x5F_mascara_x5F_blanca" d="M12.486 37.45V26.5a1.529 1.529 0 10-3.057 0v10.95a4.85 4.85 0 00-3.313 4.593c0 2.669 2.173 4.841 4.842 4.841s4.841-2.172 4.841-4.841a4.852 4.852 0 00-3.313-4.593zm-1.529 6.376c-.984 0-1.785-.801-1.785-1.783s.801-1.783 1.785-1.783 1.784.801 1.784 1.783-.8 1.783-1.784 1.783z"/></defs><clipPath id="temp01_x5F_mascara_x5F_blanca_2_"><use xlink:href="#temp01_x5F_mascara_x5F_blanca" overflow="visible"/></clipPath><path clip-path="url(#temp01_x5F_mascara_x5F_blanca_2_)" fill="#FB1C0B" style="animation:termometro_small 9s infinite linear alternate backwards" d="M-.158 450h22.231v53.305H-.158z"/><defs><path id="temp02_x5F_mascara_x5F_blanca" d="M17.582 33.314V6.625C17.582 2.973 14.61 0 10.957 0S4.332 2.973 4.332 6.625v26.689a10.928 10.928 0 00-4.331 8.604c-.066 6.025 4.778 10.995 10.8 11.079a10.876 10.876 0 007.849-3.153 10.878 10.878 0 003.264-7.801 10.925 10.925 0 00-4.332-8.729zm-1.078 14.354a7.844 7.844 0 01-5.546 2.273h-.114c-4.341-.062-7.833-3.646-7.785-7.988a7.888 7.888 0 013.631-6.559c.437-.281.699-.766.699-1.285V6.625c0-1.968 1.602-3.567 3.568-3.567s3.567 1.6 3.567 3.567v1.02h-1.529a1.529 1.529 0 100 3.056h1.529v2.039h-1.529a1.529 1.529 0 100 3.057h1.529v2.038h-1.529a1.53 1.53 0 000 3.058h1.529v13.214c0 .521.264 1.006.7 1.287a7.874 7.874 0 013.631 6.646 7.85 7.85 0 01-2.351 5.628z"/></defs><clipPath id="temp02_x5F_mascara_x5F_blanca_2_"><use xlink:href="#temp02_x5F_mascara_x5F_blanca" overflow="visible"/></clipPath><path clip-path="url(#temp02_x5F_mascara_x5F_blanca_2_)" fill="#FB1C0B" style="animation:termometro_large 9s infinite linear alternate backwards" d="M-.317 450h22.231v53.305H-.317z"/><defs><path id="letraM_x5F_mascara_x5F_blanca" d="M54.302 43.467V24.479L48.26 37.832h-5.28l-6.043-13.353v18.988h-9.899V7.42h10.813l7.769 16.957L53.437 7.42h10.764v36.047h-9.899z"/></defs><clipPath id="letraM_x5F_mascara_x5F_blanca_1_"><use xlink:href="#letraM_x5F_mascara_x5F_blanca" overflow="visible"/></clipPath><path clip-path="url(#letraM_x5F_mascara_x5F_blanca_1_)" fill="#2E58A6" style="animation:letra_vector_eme 9s infinite linear 1s alternate backwards" d="M27.038 487.165h37.163v36.047H27.038z"/><defs><path id="letraR_x5F_mascara_x5F_blanca" d="M70.394 43.467V7.42h16.552c1.759 0 3.384.363 4.874 1.092 1.488.729 2.767 1.675 3.833 2.844a13.33 13.33 0 012.513 4.011c.61 1.505.915 3.021.915 4.543 0 2.099-.457 4.054-1.372 5.864a11.944 11.944 0 01-3.808 4.442l8.123 13.251h-11.17L84 32.399h-3.706v11.068h-9.9zm9.901-19.699h6.245c.609 0 1.176-.337 1.701-1.016.523-.676.787-1.624.787-2.843 0-1.252-.306-2.208-.914-2.868-.609-.66-1.22-.99-1.828-.99h-5.991v7.717z"/></defs><clipPath id="letraR_x5F_mascara_x5F_blanca_1_"><use xlink:href="#letraR_x5F_mascara_x5F_blanca" overflow="visible"/></clipPath><path clip-path="url(#letraR_x5F_mascara_x5F_blanca_1_)" fill="#FAB102" style="animation:letra_vector_ere 9s infinite linear 2s alternate backwards" d="M70.394 487.165h31.63v36.047h-31.63z"/><defs><path id="letraV_x5F_mascara_x5F_blanca" d="M110.503 7.42l7.057 23.607 6.955-23.607h10.408l-13.251 36.047h-8.224L100.044 7.42h10.459z"/></defs><clipPath id="letraV_x5F_mascara_x5F_blanca_1_"><use xlink:href="#letraV_x5F_mascara_x5F_blanca" overflow="visible"/></clipPath><path clip-path="url(#letraV_x5F_mascara_x5F_blanca_1_)" fill="#37992F" style="animation:letra_vector_uve 9s infinite linear 3s alternate backwards" d="M100.044 487.165h34.878v36.047h-34.878z"/><path d="M147.112 19.92V7.928h5.084c.551 0 1.061.115 1.529.346.467.231.869.535 1.207.912.338.378.604.805.795 1.283.191.479.285.961.285 1.445 0 .507-.09.999-.27 1.478a4.176 4.176 0 01-.76 1.275 3.773 3.773 0 01-1.184.896 3.43 3.43 0 01-1.52.338h-2.838v4.02l-2.328-.001zm2.33-6.064h2.703c.428 0 .785-.175 1.072-.523s.432-.822.432-1.419a2.39 2.39 0 00-.135-.82 2.087 2.087 0 00-.355-.615c-.146-.17-.318-.297-.516-.381s-.396-.127-.6-.127h-2.602v3.885h.001zm7.904-6.267h2.264v9.393c0 .687.311 1.03.93 1.03.125 0 .268-.022.432-.068.162-.044.318-.096.465-.15l.305 1.807c-.305.146-.658.26-1.064.338a5.775 5.775 0 01-1.098.118c-.709 0-1.258-.188-1.646-.565-.389-.378-.584-.915-.584-1.613V7.589h-.004zm7.805 12.501c-.428 0-.826-.07-1.199-.212a2.9 2.9 0 01-.963-.591 2.686 2.686 0 01-.862-2.002c0-.416.094-.803.279-1.157s.443-.655.775-.903.729-.442 1.189-.582a5.163 5.163 0 011.521-.213c.395 0 .779.035 1.156.102.379.068.713.164 1.006.288v-.507c0-.585-.166-1.035-.498-1.352-.332-.314-.824-.473-1.479-.473-.475 0-.936.084-1.385.253a6.458 6.458 0 00-1.387.743l-.691-1.436c1.137-.754 2.365-1.131 3.682-1.131 1.273 0 2.262.313 2.965.938s1.059 1.527 1.059 2.711v2.753c0 .235.043.405.135.507.09.102.246.158.473.168v1.926a5.371 5.371 0 01-1.082.119c-.428-.012-.754-.109-.979-.296a1.212 1.212 0 01-.422-.751l-.053-.49c-.393.518-.873.911-1.436 1.182s-1.162.406-1.804.406zm.642-1.655c.383 0 .746-.067 1.09-.203.344-.136.611-.315.801-.54.248-.192.373-.406.373-.643v-1.014a5.523 5.523 0 00-.877-.245 4.749 4.749 0 00-.914-.093c-.586 0-1.063.133-1.436.397s-.557.599-.557 1.005c0 .383.145.701.438.953.293.255.654.383 1.082.383zm11.858 1.03c-.305.135-.68.27-1.123.405-.445.135-.91.202-1.395.202-.314 0-.611-.039-.887-.117a1.977 1.977 0 01-.727-.381 1.839 1.839 0 01-.5-.676c-.123-.276-.186-.611-.186-1.005v-5.085h-1.148v-1.739h1.148V8.197h2.264v2.872h1.875v1.739h-1.875v4.325c0 .315.084.537.254.667.168.13.371.193.607.193s.467-.039.693-.117c.225-.078.404-.146.539-.203l.461 1.792zm3.564.625c-.428 0-.828-.07-1.199-.212a2.775 2.775 0 01-1.596-1.478 2.67 2.67 0 01-.229-1.115c0-.416.092-.803.279-1.157.186-.354.443-.655.775-.903s.729-.442 1.189-.582a5.173 5.173 0 011.521-.213c.395 0 .779.035 1.158.102.377.068.711.164 1.004.288v-.507c0-.585-.166-1.035-.498-1.352-.332-.314-.824-.473-1.48-.473-.471 0-.934.084-1.383.253a6.458 6.458 0 00-1.387.743l-.691-1.436c1.139-.754 2.363-1.131 3.684-1.131 1.27 0 2.26.313 2.965.938.703.625 1.055 1.527 1.055 2.711v2.753c0 .235.045.405.135.507.092.102.248.158.475.168v1.926a5.3 5.3 0 01-1.082.119c-.428-.012-.754-.109-.979-.296a1.224 1.224 0 01-.424-.751l-.051-.49a3.915 3.915 0 01-1.436 1.182 4.093 4.093 0 01-1.805.406zm.643-1.655c.383 0 .744-.067 1.09-.203.342-.136.607-.315.801-.54.248-.192.373-.406.373-.643v-1.014a5.485 5.485 0 00-1.791-.338c-.586 0-1.064.133-1.438.397-.373.264-.557.599-.557 1.005 0 .383.146.701.439.953.294.255.653.383 1.083.383zm7.213 1.485v-6.08h-1.15V12.1h1.15v-1.099c0-1.103.268-1.976.803-2.617.533-.641 1.252-.964 2.152-.964.721 0 1.447.176 2.18.524l-.457 1.706a2.906 2.906 0 00-.598-.229 2.472 2.472 0 00-.637-.092c-.787 0-1.18.529-1.18 1.588V12.1h2.16v1.74h-2.16v6.08h-2.263zm9.914.17c-.721 0-1.369-.125-1.943-.372a4.353 4.353 0 01-2.381-2.466 4.792 4.792 0 01-.32-1.74c0-.619.107-1.205.32-1.757a4.385 4.385 0 01.922-1.46 4.326 4.326 0 011.459-1.006c.574-.248 1.225-.371 1.943-.371.721 0 1.365.123 1.934.371a4.37 4.37 0 011.455 1.006c.398.421.705.908.92 1.46a4.84 4.84 0 01.32 1.757c0 .607-.107 1.189-.32 1.74a4.578 4.578 0 01-.912 1.461 4.278 4.278 0 01-1.453 1.005c-.575.247-1.224.372-1.944.372zm-2.313-4.578c0 .395.059.752.176 1.072.119.322.281.6.49.836s.453.42.734.549c.281.13.586.194.912.194a2.148 2.148 0 001.646-.743c.209-.236.371-.518.49-.844a3.19 3.19 0 00.178-1.082c0-.382-.061-.736-.178-1.064a2.623 2.623 0 00-.49-.844 2.163 2.163 0 00-1.646-.743c-.326 0-.631.067-.912.203-.281.135-.525.321-.734.558s-.371.518-.49.844a3.082 3.082 0 00-.176 1.064zm13.697-2.484c-.688.013-1.301.144-1.84.397-.541.253-.93.633-1.166 1.141v5.354H205.1v-8.851h2.076v1.892a4.151 4.151 0 011.191-1.469c.49-.373 1.004-.559 1.547-.559.123 0 .217.004.277.01.061.005.119.014.178.023v2.062zm15.016 6.892h-2.264v-4.966c0-.71-.125-1.227-.371-1.555-.248-.325-.586-.489-1.014-.489-.439 0-.855.172-1.25.516-.395.344-.676.791-.846 1.343v5.151h-2.264v-4.966c0-.71-.119-1.227-.361-1.555-.242-.325-.578-.489-1.006-.489-.439 0-.857.17-1.26.508-.398.337-.684.781-.852 1.334v5.168h-2.264v-8.851h2.043v1.639a3.38 3.38 0 011.344-1.326c.566-.31 1.219-.464 1.949-.464.744 0 1.314.18 1.715.54s.662.806.785 1.335c.361-.609.816-1.074 1.369-1.395.551-.321 1.184-.48 1.893-.48.541 0 .984.102 1.334.303.35.203.617.468.811.795.191.326.324.698.398 1.114.072.417.107.839.107 1.267v5.523h.004zm4.375.17c-.426 0-.826-.07-1.197-.212a2.9 2.9 0 01-.963-.591 2.781 2.781 0 01-.635-.887 2.718 2.718 0 01-.229-1.115c0-.416.096-.803.279-1.157.188-.354.445-.655.777-.903s.729-.442 1.189-.582a5.163 5.163 0 011.521-.213c.395 0 .779.035 1.156.102.377.068.713.164 1.006.288v-.507c0-.585-.166-1.035-.498-1.352-.332-.314-.826-.473-1.479-.473-.473 0-.936.084-1.387.253a6.494 6.494 0 00-1.385.743l-.693-1.436c1.139-.754 2.365-1.131 3.684-1.131 1.271 0 2.262.313 2.965.938s1.057 1.527 1.057 2.711v2.753c0 .235.043.405.137.507.09.102.244.158.473.168v1.926a5.332 5.332 0 01-1.082.119c-.428-.012-.756-.109-.98-.296a1.219 1.219 0 01-.42-.751l-.053-.49c-.395.518-.873.911-1.436 1.182s-1.164.406-1.807.406zm.643-1.655c.383 0 .748-.067 1.09-.203.344-.136.611-.315.803-.54.248-.192.371-.406.371-.643v-1.014a5.494 5.494 0 00-.877-.245 4.733 4.733 0 00-.914-.093c-.584 0-1.063.133-1.436.397-.371.265-.559.599-.559 1.005 0 .383.146.701.439.953.295.255.655.383 1.083.383zm14.392 1.655a3.984 3.984 0 01-1.682-.355 3.986 3.986 0 01-1.324-.98 4.55 4.55 0 01-.871-1.46 5.086 5.086 0 01-.313-1.8c0-.641.098-1.238.297-1.789a4.673 4.673 0 01.816-1.453c.35-.416.768-.744 1.252-.98a3.568 3.568 0 011.586-.354c.643 0 1.227.157 1.748.473.523.314.934.726 1.227 1.232V7.589h2.264v9.73c0 .235.047.405.135.507.09.102.246.158.473.168v1.926a6.126 6.126 0 01-1.08.119c-.416-.012-.74-.107-.971-.287-.23-.181-.375-.434-.432-.76l-.051-.609a3.231 3.231 0 01-1.318 1.275 3.751 3.751 0 01-1.756.432zm.59-1.927c.215 0 .436-.036.66-.11.223-.072.434-.176.623-.311.193-.136.367-.293.523-.474a1.91 1.91 0 00.355-.592v-2.11a2.77 2.77 0 00-.938-1.233c-.436-.326-.889-.49-1.361-.49-.338 0-.65.073-.938.22a2.236 2.236 0 00-.734.6 2.964 2.964 0 00-.473.869c-.113.328-.17.666-.17 1.014 0 .373.063.717.188 1.031.123.314.295.592.514.828.223.235.48.422.777.557.302.134.626.201.974.201zm10.828 1.927c-.709 0-1.35-.121-1.924-.364a4.44 4.44 0 01-1.473-.987 4.435 4.435 0 01-.938-1.453 4.667 4.667 0 01-.328-1.74c0-.63.107-1.225.32-1.781a4.263 4.263 0 01.93-1.469 4.362 4.362 0 011.479-1.006c.58-.248 1.229-.371 1.951-.371.719 0 1.363.123 1.934.371.568.247 1.055.58 1.453.996.398.417.703.901.912 1.453.209.552.313 1.127.313 1.723 0 .146-.002.287-.008.423-.006.135-.02.247-.043.337h-6.842c.035.35.119.659.254.93.135.27.311.501.523.692.213.19.457.337.727.439.271.101.551.152.846.152.449 0 .873-.11 1.275-.329.398-.221.672-.51.816-.871l1.943.541c-.326.676-.848 1.23-1.564 1.664-.712.433-1.566.65-2.556.65zm2.297-5.338c-.055-.665-.301-1.197-.732-1.598-.436-.399-.959-.599-1.58-.599a2.28 2.28 0 00-.854.16c-.264.108-.498.257-.701.448s-.369.422-.5.692a2.48 2.48 0 00-.227.896l4.594.001zm3.699-7.163h2.264v9.393c0 .687.311 1.03.93 1.03.125 0 .268-.022.432-.068a5.4 5.4 0 00.465-.15l.305 1.807c-.305.146-.658.26-1.063.338a5.828 5.828 0 01-1.1.118c-.709 0-1.26-.188-1.646-.565-.391-.378-.584-.915-.584-1.613V7.589h-.003zm-111.838 32.77c-.361 0-.736-.027-1.123-.084-.389-.057-.77-.137-1.141-.236a8.211 8.211 0 01-1.066-.372 5.208 5.208 0 01-.893-.489l.91-1.537c1.127.731 2.215 1.098 3.26 1.098.475 0 .846-.084 1.115-.254a.805.805 0 00.406-.727c0-.314-.16-.549-.48-.699-.322-.154-.859-.318-1.613-.5a13.14 13.14 0 01-1.471-.422c-.404-.146-.73-.314-.979-.508a1.737 1.737 0 01-.543-.658 2.121 2.121 0 01-.166-.877c0-.451.088-.855.27-1.217.18-.361.43-.668.752-.921.32-.254.697-.448 1.131-.583s.904-.203 1.412-.203c.629 0 1.256.1 1.883.296a7.55 7.55 0 011.748.804l-.93 1.4a6.248 6.248 0 00-1.4-.684 4.31 4.31 0 00-1.318-.211c-.406 0-.748.078-1.02.236-.277.156-.416.409-.416.76 0 .305.133.522.396.658.266.137.734.287 1.41.457.629.157 1.17.313 1.613.473.443.158.811.338 1.098.541s.496.436.625.701c.131.265.195.582.195.953 0 .43-.088.816-.264 1.166-.174.35-.42.645-.734.887s-.701.428-1.156.559c-.454.129-.96.193-1.511.193zm9.205 0c-.709 0-1.352-.121-1.926-.363a4.4 4.4 0 01-1.469-.988 4.363 4.363 0 01-.938-1.451 4.684 4.684 0 01-.33-1.74c0-.631.107-1.226.32-1.782.215-.558.523-1.048.93-1.47s.898-.758 1.479-1.006c.582-.248 1.23-.371 1.951-.371s1.365.123 1.936.371c.568.248 1.053.58 1.453.998.398.416.703.899.91 1.451.207.553.313 1.127.313 1.723 0 .148-.002.289-.008.424a1.973 1.973 0 01-.041.338h-6.842c.033.349.117.658.254.929.135.271.309.501.521.692.215.191.457.339.729.439.27.102.553.151.844.151.449 0 .877-.11 1.275-.329.398-.221.674-.51.818-.871l1.941.541c-.326.676-.848 1.23-1.563 1.664s-1.566.65-2.557.65zm2.299-5.338c-.057-.664-.303-1.196-.736-1.597-.434-.399-.959-.6-1.578-.6a2.194 2.194 0 00-1.553.608c-.205.189-.371.42-.5.691-.131.27-.207.568-.229.895h4.596v.003zm3.174.745c0-.619.107-1.205.322-1.758a4.222 4.222 0 01.928-1.451c.406-.418.896-.75 1.471-.998s1.223-.371 1.943-.371c.967 0 1.791.209 2.477.625.68.416 1.188.963 1.525 1.64l-2.213.676a1.974 1.974 0 00-.76-.752 2.139 2.139 0 00-1.047-.263c-.326 0-.631.064-.912.195-.283.129-.527.31-.734.539a2.46 2.46 0 00-.49.838 3.181 3.181 0 00-.178 1.08c0 .395.063.754.188 1.08.123.326.289.608.498.846.209.236.451.418.732.549.281.13.58.193.896.193.404 0 .779-.102 1.125-.305.344-.201.582-.449.717-.742l2.213.676c-.305.676-.805 1.229-1.502 1.656-.699.428-1.539.641-2.52.641-.721 0-1.367-.125-1.941-.371a4.434 4.434 0 01-1.469-1.006 4.46 4.46 0 01-.939-1.469 4.745 4.745 0 01-.33-1.748zm15.389 3.968c-.305.135-.68.271-1.123.404a4.71 4.71 0 01-1.393.203 3.26 3.26 0 01-.889-.117 1.977 1.977 0 01-.727-.381 1.865 1.865 0 01-.5-.677c-.123-.274-.184-.608-.184-1.004v-5.086h-1.15V31.34h1.15v-2.871h2.262v2.871h1.875v1.738h-1.875v4.326c0 .314.084.537.254.666.168.13.371.193.607.193.238 0 .469-.037.693-.117.225-.078.404-.146.539-.203l.461 1.791zm5.101.625c-.721 0-1.367-.125-1.941-.373a4.353 4.353 0 01-1.463-1.004c-.396-.422-.705-.91-.92-1.461s-.32-1.133-.32-1.74c0-.619.105-1.205.32-1.756a4.448 4.448 0 01.92-1.461c.4-.422.889-.758 1.463-1.006s1.223-.371 1.941-.371c.721 0 1.365.123 1.934.371a4.364 4.364 0 012.373 2.467 4.79 4.79 0 01.322 1.756c0 .607-.107 1.189-.322 1.74a4.498 4.498 0 01-.912 1.461 4.245 4.245 0 01-1.449 1.004c-.577.248-1.225.373-1.946.373zm-2.314-4.578c0 .395.061.752.178 1.072.117.321.281.601.488.838.209.234.453.418.736.547.281.131.584.195.912.195.326 0 .631-.064.912-.195.281-.129.525-.313.732-.547.209-.237.371-.521.49-.846.119-.326.178-.688.178-1.08 0-.384-.059-.738-.178-1.064a2.633 2.633 0 00-.49-.846c-.207-.235-.451-.42-.732-.549s-.586-.195-.912-.195c-.328 0-.631.07-.912.203a2.312 2.312 0 00-.736.559 2.587 2.587 0 00-.488.846 3.094 3.094 0 00-.178 1.062zm13.699-2.482c-.688.012-1.301.143-1.84.396-.541.252-.93.634-1.166 1.141v5.355h-2.264V31.34h2.078v1.891c.303-.606.699-1.098 1.189-1.469s1.006-.559 1.547-.559c.123 0 .215.004.277.01s.121.014.178.025v2.061h.001zm9.088 7.06c-.711 0-1.352-.121-1.926-.363a4.419 4.419 0 01-1.471-.988 4.427 4.427 0 01-.938-1.451 4.682 4.682 0 01-.328-1.74c0-.631.107-1.226.32-1.782.215-.558.523-1.048.93-1.47s.898-.758 1.479-1.006 1.229-.371 1.949-.371c.723 0 1.365.123 1.936.371.568.248 1.053.58 1.453.998.398.416.703.899.912 1.451.207.553.313 1.127.313 1.723 0 .148-.004.289-.01.424-.006.136-.02.248-.041.338h-6.842c.035.349.119.658.254.929a2.275 2.275 0 001.25 1.131c.271.102.551.151.844.151.449 0 .875-.11 1.275-.329.4-.221.674-.51.82-.871l1.941.541c-.328.676-.848 1.23-1.563 1.664-.715.434-1.567.65-2.557.65zm2.297-5.338c-.057-.664-.303-1.196-.734-1.597-.434-.399-.961-.6-1.58-.6a2.216 2.216 0 00-1.553.608c-.203.189-.369.42-.5.691-.129.27-.205.568-.229.895h4.596v.003zm11.941 5.17h-2.262v-4.967c0-.711-.123-1.228-.371-1.556-.248-.325-.592-.487-1.031-.487-.225 0-.455.043-.691.133a2.636 2.636 0 00-.668.381 3.012 3.012 0 00-.564.584c-.17.225-.295.472-.373.742v5.17h-2.262V31.34h2.041v1.639a3.363 3.363 0 011.42-1.317c.619-.313 1.316-.474 2.096-.474.553 0 1.002.103 1.35.306.352.2.621.467.813.793.191.327.324.698.398 1.114.07.416.107.841.107 1.267v5.524h-.003zm6.067.168c-.711 0-1.354-.121-1.928-.363a4.4 4.4 0 01-1.469-.988 4.395 4.395 0 01-.938-1.451 4.682 4.682 0 01-.328-1.74 4.9 4.9 0 01.32-1.782 4.306 4.306 0 01.93-1.47 4.417 4.417 0 011.477-1.006c.582-.248 1.23-.371 1.951-.371s1.365.123 1.936.371c.568.248 1.053.58 1.453.998.398.416.703.899.91 1.451.209.553.314 1.127.314 1.723 0 .148-.004.289-.01.424-.006.136-.02.248-.041.338h-6.842c.035.349.119.658.252.929.137.271.311.501.525.692.213.191.455.339.725.439.271.102.555.151.848.151.447 0 .875-.11 1.273-.329.4-.221.672-.51.818-.871l1.941.541c-.324.676-.846 1.23-1.563 1.664-.711.434-1.566.65-2.554.65zm2.297-5.338c-.059-.664-.303-1.196-.736-1.597-.432-.399-.959-.6-1.578-.6a2.194 2.194 0 00-1.553.608c-.203.189-.369.42-.5.691-.129.27-.205.568-.229.895h4.596v.003zm8.986-1.722c-.688.012-1.303.143-1.842.396-.541.252-.932.634-1.166 1.141v5.355h-2.264V31.34h2.078v1.891a4.134 4.134 0 011.189-1.469c.49-.371 1.006-.559 1.547-.559.121 0 .217.004.277.01.063.006.121.014.178.025v2.061h.003zm4.728 6.942a3.651 3.651 0 01-1.611-.354 3.82 3.82 0 01-1.26-.971 4.573 4.573 0 01-.813-1.428 5.187 5.187 0 01-.287-1.723c0-.644.104-1.24.307-1.791.201-.554.48-1.037.842-1.453a3.92 3.92 0 011.295-.979 3.84 3.84 0 011.662-.354c.699 0 1.307.156 1.824.465.518.311.939.724 1.268 1.242V31.34h1.979v8.428c0 .654-.121 1.239-.365 1.758a3.725 3.725 0 01-1.02 1.318 4.693 4.693 0 01-1.555.826 6.417 6.417 0 01-1.961.287c-.979 0-1.799-.16-2.457-.48a4.926 4.926 0 01-1.695-1.36l1.23-1.198c.338.417.764.743 1.275.979a3.886 3.886 0 001.646.355c.35 0 .686-.049 1.004-.145.322-.096.604-.246.846-.447.242-.203.434-.463.574-.777.143-.314.211-.688.211-1.115v-1.113c-.293.507-.703.896-1.232 1.174s-1.099.411-1.707.411zm.778-1.807c.246 0 .482-.039.709-.117a2.474 2.474 0 001.115-.795 2.11 2.11 0 00.336-.574v-2.11a2.765 2.765 0 00-.943-1.25c-.43-.313-.879-.474-1.352-.474a1.99 1.99 0 00-.955.229c-.285.152-.531.354-.734.607s-.357.543-.465.869c-.109.328-.16.664-.16 1.014 0 .359.063.699.186 1.014.125.316.295.592.518.828a2.326 2.326 0 001.745.759zm6.453 1.757V31.34h2.262v8.852h-2.262v-.001zm1.705-9.882l-1.451-.438.91-2.01h2.111l-1.57 2.448zm5 10.05c-.43 0-.828-.07-1.197-.211a2.938 2.938 0 01-.967-.592 2.795 2.795 0 01-.633-.888 2.716 2.716 0 01-.229-1.114c0-.416.096-.803.279-1.156.186-.355.443-.656.777-.903a3.88 3.88 0 011.189-.583 5.197 5.197 0 011.521-.211c.393 0 .779.033 1.156.102.379.067.713.163 1.006.287v-.508c0-.584-.166-1.035-.498-1.352-.332-.314-.826-.474-1.479-.474-.473 0-.936.085-1.385.255-.451.17-.914.416-1.385.742l-.693-1.438c1.137-.754 2.365-1.131 3.684-1.131 1.271 0 2.26.313 2.965.938.703.625 1.055 1.528 1.055 2.711v2.754c0 .236.045.404.137.507.09.102.248.157.473.168v1.928a6.04 6.04 0 01-.6.092 5.081 5.081 0 01-.482.025c-.428-.012-.754-.109-.979-.295a1.21 1.21 0 01-.422-.752l-.053-.49c-.395.519-.873.912-1.436 1.183s-1.162.406-1.804.406zm.642-1.655c.383 0 .744-.067 1.09-.203.344-.134.611-.313.801-.54.248-.191.373-.404.373-.643v-1.014a5.36 5.36 0 00-.879-.244 4.64 4.64 0 00-.912-.094c-.586 0-1.063.133-1.436.396-.373.265-.559.601-.559 1.006 0 .383.146.699.439.953.294.256.656.383 1.083.383z" id="eslogan_x5F_blanco" fill="#343a40"/><path id="raya_x5F_blanca" fill="#343a40" d="M139.278 7.42h3.057v36.047h-3.057z"/></svg>