<svg xmlns="http://www.w3.org/2000/svg" width="287.997" height="287.998"><linearGradient id="a" gradientUnits="userSpaceOnUse" x1="70.803" y1="73.056" x2="251.329" y2="253.582"><stop offset="0" stop-color="#eebe47"/><stop offset=".12" stop-color="#f8db77"/><stop offset=".21" stop-color="#ffee96"/><stop offset=".446" stop-color="#a2621e"/><stop offset=".667" stop-color="#eea54c"/><stop offset="1" stop-color="#eebe47"/></linearGradient><circle fill="url(#a)" cx="143.495" cy="145.747" r="93.575"/><linearGradient id="b" gradientUnits="userSpaceOnUse" x1="-1284.989" y1="-1510.135" x2="-1108.623" y2="-1333.768" gradientTransform="rotate(180 -535.24 -646.686)"><stop offset="0" stop-color="#eebe47"/><stop offset=".12" stop-color="#f8db77"/><stop offset=".21" stop-color="#ffee96"/><stop offset=".446" stop-color="#a2621e"/><stop offset=".667" stop-color="#eea54c"/><stop offset="1" stop-color="#eebe47"/></linearGradient><circle fill="url(#b)" cx="143.494" cy="145.747" r="91.42"/><radialGradient id="c" cx="112.909" cy="82.243" r="173.047" gradientUnits="userSpaceOnUse"><stop offset="0" stop-color="#304053"/><stop offset=".226" stop-color="#2c3c4f"/><stop offset=".516" stop-color="#0d1d30"/><stop offset="1" stop-color="#060d29"/></radialGradient><circle fill="url(#c)" cx="143.495" cy="145.747" r="89.44"/><linearGradient id="d" gradientUnits="userSpaceOnUse" x1="-1279.806" y1="-1493.87" x2="-1149.709" y2="-1385.673" gradientTransform="rotate(180 -535.24 -646.686)"><stop offset="0" stop-color="#eebe47"/><stop offset=".12" stop-color="#f8db77"/><stop offset=".21" stop-color="#ffee96"/><stop offset=".446" stop-color="#a2621e"/><stop offset=".667" stop-color="#eea54c"/><stop offset="1" stop-color="#eebe47"/></linearGradient><circle fill="url(#d)" cx="143.495" cy="145.747" r="86.188"/><linearGradient id="e" gradientUnits="userSpaceOnUse" x1="78.988" y1="92.099" x2="206.466" y2="198.118"><stop offset="0" stop-color="#eebe47"/><stop offset=".12" stop-color="#f8db77"/><stop offset=".21" stop-color="#ffee96"/><stop offset=".446" stop-color="#a2621e"/><stop offset=".667" stop-color="#eea54c"/><stop offset="1" stop-color="#eebe47"/></linearGradient><circle fill="url(#e)" cx="143.494" cy="145.747" r="84.453"/><linearGradient id="f" gradientUnits="userSpaceOnUse" x1="97.785" y1="107.731" x2="188.115" y2="182.856"><stop offset="0" stop-color="#eebe47"/><stop offset=".12" stop-color="#f8db77"/><stop offset=".21" stop-color="#ffee96"/><stop offset=".446" stop-color="#a2621e"/><stop offset=".667" stop-color="#eea54c"/><stop offset="1" stop-color="#eebe47"/></linearGradient><circle fill="url(#f)" cx="143.494" cy="145.747" r="59.844"/><radialGradient id="g" cx="-1194.063" cy="-1408.719" r="111.376" gradientTransform="rotate(180 -535.24 -646.686)" gradientUnits="userSpaceOnUse"><stop offset=".059" stop-color="#2c3c4f"/><stop offset=".516" stop-color="#0d1d30"/><stop offset="1" stop-color="#060d29"/></radialGradient><circle fill="url(#g)" cx="143.494" cy="145.747" r="57.566"/><linearGradient id="h" gradientUnits="userSpaceOnUse" x1="102.257" y1="111.451" x2="183.75" y2="179.226"><stop offset="0" stop-color="#eebe47"/><stop offset=".12" stop-color="#f8db77"/><stop offset=".21" stop-color="#ffee96"/><stop offset=".446" stop-color="#a2621e"/><stop offset=".667" stop-color="#eea54c"/><stop offset="1" stop-color="#eebe47"/></linearGradient><path fill="url(#h)" d="M143.495 91.758c-29.818 0-53.99 24.172-53.99 53.989s24.172 53.989 53.99 53.989 53.99-24.172 53.99-53.989-24.172-53.989-53.99-53.989zm0 106.609c-29.062 0-52.621-23.559-52.621-52.62 0-29.062 23.559-52.621 52.621-52.621s52.621 23.559 52.621 52.621c-.001 29.062-23.559 52.62-52.621 52.62z"/><radialGradient id="i" cx="203.226" cy="158.043" r="135.441" gradientTransform="rotate(2.975 -539.08 -633.833)" gradientUnits="userSpaceOnUse"><stop offset=".059" stop-color="#2c3c4f"/><stop offset=".516" stop-color="#0d1d30"/><stop offset="1" stop-color="#060d29"/></radialGradient><path fill="url(#i)" d="M80.52 121.296l.145-1.075a4.98 4.98 0 001.035.216c.331.032.659.019.981-.037a1.92 1.92 0 00.875-.397c.263-.21.47-.487.624-.832.246-.554.281-1.051.108-1.491-.173-.44-.541-.783-1.105-1.033a2.71 2.71 0 00-1.541-.185c-.558.083-1.241.269-2.048.558l-2.854 1.019c-.625.222-1.18.36-1.66.412a2.617 2.617 0 01-1.356-.201c-.8-.355-1.322-.901-1.567-1.639-.246-.736-.187-1.517.178-2.341.356-.799.868-1.344 1.535-1.631.669-.286 1.469-.32 2.402-.1l.123.029-.118 1.035-.106-.031c-.653-.173-1.25-.178-1.79-.006-.54.171-.932.534-1.178 1.086-.24.541-.292 1.03-.16 1.472.134.44.468.78 1.002 1.018a2.13 2.13 0 001.067.163 5.9 5.9 0 001.322-.301l2.749-.931c.072-.026.255-.086.544-.186.289-.097.48-.162.573-.191.091-.029.27-.083.529-.158s.451-.12.573-.135l.523-.071c.227-.029.414-.035.565-.016.15.018.321.046.512.088.194.04.375.097.543.172.873.386 1.426.952 1.661 1.7.235.748.165 1.547-.213 2.399a3.001 3.001 0 01-.777 1.073c-.327.281-.69.478-1.091.591a4.225 4.225 0 01-1.258.157 5.604 5.604 0 01-1.347-.2z"/><radialGradient id="j" cx="203.222" cy="158.038" r="135.433" gradientTransform="rotate(2.975 -539.08 -633.833)" gradientUnits="userSpaceOnUse"><stop offset=".059" stop-color="#2c3c4f"/><stop offset=".516" stop-color="#0d1d30"/><stop offset="1" stop-color="#060d29"/></radialGradient><path fill="url(#j)" d="M87.044 114.963l-.604 1.024-10.166-9.072.782-1.324 12.852 4.524-.608 1.031-3.335-1.195-1.569 2.654 2.648 2.358zm-3.252-2.878l1.421-2.406-7.496-2.795 6.075 5.201z"/><radialGradient id="k" cx="203.225" cy="158.052" r="135.447" gradientTransform="rotate(2.975 -539.08 -633.833)" gradientUnits="userSpaceOnUse"><stop offset=".059" stop-color="#2c3c4f"/><stop offset=".516" stop-color="#0d1d30"/><stop offset="1" stop-color="#060d29"/></radialGradient><path fill="url(#k)" d="M91.383 108.139l-10.002-7.36-1.542 2.095-.764-.561 3.797-5.162.764.563-1.555 2.114 10.003 7.361-.701.95z"/><radialGradient id="l" cx="203.222" cy="158.043" r="135.436" gradientTransform="rotate(2.975 -539.08 -633.833)" gradientUnits="userSpaceOnUse"><stop offset=".059" stop-color="#2c3c4f"/><stop offset=".516" stop-color="#0d1d30"/><stop offset="1" stop-color="#060d29"/></radialGradient><path fill="url(#l)" d="M94.369 104.318l-10.135-8.716.77-.894 10.135 8.715-.77.895z"/><radialGradient id="m" cx="203.23" cy="158.047" r="135.446" gradientTransform="rotate(2.975 -539.08 -633.833)" gradientUnits="userSpaceOnUse"><stop offset=".059" stop-color="#2c3c4f"/><stop offset=".516" stop-color="#0d1d30"/><stop offset="1" stop-color="#060d29"/></radialGradient><path fill="url(#m)" d="M94.032 99.732l.531-.944c.292.237.584.432.881.583.296.151.604.261.922.329.322.068.641.054.963-.043a2.16 2.16 0 00.887-.542c.435-.422.651-.872.653-1.344.002-.473-.212-.929-.645-1.37-.356-.367-.81-.614-1.36-.744s-1.251-.209-2.109-.241l-3.029-.112c-.663-.024-1.227-.103-1.694-.232a2.603 2.603 0 01-1.184-.689c-.612-.625-.895-1.327-.85-2.103.046-.776.39-1.478 1.035-2.108.626-.612 1.303-.928 2.029-.946.728-.02 1.483.247 2.268.797l.104.072-.496.917-.087-.067c-.54-.405-1.094-.627-1.658-.669-.566-.039-1.065.149-1.499.573-.421.413-.653.848-.692 1.308-.041.46.144.897.553 1.315.246.252.557.434.93.547.374.113.821.182 1.339.209l2.898.155.574.03c.306.019.506.028.604.035.098.008.28.024.548.05.268.027.463.056.584.086.12.03.29.075.511.129.221.056.398.121.53.192a6.4 6.4 0 01.446.273c.163.107.31.227.44.361.666.682.97 1.414.912 2.192-.059.783-.422 1.498-1.088 2.149-.341.332-.713.57-1.12.709-.407.14-.816.188-1.233.146a4.188 4.188 0 01-1.226-.321 5.388 5.388 0 01-1.172-.682z"/><radialGradient id="n" cx="203.216" cy="158.041" r="135.431" gradientTransform="rotate(2.975 -539.08 -633.833)" gradientUnits="userSpaceOnUse"><stop offset=".059" stop-color="#2c3c4f"/><stop offset=".516" stop-color="#0d1d30"/><stop offset="1" stop-color="#060d29"/></radialGradient><path fill="url(#n)" d="M102.172 96.516L93.87 86.04l3.684-2.918.587.742-2.756 2.187 3.144 3.967 2.167-1.717.554.699-2.165 1.717 4.012 5.065-.925.734z"/><radialGradient id="o" cx="203.215" cy="158.045" r="135.435" gradientTransform="rotate(2.975 -539.08 -633.833)" gradientUnits="userSpaceOnUse"><stop offset=".059" stop-color="#2c3c4f"/><stop offset=".516" stop-color="#0d1d30"/><stop offset="1" stop-color="#060d29"/></radialGradient><path fill="url(#o)" d="M107.025 92.813l-1.002.639-4.96-12.689 1.297-.827 9.412 9.851-1.008.643-2.434-2.575-2.6 1.658 1.295 3.3zm-1.598-4.038l2.357-1.504-5.418-5.884 3.061 7.388z"/><radialGradient id="p" cx="203.224" cy="158.039" r="135.434" gradientTransform="rotate(2.975 -539.08 -633.833)" gradientUnits="userSpaceOnUse"><stop offset=".059" stop-color="#2c3c4f"/><stop offset=".516" stop-color="#0d1d30"/><stop offset="1" stop-color="#060d29"/></radialGradient><path fill="url(#p)" d="M111.22 85.685l-2.425-5.047a8.144 8.144 0 01-.479-1.209 4.481 4.481 0 01-.184-1.146c-.01-.385.045-.74.166-1.064.12-.325.322-.633.609-.927s.659-.548 1.117-.769c1.885-.906 3.417-.135 4.595 2.316l.235.488-1.015.489-.349-.729a5.972 5.972 0 00-.584-.985 2.97 2.97 0 00-.678-.671 1.557 1.557 0 00-.829-.282c-.303-.012-.624.063-.963.228-.309.147-.556.32-.743.517a1.62 1.62 0 00-.387.621c-.07.217-.095.46-.073.726.022.264.074.526.16.789.084.261.202.546.353.859l2.656 5.524c.189.396.383.726.58.992.196.264.422.485.676.665.257.179.545.271.87.271.322.005.672-.085 1.05-.267.342-.163.6-.367.78-.61a1.54 1.54 0 00.296-.83 3.034 3.034 0 00-.1-.952 6.042 6.042 0 00-.407-1.068l-.398-.828 1.015-.487.284.588c.203.424.364.824.48 1.199.117.375.187.753.207 1.137.021.384-.021.734-.128 1.051a2.452 2.452 0 01-.563.911c-.27.287-.621.536-1.055.745-.467.224-.907.356-1.321.397a2.628 2.628 0 01-1.109-.104 2.758 2.758 0 01-.928-.547 4.571 4.571 0 01-.767-.861 8.55 8.55 0 01-.644-1.13z"/><radialGradient id="q" cx="203.226" cy="158.046" r="135.441" gradientTransform="rotate(2.975 -539.08 -633.833)" gradientUnits="userSpaceOnUse"><stop offset=".059" stop-color="#2c3c4f"/><stop offset=".516" stop-color="#0d1d30"/><stop offset="1" stop-color="#060d29"/></radialGradient><path fill="url(#q)" d="M121.631 85.332l-4.133-11.711-2.455.865-.315-.893 6.043-2.133.314.894-2.475.874 4.134 11.712-1.113.392z"/><radialGradient id="r" cx="203.217" cy="158.039" r="135.431" gradientTransform="rotate(2.975 -539.08 -633.833)" gradientUnits="userSpaceOnUse"><stop offset=".059" stop-color="#2c3c4f"/><stop offset=".516" stop-color="#0d1d30"/><stop offset="1" stop-color="#060d29"/></radialGradient><path fill="url(#r)" d="M126.214 83.855l-3.49-12.901 1.141-.309 3.489 12.902-1.14.308z"/><radialGradient id="s" cx="203.221" cy="158.043" r="135.437" gradientTransform="rotate(2.975 -539.08 -633.833)" gradientUnits="userSpaceOnUse"><stop offset=".059" stop-color="#2c3c4f"/><stop offset=".516" stop-color="#0d1d30"/><stop offset="1" stop-color="#060d29"/></radialGradient><path fill="url(#s)" d="M128.781 79.133l-.936-5.52c-.079-.465-.116-.898-.113-1.298s.058-.785.162-1.158c.107-.372.264-.697.474-.979.209-.278.497-.521.862-.724a4.092 4.092 0 011.296-.434 4.03 4.03 0 011.369-.018c.411.071.761.206 1.051.4.29.195.547.451.768.767.222.317.401.665.535 1.04.135.377.243.798.32 1.262l.936 5.523c.455 2.683-.438 4.216-2.68 4.596-2.242.38-3.589-.772-4.044-3.457zm5.604-.682l-1.025-6.042c-.317-1.883-1.211-2.702-2.676-2.453-1.464.248-2.037 1.315-1.718 3.199l1.024 6.041c.32 1.89 1.212 2.709 2.678 2.461 1.465-.248 2.037-1.319 1.717-3.206z"/><radialGradient id="t" cx="203.222" cy="158.046" r="135.439" gradientTransform="rotate(2.975 -539.08 -633.833)" gradientUnits="userSpaceOnUse"><stop offset=".059" stop-color="#2c3c4f"/><stop offset=".516" stop-color="#0d1d30"/><stop offset="1" stop-color="#060d29"/></radialGradient><path fill="url(#t)" d="M138.192 81.629l-.461-13.358.909-.031 4.596 10.433-.365-10.58 1-.035.463 13.36-.886.029-4.596-10.208.358 10.354-1.018.036z"/><radialGradient id="u" cx="203.223" cy="158.04" r="135.433" gradientTransform="rotate(2.975 -539.08 -633.833)" gradientUnits="userSpaceOnUse"><stop offset=".059" stop-color="#2c3c4f"/><stop offset=".516" stop-color="#0d1d30"/><stop offset="1" stop-color="#060d29"/></radialGradient><path fill="url(#u)" d="M153.91 78.472l1.141-5.554c.556-2.708 1.982-3.828 4.28-3.355.364.074.688.183.968.325.279.143.508.305.686.486.176.182.318.397.43.647.108.248.186.501.229.752.043.251.062.539.052.861a8.705 8.705 0 01-.07.929c-.04.296-.097.625-.17.985l-.019.092-1.157-.238.021-.099c.003-.021.011-.053.021-.1.074-.37.129-.652.16-.843.033-.191.065-.448.098-.765.035-.318.026-.568-.021-.75a3.482 3.482 0 00-.212-.583 1.12 1.12 0 00-.452-.496 2.458 2.458 0 00-.768-.281c-.428-.087-.806-.089-1.14-.007-.335.08-.612.234-.832.459a2.767 2.767 0 00-.533.763 4.149 4.149 0 00-.313.966l-1.342 6.543a4.078 4.078 0 00-.093.919c.005.278.06.556.157.829.101.275.286.511.559.705.271.198.626.339 1.061.429.4.083.758.082 1.07-.003.314-.082.566-.234.76-.45.191-.216.344-.451.458-.703.11-.251.2-.537.266-.858l.454-2.211-1.605-.331.18-.874 2.763.565-1.282 6.245-.51-.104-.08-1.348a2.183 2.183 0 01-1.139.892 2.774 2.774 0 01-1.54.104 4.698 4.698 0 01-.942-.293 3.567 3.567 0 01-.706-.402 2.325 2.325 0 01-.495-.51 2.67 2.67 0 01-.493-1.168 4.39 4.39 0 01-.067-.601 6.79 6.79 0 01.087-1.114c.017-.131.045-.283.08-.455z"/><radialGradient id="v" cx="203.224" cy="158.04" r="135.433" gradientTransform="rotate(2.975 -539.08 -633.833)" gradientUnits="userSpaceOnUse"><stop offset=".059" stop-color="#2c3c4f"/><stop offset=".516" stop-color="#0d1d30"/><stop offset="1" stop-color="#060d29"/></radialGradient><path fill="url(#v)" d="M162.561 80.852l3.321-9.516 1.116.387-3.41 9.776c-.255.722-.278 1.319-.074 1.788.203.467.693.838 1.472 1.11.733.257 1.317.26 1.756.012.438-.249.78-.73 1.031-1.45l3.412-9.774 1.106.386-3.322 9.518c-.767 2.2-2.2 2.934-4.296 2.202a4.756 4.756 0 01-1.27-.641c-.343-.25-.6-.518-.774-.801a2.491 2.491 0 01-.337-.93 3.38 3.38 0 01-.002-1.004c.05-.332.14-.686.271-1.063z"/><radialGradient id="w" cx="203.224" cy="158.043" r="135.435" gradientTransform="rotate(2.975 -539.08 -633.833)" gradientUnits="userSpaceOnUse"><stop offset=".059" stop-color="#2c3c4f"/><stop offset=".516" stop-color="#0d1d30"/><stop offset="1" stop-color="#060d29"/></radialGradient><path fill="url(#w)" d="M170.32 87.296l-1.062-.532 8.329-10.781 1.377.687-3.605 13.139-1.069-.534.956-3.411-2.761-1.377-2.165 2.809zm2.641-3.449l2.504 1.249 2.258-7.674-4.762 6.425z"/><radialGradient id="x" cx="203.223" cy="158.049" r="135.442" gradientTransform="rotate(2.975 -539.08 -633.833)" gradientUnits="userSpaceOnUse"><stop offset=".059" stop-color="#2c3c4f"/><stop offset=".516" stop-color="#0d1d30"/><stop offset="1" stop-color="#060d29"/></radialGradient><path fill="url(#x)" d="M176.682 90.602l7.398-11.133 2.969 1.973c.374.25.671.521.886.813.216.293.355.583.415.869.062.286.063.591.003.914a3.858 3.858 0 01-.296.933 7.446 7.446 0 01-.533.937c-.944 1.418-2.059 1.974-3.347 1.665l-1.971 6.7-1.048-.696 1.986-6.514-1.869-1.241-3.609 5.433-.984-.653zm5.117-5.57l1.98 1.315c.28.187.555.288.822.304.27.018.521-.046.756-.189.232-.142.445-.312.633-.51.188-.199.378-.445.57-.733.157-.236.287-.458.391-.663a3.27 3.27 0 00.239-.643c.058-.223.075-.429.054-.622a1.301 1.301 0 00-.212-.565 1.748 1.748 0 00-.517-.501l-1.979-1.315-2.737 4.122z"/><radialGradient id="y" cx="203.22" cy="158.046" r="135.439" gradientTransform="rotate(2.975 -539.08 -633.833)" gradientUnits="userSpaceOnUse"><stop offset=".059" stop-color="#2c3c4f"/><stop offset=".516" stop-color="#0d1d30"/><stop offset="1" stop-color="#060d29"/></radialGradient><path fill="url(#y)" d="M183.849 95.627l-.9-.776 10.725-8.402 1.164 1.001-6.722 11.853-.905-.782 1.764-3.073-2.336-2.011-2.79 2.19zm3.407-2.692l2.117 1.824 4.076-6.885-6.193 5.061z"/><radialGradient id="z" cx="203.223" cy="158.038" r="135.429" gradientTransform="rotate(2.975 -539.08 -633.833)" gradientUnits="userSpaceOnUse"><stop offset=".059" stop-color="#2c3c4f"/><stop offset=".516" stop-color="#0d1d30"/><stop offset="1" stop-color="#060d29"/></radialGradient><path fill="url(#z)" d="M189.202 100.394l9.923-8.955.609.673-5.024 10.235 7.86-7.091.67.743-9.921 8.956-.594-.658 4.851-10.088-7.692 6.941-.682-.756z"/><radialGradient id="A" cx="203.215" cy="158.04" r="135.436" gradientTransform="rotate(2.975 -539.08 -633.833)" gradientUnits="userSpaceOnUse"><stop offset=".059" stop-color="#2c3c4f"/><stop offset=".516" stop-color="#0d1d30"/><stop offset="1" stop-color="#060d29"/></radialGradient><path fill="url(#A)" d="M195.418 107.781l10.094-7.235-1.518-2.116.771-.551 3.732 5.206-.771.554-1.528-2.134-10.093 7.236-.687-.96z"/><radialGradient id="B" cx="203.221" cy="158.042" r="135.435" gradientTransform="rotate(2.975 -539.08 -633.833)" gradientUnits="userSpaceOnUse"><stop offset=".059" stop-color="#2c3c4f"/><stop offset=".516" stop-color="#0d1d30"/><stop offset="1" stop-color="#060d29"/></radialGradient><path fill="url(#B)" d="M198.124 111.737l11.55-6.726 2.347 4.028-.819.478-1.751-3.008-4.376 2.547 1.25 2.148-.771.448-1.251-2.146-4.765 2.774 1.751 3.008-.818.476-2.347-4.027z"/><radialGradient id="C" cx="203.217" cy="158.038" r="135.432" gradientTransform="rotate(2.975 -539.08 -633.833)" gradientUnits="userSpaceOnUse"><stop offset=".059" stop-color="#2c3c4f"/><stop offset=".516" stop-color="#0d1d30"/><stop offset="1" stop-color="#060d29"/></radialGradient><path fill="url(#C)" d="M201.197 117.247l12.146-5.579 1.947 4.232-.861.397-1.453-3.161-4.6 2.112 1.036 2.258-.812.374-1.038-2.258-5.011 2.304 1.452 3.16-.86.396-1.946-4.235z"/><radialGradient id="D" cx="150.298" cy="205.293" r="135.433" gradientTransform="rotate(-.934 -524.85 -686.026)" gradientUnits="userSpaceOnUse"><stop offset=".059" stop-color="#2c3c4f"/><stop offset=".516" stop-color="#0d1d30"/><stop offset="1" stop-color="#060d29"/></radialGradient><path fill="url(#D)" d="M74.822 178.1l.744.779a4.831 4.831 0 00-.81.666c-.23.238-.424.5-.581.783a1.884 1.884 0 00-.236.926c-.002.334.083.668.256 1.001.277.534.641.87 1.089 1.009.448.139.942.067 1.487-.215.453-.234.818-.594 1.101-1.078.28-.484.563-1.13.838-1.934l.985-2.846c.217-.621.454-1.139.711-1.543a2.578 2.578 0 011-.926c.771-.4 1.519-.467 2.24-.198.726.268 1.292.8 1.704 1.594.401.772.503 1.507.313 2.202-.195.696-.666 1.338-1.414 1.922l-.099.078-.73-.734.089-.064c.542-.396.914-.855 1.116-1.382.204-.525.168-1.054-.111-1.589-.267-.52-.615-.865-1.041-1.037-.425-.17-.893-.122-1.41.146a2.07 2.07 0 00-.787.726 5.78 5.78 0 00-.59 1.212l-.985 2.709c-.026.071-.092.249-.195.536-.104.284-.173.473-.208.563-.035.092-.103.26-.208.506a4.288 4.288 0 01-.249.531c-.065.105-.156.254-.272.449-.117.194-.229.344-.337.448s-.238.218-.387.344a2.478 2.478 0 01-.472.313c-.839.437-1.624.513-2.348.23-.723-.281-1.301-.833-1.726-1.654a3.007 3.007 0 01-.35-1.271 2.838 2.838 0 01.219-1.211c.161-.383.382-.74.661-1.073.28-.334.61-.64.993-.918z"/><radialGradient id="E" cx="150.302" cy="205.294" r="135.44" gradientTransform="rotate(-.934 -524.85 -686.026)" gradientUnits="userSpaceOnUse"><stop offset=".059" stop-color="#2c3c4f"/><stop offset=".516" stop-color="#0d1d30"/><stop offset="1" stop-color="#060d29"/></radialGradient><path fill="url(#E)" d="M76.561 187.92l-.652-.982 12.507-5.162.847 1.271-9.606 9.531-.659-.989 2.512-2.465-1.693-2.552-3.256 1.348zm3.98-1.662l1.536 2.313 5.745-5.492-7.281 3.179z"/><radialGradient id="F" cx="150.295" cy="205.292" r="135.429" gradientTransform="rotate(-.934 -524.85 -686.026)" gradientUnits="userSpaceOnUse"><stop offset=".059" stop-color="#2c3c4f"/><stop offset=".516" stop-color="#0d1d30"/><stop offset="1" stop-color="#060d29"/></radialGradient><path fill="url(#F)" d="M81.773 195.244l9.593-7.754-1.626-2.012.734-.591 3.999 4.95-.73.591-1.639-2.027-9.593 7.753-.738-.91z"/><radialGradient id="G" cx="150.307" cy="205.293" r="135.449" gradientTransform="rotate(-.934 -524.85 -686.026)" gradientUnits="userSpaceOnUse"><stop offset=".059" stop-color="#2c3c4f"/><stop offset=".516" stop-color="#0d1d30"/><stop offset="1" stop-color="#060d29"/></radialGradient><path fill="url(#G)" d="M85.365 199.446l9.714-9.049.8.858-9.715 9.049-.799-.858z"/><radialGradient id="H" cx="150.301" cy="205.294" r="135.439" gradientTransform="rotate(-.934 -524.85 -686.026)" gradientUnits="userSpaceOnUse"><stop offset=".059" stop-color="#2c3c4f"/><stop offset=".516" stop-color="#0d1d30"/><stop offset="1" stop-color="#060d29"/></radialGradient><path fill="url(#H)" d="M90.135 199.877l.966.477a4.91 4.91 0 00-.53.904 3.756 3.756 0 00-.273.936 1.9 1.9 0 00.098.951c.114.314.31.598.589.851.441.403.898.595 1.368.57.468-.025.908-.264 1.319-.716.345-.375.565-.84.662-1.391.095-.553.136-1.256.119-2.105l-.06-3.012c-.012-.658.033-1.225.135-1.695a2.6 2.6 0 01.616-1.212c.588-.64 1.265-.962 2.037-.96.771 0 1.488.304 2.15.907.641.585.992 1.239 1.052 1.958.06.721-.161 1.484-.663 2.294l-.065.106-.937-.438.059-.089c.374-.559.563-1.12.572-1.684.01-.563-.207-1.047-.653-1.453-.431-.395-.877-.6-1.334-.613-.458-.014-.883.193-1.274.622-.236.259-.4.577-.488.954a5.73 5.73 0 00-.135 1.342l.011 2.881.002.57c.002.306 0 .506 0 .603 0 .095-.007.278-.018.546-.013.268-.03.461-.055.584-.022.119-.055.295-.098.516-.042.221-.096.4-.162.536a6.722 6.722 0 01-.243.456 2.64 2.64 0 01-.335.459c-.638.699-1.345 1.04-2.124 1.025-.777-.013-1.509-.332-2.192-.957a2.975 2.975 0 01-.767-1.069 2.842 2.842 0 01-.214-1.214 4.25 4.25 0 01.251-1.235c.147-.409.351-.811.614-1.205z"/><radialGradient id="I" cx="150.305" cy="205.294" r="135.447" gradientTransform="rotate(-.934 -524.85 -686.026)" gradientUnits="userSpaceOnUse"><stop offset=".059" stop-color="#2c3c4f"/><stop offset=".516" stop-color="#0d1d30"/><stop offset="1" stop-color="#060d29"/></radialGradient><path fill="url(#I)" d="M94.768 208.17l7.968-10.619 3.733 2.799-.565.753-2.795-2.097-3.018 4.024 2.198 1.647-.531.711-2.198-1.648-3.852 5.135-.94-.705z"/><radialGradient id="J" cx="150.31" cy="205.292" r="135.458" gradientTransform="rotate(-.934 -524.85 -686.026)" gradientUnits="userSpaceOnUse"><stop offset=".059" stop-color="#2c3c4f"/><stop offset=".516" stop-color="#0d1d30"/><stop offset="1" stop-color="#060d29"/></radialGradient><path fill="url(#J)" d="M100.483 212.271l-1.008-.615 9.163-9.959 1.303.796-4.686 12.695-1.014-.62 1.236-3.295-2.611-1.596-2.383 2.594zm2.906-3.187l2.369 1.449 2.89-7.402-5.259 5.953z"/><radialGradient id="K" cx="150.304" cy="205.295" r="135.445" gradientTransform="rotate(-.934 -524.85 -686.026)" gradientUnits="userSpaceOnUse"><stop offset=".059" stop-color="#2c3c4f"/><stop offset=".516" stop-color="#0d1d30"/><stop offset="1" stop-color="#060d29"/></radialGradient><path fill="url(#K)" d="M108.979 212.809l2.361-5.035c.202-.428.413-.805.632-1.125.22-.324.476-.611.765-.861a2.87 2.87 0 01.924-.542c.327-.112.69-.149 1.096-.112s.837.164 1.293.378c1.883.882 2.248 2.544 1.101 4.989l-.23.487-1.011-.474.34-.726c.181-.388.313-.743.394-1.068.083-.324.111-.64.09-.941a1.51 1.51 0 00-.306-.816c-.178-.241-.437-.44-.777-.6a2.477 2.477 0 00-.864-.249 1.65 1.65 0 00-.722.094c-.21.081-.413.215-.602.397-.19.183-.363.389-.509.619a6.766 6.766 0 00-.441.811l-2.584 5.511a6.202 6.202 0 00-.4 1.068 2.906 2.906 0 00-.086.939c.021.31.134.588.335.839.199.251.489.466.865.641.341.159.66.232.959.217.301-.017.575-.114.824-.292.248-.178.472-.402.669-.674.199-.271.387-.599.569-.984l.387-.826 1.011.475-.274.589a8.6 8.6 0 01-.622 1.122 4.664 4.664 0 01-.746.872 2.773 2.773 0 01-.891.563c-.31.119-.66.163-1.052.135-.39-.025-.801-.141-1.235-.345-.465-.218-.844-.474-1.135-.767-.292-.293-.498-.6-.617-.92s-.174-.672-.162-1.057c.014-.382.073-.76.182-1.132.113-.372.268-.773.469-1.2z"/><radialGradient id="L" cx="150.295" cy="205.291" r="135.433" gradientTransform="rotate(-.934 -524.85 -686.026)" gradientUnits="userSpaceOnUse"><stop offset=".059" stop-color="#2c3c4f"/><stop offset=".516" stop-color="#0d1d30"/><stop offset="1" stop-color="#060d29"/></radialGradient><path fill="url(#L)" d="M117.004 220.45l4.095-11.636-2.438-.857.314-.889 6.002 2.115-.312.887-2.46-.865-4.094 11.635-1.107-.39z"/><radialGradient id="M" cx="150.3" cy="205.292" r="135.441" gradientTransform="rotate(-.934 -524.85 -686.026)" gradientUnits="userSpaceOnUse"><stop offset=".059" stop-color="#2c3c4f"/><stop offset=".516" stop-color="#0d1d30"/><stop offset="1" stop-color="#060d29"/></radialGradient><path fill="url(#M)" d="M122.245 222.135l3.525-12.799 1.132.313-3.529 12.799-1.128-.313z"/><radialGradient id="N" cx="150.305" cy="205.296" r="135.445" gradientTransform="rotate(-.934 -524.85 -686.026)" gradientUnits="userSpaceOnUse"><stop offset=".059" stop-color="#2c3c4f"/><stop offset=".516" stop-color="#0d1d30"/><stop offset="1" stop-color="#060d29"/></radialGradient><path fill="url(#N)" d="M127.025 219.464l.994-5.474a7.58 7.58 0 01.333-1.248c.138-.371.319-.714.544-1.025a2.9 2.9 0 01.77-.755 2.716 2.716 0 011.05-.384 4 4 0 011.359.034c.495.089.923.238 1.282.444.36.207.643.449.848.729.204.281.357.606.458.978.102.371.151.755.149 1.152a7.588 7.588 0 01-.128 1.285l-.995 5.474c-.482 2.661-1.836 3.79-4.057 3.386-2.221-.402-3.09-1.934-2.607-4.596zm5.466 1.259l1.086-5.988c.339-1.867-.218-2.934-1.672-3.196-1.452-.265-2.345.538-2.685 2.405l-1.086 5.988c-.342 1.871.216 2.939 1.667 3.203 1.453.263 2.348-.54 2.69-2.412z"/><radialGradient id="O" cx="150.3" cy="205.295" r="135.438" gradientTransform="rotate(-.934 -524.85 -686.026)" gradientUnits="userSpaceOnUse"><stop offset=".059" stop-color="#2c3c4f"/><stop offset=".516" stop-color="#0d1d30"/><stop offset="1" stop-color="#060d29"/></radialGradient><path fill="url(#O)" d="M136.288 224.83l.743-13.256.9.051 3.613 10.732.587-10.498.992.057-.741 13.254-.878-.049-3.629-10.51-.575 10.275-1.012-.056z"/><radialGradient id="P" cx="150.299" cy="205.295" r="135.439" gradientTransform="rotate(-.934 -524.85 -686.026)" gradientUnits="userSpaceOnUse"><stop offset=".059" stop-color="#2c3c4f"/><stop offset=".516" stop-color="#0d1d30"/><stop offset="1" stop-color="#060d29"/></radialGradient><path fill="url(#P)" d="M152.826 220.938l-.92-5.555c-.451-2.711.475-4.256 2.771-4.637a3.812 3.812 0 011.016-.042c.309.032.578.1.807.206.229.105.438.254.629.447.191.191.352.398.482.615.131.219.249.479.355.781.107.304.195.6.264.887.068.288.134.613.193.974l.015.091-1.156.191-.017-.098-.016-.1a13.165 13.165 0 00-.333-1.583c-.082-.306-.178-.536-.286-.688a3.653 3.653 0 00-.404-.464 1.125 1.125 0 00-.598-.302 2.476 2.476 0 00-.811.014c-.428.071-.781.202-1.061.399a1.7 1.7 0 00-.606.721c-.127.287-.2.586-.224.897-.024.312-.008.647.055 1.009l1.083 6.545c.056.334.134.629.241.887.104.256.251.494.441.712.191.219.445.371.767.455.322.085.701.091 1.137.018.401-.065.732-.192.993-.382.262-.188.44-.418.542-.688.102-.269.159-.542.175-.814a4.092 4.092 0 00-.057-.89l-.368-2.215-1.604.267-.146-.876 2.764-.456 1.034 6.247-.51.085-.555-1.222c-.098.48-.344.891-.736 1.232a2.794 2.794 0 01-1.394.645 4.46 4.46 0 01-.978.064 3.696 3.696 0 01-.797-.121 2.235 2.235 0 01-.639-.298 3.159 3.159 0 01-.5-.405 2.637 2.637 0 01-.375-.502 4.684 4.684 0 01-.277-.533 4.588 4.588 0 01-.188-.555 6.29 6.29 0 01-.128-.511 15.395 15.395 0 01-.08-.452z"/><radialGradient id="Q" cx="150.299" cy="205.294" r="135.441" gradientTransform="rotate(-.934 -524.85 -686.026)" gradientUnits="userSpaceOnUse"><stop offset=".059" stop-color="#2c3c4f"/><stop offset=".516" stop-color="#0d1d30"/><stop offset="1" stop-color="#060d29"/></radialGradient><path fill="url(#Q)" d="M162.07 219.696l-2.843-9.601 1.125-.332 2.917 9.859c.217.729.545 1.225.979 1.484.436.259 1.047.273 1.831.041.74-.219 1.215-.556 1.424-1.008.207-.455.206-1.044-.009-1.768l-2.919-9.861 1.117-.33 2.844 9.602c.656 2.219-.073 3.641-2.189 4.268-.508.15-.975.224-1.395.22-.422-.005-.785-.069-1.089-.196a2.47 2.47 0 01-.813-.557 3.382 3.382 0 01-.585-.809 6.193 6.193 0 01-.395-1.012z"/><radialGradient id="R" cx="150.3" cy="205.297" r="135.427" gradientTransform="rotate(-.934 -524.85 -686.026)" gradientUnits="userSpaceOnUse"><stop offset=".059" stop-color="#2c3c4f"/><stop offset=".516" stop-color="#0d1d30"/><stop offset="1" stop-color="#060d29"/></radialGradient><path fill="url(#R)" d="M173.07 219.539l-1.084.465-2.822-13.234 1.402-.601 7.644 11.167-1.089.468-1.974-2.915-2.813 1.207.736 3.443zm-.917-4.215l2.553-1.094-4.366-6.638 1.813 7.732z"/><radialGradient id="S" cx="150.3" cy="205.293" r="135.441" gradientTransform="rotate(-.934 -524.85 -686.026)" gradientUnits="userSpaceOnUse"><stop offset=".059" stop-color="#2c3c4f"/><stop offset=".516" stop-color="#0d1d30"/><stop offset="1" stop-color="#060d29"/></radialGradient><path fill="url(#S)" d="M180.634 216.105l-6.59-11.527 3.073-1.756c.389-.222.762-.363 1.118-.425s.675-.056.956.017c.281.074.553.209.813.406.261.197.492.424.694.678.202.255.4.552.596.893.839 1.469.834 2.705-.012 3.71l5.069 4.734-1.084.621-4.898-4.665-1.935 1.105 3.215 5.627-1.015.582zm-2.665-7.025l2.048-1.171c.292-.166.504-.364.638-.595.135-.231.191-.482.169-.754a2.977 2.977 0 00-.173-.791 5.427 5.427 0 00-.396-.832 5.926 5.926 0 00-.415-.642 3.058 3.058 0 00-.461-.497c-.173-.152-.349-.26-.529-.326s-.378-.088-.597-.063a1.764 1.764 0 00-.674.233l-2.05 1.172 2.44 4.266z"/><radialGradient id="T" cx="150.303" cy="205.295" r="135.427" gradientTransform="rotate(-.934 -524.85 -686.026)" gradientUnits="userSpaceOnUse"><stop offset=".059" stop-color="#2c3c4f"/><stop offset=".516" stop-color="#0d1d30"/><stop offset="1" stop-color="#060d29"/></radialGradient><path fill="url(#T)" d="M189.07 210.972l-.952.7-5.751-12.25 1.23-.904 9.977 9.141-.955.704-2.584-2.392-2.467 1.814 1.502 3.187zm-1.849-3.897l2.236-1.644-5.76-5.476 3.524 7.12z"/><radialGradient id="U" cx="150.301" cy="205.295" r="135.432" gradientTransform="rotate(-.934 -524.85 -686.026)" gradientUnits="userSpaceOnUse"><stop offset=".059" stop-color="#2c3c4f"/><stop offset=".516" stop-color="#0d1d30"/><stop offset="1" stop-color="#060d29"/></radialGradient><path fill="url(#U)" d="M195.668 205.899l-9.054-9.711.659-.615 10.248 4.825-7.171-7.692.729-.678 9.052 9.71-.645.601-10.097-4.655 7.017 7.527-.738.688z"/><radialGradient id="V" cx="150.299" cy="205.295" r="135.439" gradientTransform="rotate(-.934 -524.85 -686.026)" gradientUnits="userSpaceOnUse"><stop offset=".059" stop-color="#2c3c4f"/><stop offset=".516" stop-color="#0d1d30"/><stop offset="1" stop-color="#060d29"/></radialGradient><path fill="url(#V)" d="M203.239 198.332l-9.311-8.091-1.695 1.95-.71-.616 4.175-4.806.71.619-1.71 1.967 9.31 8.093-.769.884z"/><radialGradient id="W" cx="150.305" cy="205.298" r="135.417" gradientTransform="rotate(-.934 -524.85 -686.026)" gradientUnits="userSpaceOnUse"><stop offset=".059" stop-color="#2c3c4f"/><stop offset=".516" stop-color="#0d1d30"/><stop offset="1" stop-color="#060d29"/></radialGradient><path fill="url(#W)" d="M206.849 193.971l-10.753-7.786 2.715-3.749.764.553-2.027 2.797 4.071 2.951 1.452-1.998.717.52-1.449 1.998 4.437 3.213 2.025-2.801.762.555-2.714 3.747z"/><radialGradient id="X" cx="150.303" cy="205.296" r="135.426" gradientTransform="rotate(-.934 -524.85 -686.026)" gradientUnits="userSpaceOnUse"><stop offset=".059" stop-color="#2c3c4f"/><stop offset=".516" stop-color="#0d1d30"/><stop offset="1" stop-color="#060d29"/></radialGradient><path fill="url(#X)" d="M210.931 188.077l-11.41-6.786 2.366-3.978.811.481-1.767 2.969 4.321 2.57 1.262-2.119.764.453-1.263 2.121 4.707 2.799 1.766-2.969.811.479-2.368 3.98z"/><radialGradient id="Y" cx="147.058" cy="243.556" r="271.644" gradientUnits="userSpaceOnUse"><stop offset=".059" stop-color="#2c3c4f"/><stop offset=".516" stop-color="#0d1d30"/><stop offset="1" stop-color="#060d29"/></radialGradient><path fill="url(#Y)" d="M219.922 150.775l-4.237-2.509-4.236 2.512 1.077-4.803-3.699-3.252 4.902-.461 1.95-4.522 1.954 4.52 4.902.457-3.695 3.254z"/><radialGradient id="Z" cx="-121.387" cy="380.108" r="195.559" gradientTransform="rotate(-18.432 -482.961 -660.938)" gradientUnits="userSpaceOnUse"><stop offset=".059" stop-color="#2c3c4f"/><stop offset=".516" stop-color="#0d1d30"/><stop offset="1" stop-color="#060d29"/></radialGradient><path fill="url(#Z)" d="M217.785 132.458l-3.467-.749-2.318 2.68-.359-3.527-3.266-1.379 3.243-1.43.303-3.532 2.363 2.642 3.451-.804-1.783 3.064z"/><radialGradient id="aa" cx="379.384" cy="-42.477" r="195.57" gradientTransform="rotate(19.248 -489.799 -609.837)" gradientUnits="userSpaceOnUse"><stop offset=".059" stop-color="#2c3c4f"/><stop offset=".516" stop-color="#0d1d30"/><stop offset="1" stop-color="#060d29"/></radialGradient><path fill="url(#aa)" d="M215.283 166.605l-2.285-2.71-3.474.703 1.872-3.012-1.742-3.086 3.441.85 2.398-2.612.255 3.537 3.224 1.475-3.285 1.334z"/><radialGradient id="ab" cx="-1314.323" cy="243.556" r="271.645" gradientTransform="matrix(-1 0 0 1 -1175.852 0)" gradientUnits="userSpaceOnUse"><stop offset=".059" stop-color="#2c3c4f"/><stop offset=".516" stop-color="#0d1d30"/><stop offset="1" stop-color="#060d29"/></radialGradient><path fill="url(#ab)" d="M65.606 150.775l4.238-2.509 4.234 2.512-1.076-4.803 3.698-3.252-4.902-.461-1.949-4.522-1.954 4.52-4.903.457 3.696 3.254z"/><radialGradient id="ac" cx="-1507.88" cy="-81.85" r="195.591" gradientTransform="scale(-1 1) rotate(-18.428 104.924 -4285.416)" gradientUnits="userSpaceOnUse"><stop offset=".059" stop-color="#2c3c4f"/><stop offset=".516" stop-color="#0d1d30"/><stop offset="1" stop-color="#060d29"/></radialGradient><path fill="url(#ac)" d="M67.744 132.458l3.465-.749 2.319 2.68.359-3.527 3.267-1.379-3.244-1.43-.303-3.532-2.363 2.642-3.452-.804 1.784 3.064z"/><radialGradient id="ad" cx="-1000.268" cy="439.332" r="195.577" gradientTransform="scale(-1 1) rotate(19.25 98.098 2856.91)" gradientUnits="userSpaceOnUse"><stop offset=".059" stop-color="#2c3c4f"/><stop offset=".516" stop-color="#0d1d30"/><stop offset="1" stop-color="#060d29"/></radialGradient><path fill="url(#ad)" d="M70.245 166.605l2.285-2.71 3.474.703-1.872-3.012 1.743-3.086-3.442.85-2.398-2.612-.255 3.537-3.224 1.475 3.285 1.334z"/><linearGradient id="ae" gradientUnits="userSpaceOnUse" x1="101.695" y1="136.311" x2="202.735" y2="223.041"><stop offset="0" stop-color="#eebe47"/><stop offset=".12" stop-color="#f8db77"/><stop offset=".21" stop-color="#ffee96"/><stop offset=".446" stop-color="#a2621e"/><stop offset=".667" stop-color="#eea54c"/><stop offset="1" stop-color="#eebe47"/></linearGradient><path fill="url(#ae)" d="M110.001 163.395v-27.192h-4.537v-3.719c1.277-.15 2.494-.634 3.649-1.451 1.155-.817 1.986-1.808 2.493-2.973h3.72v35.335h-5.325z"/><linearGradient id="af" gradientUnits="userSpaceOnUse" x1="108.41" y1="128.488" x2="209.45" y2="215.218"><stop offset="0" stop-color="#eebe47"/><stop offset=".12" stop-color="#f8db77"/><stop offset=".21" stop-color="#ffee96"/><stop offset=".446" stop-color="#a2621e"/><stop offset=".667" stop-color="#eea54c"/><stop offset="1" stop-color="#eebe47"/></linearGradient><path fill="url(#af)" d="M136.881 155.336c0 2.349-.827 4.34-2.48 5.973-1.653 1.635-3.634 2.452-5.945 2.452-2.349 0-4.345-.822-5.988-2.466-1.644-1.643-2.466-3.63-2.466-5.959v-19.274c0-2.349.826-4.344 2.48-5.988 1.652-1.643 3.645-2.465 5.974-2.465 2.348 0 4.339.828 5.974 2.48 1.635 1.653 2.452 3.644 2.452 5.974v19.273zm-5.523-19.387c0-.846-.301-1.568-.902-2.169a2.957 2.957 0 00-2.169-.902c-.846 0-1.564.301-2.156.902a2.984 2.984 0 00-.887 2.169v19.301c0 .846.296 1.569.887 2.171a2.91 2.91 0 002.156.902 2.96 2.96 0 002.169-.902 2.962 2.962 0 00.902-2.171v-19.301z"/><linearGradient id="ag" gradientUnits="userSpaceOnUse" x1="117.519" y1="117.876" x2="218.559" y2="204.606"><stop offset="0" stop-color="#eebe47"/><stop offset=".12" stop-color="#f8db77"/><stop offset=".21" stop-color="#ffee96"/><stop offset=".446" stop-color="#a2621e"/><stop offset=".667" stop-color="#eea54c"/><stop offset="1" stop-color="#eebe47"/></linearGradient><path fill="url(#ag)" d="M158.353 155.336c0 2.349-.827 4.34-2.479 5.973-1.653 1.635-3.635 2.452-5.946 2.452-2.347 0-4.343-.822-5.987-2.466-1.644-1.643-2.466-3.63-2.466-5.959v-19.274c0-2.349.826-4.344 2.48-5.988 1.654-1.643 3.644-2.465 5.973-2.465 2.349 0 4.34.828 5.975 2.48 1.634 1.653 2.451 3.644 2.451 5.974v19.273zm-5.523-19.387c0-.846-.301-1.568-.902-2.169s-1.324-.902-2.169-.902-1.563.301-2.156.902a2.984 2.984 0 00-.887 2.169v19.301c0 .846.296 1.569.887 2.171.593.602 1.312.902 2.156.902s1.567-.301 2.169-.902.902-1.325.902-2.171v-19.301z"/><linearGradient id="ah" gradientUnits="userSpaceOnUse" x1="128.039" y1="105.62" x2="229.079" y2="192.35"><stop offset="0" stop-color="#eebe47"/><stop offset=".12" stop-color="#f8db77"/><stop offset=".21" stop-color="#ffee96"/><stop offset=".446" stop-color="#a2621e"/><stop offset=".667" stop-color="#eea54c"/><stop offset="1" stop-color="#eebe47"/></linearGradient><path fill="url(#ah)" d="M170.863 141.049c0 1.203-.438 2.236-1.311 3.1-.874.865-1.912 1.296-3.114 1.296-1.221 0-2.263-.432-3.127-1.296-.864-.864-1.297-1.897-1.297-3.1v-10.087c0-1.221.433-2.263 1.297-3.127.864-.865 1.906-1.297 3.127-1.297 1.222 0 2.264.437 3.128 1.31.864.874 1.297 1.912 1.297 3.114v10.087zm-4.029 22.937h-3.129l18.037-37.363h3.097l-18.005 37.363zm-2.086-22.993c0 .451.154.832.465 1.142a1.55 1.55 0 001.141.465c.452 0 .832-.154 1.142-.465.312-.31.465-.691.465-1.142v-10.088c0-.451-.153-.831-.465-1.141a1.553 1.553 0 00-1.142-.464c-.449 0-.83.155-1.141.464-.311.31-.465.69-.465 1.141v10.088zm17.386 3.691c1.221 0 2.259.437 3.114 1.31.854.874 1.281 1.912 1.281 3.114v10.087c0 1.222-.432 2.255-1.295 3.1-.865.846-1.899 1.269-3.101 1.269-1.222 0-2.265-.427-3.128-1.282-.864-.854-1.296-1.883-1.296-3.086v-10.087c0-1.222.432-2.263 1.296-3.128.864-.864 1.907-1.297 3.129-1.297zm1.521 4.368c0-.45-.155-.831-.465-1.142a1.555 1.555 0 00-1.142-.465c-.45 0-.831.156-1.141.465-.31.311-.465.691-.465 1.142v10.088c0 .45.155.831.465 1.142.31.309.69.465 1.141.465.451 0 .832-.156 1.142-.465.31-.311.465-.691.465-1.142v-10.088z"/></svg>