<?xml version="1.0" encoding="utf-8"?>
<!-- Generator: Adobe Illustrator 16.0.0, SVG Export Plug-In . SVG Version: 6.00 Build 0)  -->
<!DOCTYPE svg PUBLIC "-//W3C//DTD SVG 1.1//EN" "http://www.w3.org/Graphics/SVG/1.1/DTD/svg11.dtd">
<svg version="1.1" id="Layer_1" xmlns="http://www.w3.org/2000/svg" xmlns:xlink="http://www.w3.org/1999/xlink" x="0px" y="0px"
	 width="287.997px" height="287.998px" viewBox="0 0 287.997 287.998" enable-background="new 0 0 287.997 287.998"
	 xml:space="preserve">
<g>
	<g>
		<defs>
			<path id="SVGID_1_" d="M60.289,146.294v0.682c0,54.322,39.63,90.877,85.411,90.877c31.432,0,50.84-16.295,62.565-29.898
				c7.189-8.342,13.709-19.316,14.536-30.527c0.112-1.516,0.084-3.029-0.108-4.535c-0.032-0.215-0.305-0.313-0.445-0.152
				c-20.192,23.432-45.392,12.766-61.719,23.926c-9.765,6.676-9.636,12.244-10.743,15.34c-0.309,0.861-0.577,1.977-0.842,3.15
				c12.99,2.621,21.82-1.734,21.82-1.734l-6.668-7.273c19.864,1.75,34.744-6.074,34.744-6.074
				c-12.723,9.912-24.911,10.584-24.911,10.584l5.091,4.943c-12.416,5.945-25.163,7.285-36.244,6.436
				c-7.246-0.383-14.313-1.898-20.955-4.496c-0.047-0.018-0.092-0.035-0.14-0.051l0.014-0.002
				c-22.938-9.02-40.786-30.854-43.509-62.604c-0.081-0.723-0.161-1.24-0.202-1.947c-0.253-4.127-0.329-9.468,0.092-14.739
				c3.167-38.485,29.774-67.408,64.207-67.408c39.971,0,60.129,32.456,62.521,67.649h-53.83h-4.42v16.084l4.39-0.004h62.704
				c5.471,0.152,9.263-5.871,9.263-9.969c0-49.879-31.091-89.131-79.943-89.131C95.819,55.418,60.289,95.73,60.289,146.294"/>
		</defs>
		<clipPath id="SVGID_2_">
			<use xlink:href="#SVGID_1_"  overflow="visible"/>
		</clipPath>
		
			<linearGradient id="SVGID_3_" gradientUnits="userSpaceOnUse" x1="-276.7256" y1="447.0781" x2="-274.6704" y2="447.0781" gradientTransform="matrix(-41.9375 50.325 50.325 41.9375 -33913.8477 -4735.2529)">
			<stop  offset="0" style="stop-color:#0B489D"/>
			<stop  offset="0.0519" style="stop-color:#155596"/>
			<stop  offset="0.099" style="stop-color:#1C608C"/>
			<stop  offset="0.2394" style="stop-color:#2E7D74"/>
			<stop  offset="0.39" style="stop-color:#3C9362"/>
			<stop  offset="0.5538" style="stop-color:#45A354"/>
			<stop  offset="0.7405" style="stop-color:#4BAC4C"/>
			<stop  offset="1" style="stop-color:#4DAF4A"/>
		</linearGradient>
		<polygon clip-path="url(#SVGID_2_)" fill="url(#SVGID_3_)" points="312.635,130.187 156.264,317.833 -29.433,163.085 
			126.938,-24.561 		"/>
	</g>
	<path fill="#0B489D" d="M201.718,81.876c-4.416,3.557-8.779,7.17-13.038,10.907c9.036,11.565,14.271,26.59,15.848,42.383
		c0.175,1.746-1.188,3.271-2.942,3.271H146.64l-0.028,16.081h67.037c5.471,0.152,9.261-5.869,9.261-9.971
		C222.91,119.9,215.3,97.87,201.718,81.876"/>
	<path fill="#0B489D" d="M151.869,137.695v-0.385c0-8.31-6.738-15.046-15.048-15.046h-14.256c-2.922,0-5.293,2.369-5.293,5.295
		v4.195H101.7c-0.832,0-1.506,0.674-1.506,1.503v4.942c0,0.833,0.674,1.503,1.506,1.503h15.571v11.416H101.7
		c-0.832,0-1.506,0.672-1.506,1.506v4.939c0,0.83,0.674,1.504,1.506,1.504h15.571v4.299c0,2.924,2.372,5.295,5.293,5.295h14.256
		c7.812,0,14.229-5.953,14.972-13.568 M142.314,153.614c0,3.033-2.459,5.492-5.493,5.492h-8.549c-0.798,0-1.445-0.648-1.445-1.445
		v-24.397c0-0.799,0.647-1.445,1.445-1.445h8.549c3.028,0,5.493,2.463,5.493,5.492V153.614z"/>
	<g>
		<defs>
			<path id="SVGID_4_" d="M222.248,172.739c-20.192,23.432-45.392,12.766-61.719,23.926c-9.765,6.676-9.636,12.244-10.743,15.34
				c-0.309,0.861-0.577,1.977-0.842,3.15c12.99,2.621,21.82-1.734,21.82-1.734l-6.668-7.273c19.864,1.75,34.744-6.074,34.744-6.074
				c-12.723,9.912-24.911,10.584-24.911,10.584l5.091,4.943c-12.527,5.998-25.391,7.311-36.54,6.41
				c-0.051-0.004-0.104-0.004-0.155-0.008c-1.764,5.139-3.554,10.27-5.344,15.4c2.877,0.293,5.785,0.449,8.719,0.449
				c31.432,0,50.84-16.295,62.565-29.898c7.189-8.342,13.709-19.316,14.536-30.527c0.112-1.516,0.084-3.029-0.108-4.535
				c-0.022-0.139-0.145-0.232-0.269-0.232C222.36,172.659,222.295,172.685,222.248,172.739"/>
		</defs>
		<clipPath id="SVGID_5_">
			<use xlink:href="#SVGID_4_"  overflow="visible"/>
		</clipPath>
		
			<linearGradient id="SVGID_6_" gradientUnits="userSpaceOnUse" x1="-273.9619" y1="453.3564" x2="-271.9063" y2="453.3564" gradientTransform="matrix(-13.1055 30.4047 30.4047 13.1055 -17168.6328 2533.2188)">
			<stop  offset="0" style="stop-color:#4DAF4A"/>
			<stop  offset="1" style="stop-color:#4DAF4A"/>
		</linearGradient>
		<polygon clip-path="url(#SVGID_5_)" fill="url(#SVGID_6_)" points="246.61,182.876 209.45,269.089 113.283,227.64 
			150.445,141.425 		"/>
	</g>
</g>
</svg>
